M48
METRIC
T01C.2
T02C.41
T03C.75
T04C1.
T05C1.02
T06C1.02
T07C3.
;LEADER: 12 
;HEADER: 
;CODE  : ASCII 
;FILE  : HT_EVAL_BOARD_V2-16-1-2.drl for  ... layers TOP and BOTTOM
;DESIGN: HT_EVAL_BOARD_V2-16.brd
;T01 Holesize 1. = 0.200000 Tolerance = +0.000000/-0.000000 PLATED MM Quantity = 394
;T02 Holesize 2. = 0.410000 Tolerance = +0.000000/-0.000000 PLATED MM Quantity = 18
;T03 Holesize 3. = 0.750000 Tolerance = +0.000000/-0.000000 PLATED MM Quantity = 2
;T04 Holesize 4. = 1.000000 Tolerance = +0.000000/-0.000000 PLATED MM Quantity = 10
;T05 Holesize 5. = 1.020000 Tolerance = +0.000000/-0.000000 PLATED MM Quantity = 8
;T06 Holesize 6. = 1.020000 Tolerance = +0.050000/-0.050000 PLATED MM Quantity = 40
;T07 Holesize 7. = 3.000000 Tolerance = +0.000000/-0.000000 PLATED MM Quantity = 4
%
G90
T01
X4886000Y5872000
X3855500Y5676500
X4444500Y5969500
X6832000Y5917000
X1380500Y1524500
X1742000Y1614000
X4512000Y3472000
X4745000Y3226000
X4951000Y2934000
X3230000Y3490000
X3372000Y2165000
X4385000Y2165000
X2828000Y0568000
X2787000Y1217000
X4609000Y2458000
X2639000Y6434500
X2266000Y6668000
X2616500Y6779500
X1630000Y5011000
X4270000Y4266000
X1636000Y4361000
X0284000Y5846000
X0286000Y5510000
X0909000Y3494000
X0764000Y5710000
X1863000Y5342000
X0990000Y4837000
X1002000Y4200000
X0950000Y2219000
X1930000Y0638000
X2571000Y2205000
X2940000Y2030000
X1081000Y1747000
X0805000Y1691000
X1323000Y0438000
X1321000Y0959000
X1318000Y1970000
X4791000Y6331000
X3679000Y7523000
X4129000Y7529000
X4478000Y7527000
X4128000Y7803000
X4128000Y8144000
X3687000Y7803000
X3687000Y8145000
X2014000Y2862000
X3366000Y2463000
X4996000Y3147000
X2846000Y0355000
X2207000Y1205000
X1326000Y1233000
X1326000Y0664000
X1743000Y2420000
X1718000Y0613000
X1729000Y1004000
X3503000Y0263000
X2986000Y0652000
X3460000Y3238000
X4898000Y5740000
X3987000Y1774000
X4907000Y0049000
X6313000Y0094000
X5972000Y0094000
X4266000Y0053000
X4096000Y0090000
X3776000Y0095000
X3240000Y0094000
X2899000Y0094000
X2557000Y0094000
X1874000Y0094000
X1537000Y0094000
X1195000Y0094000
X0854000Y0094000
X0515000Y0094000
X0504000Y0297000
X0280000Y0503000
X4893000Y0347000
X4189000Y0976000
X4095000Y0670000
X4392000Y3457000
X2218000Y2433000
X4445000Y6331000
X4050000Y5779000
X4549000Y5730000
X5357000Y5735000
X4208000Y3462000
X4765000Y2553000
X4766000Y2228000
X2248000Y1365000
X4006000Y1482000
X3729000Y1678000
X6540000Y0381000
X6463000Y7936000
X2463000Y3681000
X3815000Y2003000
X3586000Y1195000
X3085000Y2884000
X2634000Y5845000
X3735000Y6287000
X3735000Y6697000
X3265000Y6287000
X3265000Y6697000
X3500000Y6287000
X3500000Y6697000
X3735000Y6492000
X3265000Y6492000
X1856000Y3325000
X1417000Y2969000
X1410000Y3627000
X1858000Y3581000
X3244000Y3678000
X3318000Y5540000
X3521000Y5539000
X2831000Y5082000
X3005000Y5173000
X3345000Y8145000
X3344000Y7805000
X1413000Y4520000
X1413000Y3862000
X1413000Y4192000
X1413000Y5839000
X1413000Y6168000
X1744000Y6813000
X2073000Y6816000
X3500000Y6492000
X2509000Y1550000
X6942000Y0568000
X3760000Y3237000
X4492000Y2407000
X3810000Y2537000
X3672000Y2330000
X2175000Y3677000
X6675000Y7755000
X4257000Y7073000
X4052000Y7213000
X2732000Y7225000
X2976000Y5726000
X4299000Y5976000
X2605000Y6959000
X5217000Y0666000
X4716000Y0680000
X3487000Y0652000
X3506000Y0093000
X1410000Y6811000
X0988000Y4470000
X1821000Y2965000
X3146000Y2324000
X4851000Y7525000
X4847000Y6964000
X4489000Y6964000
X5674000Y6962000
X2964000Y3207000
X3736000Y3368000
X3506000Y3577000
X2514000Y2891000
X2240000Y2867000
X2597000Y2488000
X2715000Y1534000
X2804000Y1316000
X2734000Y1019000
X0746000Y1029000
X0753000Y0711000
X0754000Y0441000
X5558000Y0918000
X6354000Y0586000
X6350000Y1461000
X6350000Y1697000
X6347000Y1955000
X6098000Y4209000
X6181000Y3705000
X6195000Y3422000
X4674000Y3981000
X4384000Y3980000
X4049000Y3987000
X3816000Y4145000
X3398000Y3987000
X5364000Y7484000
X5364000Y7814000
X6023000Y7814000
X5694000Y7486000
X5694000Y7815000
X6746000Y0515000
X6682000Y1229000
X6682000Y5511000
X6682000Y5841000
X6683000Y6194000
X6682000Y6499000
X6682000Y6829000
X6682000Y7158000
X6682000Y7488000
X6352000Y8146000
X6352000Y7488000
X6352000Y3205000
R02Y-0329000
X6352000Y1229000
X6352000Y0899000
X6399000Y0238000
X6023000Y5182000
X6023000Y5511000
X6023000Y5841000
X6023000Y6196000
X6023000Y8146000
X5694000Y8146000
X6021000Y6483000
X5694000Y2217000
X5707000Y0237000
X5364000Y1229000
X5364000Y3864000
X5364000Y4523000
X5364000Y4852000
X5397000Y5140000
X5474000Y6322000
X5364000Y8146000
X5035000Y8146000
X5065000Y7816000
X5063000Y6327000
X5035000Y4852000
X5035000Y5182000
X5035000Y3864000
X4705000Y1229000
X4705000Y1558000
X4638000Y3210000
X4639000Y3460000
X4705000Y8146000
X4470000Y8144000
X4485000Y7814000
X4007000Y1153000
X4043000Y3467000
X4046000Y4852000
R02X-0329000
X3388000Y5182000
X3337000Y7516000
X3058000Y8146000
X3058000Y7817000
X3058000Y4194000
X2946000Y2705000
X3058000Y1888000
X2732000Y3205000
X2976000Y3681000
X2732000Y4194000
X2732000Y4852000
X2732000Y7817000
X2732000Y8146000
X2403000Y8146000
X2403000Y7817000
X2403000Y5182000
X2403000Y4852000
X2411000Y4205000
X1989000Y2002000
X2173000Y3358000
X2073000Y4852000
X2073000Y5841000
X2073000Y6170000
X2368000Y7422000
X2073000Y7817000
X2073000Y8146000
X1744000Y6170000
X1744000Y5841000
X1744000Y4194000
X1744000Y2217000
X1674000Y1879000
X1744000Y0241000
X1467000Y1719000
X1894000Y1694000
X1312000Y2219000
X1398000Y2526000
X1410000Y3386000
X1415000Y7488000
X1085000Y7488000
X1085000Y7817000
X1415000Y7817000
X1744000Y8146000
X1415000Y8146000
X1085000Y8146000
X1086000Y6807000
X0688000Y6446000
X1098000Y5238000
X1325000Y1419000
X0758000Y0222000
X0765000Y1381000
X0756000Y1888000
X0756000Y2217000
X0756000Y2547000
R02Y0329000
X0756000Y6170000
X0273000Y7566000
X0756000Y8146000
X0426000Y8146000
X0426000Y7817000
X0426000Y7488000
X0426000Y6829000
X0098000Y0570000
X0098000Y0899000
X0098000Y1229000
X0098000Y1558000
X0098000Y1888000
X0098000Y2217000
X0098000Y2547000
R02Y0329000
X0098000Y3535000
X0098000Y3864000
X0098000Y4194000
R02Y0329000
X0098000Y5182000
X0098000Y5511000
X0098000Y5841000
R02Y0329000
X0098000Y6829000
X0098000Y7158000
X0098000Y7488000
X0098000Y7817000
X1972000Y6715000
X1972500Y6992500
X2150000Y7314000
X3327000Y7296000
X3641500Y7379500
X6340000Y7067000
X5863000Y7193000
X3765000Y7354000
X5148000Y6434500
X2983000Y5061000
X5279000Y5061000
X5141000Y4949000
X2839500Y4949500
X4372000Y6204000
X0888000Y5457000
X0286000Y5230000
X3377000Y1443000
X3268000Y2058000
X2616000Y5255000
X5377000Y5255000
X6678000Y5179000
X5240000Y5362000
X2448000Y5362000
X6910500Y5267500
X6494850Y6743850
X4366000Y6089000
X6707520Y6098520
X6419000Y6623000
X2721000Y7112000
X0524600Y6240000
X6595000Y6307000
X4856000Y3689000
X4366000Y3689000
X3351000Y3054000
X2941000Y2444000
X2564000Y6549500
X1981000Y0285000
X3791000Y1102000
X3859000Y2779000
X4101000Y2253000
X2972000Y2843000
X2938500Y3045500
X2212000Y3098000
X2007500Y1861500
X4978000Y6915000
X4978000Y5949000
X4934000Y5191000
X4117000Y5158000
X3442500Y5627000
X3456000Y2537000
X3456000Y2262000
X5631000Y2833000
X4519000Y5601000
X4017000Y1925000
X3978000Y2235000
X3568000Y2467000
X4008000Y1673000
X4338000Y5526000
X3282000Y1306000
X3885000Y1798000
X4711000Y5724000
X4711000Y6929000
X2859000Y2184000
X3118000Y2443000
X5121000Y2784000
X4920000Y3571000
X4215000Y3570000
X3551000Y3110000
X1797000Y0686000
X3248000Y2882000
X3066210Y3193000
X2683350Y2172650
X3453000Y3789000
X1999000Y3310000
X2527000Y3293000
X4295000Y3916000
X1457000Y3227000
T02
X4000000Y8182000
X4000000Y8097000
X4000000Y8011000
X4000000Y7926000
X4000000Y7840000
X4000000Y7755000
X3805000Y8182000
X3805000Y8096000
X3805000Y8011000
X3805000Y7925000
X3805000Y7840000
X3805000Y7755000
X4000000Y7670000
X4000000Y7585000
X3805000Y7670000
R02Y-0085000
X4000000Y7500000
T03
X2912000Y4554000
X3400000Y4554000
T04
X4700000Y4734000
X4700000Y4480000
X2266000Y4951000
X2266000Y5205000
X4398000Y4734000
X4398000Y4480000
X0974000Y6124000
X0974000Y5870000
X2324000Y4097000
X2324000Y3843000
T05
X1545000Y0323000
X5361000Y1701000
X4413000Y1051000
X1086000Y3860000
X5913000Y2488000
X1087000Y1574000
X5913000Y0304000
X1546000Y2590000
T06
X1545000Y0577000
R03Y0254000
X5361000Y1955000
R02Y0254000
X4413000Y1305000
R02Y0254000
X1086000Y3606000
R06Y-0254000
X5913000Y2742000
R08Y0254000
X1087000Y1320000
R04Y-0254000
X5913000Y0558000
R06Y0254000
X1546000Y2336000
X1546000Y2082000
T07
X0250000Y0250000
X0250000Y8000000
X6750000Y8000000
X6750000Y0250000
M30
