G04 Output by ViewMate Pro V11.14.21  PentaLogix*
G04 Mon Dec 02 16:12:07 2019*
%IPPOS*%
%FSLAX25Y25*%
%MOIN*%
%ADD10C,0.003937*%
G04:---LTIenv:A600:11,0 *
%ADD600C,0.0*%

%LPD*%
X0Y0D2*G36*G1X219793Y205191D2*X219992Y204634D1*X220226Y204111*X220493Y203622*X220794Y203170*X221126Y202755*X221489Y202379*X221882Y202044*X222090Y201891*X222304Y201750*X222526Y201620*X222754Y201500*X222990Y201392*X223232Y201295*X223480Y201210*X223735Y201137*X223996Y201075*X224264Y201026*X224537Y200989*X224816Y200965*X225102Y200953*X225393Y200954*X225794Y200973*X226178Y201009*X226547Y201063*X226902Y201136*X227242Y201228*X227570Y201339*X227886Y201471*X228190Y201625*X228484Y201800*X228768Y201998*X229044Y202219*X229311Y202464*X229571Y202734*X229825Y203029*X230074Y203350*X230318Y203698*X230558Y204073*X230794Y204476*X231029Y204908*X231263Y205370*X231496Y205861*X231607Y206105*X231705Y206314*X231800Y206510*X231893Y206693*X231983Y206862*X232070Y207017*X232154Y207160*X232236Y207289*X232315Y207405*X232391Y207509*X232463Y207599*X232533Y207677*X232599Y207743*X232661Y207796*X232777Y207866*X232878Y207887*X232964Y207862*X233034Y207790*X233088Y207673*X233126Y207511*X233146Y207306*X233148Y207059*X233131Y206770*X233095Y206441*X233039Y206072*X232963Y205664*X232865Y205219*X232745Y204737*X232677Y204482*X232628Y204304*X232558Y204043*X232496Y203801*X232442Y203576*X232397Y203367*X232360Y203174*X232332Y202995*X232314Y202829*X232304Y202676*X232303Y202533*X232312Y202401*X232331Y202277*X232397Y202052*X232503Y201850*X232650Y201663*X232839Y201481*X233071Y201297*X233323Y201128*X233587Y200983*X233862Y200863*X234145Y200766*X234433Y200693*X234726Y200643*X235020Y200614*X235314Y200608*X235606Y200623*X235892Y200659*X236172Y200715*X236443Y200791*X236703Y200888*X236949Y201003*X237180Y201136*X237394Y201288*X237588Y201458*X237760Y201645*X237908Y201849*X238030Y202069*X238124Y202305*X238142Y202366*X238164Y202444*X238208Y202619*X238291Y202989*X238364Y203382*X238427Y203796*X238481Y204227*X238525Y204673*X238560Y205130*X238602Y206070*X238606Y207024*X238574Y207970*X238544Y208433*X238505Y208885*X238456Y209324*X238399Y209747*X238333Y210152*X238258Y210534*X238174Y210892*X238081Y211223*X237979Y211524*X237859Y211812*X237716Y212093*X237553Y212367*X237371Y212631*X237170Y212887*X236953Y213133*X236719Y213369*X236471Y213593*X236209Y213805*X235934Y214004*X235647Y214190*X235350Y214361*X235043Y214518*X234729Y214659*X234407Y214783*X234079Y214890*X233746Y214980*X233409Y215051*X233069Y215102*X232728Y215134*X232386Y215144*X232089Y215127*X231783Y215077*X231469Y214996*X231149Y214884*X230825Y214744*X230498Y214578*X230170Y214386*X229843Y214171*X229519Y213934*X229200Y213676*X228886Y213399*X228581Y213105*X228285Y212795*X228001Y212471*X227730Y212134*X227474Y211787*X227234Y211429*X227013Y211064*X226812Y210692*X226634Y210316*X226478Y209936*X226443Y209841*X226435Y209817*X225639Y207555*X225637Y207553*X225289Y210946*X225249Y211294*X225210Y211611*X225169Y211898*X225125Y212158*X225078Y212392*X225025Y212602*X224967Y212789*X224901Y212956*X224827Y213104*X224744Y213234*X224650Y213349*X224544Y213450*X224426Y213539*X224293Y213617*X224145Y213687*X223981Y213749*X223800Y213807*X223600Y213860*X223380Y213912*X222998Y213992*X222832Y214024*X222517Y214074*X222224Y214107*X221951Y214121*X221699Y214116*X221465Y214090*X221249Y214042*X221050Y213971*X220866Y213877*X220698Y213757*X220543Y213611*X220401Y213439*X220270Y213237*X220151Y213007*X220041Y212746*X219939Y212453*X219846Y212128*X219759Y211769*X219677Y211375*X219601Y210946*X219528Y210479*X219492Y210232*X219478Y210131*X219448Y209893*X219378Y209145*X219349Y208420*X219361Y207720*X219412Y207045*X219502Y206398*X219629Y205779*X219793Y205191*G37*G36*G1X217824Y216126D2*X218072Y216252D1*X218301Y216399*X218510Y216568*X218699Y216759*X218869Y216973*X219020Y217209*X219151Y217467*X219264Y217748*X219358Y218052*X219433Y218378*X219468Y218556*X219501Y218710*X219531Y218841*X219558Y218947*X219583Y219029*X219606Y219086*X219627Y219119*X219647Y219127*X219664Y219110*X219681Y219067*X219696Y218999*X219710Y218905*X219724Y218786*X219736Y218640*X219748Y218469*X219760Y218271*X219772Y218046*X219856Y216360*X219918Y216359*X238135*X238142Y216403*X237777Y222733*X237725Y222738*X220177*X220159Y222736*X219751Y219848*X219745Y219841*X218998Y221340*X218789Y221705*X218562Y222004*X218307Y222243*X218010Y222428*X217659Y222564*X217241Y222657*X217004Y222689*X216746Y222712*X216465Y222728*X216160Y222736*X215492Y222734*X215187Y222723*X214908Y222704*X214654Y222677*X214422Y222639*X214212Y222591*X214019Y222531*X213683Y222370*X213397Y222148*X213145Y221858*X212910Y221489*X212794Y221273*X212691Y221064*X212665Y221009*X212486Y220570*X212358Y220135*X212279Y219707*X212247Y219289*X212261Y218882*X212320Y218490*X212422Y218114*X212566Y217759*X212751Y217425*X212975Y217116*X213237Y216834*X213536Y216583*X213869Y216363*X214237Y216178*X214636Y216031*X215067Y215924*X215522Y215860*X215912Y215833*X216282Y215828*X216631Y215844*X216959Y215882*X217268Y215942*X217556Y216023*X217824Y216126*G37*G36*G1X227135Y242542D2*X227666Y242549D1*X228211Y242557*X228772Y242567*X229942Y242592*X230168Y242598*X237762Y242785*X237777Y242787*X238144Y249164*X232086*X231396Y249166*X230756Y249172*X230455Y249176*X230166Y249182*X229889Y249189*X229623Y249197*X229369Y249207*X229126Y249219*X228893Y249233*X228671Y249248*X228459Y249266*X228258Y249286*X228066Y249308*X227884Y249333*X227711Y249361*X227547Y249391*X227392Y249424*X227245Y249460*X227107Y249499*X226977Y249542*X226855Y249588*X226740Y249638*X226633Y249691*X226533Y249748*X226439Y249808*X226353Y249873*X226272Y249942*X226198Y250016*X226129Y250093*X226066Y250176*X226009Y250263*X225956Y250354*X225866Y250553*X225793Y250772*X225735Y251013*X225691Y251277*X225658Y251565*X225635Y251877*X225619Y252216*X225609Y252581*X225570Y254628*X225572Y254632*X228986Y254634*X229216Y254636*X229669Y254651*X230110Y254679*X230541Y254720*X230961Y254774*X231371Y254841*X231769Y254921*X232158Y255015*X232536Y255122*X232904Y255243*X233262Y255377*X233610Y255524*X233948Y255685*X234276Y255860*X234595Y256048*X234903Y256250*X235202Y256466*X235492Y256695*X235772Y256938*X236043Y257195*X236304Y257466*X236557Y257751*X236800Y258050*X237034Y258363*X237260Y258689*X237476Y259031*X237609Y259256*X237733Y259487*X237849Y259722*X237957Y259961*X238057Y260204*X238149Y260451*X238233Y260701*X238310Y260954*X238379Y261209*X238440Y261468*X238493Y261728*X238539Y261991*X238578Y262255*X238609Y262521*X238632Y262788*X238649Y263055*X238657Y263324*X238659Y263593*X238654Y263862*X238641Y264131*X238621Y264399*X238595Y264667*X238561Y264934*X238521Y265200*X238473Y265464*X238419Y265727*X238358Y265988*X238291Y266246*X238216Y266502*X238136Y266755*X238048Y267005*X237955Y267252*X237854Y267495*X237748Y267735*X237635Y267970*X237516Y268201*X237391Y268427*X237260Y268648*X237122Y268864*X236979Y269075*X236830Y269280*X236674Y269479*X236513Y269672*X236346Y269859*X236174Y270038*X235995Y270211*X235811Y270376*X235622Y270534*X235427Y270684*X235226Y270825*X235021Y270959*X234960Y270996*X234681Y271160*X234305Y271365*X233926Y271555*X233544Y271729*X233159Y271889*X232772Y272033*X232383Y272163*X231992Y272278*X231601Y272378*X231209Y272464*X230816Y272535*X230424Y272593*X230033Y272637*X229642Y272667*X229253Y272683*X228865Y272686*X228480Y272675*X228098Y272651*X227718Y272614*X227341Y272565*X226969Y272502*X226601Y272427*X226237Y272339*X225878Y272240*X225525Y272128*X225177Y272004*X224836Y271868*X224501Y271720*X224173Y271561*X223853Y271390*X223540Y271208*X223236Y271015*X222940Y270811*X222654Y270596*X222376Y270371*X222109Y270135*X221851Y269889*X221605Y269632*X221369Y269365*X221145Y269089*X220933Y268802*X220732Y268506*X220545Y268201*X220370Y267886*X220209Y267562*X220062Y267229*X219929Y266886*X219810Y266536*X219707Y266176*X219619Y265808*X219547Y265432*X219531Y265337*X219505Y265159*X219479Y264960*X219438Y264564*X219410Y264170*X219396Y263781*Y263395*X219410Y263013*X219437Y262636*X219477Y262264*X219531Y261896*X219598Y261535*X219679Y261179*X219772Y260829*X219878Y260486*X219997Y260150*X220129Y259821*X220273Y259500*X220429Y259186*X220598Y258881*X220779Y258584*X220973Y258296*X221178Y258017*X221395Y257748*X221624Y257488*X221865Y257239*X222117Y257000*X222247Y256884*X224108Y255318*X224102Y255316*X221921Y255105*X221724Y255083*X221541Y255059*X221373Y255033*X221218Y255003*X221076Y254969*X220946Y254929*X220828Y254883*X220720Y254829*X220623Y254766*X220534Y254694*X220454Y254612*X220382Y254518*X220317Y254411*X220259Y254291*X220206Y254157*X220159Y254007*X220116Y253841*X220076Y253657*X220040Y253455*X220005Y253233*X219972Y252991*X219940Y252728*X219908Y252442*X219842Y251805*X219811Y251497*X219780Y251213*X219750Y250952*X219721Y250714*X219692Y250497*X219663Y250303*X219633Y250129*X219603Y249976*X219570Y249843*X219536Y249729*X219500Y249634*X219462Y249557*X219420Y249497*X219375Y249455*X219326Y249429*X219274Y249418*X219216Y249423*X219154Y249443*X219087Y249477*X219014Y249524*X218935Y249584*X218849Y249657*X218757Y249741*X218657Y249836*X218524Y249969*X218461Y250034*X218309Y250211*X218176Y250395*X218060Y250588*X217963Y250792*X217884Y251006*X217823Y251232*X217779Y251471*X217752Y251724*X217742Y251992*X217749Y252276*X217773Y252578*X217813Y252897*X217871Y253268*X217897Y253452*X217919Y253625*X217936Y253786*X217948Y253936*X217955Y254076*X217957Y254205*X217952Y254326*X217942Y254437*X217926Y254541*X217904Y254636*X217874Y254724*X217839Y254805*X217795Y254880*X217745Y254949*X217687Y255012*X217622Y255071*X217548Y255126*X217466Y255176*X217376Y255224*X217277Y255269*X217169Y255312*X217051Y255353*X216925Y255392*X216735Y255446*X216509Y255505*X216156Y255594*X215823Y255671*X215510Y255736*X215216Y255789*X214939Y255831*X214681Y255859*X214439Y255875*X214214Y255878*X214004Y255868*X213809Y255844*X213628Y255806*X213461Y255754*X213307Y255688*X213165Y255608*X213034Y255512*X212915Y255401*X212805Y255275*X212705Y255134*X212614Y254976*X212531Y254802*X212455Y254612*X212387Y254405*X212324Y254182*X212267Y253941*X212215Y253682*X212139Y253245*X212077Y252812*X212028Y252383*X211993Y251960*X211971Y251542*X211962Y251130*X211966Y250724*X211983Y250325*X212013Y249933*X212056Y249548*X212111Y249171*X212179Y248802*X212260Y248442*X212353Y248091*X212458Y247749*X212575Y247417*X212705Y247096*X212846Y246785*X213000Y246485*X213165Y246196*X213342Y245919*X213531Y245655*X213731Y245403*X213943Y245164*X214166Y244938*X214281Y244830*X214411Y244716*X214684Y244493*X214970Y244284*X215270Y244088*X215586Y243906*X215922Y243736*X216279Y243579*X216659Y243435*X216858Y243367*X217064Y243302*X217276Y243240*X217496Y243181*X217724Y243125*X217959Y243072*X218202Y243021*X218453Y242973*X218713Y242928*X218982Y242886*X219259Y242846*X219547Y242809*X219843Y242774*X220150Y242742*X220466Y242712*X220794Y242685*X221131Y242660*X221480Y242637*X221840Y242617*X222211Y242599*X222595Y242584*X222990Y242570*X223398Y242559*X223818Y242550*X224251Y242543*X224697Y242538*X225157Y242535*X225630Y242534*X226117Y242535*X226619Y242537*X227135Y242542*G37*G36*G1X237281Y271642D2*X237390Y271653D1*X237494Y271694*X237588Y271766*X237674Y271868*X237751Y272002*X237819Y272168*X237879Y272366*X237931Y272597*X237976Y272862*X238012Y273161*X238040Y273496*X238061Y273865*X238074Y274271*X238080Y274713*X238081Y274970*X238079Y275262*X238076Y275537*X238071Y275796*X238063Y276039*X238052Y276268*X238038Y276483*X238021Y276686*X237999Y276876*X237973Y277055*X237943Y277224*X237907Y277384*X237820Y277679*X237708Y277946*X237570Y278192*X237402Y278425*X237201Y278651*X236966Y278876*X236692Y279108*X236540Y279229*X236377Y279354*X236203Y279484*X234290Y280898*X234316Y280920*X236184Y282102*X236361Y282216*X236528Y282325*X236683Y282431*X236828Y282533*X237088Y282734*X237309Y282934*X237495Y283140*X237649Y283359*X237773Y283599*X237872Y283867*X237912Y284013*X237947Y284169*X237977Y284335*X238002Y284513*X238023Y284702*X238040Y284905*X238054Y285122*X238064Y285354*X238071Y285601*X238076Y285865*X238079Y286146*X238081Y286446*Y286609*X238080Y286817*X238076Y287211*X238067Y287576*X238052Y287913*X238030Y288220*X238000Y288499*X237962Y288750*X237914Y288972*X237855Y289167*X237785Y289333*X237703Y289471*X237607Y289583*X237496Y289666*X237371Y289722*X237229Y289751*X237070Y289753*X236893Y289729*X236696Y289677*X236480Y289599*X236243Y289495*X235984Y289365*X235702Y289208*X235396Y289026*X235066Y288818*X234709Y288585*X234326Y288326*X233916Y288042*X233247Y287569*X233041Y287421*X232844Y287281*X232453Y287008*X232067Y286745*X231690Y286493*X231324Y286255*X230972Y286032*X230637Y285827*X230323Y285640*X230032Y285474*X229768Y285330*X229532Y285210*X229426Y285160*X229329Y285116*X229241Y285080*X229161Y285050*X229092Y285028*X229032Y285014*X228939Y285009*X228886Y285018*X228823Y285035*X228749Y285059*X228667Y285091*X228576Y285130*X228476Y285176*X228251Y285287*X227995Y285423*X227713Y285582*X227406Y285762*X227078Y285962*X226732Y286179*X226370Y286412*X225996Y286659*X225613Y286919*X225223Y287189*X224768Y287513*X224309Y287838*X223880Y288139*X223479Y288415*X223105Y288665*X222758Y288890*X222436Y289090*X222138Y289263*X221864Y289411*X221612Y289533*X221382Y289628*X221172Y289697*X220983Y289740*X220811Y289756*X220658Y289744*X220522Y289706*X220401Y289641*X220296Y289549*X220205Y289428*X220126Y289281*X220060Y289105*X220005Y288901*X219961Y288670*X219925Y288409*X219898Y288121*X219879Y287804*X219866Y287458*X219859Y287083*X219856Y286679*Y286344*X219858Y286051*X219861Y285776*X219867Y285518*X219876Y285277*X219887Y285050*X219901Y284839*X219920Y284640*X219942Y284455*X219969Y284281*X220000Y284119*X220037Y283966*X220126Y283688*X220241Y283440*X220384Y283214*X220558Y283005*X220765Y282805*X221009Y282606*X221145Y282506*X221292Y282403*X221450Y282298*X221707Y282131*X223611Y280926*X223618Y280920*X221658Y279525*X221489Y279402*X221330Y279283*X221182Y279168*X221044Y279056*X220797Y278837*X220586Y278619*X220409Y278394*X220262Y278157*X220144Y277899*X220050Y277614*X220012Y277459*X219979Y277295*X219951Y277120*X219927Y276935*X219907Y276737*X219892Y276526*X219879Y276302*X219870Y276063*X219863Y275808*X219859Y275537*X219856Y275248*Y274942*X219859Y274487*X219870Y274067*X219889Y273681*X219914Y273330*X219947Y273013*X219988Y272730*X220036Y272480*X220092Y272263*X220156Y272079*X220227Y271929*X220306Y271811*X220393Y271725*X220488Y271671*X220591Y271649*X220641Y271650*X220698Y271660*X220767Y271678*X220846Y271705*X220937Y271739*X221038Y271782*X221148Y271832*X221269Y271890*X221398Y271954*X221536Y272026*X221837Y272189*X222167Y272376*X222524Y272586*X222904Y272817*X223304Y273066*X223719Y273331*X224148Y273612*X224586Y273905*X225142Y274286*X229072Y277031*X229089Y277035*X232840Y274306*X233269Y273998*X233695Y273700*X234112Y273415*X234519Y273144*X234913Y272889*X235288Y272651*X235644Y272434*X235975Y272239*X236280Y272068*X236554Y271923*X236678Y271861*X236794Y271806*X236901Y271759*X236998Y271719*X237084Y271687*X237161Y271664*X237226Y271648*X237281Y271642*G37*G36*G1X221455Y227068D2*X221669Y226801D1*X221892Y226544*X222123Y226296*X222363Y226059*X222612Y225833*X222869Y225617*X223133Y225412*X223406Y225218*X223686Y225036*X223974Y224864*X224269Y224705*X224571Y224557*X224879Y224421*X225195Y224296*X225516Y224185*X225844Y224086*X226178Y223999*X226518Y223925*X226863Y223864*X227214Y223817*X227569Y223782*X227930Y223761*X228296Y223754*X228666Y223761*X229040Y223782*X229419Y223817*X229801Y223866*X230188Y223930*X230578Y224009*X230971Y224103*X231367Y224212*X231766Y224336*X232168Y224476*X232357Y224546*X232604Y224644*X232921Y224781*X233225Y224924*X233516Y225074*X233794Y225231*X234059Y225396*X234311Y225568*X234550Y225749*X234777Y225937*X234991Y226133*X235193Y226338*X235383Y226551*X235561Y226774*X235726Y227005*X235880Y227245*X236023Y227495*X236153Y227754*X236273Y228024*X236381Y228303*X236477Y228592*X236563Y228891*X236638Y229201*X236702Y229522*X236755Y229854*X236798Y230197*X236830Y230551*X236852Y230917*X236864Y231294*X236866Y231487*Y231612*X236867Y231784*X236870Y231949*X236875Y232106*X236881Y232256*X236889Y232398*X236899Y232533*X236910Y232660*X236923Y232779*X236937Y232892*X236954Y232996*X236972Y233094*X236991Y233183*X237013Y233266*X237036Y233341*X237061Y233409*X237088Y233469*X237116Y233522*X237146Y233568*X237178Y233606*X237211Y233637*X237247Y233661*X237284Y233678*X237323Y233688*X237364Y233690*X237406Y233686*X237451Y233674*X237497Y233655*X237545Y233629*X237591Y233596*X237634Y233556*X237676Y233507*X237714Y233450*X237751Y233385*X237785Y233312*X237817Y233231*X237846Y233142*X237873Y233045*X237898Y232940*X237920Y232827*X237939Y232707*X237957Y232579*X237971Y232443*X237984Y232299*X237994Y232149*X238001Y231990*X238007Y231824*X238009Y231651*Y231470*X238007Y231282*X238003Y231087*X237986Y230675*X237974Y230459*X237959Y230235*X237942Y230004*X237923Y229767*X237898Y229488*X237871Y229177*X237847Y228885*X237826Y228610*X237809Y228351*X237795Y228109*X237785Y227882*X237779Y227670*X237777Y227472*X237779Y227288*X237785Y227116*X237795Y226956*X237810Y226807*X237830Y226669*X237854Y226542*X237884Y226423*X237918Y226313*X237958Y226211*X238002Y226117*X238053Y226029*X238109Y225947*X238170Y225870*X238238Y225798*X238312Y225730*X238391Y225666*X238478Y225603*X238570Y225543*X238669Y225484*X238775Y225425*X238987Y225319*X239201Y225225*X239416Y225143*X239633Y225073*X239850Y225015*X240067Y224969*X240283Y224934*X240498Y224911*X240711Y224899*X240921Y224898*X241128Y224908*X241331Y224929*X241530Y224961*X241724Y225003*X241913Y225055*X242095Y225118*X242271Y225190*X242439Y225273*X242600Y225365*X242752Y225467*X242895Y225578*X243028Y225699*X243151Y225828*X243264Y225967*X243364Y226114*X243453Y226270*X243529Y226434*X243592Y226607*X243606Y226652*X243659Y226850*X243731Y227159*X243797Y227483*X243855Y227822*X243907Y228174*X243951Y228538*X243989Y228911*X244021Y229294*X244045Y229684*X244063Y230079*X244074Y230478*X244079Y230880*X244078Y231284*X244070Y231686*X244056Y232088*X244035Y232485*X244008Y232878*X243975Y233265*X243936Y233643*X243891Y234013*X243840Y234371*X243783Y234717*X243721Y235049*X243652Y235366*X243578Y235666*X243497Y235948*X243455Y236082*X243412Y236210*X243367Y236333*X243320Y236451*X243273Y236563*X243248Y236616*X243236Y236643*X243127Y236868*X243038Y237044*X242949Y237215*X242859Y237381*X242768Y237541*X242675Y237696*X242581Y237845*X242485Y237990*X242386Y238130*X242285Y238265*X242181Y238395*X242074Y238521*X241963Y238642*X241849Y238758*X241731Y238870*X241608Y238978*X241481Y239081*X241350Y239181*X241213Y239276*X241071Y239366*X240923Y239454*X240769Y239537*X240609Y239616*X240443Y239692*X240270Y239764*X240090Y239833*X239902Y239898*X239707Y239960*X239504Y240018*X239293Y240074*X239074Y240126*X238846Y240175*X238609Y240221*X238362Y240264*X238106Y240305*X237840Y240343*X237564Y240378*X237278Y240411*X236981Y240441*X236673Y240469*X236354Y240494*X236023Y240518*X235681Y240539*X235327Y240558*X234960Y240575*X234580Y240591*X234188Y240604*X233783Y240616*X233364Y240626*X232931Y240635*X232484Y240642*X232023Y240648*X231057Y240656*X230552Y240658*X230031Y240659*X229496*X228473Y240661*X226657Y240666*X225858*X225127Y240662*X224786Y240658*X224460Y240653*X224150Y240646*X223856Y240637*X223575Y240626*X223309Y240613*X223056Y240597*X222817Y240578*X222591Y240557*X222377Y240533*X222176Y240505*X221986Y240473*X221807Y240438*X221639Y240399*X221482Y240356*X221335Y240309*X221197Y240257*X221069Y240201*X220949Y240139*X220838Y240073*X220735Y240001*X220639Y239924*X220551Y239841*X220469Y239752*X220394Y239657*X220325Y239556*X220261Y239449*X220202Y239334*X220148Y239213*X220099Y239085*X220053Y238949*X220011Y238806*X219971Y238656*X219935Y238497*X219901Y238331*X219868Y238156*X219837Y237973*X219807Y237781*X219778Y237580*X219719Y237151*X219689Y236922*X219659Y236684*X219592Y236178*X219529Y235725*X219522Y235668*X219507Y235556*X219456Y235108*X219419Y234667*X219396Y234232*X219386Y233803*X219389Y233380*X219405Y232964*X219434Y232554*X219475Y232152*X219529Y231757*X219594Y231369*X219672Y230988*X219761Y230615*X219862Y230250*X219974Y229893*X220097Y229544*X220231Y229203*X220375Y228871*X220530Y228548*X220696Y228234*X220871Y227928*X221056Y227632*X221251Y227345*X221455Y227068*G37*G75*G36*G1X241302Y95000D2*G3X240276Y96027I-1027J0D1*X239249Y95000I0J-1027*X240276Y93973I1027J0*X241302Y95000I-1J1027*G37*G36*G1X241972Y8071D2*G3X240945Y9098I-1027J0D1*X239918Y8071I0J-1027*X240945Y7044I1027J0*X241972Y8071I0J1027*G37*G36*G1X219570Y66850D2*G3X218543Y67877I-1027J0D1*X217517Y66850I1J-1027*X218543Y65824I1026J0*X219570Y66850I0J1027*G37*G36*G1X184924Y100787D2*G3X183898Y101814I-1027J0D1*X182871Y100787I0J-1027*X183898Y99761I1027J1*X184924Y100787I0J1026*G37*G36*G1X182090Y41181D2*G3X181063Y42208I-1027J0D1*X180036Y41181I0J-1027*X181063Y40154I1027J0*X182090Y41181I0J1027*G37*G36*G1X109370Y153780D2*Y153307D1*X112520*Y153780*X109370*G37*G36*G1X104528Y61299D2*Y60827D1*X110039*Y61299*X104528*G37*G36*G1X113507Y9331D2*G3X112480Y10357I-1027J-1D1*X111454Y9331I0J-1026*X112480Y8304I1027J0*X113507Y9331I0J1027*G37*G36*G1X95984Y137717D2*Y137244D1*X99134*Y137717*X95984*G37*G36*G1X103468Y91850D2*G3X102441Y92877I-1027J0D1*X101414Y91850I0J-1027*X102441Y90824I1027J1*X103468Y91850I0J1027*G37*G36*G1X70515Y148228D2*G3X69488Y149255I-1027J0D1*X68461Y148228I0J-1027*X69488Y147202I1027J1*X70515Y148228I0J1027*G37*G36*G1X69846Y102205D2*G3X68819Y103231I-1027J-1D1*X67792Y102205I0J-1027*X68819Y101178I1027J0*X69846Y102205I0J1027*G37*G36*G1X50118Y67756D2*Y67283D1*X55630*Y67756*X50118*G37*G36*G1X68428Y7638D2*G3X67402Y8665I-1027J0D1*X66375Y7638I0J-1027*X67402Y6611I1027J0*X68428Y7638I-1J1027*G37*G36*G1X51342Y152047D2*G3X50315Y153074I-1027J0D1*X49288Y152047I0J-1027*X50315Y151020I1027J0*X51342Y152047I0J1027*G37*G36*G1X50200Y62126D2*G3X49173Y63153I-1027J0D1*X48146Y62126I0J-1027*X49173Y61099I1027J0*X50200Y62126I0J1027*G37*G36*G1X116003Y256708D2*X132159Y256676D1*X180450Y256582*X184265Y263092*X185279Y264869*X186275Y266706*X187247Y268584*X188188Y270485*X189091Y272392*X189950Y274284*X190758Y276146*X191141Y277060*X191509Y277958*X191861Y278840*X192196Y279703*X192513Y280545*X192812Y281362*X193092Y282154*X193352Y282918*X193591Y283651*X193808Y284351*X194002Y285016*X194173Y285644*X194320Y286233*X194442Y286779*X194538Y287282*X194608Y287738*X194650Y288145*X194663Y288502*Y289164*X194636Y289835*X194585Y290510*X194508Y291186*X194408Y291860*X194283Y292528*X194136Y293186*X193966Y293830*X193773Y294456*X193560Y295062*X193325Y295643*X193071Y296195*X192796Y296715*X192502Y297199*X192190Y297643*X191859Y298044*X191367Y298461*X190873Y298832*X190373Y299159*X189862Y299442*X189337Y299684*X188794Y299885*X188229Y300046*X187639Y300170*X187019Y300256*X186366Y300307*X185676Y300324*X184945Y300307*X184169Y300259*X183344Y300180*X182466Y300072*X181532Y299936*X180879Y299827*X180212Y299701*X179533Y299558*X178842Y299397*X178138Y299220*X177422Y299027*X175957Y298590*X174448Y298090*X172897Y297527*X171306Y296902*X169679Y296217*X168016Y295474*X166321Y294673*X164595Y293816*X162840Y292905*X161060Y291941*X159256Y290924*X157431Y289858*X155586Y288742*X153725Y287579*X151848Y286370*X149959Y285115*X148060Y283818*X146153Y282478*X144240Y281097*X142324Y279677*X140406Y278219*X138489Y276725*X136575Y275195*X134667Y273631*X132767Y272035*X130876Y270408*X128998Y268752*X127134Y267066*X125287Y265355*X120671Y261031*X116003Y256708*G37*G36*G1X89773Y194033D2*X90119Y193828D1*X90461Y193637*X90799Y193463*X91132Y193307*X91459Y193171*X91781Y193053*X92095Y192951*X92402Y192864*X92702Y192790*X92993Y192728*X93274Y192676*X93546Y192632*X93809Y192596*X94075Y192569*X94357Y192553*X94668Y192550*X94839Y192554*X95022Y192562*X95220Y192574*X95433Y192591*X95665Y192613*X95915Y192640*X96186Y192672*X96480Y192710*X96799Y192754*X97143Y192804*X97513Y192860*X97909Y192924*X98329Y192996*X98774Y193075*X99242Y193164*X99732Y193263*X100246Y193371*X100780Y193490*X101336Y193621*X101913Y193763*X102509Y193917*X103124Y194085*X103759Y194266*X104411Y194461*X105080Y194671*X105767Y194896*X106470Y195137*X107189Y195393*X107924Y195666*X108677Y195956*X109446Y196262*X110234Y196584*X111039Y196923*X111862Y197279*X112704Y197652*X113564Y198042*X114443Y198450*X115342Y198875*X116261Y199317*X117199Y199777*X118158Y200254*X119138Y200750*X120138Y201264*X121160Y201795*X122203Y202346*X123269Y202914*X124358Y203502*X125470Y204108*X126605Y204733*X127766Y205378*X128951Y206042*X130162Y206726*X131400Y207430*X132664Y208154*X133955Y208898*X135274Y209663*X136621Y210448*X137998Y211254*X139404Y212081*X140840Y212929*X142306Y213799*X143795Y214684*X146786Y216471*X149703Y218221*X153080Y220255*X155433Y221677*X155958Y221995*X156455Y222295*X158873Y223761*X159574Y224187*X139941Y236880*X139063Y237449*X138167Y238035*X137263Y238640*X136363Y239265*X135476Y239912*X134613Y240582*X132939Y241962*X131287Y243338*X130476Y244016*X129681Y244685*X128905Y245340*X128153Y245978*X127078Y246893*X126079Y247749*X125461Y248280*X124619Y249009*X124362Y249233*X124115Y249447*X123440Y250038*X122675Y250715*X122043Y251281*X121521Y251756*X121085Y252158*X120892Y252337*X120712Y252506*X120063Y253112*X119760Y253394*X119188Y253918*X118920Y254161*X118664Y254392*X118420Y254611*X118188Y254818*X117565Y255366*X117212Y255672*X116777Y256046*X116003Y256708*X113746Y254152*X113146Y253471*X112704Y252966*X111985Y252140*X111731Y251846*X111205Y251235*X110655Y250592*X110085Y249919*X109497Y249219*X108894Y248493*X108277Y247743*X107650Y246972*X107015Y246181*X106375Y245372*X105731Y244548*X105088Y243710*X104446Y242861*X103175Y241133*X101923Y239371*X100694Y237581*X99490Y235771*X98317Y233947*X97177Y232116*X96074Y230283*X95538Y229368*X95012Y228456*X94498Y227546*X93995Y226640*X93504Y225739*X93025Y224844*X92558Y223954*X92105Y223072*X91665Y222198*X91239Y221332*X90828Y220476*X90430Y219631*X90048Y218796*X89681Y217974*X89330Y217164*X88995Y216369*X88677Y215587*X88375Y214821*X88091Y214071*X87824Y213339*X87575Y212623*X87343Y211926*X87128Y211249*X86928Y210590*X86744Y209952*X86574Y209334*X86417Y208738*X86275Y208163*X86144Y207611*X86026Y207082*X85919Y206577*X85822Y206096*X85736Y205639*X85658Y205209*X85590Y204804*X85529Y204426*X85476Y204074*X85430Y203751*X85390Y203452*X85356Y203178*X85328Y202925*X85306Y202692*X85289Y202478*X85277Y202280*X85270Y202097*X85267Y201927*X85272Y201619*X85292Y201340*X85322Y201078*X85362Y200817*X85408Y200546*X85463Y200264*X85528Y199971*X85605Y199669*X85695Y199357*X85800Y199038*X85922Y198711*X86062Y198377*X86223Y198038*X86404Y197693*X86602Y197344*X86814Y196991*X87040Y196634*X87518Y195915*X88016Y195193*X88722Y194712*X89425Y194251*X89773Y194033*G37*D10*G1X21953Y103080D2*X14453D1*X18828Y105320D2*Y103080D1*X14453D2*Y105320D1*X14828Y106067*X15703Y106627*X16703Y106813*X17703Y106627*X18453Y106160*X18828Y105320*X4921Y90115D2*Y93719D1*X15078Y100544D2*X14703Y99984D1*X14453Y99331*Y98584*X14828Y97744*X15453Y97091*X16203Y96624*X17453Y96251*X18578Y96157*X19703Y96344*X20453Y96624*X21203Y97184*X21703Y97838*X21953Y98491*Y99144*X21703Y99797*X21328Y100357*X20828Y100824*X11220Y102479D2*X4921D1*X29952Y101602D2*X29845Y101894D1*X22126Y93869D2*X14626D1*X20876Y91442*X4921Y102479D2*X10170Y104516D1*X20876Y91442D2*X14626Y89015D1*X22126*X15126Y83942D2*X15001Y84128D1*X14751*X14626Y83942*X14751Y83755*X15001*X15126Y83942*X17126D2*X22126D1*X236226Y198761D2*X236035Y199019D1*X235767Y199122*X235498Y199070*X235230Y198812*X235038Y198451*X234923Y198089*X234847Y197418*X234885Y196902*X235038Y196437*X235307Y196127*X235613Y196024*X235881Y196127*X236111Y196385*X236265Y196695*X236303Y197005*X236265Y197366*X236111Y197676*X235920Y197883*X235652Y197986*X235345Y197883*X235115Y197676*X234847Y197315*X233358Y199122D2*Y196024D1*X231595Y199122*Y196024*X230336Y196488D2*X230144Y196282D1*X229915Y196127*X229646Y196024*X229378*X229110Y196127*X228841Y196333*X228611Y196643*X228496Y196953*X228420Y197418*X228458Y197883*X228611Y198399*X228803Y198709*X229071Y198967*X229416Y199122*X229723*X229991Y199019*X230221Y198864*X246118Y189925D2*X245985Y190133D1*X245798Y190217*X245612Y190175*X245426Y189967*X245293Y189675*X245213Y189383*X245159Y188841*X245186Y188425*X245293Y188050*X245479Y187800*X245692Y187717*X245878Y187800*X246038Y188008*X246145Y188258*X246172Y188508*X246145Y188800*X246038Y189050*X245905Y189217*X245719Y189300*X245506Y189217*X245346Y189050*X245159Y188758*X242856Y189050D2*X243681D1*X243868Y188967*X244028Y188717*X244081Y188425*X244028Y188133*X243921Y187883*X243735Y187717*X242856*Y190217*X243575*X243761Y190091*X243868Y189925*X243921Y189675*X243868Y189383*X243788Y189175*X243681Y189050*X240739Y188758D2*X241378D1*X241618Y188883*X241751Y189133*X241804Y189467*X241751Y189800*X241591Y190091*X241378Y190217*X240739*Y187717*X245015Y179390D2*X246080D1*X245867Y178765*X245734Y178306*X245627Y177890*X245547Y177431*X245494Y176890*X242738Y178223D2*X243563D1*X243750Y178140*X243910Y177890*X243963Y177598*X243910Y177306*X243803Y177056*X243617Y176890*X242738*Y179390*X243457*X243643Y179265*X243750Y179098*X243803Y178848*X243750Y178556*X243670Y178348*X243563Y178223*X240621Y177931D2*X241260D1*X241500Y178056*X241633Y178306*X241686Y178640*X241633Y178973*X241473Y179265*X241260Y179390*X240621*Y176890*X246804Y167362D2*X247337D1*X247550Y167487*X247709Y167654*X247843Y167904*X247949Y168196*X247976Y168612*X247949Y169029*X247843Y169320*X247709Y169570*X247550Y169737*X247337Y169862*X246804*Y167362*X244607D2*X245140D1*X245353Y167487*X245513Y167654*X245646Y167904*X245752Y168196*X245779Y168612*X245752Y169029*X245646Y169320*X245513Y169570*X245353Y169737*X245140Y169862*X244607*Y167362*X243662Y169862D2*X242996Y167362D1*X242330Y169862*X241226Y168237D2*X240373D1*X241465Y167362D2*X240799Y169862D1*X240133Y167362*X244489Y157087D2*X245022D1*X245235Y157211*X245394Y157378*X245528Y157628*X245634Y157920*X245661Y158337*X245634Y158753*X245528Y159045*X245394Y159295*X245235Y159461*X245022Y159587*X244489*Y157087*X243491Y159587D2*Y157087D1*X242265Y159587*Y157087*X241241Y159337D2*X241081Y159503D1*X240868Y159587*X240681*X240468Y159461*X240308Y159295*X240148Y159045*X240042Y158753*X239989Y158503*Y158211*X240042Y157878*X240148Y157587*X240308Y157337*X240494Y157170*X240761Y157087*X241028Y157170*X241214Y157337*X241374Y157587*Y158337*X240841*X245474Y149587D2*X244755D1*X244675Y148503*X244915Y148670*X245102Y148711*X245288Y148670*X245474Y148503*X245607Y148295*X245661Y147961*X245634Y147628*X245501Y147337*X245315Y147170*X245075Y147087*X244835Y147128*X244648Y147253*X244489Y147461*X243304Y147961D2*X242452D1*X243544Y147087D2*X242878Y149587D1*X242212Y147087*X240148Y148128D2*X240788D1*X241028Y148253*X241161Y148503*X241214Y148837*X241161Y149170*X241001Y149461*X240788Y149587*X240148*Y147087*X245528Y139374D2*X245394Y139582D1*X245208Y139665*X245022Y139624*X244835Y139415*X244702Y139124*X244622Y138832*X244569Y138290*X244595Y137874*X244702Y137498*X244888Y137249*X245102Y137165*X245288Y137249*X245448Y137457*X245554Y137707*X245581Y137957*X245554Y138249*X245448Y138499*X245315Y138665*X245128Y138749*X244915Y138665*X244755Y138499*X244569Y138207*X243304Y138040D2*X242452D1*X243544Y137165D2*X242878Y139665D1*X242212Y137165*X240148Y138207D2*X240788D1*X241028Y138332*X241161Y138582*X241214Y138915*X241161Y139249*X241001Y139540*X240788Y139665*X240148*Y137165*X245752Y127717D2*X244633D1*X244687Y128091*X244846Y128508*X245086Y128800*X245619Y129217*X245726Y129425*X245752Y129675*X245699Y129925*X245513Y130133*X245246Y130217*X245033Y130175*X244846Y130050*X244687Y129800*X242383Y129050D2*X243209D1*X243396Y128967*X243556Y128717*X243609Y128425*X243556Y128133*X243449Y127883*X243263Y127717*X242383*Y130217*X243103*X243289Y130091*X243396Y129925*X243449Y129675*X243396Y129383*X243316Y129175*X243209Y129050*X240267Y128758D2*X240906D1*X241146Y128883*X241279Y129133*X241332Y129467*X241279Y129800*X241119Y130091*X240906Y130217*X240267*Y127717*X246952Y117559D2*X247591D1*X246952Y119559D2*X247272Y120059D1*Y117559*X244755D2*X245394D1*X244755Y119559D2*X245075Y120059D1*Y117559*X243304Y118434D2*X242452D1*X243544Y117559D2*X242878Y120059D1*X242212Y117559*X240148Y118601D2*X240788D1*X241028Y118726*X241161Y118976*X241214Y119309*X241161Y119643*X241001Y119934*X240788Y120059*X240148*Y117559*X247017Y109103D2*X247257Y109269D1*X247496Y109311*X247736Y109186*X247869Y108978*X247922Y108728*X247869Y108478*X247736Y108269*X247576Y108144*X247337D2*X247576D1*X247763Y108061*X247949Y107853*X248002Y107561*X247976Y107311*X247843Y107061*X247630Y106853*X247417Y106811*X247177Y106853*X246963Y107019*X246804Y107311*X244873Y106811D2*X245513D1*X244873Y108811D2*X245193Y109311D1*Y106811*X243422Y107686D2*X242570D1*X243662Y106811D2*X242996Y109311D1*X242330Y106811*X240267Y107853D2*X240906D1*X241146Y107978*X241279Y108228*X241332Y108561*X241279Y108894*X241119Y109186*X240906Y109311*X240267*Y106811*X237717Y192953D2*Y92953D1*X227874*Y192953*X237717*X245607Y98431D2*X245448Y98056D1*X245288Y97848*X245075Y97765*X244888Y97806*X244728Y97973*X244595Y98265*X244542Y98556*X244595Y98890*X244702Y99140*X244862Y99306*X245075Y99390*X245261Y99306*X245421Y99140*X245554Y98806*X245607Y98431*Y97973*X245554Y97598*X245421Y97223*X245235Y96973*X245022Y96890*X244808Y96973*X244622Y97181*X243304Y97765D2*X242452D1*X243544Y96890D2*X242878Y99390D1*X242212Y96890*X240148Y97931D2*X240788D1*X241028Y98056*X241161Y98306*X241214Y98640*X241161Y98973*X241001Y99265*X240788Y99390*X240148*Y96890*X245114Y80945D2*X244928Y80987D1*X244715Y81111*X244581Y81320*X244528Y81611*X244581Y81903*X244741Y82153*X244981Y82278*X245247*X245407Y82361*X245541Y82570*X245594Y82861*X245514Y83153*X245327Y83361*X245114Y83445*X244901Y83361*X244715Y83153*X244635Y82861*X244688Y82570*X244821Y82361*X244981Y82278*X245247*X245487Y82153*X245647Y81903*X245700Y81611*X245647Y81320*X245514Y81111*X245301Y80987*X245114Y80945*X243344Y81820D2*X242491D1*X243583Y80945D2*X242917Y83445D1*X242251Y80945*X240188Y81987D2*X240827D1*X241067Y82111*X241200Y82361*X241253Y82695*X241200Y83028*X241040Y83320*X240827Y83445*X240188*Y80945*X247311Y73642D2*X247524Y73558D1*X247684Y73350*X247791Y73100*X247870Y72767*X247897Y72392*X247870Y72017*X247791Y71683*X247684Y71433*X247524Y71225*X247311Y71142*X247098Y71225*X246938Y71433*X246831Y71683*X246752Y72017*X246725Y72392*X246752Y72767*X246831Y73100*X246938Y73350*X247098Y73558*X247311Y73642*X244794Y71142D2*X245434D1*X244794Y73142D2*X245114Y73642D1*Y71142*X242305Y72475D2*X243130D1*X243317Y72392*X243477Y72142*X243530Y71850*X243477Y71558*X243370Y71308*X243184Y71142*X242305*Y73642*X243024*X243210Y73517*X243317Y73350*X243370Y73100*X243317Y72808*X243237Y72600*X243130Y72475*X240188Y72183D2*X240827D1*X241067Y72308*X241200Y72558*X241253Y72892*X241200Y73225*X241040Y73517*X240827Y73642*X240188*Y71142*X247031Y61299D2*X247670D1*X247031Y63299D2*X247350Y63799D1*Y61299*X244834D2*X245473D1*X244834Y63299D2*X245154Y63799D1*Y61299*X242344Y62633D2*X243170D1*X243356Y62549*X243516Y62299*X243569Y62007*X243516Y61716*X243409Y61466*X243223Y61299*X242344*Y63799*X243063*X243250Y63674*X243356Y63507*X243409Y63257*X243356Y62966*X243276Y62757*X243170Y62633*X240227Y62341D2*X240867D1*X241106Y62466*X241239Y62716*X241293Y63049*X241239Y63383*X241080Y63674*X240867Y63799*X240227*Y61299*X245514Y53642D2*X244794D1*X244715Y52558*X244954Y52725*X245141Y52767*X245327Y52725*X245514Y52558*X245647Y52350*X245700Y52017*X245674Y51683*X245541Y51392*X245354Y51225*X245114Y51142*X244874Y51183*X244688Y51308*X244528Y51517*X242305Y52475D2*X243130D1*X243317Y52392*X243477Y52142*X243530Y51850*X243477Y51558*X243370Y51308*X243184Y51142*X242305*Y53642*X243024*X243210Y53517*X243317Y53350*X243370Y53100*X243317Y52808*X243237Y52600*X243130Y52475*X240188Y52183D2*X240827D1*X241067Y52308*X241200Y52558*X241253Y52892*X241200Y53225*X241040Y53517*X240827Y53642*X240188*Y51142*X247870Y41024D2*X246752D1*X246805Y41398*X246965Y41815*X247204Y42107*X247737Y42524*X247844Y42732*X247870Y42982*X247817Y43232*X247631Y43440*X247364Y43524*X247151Y43482*X246965Y43357*X246805Y43107*X244794Y41024D2*X245434D1*X244794Y43024D2*X245114Y43524D1*Y41024*X243344Y41898D2*X242491D1*X243583Y41024D2*X242917Y43524D1*X242251Y41024*X240188Y42065D2*X240827D1*X241067Y42190*X241200Y42440*X241253Y42774*X241200Y43107*X241040Y43398*X240827Y43524*X240188*Y41024*X247311Y33524D2*X247524Y33440D1*X247684Y33232*X247791Y32982*X247870Y32648*X247897Y32274*X247870Y31898*X247791Y31565*X247684Y31315*X247524Y31107*X247311Y31024*X247098Y31107*X246938Y31315*X246831Y31565*X246752Y31898*X246725Y32274*X246752Y32648*X246831Y32982*X246938Y33232*X247098Y33440*X247311Y33524*X244794Y31024D2*X245434D1*X244794Y33024D2*X245114Y33524D1*Y31024*X243344Y31898D2*X242491D1*X243583Y31024D2*X242917Y33524D1*X242251Y31024*X240188Y32065D2*X240827D1*X241067Y32190*X241200Y32440*X241253Y32774*X241200Y33107*X241040Y33398*X240827Y33524*X240188*Y31024*X247977Y21693D2*X246645D1*X247631Y23484*Y20984*X244794D2*X245434D1*X244794Y22984D2*X245114Y23484D1*Y20984*X243344Y21859D2*X242491D1*X243583Y20984D2*X242917Y23484D1*X242251Y20984*X240188Y22026D2*X240827D1*X241067Y22151*X241200Y22401*X241253Y22734*X241200Y23068*X241040Y23359*X240827Y23484*X240188*Y20984*X237717Y86969D2*Y6969D1*X227874*Y86969*X237717*X236126Y2283D2*X235858Y2335D1*X235551Y2490*X235359Y2748*X235283Y3110*X235359Y3471*X235589Y3781*X235934Y3936*X236318*X236548Y4039*X236739Y4297*X236816Y4659*X236701Y5020*X236433Y5279*X236126Y5382*X235819Y5279*X235551Y5020*X235436Y4659*X235513Y4297*X235704Y4039*X235934Y3936*X236318*X236663Y3781*X236893Y3471*X236969Y3110*X236893Y2748*X236701Y2490*X236394Y2335*X236126Y2283*X233909Y5382D2*Y2283D1*X232146Y5382*Y2283*X230887Y2748D2*X230696Y2542D1*X230466Y2387*X230197Y2283*X229929*X229661Y2387*X229393Y2593*X229163Y2903*X229048Y3213*X228971Y3678*X229009Y4143*X229163Y4659*X229354Y4969*X229622Y5227*X229967Y5382*X230274*X230542Y5279*X230772Y5124*X244781Y12961D2*X245020Y13128D1*X245260Y13169*X245500Y13044*X245633Y12836*X245686Y12586*X245633Y12336*X245500Y12128*X245340Y12003*X245100D2*X245340D1*X245526Y11919*X245713Y11711*X245766Y11419*X245740Y11169*X245606Y10919*X245393Y10711*X245180Y10669*X244941Y10711*X244727Y10878*X244567Y11169*X243383Y11544D2*X242530D1*X243623Y10669D2*X242957Y13169D1*X242291Y10669*X240227Y11711D2*X240867D1*X241106Y11836*X241239Y12086*X241293Y12419*X241239Y12753*X241080Y13044*X240867Y13169*X240227*Y10669*X215442Y319488D2*X216361D1*X215442Y321967D2*X215902Y322587D1*Y319488*X211922Y321141D2*X213110D1*X213378Y321037*X213608Y320728*X213685Y320366*X213608Y320005*X213455Y319695*X213186Y319488*X211922*Y322587*X212956*X213225Y322431*X213378Y322225*X213455Y321915*X213378Y321554*X213263Y321296*X213110Y321141*X233034Y321593D2*X234107D1*X233571Y322626D2*Y319528D1*X231124Y319941D2*X230856Y319631D1*X230587Y319528*X230319Y319579*X230089Y319786*X229898Y320096*X229821Y320406*Y320715*X229898Y321025*X230051Y321387*X230281Y321541*X230549Y321593*X230817Y321490*X231009Y321283*X231124Y320922*X229898*X227834Y321387D2*X227604Y321541D1*X227374Y321593*X227144Y321541*X226991Y321387*X226914Y321128*X227067Y320767*X227757Y320457*X227911Y320302*X227949Y319992*X227872Y319786*X227719Y319631*X227489Y319528*X227259*X226991Y319682*X226799Y319889*X224927Y319941D2*X224659Y319631D1*X224391Y319528*X224122Y319579*X223893Y319786*X223701Y320096*X223624Y320406*Y320715*X223701Y321025*X223854Y321387*X224084Y321541*X224352Y321593*X224620Y321490*X224812Y321283*X224927Y320922*X223701*X221944Y319528D2*X221369Y321025D1*X220411D2*X221369D1*X221637Y321180*X221867Y321438*X221944Y321851*X221867Y322265*X221675Y322471*X221369Y322626*X220411*Y319528*X217581Y320560D2*X218577D1*X211024Y292126D2*Y315748D1*X234646*Y292126*X211024*X214488Y278737D2*Y279657D1*X212009Y278737D2*X211390Y279197D1*X214488*Y275639D2*Y276558D1*X212009Y275639D2*X211390Y276098D1*X214488*X214024Y273958D2*X214230Y273767D1*X214385Y273537*X214488Y273268*Y273000*X214385Y272732*X214178Y272463*X213869Y272233*X213559Y272119*X213094Y272042*X212629Y272080*X212113Y272233*X211803Y272425*X211545Y272693*X211390Y273038*Y273345*X211493Y273613*X211648Y273843*X213937Y134094D2*X210787D1*Y140394*X213937*Y134094*X218543Y138776D2*X218492Y138507D1*X218337Y138201*X218079Y138009*X217717Y137933*X217356Y138009*X217046Y138239*X216891Y138584*Y138967*X216787Y139197*X216530Y139389*X216168Y139465*X215806Y139350*X215548Y139082*X215445Y138776*X215548Y138469*X215806Y138201*X216168Y138086*X216530Y138163*X216787Y138354*X216891Y138584*Y138967*X217046Y139312*X217356Y139542*X217717Y139619*X218079Y139542*X218337Y139350*X218492Y139044*X218543Y138776*Y136444D2*X217046Y135869D1*Y134911D2*Y135869D1*X216891Y136137*X216633Y136367*X216220Y136444*X215806Y136367*X215600Y136175*X215445Y135869*Y134911*X218543*X220238Y132625D2*Y130709D1*X218018Y132127*X221116*X220652Y129527D2*X220858Y129335D1*X221013Y129106*X221116Y128837*Y128569*X221013Y128301*X220806Y128032*X220496Y127802*X220187Y127687*X219722Y127611*X219257Y127649*X218741Y127802*X218431Y127994*X218173Y128262*X218018Y128607*Y128914*X218121Y129182*X218276Y129412*X213937Y110039D2*X210787D1*Y120276*X213937*Y110039*X218110Y123819D2*X221260D1*Y117520*X218110*Y123819*X217331Y24783D2*X218251D1*X217331Y27262D2*X217791Y27882D1*Y24783*X213888Y27882D2*X215498Y24783D1*X213888D2*X215498Y27882D1*X208425Y272874D2*X205276D1*Y279173*X208425*Y272874*X202402Y133543D2*X205551D1*Y127244*X202402*Y133543*X205551Y142713D2*Y143633D1*X203072Y142713D2*X202453Y143173D1*X205551*Y139615D2*Y140535D1*X203072Y139615D2*X202453Y140075D1*X205551*Y137743D2*X204054Y137168D1*Y136210D2*Y137168D1*X203899Y137436*X203641Y137666*X203228Y137743*X202814Y137666*X202608Y137474*X202453Y137168*Y136210*X205551*X196693Y133543D2*X199843D1*Y127244*X196693*Y133543*X192138Y133528D2*X192241Y133834D1*X192499Y134064*X192809Y134217*X193222Y134332*X193687Y134370*X194152Y134332*X194565Y134217*X194875Y134064*X195133Y133834*X195236Y133528*X195133Y133221*X194875Y132991*X194565Y132838*X194152Y132723*X193687Y132685*X193222Y132723*X192809Y132838*X192499Y132991*X192241Y133221*X192138Y133528*X195236Y129969D2*Y130889D1*X192757Y129969D2*X192138Y130429D1*X195236*Y128097D2*X193739Y127522D1*Y126564D2*Y127522D1*X193584Y127791*X193326Y128020*X192913Y128097*X192499Y128020*X192293Y127829*X192138Y127522*Y126564*X195236*X209094Y119057D2*Y117447D1*X208630Y117524*X208113Y117754*X207752Y118099*X207235Y118865*X206977Y119019*X206667Y119057*X206357Y118980*X206099Y118712*X205996Y118329*X206048Y118022*X206203Y117754*X206513Y117524*X207442Y114272D2*Y115460D1*X207545Y115728*X207855Y115958*X208217Y116035*X208578Y115958*X208888Y115805*X209094Y115537*Y114272*X205996*Y115307*X206151Y115575*X206357Y115728*X206667Y115805*X207029Y115728*X207287Y115613*X207442Y115460*X206357Y112707D2*X206099Y112477D1*X205996Y112208*Y111940*X206151Y111672*X206409Y111480*X206771Y111404*X207132Y111519*X207339Y111787*X207442Y112247*X207648Y112592*X207958Y112783*X208320Y112860*X208681Y112745*X208940Y112515*X209094Y112208*Y111902*X208940Y111557*X208681Y111250*X215984Y102953D2*Y60984D1*X206142*Y102953*X215984*X213581Y58549D2*X213926Y58756D1*X214271Y58807*X214616Y58652*X214808Y58394*X214885Y58084*X214808Y57774*X214616Y57516*X214386Y57361*X214041D2*X214386D1*X214655Y57258*X214923Y57000*X215000Y56638*X214961Y56328*X214770Y56019*X214463Y55760*X214156Y55709*X213811Y55760*X213505Y55967*X213275Y56328*X211901Y58807D2*Y55709D1*X210138Y58807*Y55709*X208879Y56173D2*X208688Y55967D1*X208458Y55812*X208189Y55709*X207921*X207653Y55812*X207385Y56019*X207155Y56328*X207040Y56638*X206963Y57103*X207002Y57568*X207155Y58084*X207346Y58394*X207615Y58652*X207959Y58807*X208266*X208534Y58704*X208764Y58549*X192126Y37874D2*X195276D1*Y31575*X192126*Y37874*X199764D2*X202913D1*Y31575*X199764*Y37874*X207441Y35914D2*Y36834D1*X204962Y35914D2*X204343Y36374D1*X207441*X206976Y34233D2*X207183Y34042D1*X207338Y33812*X207441Y33544*Y33276*X207338Y33007*X207131Y32739*X206821Y32509*X206511Y32394*X206047Y32318*X205582Y32356*X205065Y32509*X204756Y32701*X204498Y32969*X204343Y33314*Y33620*X204446Y33889*X204601Y34119*X186943Y315316D2*Y316235D1*X184464Y315316D2*X183844Y315776D1*X186943*X185291Y311796D2*Y312984D1*X185394Y313252*X185704Y313482*X186065Y313559*X186426Y313482*X186736Y313329*X186943Y313060*Y311796*X183844*Y312830*X184000Y313099*X184206Y313252*X184516Y313329*X184877Y313252*X185135Y313137*X185291Y312984*X184206Y310230D2*X183948Y310000D1*X183844Y309732*Y309464*X184000Y309196*X184257Y309004*X184619Y308927*X184981Y309042*X185187Y309311*X185291Y309770*X185497Y310115*X185807Y310307*X186168Y310383*X186530Y310269*X186788Y310039*X186943Y309732*Y309426*X186788Y309081*X186530Y308774*X187047Y296457D2*X183898D1*Y306693*X187047*Y296457*X190039Y191378D2*X180039D1*X194291Y185592D2*Y183983D1*X193827Y184059*X193310Y184289*X192949Y184634*X192432Y185400*X192174Y185554*X191864Y185592*X191554Y185515*X191296Y185247*X191193Y184864*X191244Y184557*X191400Y184289*X191709Y184059*X193000Y180922D2*Y181842D1*X192845Y182187*X192535Y182379*X192122Y182456*X191709Y182379*X191348Y182149*X191193Y181842*Y180922*X194291*X191193Y179357D2*X193259D1*X193672Y179280*X193981Y179050*X194188Y178820*X194291Y178514*X194188Y178246*X193981Y178016*X193672Y177824*X178150Y171378D2*Y191378D1*X180039D2*Y171378D1*X190039Y191378D2*Y171378D1*X180039*X182461Y165314D2*X187461Y167974D1*Y165314D2*X182461Y167974D1*Y160089D2*Y163002D1*Y161545D2*X187461D1*X185053Y130787D2*X183443D1*X183520Y131252*X183750Y131769*X184095Y132130*X184861Y132646*X185015Y132905*X185053Y133215*X184976Y133524*X184708Y133783*X184325Y133886*X184018Y133834*X183750Y133679*X183520Y133369*X181993Y133886D2*Y131665D1*X181839Y131200*X181533Y130891*X181150Y130787*X180767Y130891*X180460Y131200*X180307Y131665*Y133886*X176181Y97283D2*Y98386D1*X175079Y97283*X176181*X192165Y77874D2*X189016D1*Y84173*X192165*Y77874*X190894Y74970D2*Y73054D1*X188673Y74472*X191772*Y71680D2*X190274Y71105D1*Y70147D2*Y71105D1*X190119Y71373*X189861Y71603*X189448Y71680*X189035Y71603*X188828Y71411*X188673Y71105*Y70147*X191772*X186339Y77874D2*X183189D1*Y84173*X186339*Y77874*X186220Y74817D2*Y73207D1*X185756Y73284*X185239Y73514*X184878Y73859*X184361Y74625*X184103Y74778*X183793Y74817*X183483Y74740*X183225Y74472*X183122Y74089*X183174Y73782*X183329Y73514*X183639Y73284*X186220Y71680D2*X184723Y71105D1*Y70147D2*Y71105D1*X184568Y71373*X184310Y71603*X183897Y71680*X183483Y71603*X183277Y71411*X183122Y71105*Y70147*X186220*X191063Y37336D2*Y35727D1*X190598Y35804*X190082Y36033*X189720Y36378*X189204Y37144*X188946Y37298*X188636Y37336*X188326Y37259*X188068Y36991*X187965Y36608*X188016Y36302*X188171Y36033*X188481Y35804*X190598Y34391D2*X190805Y34200D1*X190960Y33970*X191063Y33701*Y33433*X190960Y33165*X190753Y32896*X190443Y32667*X190133Y32552*X189669Y32475*X189204Y32513*X188687Y32667*X188378Y32858*X188120Y33126*X187965Y33471*Y33778*X188068Y34046*X188223Y34276*X178150Y191378D2*X168150D1*X166524Y185352D2*Y183436D1*X164303Y184854*X167402*X166111Y180529D2*Y181448D1*X165956Y181793*X165646Y181985*X165233Y182062*X164820Y181985*X164458Y181755*X164303Y181448*Y180529*X167402*X164303Y178963D2*X166369D1*X166782Y178887*X167092Y178657*X167298Y178427*X167402Y178120*X167298Y177852*X167092Y177622*X166782Y177430*X168150Y191378D2*Y171378D1*X178150*X170650Y165274D2*X175650Y167934D1*Y165274D2*X170650Y167934D1*X175650Y162772D2*X173233Y161822D1*Y160239D2*Y161822D1*X172983Y162266*X172566Y162646*X171900Y162772*X171233Y162646*X170900Y162329*X170650Y161822*Y160239*X175650*X166339Y76339D2*X163189D1*Y82638*X166339*Y76339*X161732Y80875D2*Y81794D1*X159254Y80875D2*X158634Y81335D1*X161732*Y79003D2*X160235Y78428D1*Y77470D2*Y78428D1*X160080Y78696*X159822Y78926*X159409Y79003*X158995Y78926*X158789Y78734*X158634Y78428*Y77470*X161732*X177989Y79264D2*X176074D1*X177491Y81484*Y78386*X174815Y81484D2*Y78386D1*X173052Y81484*Y78386*X171793Y78850D2*X171601Y78644D1*X171371Y78489*X171103Y78386*X170835*X170567Y78489*X170298Y78696*X170068Y79006*X169953Y79315*X169877Y79780*X169915Y80245*X170068Y80761*X170260Y81071*X170528Y81329*X170873Y81484*X171180*X171448Y81381*X171678Y81226*X178661Y77362D2*Y35394D1*X168819*Y77362*X178661*X215512Y22756D2*Y3465D1*X170630*Y22756*X215512*X153295Y190509D2*Y188593D1*X151075Y190011*X154173*Y187257D2*Y185648D1*X153709Y185725*X153192Y185955*X152831Y186300*X152314Y187066*X152056Y187219*X151746Y187257*X151436Y187181*X151178Y186913*X151075Y186530*X151126Y186223*X151281Y185955*X151591Y185725*X153709Y184312D2*X153915Y184121D1*X154070Y183891*X154173Y183622*Y183354*X154070Y183086*X153863Y182818*X153554Y182588*X153244Y182473*X152779Y182396*X152314Y182435*X151798Y182588*X151488Y182780*X151230Y183048*X151075Y183393*Y183699*X151178Y183967*X151333Y184197*X154213Y173189D2*X151063D1*Y179488*X154213*Y173189*X147008Y155748D2*X143858D1*Y165984*X147008*Y155748*X143648Y153319D2*Y152284D1*X144990Y152169*X144784Y152514*X144732Y152782*X144784Y153051*X144990Y153319*X145248Y153511*X145662Y153587*X146075Y153549*X146436Y153357*X146643Y153089*X146746Y152744*X146694Y152399*X146539Y152131*X146281Y151901*X145094Y148764D2*Y149952D1*X145197Y150220*X145507Y150450*X145868Y150527*X146230Y150450*X146539Y150297*X146746Y150029*Y148764*X143648*Y149799*X143803Y150067*X144009Y150220*X144319Y150297*X144680Y150220*X144939Y150106*X145094Y149952*X144009Y147199D2*X143751Y146969D1*X143648Y146700*Y146432*X143803Y146164*X144061Y145972*X144422Y145896*X144784Y146011*X144990Y146279*X145094Y146739*X145300Y147084*X145610Y147275*X145971Y147352*X146333Y147237*X146591Y147007*X146746Y146700*Y146394*X146591Y146049*X146333Y145743*X149528Y149370D2*X152677D1*Y143071*X149528*Y149370*X154657Y147340D2*Y148873D1*X155432Y148566*X156000Y148374*X156517Y148221*X157085Y148106*X157756Y148030*Y145774D2*X156258Y145200D1*Y144241D2*Y145200D1*X156104Y145468*X155845Y145698*X155432Y145774*X155019Y145698*X154813Y145506*X154657Y145200*Y144241*X157756*X176181Y126024D2*Y97283D1*X147441*Y126024*X176181*X147047Y62047D2*X150197D1*Y55748*X147047*Y62047*X141654D2*X144803D1*Y55748*X141654*Y62047*X161896Y41831D2*X162816D1*X161896Y44309D2*X162356Y44929D1*Y41831*X160139Y44929D2*Y41831D1*X158376Y44929*Y41831*X157117Y42295D2*X156926Y42089D1*X156696Y41934*X156428Y41831*X156159*X155891Y41934*X155623Y42141*X155393Y42450*X155278Y42760*X155202Y43225*X155240Y43690*X155393Y44206*X155585Y44516*X155853Y44774*X156198Y44929*X156504*X156772Y44826*X157002Y44671*X147120Y52204D2*X146914Y52548D1*X146862Y52893*X147017Y53238*X147275Y53430*X147585Y53507*X147895Y53430*X148153Y53238*X148308Y53008*Y52663D2*Y53008D1*X148411Y53277*X148670Y53545*X149031Y53622*X149341Y53583*X149651Y53392*X149909Y53085*X149961Y52778*X149909Y52433*X149702Y52127*X149341Y51897*X149961Y50446D2*Y48837D1*X149496Y48914*X148980Y49144*X148618Y49489*X148102Y50255*X147843Y50408*X147533Y50446*X147224Y50370*X146965Y50102*X146862Y49719*X146914Y49412*X147069Y49144*X147379Y48914*X149961Y47310D2*X148463Y46735D1*Y45777D2*Y46735D1*X148308Y47003*X148050Y47233*X147637Y47310*X147224Y47233*X147017Y47041*X146862Y46735*Y45777*X149961*X144646Y52359D2*Y53279D1*X142167Y52359D2*X141547Y52819D1*X144646*Y50525D2*Y48916D1*X144181Y48993*X143665Y49222*X143303Y49567*X142787Y50333*X142528Y50487*X142219Y50525*X141909Y50448*X141650Y50180*X141547Y49797*X141599Y49491*X141754Y49222*X142064Y48993*X144646Y47389D2*X143148Y46814D1*Y45856D2*Y46814D1*X142993Y47082*X142735Y47312*X142322Y47389*X141909Y47312*X141702Y47120*X141547Y46814*Y45856*X144646*X134921Y324016D2*Y304331D1*X172402*Y324016*X134921*X128457Y319062D2*X128922Y318832D1*X129180Y318602*X129284Y318295*X129232Y318027*X129026Y317797*X128664Y317606*X128302Y317529*X127889Y317606*X127580Y317759*X127373Y317989*X127270Y318295*X127373Y318563*X127580Y318793*X127993Y318985*X128457Y319062*X129026*X129490Y318985*X129955Y318793*X130265Y318525*X130368Y318219*X130265Y317912*X130007Y317644*X127270Y316078D2*X130368D1*X127270Y314315*X130368*X129904Y313056D2*X130110Y312865D1*X130265Y312635*X130368Y312367*Y312098*X130265Y311830*X130058Y311562*X129748Y311332*X129439Y311217*X128974Y311141*X128509Y311179*X127993Y311332*X127683Y311524*X127425Y311792*X127270Y312137*Y312443*X127373Y312711*X127528Y312941*X130827Y151063D2*X127677D1*Y157362*X130827*Y151063*X128223Y146979D2*X128016Y147324D1*X127965Y147669*X128120Y148014*X128378Y148206*X128687Y148282*X128997Y148206*X129256Y148014*X129411Y147784*Y147439D2*Y147784D1*X129514Y148052*X129772Y148320*X130133Y148397*X130443Y148359*X130753Y148167*X131011Y147861*X131063Y147554*X131011Y147209*X130805Y146903*X130443Y146673*X130598Y145375D2*X130805Y145184D1*X130960Y144954*X131063Y144685*Y144417*X130960Y144149*X130753Y143881*X130443Y143651*X130133Y143536*X129669Y143459*X129204Y143498*X128687Y143651*X128378Y143843*X128120Y144111*X127965Y144456*Y144762*X128068Y145030*X128223Y145260*X124921Y132244D2*X128071D1*Y125945*X124921*Y132244*X132008Y133269D2*Y131660D1*X131543Y131737*X131027Y131967*X130665Y132311*X130149Y133078*X129891Y133231*X129581Y133269*X129271Y133193*X129013Y132924*X128909Y132541*X128961Y132235*X129116Y131967*X129426Y131737*X132008Y128906D2*Y129826D1*X129529Y128906D2*X128909Y129366D1*X132008*Y127034D2*X130510Y126459D1*Y125501D2*Y126459D1*X130356Y126728*X130097Y126957*X129684Y127034*X129271Y126957*X129065Y126766*X128909Y126459*Y125501*X132008*X127087Y100039D2*X130236D1*Y93740*X127087*Y100039*X123043Y99866D2*X123146Y100173D1*X123405Y100403*X123715Y100556*X124128Y100671*X124593Y100709*X125057Y100671*X125470Y100556*X125780Y100403*X126039Y100173*X126142Y99866*X126039Y99559*X125780Y99330*X125470Y99176*X125057Y99061*X124593Y99023*X124128Y99061*X123715Y99176*X123405Y99330*X123146Y99559*X123043Y99866*X126142Y97572D2*Y95963D1*X125677Y96040*X125161Y96270*X124799Y96615*X124283Y97381*X124024Y97534*X123715Y97572*X123405Y97496*X123146Y97228*X123043Y96844*X123095Y96538*X123250Y96270*X123560Y96040*X126142Y94436D2*X124644Y93861D1*Y92903D2*Y93861D1*X124489Y94129*X124231Y94359*X123818Y94436*X123405Y94359*X123198Y94167*X123043Y93861*Y92903*X126142*X126811Y69764D2*Y75276D1*X138622*Y69764*X126811*X142139Y79488D2*X140530D1*X140607Y79953*X140837Y80469*X141181Y80831*X141948Y81347*X142101Y81606*X142139Y81915*X142063Y82225*X141794Y82483*X141411Y82587*X141105Y82535*X140837Y82380*X140607Y82070*X137355Y82587D2*X139118D1*X138236D2*Y79488D1*X121299Y62047D2*X124449D1*Y55748*X121299*Y62047*X122735Y72798D2*X123200Y72568D1*X123458Y72338*X123561Y72031*X123509Y71763*X123303Y71533*X122941Y71342*X122580Y71265*X122167Y71342*X121857Y71495*X121650Y71725*X121547Y72031*X121650Y72300*X121857Y72530*X122270Y72721*X122735Y72798*X123303*X123768Y72721*X124233Y72530*X124543Y72261*X124646Y71955*X124543Y71648*X124284Y71380*X124646Y68473D2*Y69393D1*X122167Y68473D2*X121547Y68933D1*X124646*Y66601D2*X123148Y66026D1*Y65068D2*Y66026D1*X122993Y66294*X122735Y66524*X122322Y66601*X121909Y66524*X121702Y66333*X121547Y66026*Y65068*X124646*X129528Y55748D2*X126378D1*Y62047*X129528*Y55748*X136220Y62047D2*X139370D1*Y55748*X136220*Y62047*X126154Y52131D2*Y53664D1*X126928Y53357*X127496Y53166*X128013Y53013*X128581Y52898*X129252Y52821*Y49339D2*Y50259D1*X126773Y49339D2*X126154Y49799D1*X129252*Y47467D2*X127754Y46893D1*Y45934D2*Y46893D1*X127600Y47161*X127341Y47391*X126928Y47467*X126515Y47391*X126309Y47199*X126154Y46893*Y45934*X129252*X139291Y52622D2*X139240Y52354D1*X139085Y52047*X138827Y51856*X138465Y51779*X138104Y51856*X137794Y52085*X137639Y52430*Y52814*X137535Y53044*X137278Y53235*X136916Y53312*X136554Y53197*X136296Y52929*X136193Y52622*X136296Y52315*X136554Y52047*X136916Y51932*X137278Y52009*X137535Y52200*X137639Y52430*Y52814*X137794Y53159*X138104Y53389*X138465Y53465*X138827Y53389*X139085Y53197*X139240Y52890*X139291Y52622*Y49064D2*Y49983D1*X136813Y49064D2*X136193Y49524D1*X139291*Y47192D2*X137794Y46617D1*Y45659D2*Y46617D1*X137639Y46885*X137381Y47115*X136968Y47192*X136554Y47115*X136348Y46923*X136193Y46617*Y45659*X139291*X124213Y1181D2*Y38189D1*X151378*Y1181*X124213*X114182Y282992D2*X115102D1*X114182Y285471D2*X114642Y286091D1*Y282992*X112386Y286091D2*Y283870D1*X112233Y283405*X111926Y283095*X111543Y282992*X111160Y283095*X110854Y283405*X110700Y283870*Y286091*X112205Y230000D2*Y281181D1*X163386*Y230000*X112205*X112612Y167998D2*Y166388D1*X112148Y166465*X111631Y166695*X111270Y167040*X110753Y167806*X110495Y167959*X110185Y167998*X109875Y167921*X109617Y167653*X109514Y167270*X109565Y166963*X109720Y166695*X110030Y166465*X112612Y163252D2*Y164018D1*X112457Y164324*X112251Y164554*X111941Y164746*X111580Y164899*X111063Y164937*X110546Y164899*X110185Y164746*X109875Y164554*X109669Y164324*X109514Y164018*Y163252*X112612*Y161763D2*Y160230D1*X109514*X109370Y157402D2*X112520D1*Y151102*X109370*Y157402*X119173Y157362D2*X122323D1*Y151063*X119173*Y157362*X120387Y148930D2*X120851Y148700D1*X121109Y148470*X121213Y148163*X121161Y147895*X120955Y147665*X120593Y147474*X120231Y147397*X119819Y147474*X119509Y147627*X119302Y147857*X119199Y148163*X119302Y148431*X119509Y148661*X119922Y148853*X120387Y148930*X120955*X121419Y148853*X121884Y148661*X122194Y148393*X122297Y148087*X122194Y147780*X121936Y147512*X122297Y145831D2*X120800Y145257D1*Y144298D2*Y145257D1*X120645Y145525*X120387Y145755*X119974Y145831*X119560Y145755*X119354Y145563*X119199Y145257*Y144298*X122297*X108071Y90118D2*X104921D1*Y96417*X108071*Y90118*X109680Y94341D2*X109473Y94686D1*X109421Y95031*X109576Y95376*X109834Y95568*X110144Y95644*X110454Y95568*X110712Y95376*X110867Y95146*Y94801D2*Y95146D1*X110970Y95415*X111229Y95683*X111590Y95759*X111900Y95721*X112210Y95530*X112468Y95223*X112520Y94916*X112468Y94571*X112261Y94265*X111900Y94035*X112520Y92546D2*X111022Y91971D1*Y91013D2*Y91971D1*X110867Y92239*X110609Y92469*X110196Y92546*X109783Y92469*X109576Y92278*X109421Y91971*Y91013*X112520*X108071Y101417D2*X104921D1*Y107717*X108071*Y101417*X109916Y107243D2*X109709Y107588D1*X109657Y107933*X109813Y108278*X110070Y108469*X110380Y108546*X110690Y108469*X110948Y108278*X111104Y108048*Y107703D2*Y108048D1*X111207Y108316*X111465Y108584*X111826Y108661*X112136Y108622*X112446Y108431*X112704Y108124*X112756Y107818*X112704Y107473*X112498Y107167*X112136Y106937*X112756Y104221D2*Y105141D1*X110277Y104221D2*X109657Y104681D1*X112756*Y102349D2*X111258Y101774D1*Y100816D2*Y101774D1*X111104Y102043*X110845Y102272*X110432Y102349*X110019Y102272*X109813Y102081*X109657Y101774*Y100816*X112756*X110039Y56457D2*X104528D1*Y63543*X110039*Y56457*X108819Y70402D2*Y71322D1*X106340Y70402D2*X105720Y70862D1*X108819*Y66921D2*Y67687D1*X108664Y67994*X108457Y68224*X108148Y68415*X107786Y68569*X107270Y68607*X106753Y68569*X106392Y68415*X106082Y68224*X105876Y67994*X105720Y67687*Y66921*X108819*X119409Y55748D2*X116260D1*Y62047*X119409*Y55748*X116830Y72801D2*X116572Y72609D1*X116469Y72341*X116520Y72073*X116778Y71805*X117140Y71613*X117501Y71498*X118173Y71422*X118689Y71460*X119154Y71613*X119464Y71881*X119567Y72188*X119464Y72456*X119206Y72686*X118896Y72839*X118586Y72878*X118224Y72839*X117915Y72686*X117708Y72494*X117605Y72226*X117708Y71920*X117915Y71690*X118276Y71422*X119567Y68591D2*Y69511D1*X117088Y68591D2*X116469Y69051D1*X119567*Y66719D2*X118069Y66144D1*Y65186D2*Y66144D1*X117915Y66413*X117656Y66643*X117243Y66719*X116830Y66643*X116624Y66451*X116469Y66144*Y65186*X119567*X109370Y42543D2*X109319Y42275D1*X109163Y41969*X108906Y41777*X108544Y41700*X108182Y41777*X107872Y42007*X107718Y42352*Y42735*X107614Y42965*X107356Y43156*X106994Y43233*X106633Y43118*X106375Y42850*X106272Y42543*X106375Y42237*X106633Y41969*X106994Y41854*X107356Y41930*X107614Y42122*X107718Y42352*Y42735*X107872Y43080*X108182Y43310*X108544Y43386*X108906Y43310*X109163Y43118*X109319Y42811*X109370Y42543*Y38985D2*Y39905D1*X106891Y38985D2*X106272Y39445D1*X109370*X108906Y37304D2*X109112Y37113D1*X109267Y36883*X109370Y36615*Y36346*X109267Y36078*X109060Y35810*X108750Y35580*X108441Y35465*X107976Y35389*X107511Y35427*X106994Y35580*X106685Y35772*X106427Y36040*X106272Y36385*Y36691*X106375Y36959*X106530Y37189*X112324Y48858D2*X110715D1*X110792Y49323*X111022Y49839*X111367Y50201*X112133Y50717*X112286Y50976*X112324Y51285*X112248Y51595*X111980Y51854*X111596Y51957*X111290Y51905*X111022Y51750*X110792Y51440*X109226Y48858D2*X107617D1*X107693Y49323*X107923Y49839*X108268Y50201*X109034Y50717*X109188Y50976*X109226Y51285*X109149Y51595*X108881Y51854*X108498Y51957*X108191Y51905*X107923Y51750*X107693Y51440*X106281Y49323D2*X106089Y49117D1*X105859Y48961*X105591Y48858*X105323*X105055Y48961*X104786Y49168*X104556Y49478*X104441Y49788*X104365Y50252*X104403Y50717*X104556Y51234*X104748Y51544*X105016Y51802*X105361Y51957*X105668*X105936Y51854*X106166Y51698*X104213Y29449D2*X107362D1*Y23150*X104213*Y29449*X108319Y28588D2*Y30121D1*X109094Y29814*X109661Y29622*X110178Y29469*X110746Y29354*X111417Y29278*Y27061D2*Y25451D1*X110953Y25528*X110436Y25758*X110075Y26103*X109558Y26869*X109300Y27022*X108990Y27061*X108680Y26984*X108422Y26716*X108319Y26333*X108370Y26026*X108526Y25758*X108835Y25528*X111417Y23924D2*X109920Y23349D1*Y22391D2*Y23349D1*X109765Y23617*X109507Y23847*X109094Y23924*X108680Y23847*X108474Y23656*X108319Y23349*Y22391*X111417*X102500Y180276D2*Y178307D1*X137736Y188543D2*X110768D1*X146004Y178307D2*Y180276D1*X110768Y170039D2*X137736D1*X104283Y187191D2*X102674D1*X102750Y187656*X102980Y188172*X103325Y188533*X104091Y189050*X104245Y189308*X104283Y189618*X104206Y189928*X103938Y190186*X103555Y190289*X103248Y190238*X102980Y190083*X102750Y189773*X99575Y190289D2*X101185Y187191D1*X99575D2*X101185Y190289D1*X94213Y189921D2*Y209921D1*X96496Y166299D2*X86496D1*X94573Y170217D2*X94381Y170476D1*X94113Y170579*X93844Y170527*X93576Y170269*X93385Y169907*X93270Y169546*X93193Y168874*X93231Y168358*X93385Y167893*X93653Y167583*X93959Y167480*X94228Y167583*X94458Y167842*X94611Y168152*X94649Y168461*X94611Y168823*X94458Y169133*X94266Y169339*X93998Y169443*X93691Y169339*X93461Y169133*X93193Y168771*X90056D2*X90976D1*X91321Y168926*X91513Y169236*X91589Y169649*X91513Y170062*X91283Y170424*X90976Y170579*X90056*Y167480*X88491Y170579D2*Y168513D1*X88414Y168100*X88184Y167790*X87954Y167583*X87648Y167480*X87380Y167583*X87150Y167790*X86958Y168100*X102626Y168186D2*Y166270D1*X100406Y167688*X103504*Y164935D2*Y163325D1*X103039Y163402*X102523Y163632*X102161Y163977*X101645Y164743*X101387Y164896*X101077Y164935*X100767Y164858*X100509Y164590*X100406Y164207*X100457Y163900*X100612Y163632*X100922Y163402*X103504Y161798D2*X102006Y161223D1*Y160265D2*Y161223D1*X101852Y161491*X101593Y161721*X101180Y161798*X100767Y161721*X100561Y161530*X100406Y161223*Y160265*X103504*X97795Y173189D2*X94646D1*Y179488*X97795*Y173189*X89640Y178936D2*X89433Y179281D1*X89382Y179626*X89537Y179970*X89795Y180162*X90105Y180239*X90415Y180162*X90673Y179970*X90828Y179741*Y179396D2*Y179741D1*X90931Y180009*X91189Y180277*X91551Y180354*X91861Y180315*X92170Y180124*X92429Y179817*X92480Y179511*X92429Y179166*X92222Y178859*X91861Y178630*X92480Y177179D2*Y175569D1*X92016Y175646*X91499Y175876*X91138Y176221*X90621Y176987*X90363Y177141*X90053Y177179*X89743Y177102*X89485Y176834*X89382Y176451*X89433Y176144*X89589Y175876*X89898Y175646*X92016Y174233D2*X92222Y174042D1*X92377Y173812*X92480Y173544*Y173276*X92377Y173007*X92170Y172739*X91861Y172509*X91551Y172394*X91086Y172318*X90621Y172356*X90105Y172509*X89795Y172701*X89537Y172969*X89382Y173314*Y173620*X89485Y173889*X89640Y174119*X86496Y166299D2*Y146299D1*X96496Y166299D2*Y146299D1*X86496*X100591Y157402D2*X103740D1*Y151102*X100591*Y157402*X95984Y141339D2*X99134D1*Y135039*X95984*Y141339*X104016Y140706D2*Y141625D1*X101537Y140706D2*X100917Y141165D1*X104016*Y137224D2*Y137990D1*X103861Y138297*X103654Y138527*X103344Y138719*X102983Y138872*X102467Y138910*X101950Y138872*X101589Y138719*X101279Y138527*X101072Y138297*X100917Y137990*Y137224*X104016*Y135735D2*Y134202D1*X100917*X86654Y141339D2*X89803D1*Y135039*X86654*Y141339*X97677Y57795D2*X94528D1*Y64094*X97677*Y57795*X94618Y74575D2*Y73540D1*X95961Y73425*X95754Y73770*X95703Y74038*X95754Y74307*X95961Y74575*X96219Y74767*X96632Y74843*X97045Y74805*X97407Y74613*X97613Y74345*X97717Y74000*X97665Y73655*X97510Y73387*X97252Y73157*X97717Y71706D2*Y70097D1*X97252Y70174*X96735Y70404*X96374Y70748*X95857Y71515*X95599Y71668*X95289Y71706*X94980Y71630*X94721Y71361*X94618Y70978*X94670Y70672*X94825Y70404*X95135Y70174*X97252Y68761D2*X97458Y68570D1*X97613Y68340*X97717Y68071*Y67803*X97613Y67535*X97407Y67267*X97097Y67037*X96787Y66922*X96322Y66845*X95857Y66883*X95341Y67037*X95031Y67228*X94773Y67496*X94618Y67841*Y68148*X94721Y68416*X94876Y68646*X102953Y57795D2*X99803D1*Y64094*X102953*Y57795*X102638Y73816D2*Y74735D1*X100159Y73816D2*X99539Y74276D1*X102638*Y71982D2*Y70372D1*X102173Y70449*X101657Y70679*X101295Y71024*X100779Y71790*X100520Y71944*X100211Y71982*X99901Y71905*X99643Y71637*X99539Y71254*X99591Y70947*X99746Y70679*X100056Y70449*X102173Y69037D2*X102380Y68845D1*X102535Y68615*X102638Y68347*Y68079*X102535Y67811*X102328Y67542*X102018Y67312*X101708Y67197*X101244Y67121*X100779Y67159*X100262Y67312*X99952Y67504*X99694Y67772*X99539Y68117*Y68424*X99643Y68692*X99798Y68922*X101535Y42835D2*X104685D1*Y36535*X101535*Y42835*X96024D2*X99173D1*Y36535*X96024*Y42835*X92768Y42525D2*Y44058D1*X93543Y43751*X94110Y43559*X94627Y43406*X95195Y43291*X95866Y43215*Y39733D2*Y40653D1*X93387Y39733D2*X92768Y40193D1*X95866*X95402Y38052D2*X95608Y37861D1*X95763Y37631*X95866Y37363*Y37094*X95763Y36826*X95556Y36558*X95246Y36328*X94937Y36213*X94472Y36137*X94007Y36175*X93491Y36328*X93181Y36520*X92923Y36788*X92768Y37133*Y37439*X92871Y37707*X93026Y37937*X94528Y54016D2*X97677D1*Y47717*X94528*Y54016*X90130Y53194D2*Y54727D1*X90905Y54420*X91472Y54229*X91989Y54076*X92557Y53961*X93228Y53884*Y51667D2*Y50057D1*X92764Y50134*X92247Y50364*X91886Y50709*X91369Y51475*X91111Y51629*X90801Y51667*X90491Y51590*X90233Y51322*X90130Y50939*X90181Y50632*X90337Y50364*X90646Y50134*X92764Y48722D2*X92970Y48530D1*X93125Y48300*X93228Y48032*Y47764*X93125Y47496*X92919Y47227*X92609Y46997*X92299Y46882*X91834Y46806*X91369Y46844*X90853Y46997*X90543Y47189*X90285Y47457*X90130Y47802*Y48109*X90233Y48377*X90388Y48607*X99764Y54016D2*X102913D1*Y47717*X99764*Y54016*X101969Y23150D2*X98819D1*Y29449*X101969*Y23150*X103285Y20046D2*X103125Y19670D1*X102965Y19462*X102752Y19379*X102565Y19420*X102406Y19587*X102272Y19879*X102219Y20170*X102272Y20504*X102379Y20754*X102539Y20920*X102752Y21004*X102939Y20920*X103098Y20754*X103231Y20420*X103285Y20046*Y19587*X103231Y19212*X103098Y18837*X102912Y18587*X102699Y18504*X102485Y18587*X102299Y18796*X100235Y18504D2*X100875D1*X100235Y20504D2*X100555Y21004D1*Y18504*X99024Y18879D2*X98891Y18712D1*X98731Y18587*X98545Y18504*X98358*X98172Y18587*X97985Y18754*X97826Y19004*X97746Y19254*X97692Y19629*X97719Y20004*X97826Y20420*X97959Y20670*X98145Y20879*X98385Y21004*X98598*X98785Y20920*X98944Y20796*X96732Y23150D2*X93583D1*Y29449*X96732*Y23150*X88516Y28252D2*X88619Y28559D1*X88877Y28789*X89187Y28942*X89600Y29057*X90065Y29095*X90530Y29057*X90943Y28942*X91253Y28789*X91511Y28559*X91614Y28252*X91511Y27945*X91253Y27715*X90943Y27562*X90530Y27447*X90065Y27409*X89600Y27447*X89187Y27562*X88877Y27715*X88619Y27945*X88516Y28252*X91614Y25958D2*Y24349D1*X91150Y24426*X90633Y24656*X90272Y25000*X89755Y25767*X89497Y25920*X89187Y25958*X88877Y25881*X88619Y25613*X88516Y25230*X88567Y24924*X88722Y24656*X89032Y24426*X91150Y23013D2*X91356Y22822D1*X91511Y22592*X91614Y22323*Y22055*X91511Y21787*X91304Y21519*X90994Y21289*X90685Y21174*X90220Y21097*X89755Y21135*X89239Y21289*X88929Y21480*X88671Y21748*X88516Y22093*Y22400*X88619Y22668*X88774Y22898*X106220Y17992D2*Y6969D1*X93622*Y17992*X106220*X108946Y4671D2*X109291Y4878D1*X109635Y4929*X109980Y4774*X110172Y4516*X110249Y4206*X110172Y3896*X109980Y3638*X109750Y3483*X109406D2*X109750D1*X110019Y3380*X110287Y3122*X110364Y2760*X110325Y2450*X110134Y2141*X109827Y1882*X109520Y1831*X109176Y1882*X108869Y2089*X108639Y2450*X105541Y1831D2*X106307D1*X106614Y1985*X106844Y2192*X107035Y2502*X107189Y2863*X107227Y3380*X107189Y3896*X107035Y4258*X106844Y4568*X106614Y4774*X106307Y4929*X105541*Y1831*X104052D2*X102519D1*Y4929*X89252Y3425D2*X86102D1*Y9724*X89252*Y3425*X94213Y209921D2*X84213D1*X94213Y189921D2*X84213D1*Y209921*X68622Y193307D2*X71772D1*Y183071*X68622*Y193307*X75697Y192871D2*Y190956D1*X73476Y192373*X76575*X74922Y187933D2*Y189122D1*X75026Y189390*X75335Y189620*X75697Y189696*X76058Y189620*X76368Y189467*X76575Y189198*Y187933*X73476*Y188968*X73631Y189237*X73838Y189390*X74148Y189467*X74509Y189390*X74767Y189275*X74922Y189122*X73838Y186368D2*X73580Y186138D1*X73476Y185870*Y185602*X73631Y185333*X73889Y185142*X74251Y185065*X74613Y185180*X74819Y185448*X74922Y185908*X75129Y186253*X75439Y186444*X75800Y186521*X76162Y186406*X76420Y186176*X76575Y185870*Y185563*X76420Y185219*X76162Y184912*X82882Y185396D2*X82676Y185741D1*X82624Y186086*X82779Y186431*X83037Y186623*X83347Y186700*X83657Y186623*X83915Y186431*X84070Y186201*Y185856D2*Y186201D1*X84173Y186470*X84431Y186738*X84793Y186815*X85103Y186776*X85413Y186585*X85671Y186278*X85722Y185971*X85671Y185626*X85464Y185320*X85103Y185090*X84431Y182068D2*Y182988D1*X84276Y183333*X83967Y183524*X83554Y183601*X83141Y183524*X82779Y183294*X82624Y182988*Y182068*X85722*X82624Y180503D2*X84690D1*X85103Y180426*X85413Y180196*X85619Y179966*X85722Y179659*X85619Y179391*X85413Y179161*X85103Y178970*X72480Y156378D2*X75630D1*Y150079*X72480*Y156378*X75591Y147122D2*X75539Y146854D1*X75384Y146547*X75126Y146356*X74764Y146279*X74403Y146356*X74093Y146585*X73938Y146930*Y147314*X73835Y147544*X73577Y147735*X73215Y147812*X72854Y147697*X72595Y147429*X72492Y147122*X72595Y146815*X72854Y146547*X73215Y146432*X73577Y146509*X73835Y146700*X73938Y146930*Y147314*X74093Y147659*X74403Y147889*X74764Y147965*X75126Y147889*X75384Y147697*X75539Y147390*X75591Y147122*X75126Y144981D2*X75332Y144790D1*X75487Y144560*X75591Y144292*Y144024*X75487Y143756*X75281Y143487*X74971Y143257*X74661Y143142*X74196Y143066*X73731Y143104*X73215Y143257*X72905Y143449*X72647Y143717*X72492Y144062*Y144369*X72595Y144637*X72750Y144867*X79055Y156378D2*X82205D1*Y150079*X79055*Y156378*X79403Y145783D2*X79144Y145592D1*X79041Y145324*X79093Y145055*X79351Y144787*X79713Y144595*X80074Y144480*X80746Y144404*X81262Y144442*X81727Y144595*X82037Y144864*X82140Y145170*X82037Y145439*X81778Y145669*X81469Y145822*X81159Y145860*X80797Y145822*X80487Y145669*X80281Y145477*X80178Y145209*X80281Y144902*X80487Y144672*X80849Y144404*X81675Y142991D2*X81881Y142800D1*X82037Y142570*X82140Y142302*Y142033*X82037Y141765*X81830Y141497*X81520Y141267*X81210Y141152*X80746Y141076*X80281Y141114*X79764Y141267*X79454Y141459*X79196Y141727*X79041Y142072*Y142378*X79144Y142646*X79300Y142876*X84333Y142363D2*Y140448D1*X82112Y141865*X85211*Y137847D2*Y138767D1*X82732Y137847D2*X82112Y138307D1*X85211*Y135975D2*X83713Y135400D1*Y134442D2*Y135400D1*X83558Y135669*X83300Y135898*X82887Y135975*X82474Y135898*X82267Y135707*X82112Y135400*Y134442*X85211*X70433Y120945D2*X67283D1*Y127244*X70433*Y120945*X73168Y126156D2*X73633Y125926D1*X73891Y125696*X73994Y125390*X73943Y125122*X73736Y124892*X73374Y124700*X73013Y124623*X72600Y124700*X72290Y124853*X72083Y125083*X71980Y125390*X72083Y125658*X72290Y125888*X72703Y126080*X73168Y126156*X73736*X74201Y126080*X74666Y125888*X74976Y125620*X75079Y125313*X74976Y125007*X74717Y124738*X74614Y123249D2*X74820Y123058D1*X74976Y122828*X75079Y122559*Y122291*X74976Y122023*X74769Y121755*X74459Y121525*X74149Y121410*X73685Y121333*X73220Y121372*X72703Y121525*X72393Y121717*X72135Y121985*X71980Y122330*Y122636*X72083Y122904*X72239Y123134*X86465Y112303D2*X87385D1*X86465Y114782D2*X86925Y115402D1*Y112303*X82945Y115402D2*X84708D1*X83827D2*Y112303D1*X94685Y109272D2*Y89783D1*X79331*Y109272*X94685*X91496Y82441D2*Y79291D1*X81260*Y82441*X91496*X88936Y77368D2*X89281Y77574D1*X89626Y77626*X89970Y77471*X90162Y77213*X90239Y76903*X90162Y76593*X89970Y76335*X89741Y76180*X89396D2*X89741D1*X90009Y76077*X90277Y75819*X90354Y75457*X90315Y75147*X90124Y74837*X89817Y74579*X89511Y74528*X89166Y74579*X88859Y74786*X88630Y75147*X85493Y76180D2*X86681D1*X86949Y76077*X87179Y75767*X87256Y75406*X87179Y75044*X87026Y74734*X86757Y74528*X85493*Y77626*X86527*X86796Y77471*X86949Y77265*X87026Y76955*X86949Y76593*X86834Y76335*X86681Y76180*X83927Y77265D2*X83697Y77523D1*X83429Y77626*X83161*X82893Y77471*X82701Y77213*X82624Y76851*X82739Y76490*X83007Y76283*X83467Y76180*X83812Y75974*X84004Y75664*X84080Y75302*X83965Y74941*X83735Y74682*X83429Y74528*X83122*X82778Y74682*X82471Y74941*X73465Y75866D2*X70315D1*Y82165*X73465*Y75866*X75051Y81083D2*Y80048D1*X76394Y79933*X76187Y80278*X76136Y80546*X76187Y80815*X76394Y81083*X76652Y81274*X77065Y81351*X77478Y81313*X77840Y81121*X78046Y80853*X78150Y80508*X78098Y80163*X77943Y79895*X77685Y79665*Y78367D2*X77891Y78176D1*X78046Y77946*X78150Y77678*Y77409*X78046Y77141*X77840Y76873*X77530Y76643*X77220Y76528*X76756Y76452*X76291Y76490*X75774Y76643*X75464Y76835*X75206Y77103*X75051Y77448*Y77754*X75154Y78022*X75309Y78252*X80492Y39567D2*X92106D1*Y35236*X80492*Y39567*X88395Y47728D2*X86479D1*X87897Y49949*Y46850*X85181Y49949D2*Y47728D1*X85028Y47263*X84722Y46954*X84339Y46850*X83956Y46954*X83649Y47263*X83496Y47728*Y49949*X84134Y20984D2*X80984D1*Y27283*X84134*Y20984*X76200Y27447D2*X75942Y27255D1*X75839Y26987*X75890Y26719*X76148Y26450*X76510Y26259*X76871Y26144*X77543Y26067*X78059Y26106*X78524Y26259*X78834Y26527*X78937Y26833*X78834Y27102*X78576Y27332*X78266Y27485*X77956Y27523*X77594Y27485*X77285Y27332*X77078Y27140*X76975Y26872*X77078Y26565*X77285Y26335*X77646Y26067*X78937Y24502D2*Y22892D1*X78472Y22969*X77956Y23199*X77594Y23544*X77078Y24310*X76820Y24463*X76510Y24502*X76200Y24425*X75942Y24157*X75839Y23774*X75890Y23467*X76045Y23199*X76355Y22969*X78472Y21556D2*X78679Y21365D1*X78834Y21135*X78937Y20867*Y20598*X78834Y20330*X78627Y20062*X78317Y19832*X78007Y19717*X77543Y19641*X77078Y19679*X76561Y19832*X76252Y20024*X75994Y20292*X75839Y20637*Y20943*X75942Y21211*X76097Y21441*X72323Y12520D2*X69173D1*Y18819*X72323*Y12520*X69468Y10215D2*X69209Y10023D1*X69106Y9755*X69158Y9486*X69416Y9218*X69778Y9026*X70139Y8911*X70811Y8835*X71327Y8873*X71792Y9026*X72102Y9295*X72205Y9601*X72102Y9870*X71843Y10100*X71533Y10253*X71224Y10291*X70862Y10253*X70552Y10100*X70346Y9908*X70243Y9640*X70346Y9333*X70552Y9103*X70914Y8835*X72205Y7231D2*X70707Y6656D1*Y5698D2*Y6656D1*X70552Y6924*X70294Y7154*X69881Y7231*X69468Y7154*X69261Y6963*X69106Y6656*Y5698*X72205*X81024Y15630D2*X84173D1*Y9331*X81024*Y15630*X76726Y16585D2*X76467Y16393D1*X76364Y16125*X76416Y15856*X76674Y15588*X77035Y15396*X77397Y15281*X78069Y15205*X78585Y15243*X79050Y15396*X79359Y15665*X79463Y15971*X79359Y16240*X79101Y16470*X78791Y16623*X78481Y16661*X78120Y16623*X77810Y16470*X77604Y16278*X77500Y16010*X77604Y15703*X77810Y15473*X78172Y15205*X79463Y13639D2*Y12030D1*X78998Y12107*X78481Y12337*X78120Y12681*X77604Y13448*X77345Y13601*X77035Y13639*X76726Y13563*X76467Y13294*X76364Y12911*X76416Y12605*X76571Y12337*X76881Y12107*X79463Y10503D2*X77965Y9928D1*Y8970D2*Y9928D1*X77810Y10196*X77552Y10426*X77139Y10503*X76726Y10426*X76519Y10234*X76364Y9928*Y8970*X79463*X84067Y5683D2*X83032D1*X82917Y4341*X83262Y4547*X83530Y4598*X83799Y4547*X84067Y4341*X84259Y4082*X84335Y3669*X84297Y3256*X84105Y2894*X83837Y2688*X83492Y2585*X83147Y2636*X82879Y2791*X82649Y3049*X81198Y2585D2*X79589D1*X79666Y3049*X79896Y3566*X80241Y3927*X81007Y4444*X81160Y4702*X81198Y5012*X81122Y5322*X80854Y5580*X80470Y5683*X80164Y5631*X79896Y5476*X79666Y5167*X78062Y2585D2*X77487Y4082D1*X76529D2*X77487D1*X77755Y4237*X77985Y4495*X78062Y4908*X77985Y5322*X77793Y5528*X77487Y5683*X76529*Y2585*X62598Y215127D2*Y216046D1*X60120Y215127D2*X59500Y215587D1*X62598*Y213255D2*Y211722D1*X59500*X56091Y220273D2*Y218357D1*X53870Y219775*X56969*Y215757D2*Y216676D1*X54490Y215757D2*X53870Y216217D1*X56969*X56504Y214076D2*X56710Y213885D1*X56865Y213655*X56969Y213386*Y213118*X56865Y212850*X56659Y212581*X56349Y212352*X56039Y212237*X55574Y212160*X55109Y212198*X54593Y212352*X54283Y212543*X54025Y212811*X53870Y213156*Y213463*X53973Y213731*X54128Y213961*X62874Y202717D2*X59724D1*Y209016*X62874*Y202717*X53701Y209016D2*X56850D1*Y202717*X53701*Y209016*X59724Y191732D2*X62874D1*Y185433*X59724*Y191732*X59861Y183077D2*X59603Y182885D1*X59500Y182617*X59552Y182348*X59810Y182080*X60171Y181889*X60533Y181774*X61204Y181697*X61720Y181735*X62185Y181889*X62495Y182157*X62598Y182463*X62495Y182732*X62237Y182962*X61927Y183115*X61617Y183153*X61256Y183115*X60946Y182962*X60739Y182770*X60636Y182502*X60739Y182195*X60946Y181965*X61307Y181697*X62598Y178867D2*Y179787D1*X60120Y178867D2*X59500Y179327D1*X62598*X62134Y177186D2*X62340Y176995D1*X62495Y176765*X62598Y176496*Y176228*X62495Y175960*X62289Y175692*X61979Y175462*X61669Y175347*X61204Y175270*X60739Y175309*X60223Y175462*X59913Y175654*X59655Y175922*X59500Y176267*Y176573*X59603Y176841*X59758Y177071*X56850Y185433D2*X53701D1*Y191732*X56850*Y185433*X53870Y182606D2*Y181572D1*X55213Y181457*X55006Y181802*X54955Y182070*X55006Y182338*X55213Y182606*X55471Y182798*X55884Y182874*X56297Y182836*X56659Y182644*X56865Y182376*X56969Y182031*X56917Y181687*X56762Y181419*X56504Y181189*X56969Y178473D2*Y179393D1*X54490Y178473D2*X53870Y178933D1*X56969*X56504Y176793D2*X56710Y176601D1*X56865Y176371*X56969Y176103*Y175835*X56865Y175567*X56659Y175298*X56349Y175068*X56039Y174953*X55574Y174877*X55109Y174915*X54593Y175068*X54283Y175260*X54025Y175528*X53870Y175873*Y176180*X53973Y176448*X54128Y176678*X62648Y149887D2*X62993Y150094D1*X63338Y150146*X63683Y149991*X63875Y149733*X63952Y149423*X63875Y149113*X63683Y148855*X63453Y148700*X63108D2*X63453D1*X63722Y148596*X63990Y148338*X64067Y147977*X64028Y147667*X63837Y147357*X63530Y147099*X63223Y147047*X62878Y147099*X62572Y147306*X62342Y147667*X60930Y150146D2*Y147925D1*X60776Y147460*X60470Y147150*X60087Y147047*X59704Y147150*X59397Y147460*X59244Y147925*Y150146*X55720Y125450D2*Y126983D1*X56495Y126676*X57063Y126485*X57580Y126331*X58148Y126217*X58819Y126140*X58354Y124076D2*X58561Y123885D1*X58716Y123655*X58819Y123386*Y123118*X58716Y122850*X58509Y122581*X58199Y122352*X57889Y122237*X57425Y122160*X56960Y122198*X56443Y122352*X56133Y122543*X55876Y122811*X55720Y123156*Y123463*X55824Y123731*X55979Y123961*X59685Y145433D2*X71496D1*Y133622*X59685*Y145433*X62753Y109469D2*X63672D1*X62753Y111947D2*X63213Y112567D1*Y109469*X59348Y110759D2*X60267D1*X60612Y110915*X60804Y111224*X60881Y111637*X60804Y112050*X60574Y112412*X60267Y112567*X59348*Y109469*X57782Y112567D2*Y110501D1*X57706Y110088*X57476Y109778*X57246Y109572*X56939Y109469*X56671Y109572*X56441Y109778*X56249Y110088*X63425Y120945D2*X60276D1*Y127244*X63425*Y120945*X55945Y75984D2*Y107953D1*X65787*Y75984*X55945*X54344Y80504D2*Y78894D1*X53880Y78971*X53363Y79201*X53002Y79546*X52485Y80312*X52227Y80465*X51917Y80504*X51607Y80427*X51349Y80159*X51246Y79776*X51298Y79469*X51453Y79201*X51763Y78971*X54344Y75757D2*Y76524D1*X54190Y76830*X53983Y77060*X53673Y77252*X53312Y77405*X52795Y77443*X52279Y77405*X51917Y77252*X51607Y77060*X51401Y76830*X51246Y76524*Y75757*X54344*X63780Y64370D2*X60630D1*Y70669*X63780*Y64370*X53691Y52126D2*X53877Y52163D1*X54040Y52309*X54180Y52529*X54273Y52785*X54320Y53078*Y53371*X54273Y53664*X54180Y53920*X54040Y54140*X53877Y54286*X53691Y54323*X53505Y54286*X53342Y54140*X53202Y53920*X53109Y53664*X53062Y53371*Y53078*X53109Y52785*X53202Y52529*X53342Y52309*X53505Y52163*X53691Y52126*X52717Y54323D2*X52391Y52126D1*X52018Y54323*X51645Y52126*X51319Y54323*X50741Y54067D2*X50601Y54250D1*X50438Y54323*X50274*X50111Y54213*X49995Y54030*X49948Y53774*X50019Y53517*X50181Y53371*X50461Y53298*X50670Y53151*X50787Y52931*X50834Y52675*X50764Y52419*X50624Y52236*X50438Y52126*X50251*X50042Y52236*X49855Y52419*X50118Y72047D2*X55630D1*Y64961*X50118*Y72047*X65301Y70707D2*Y69672D1*X66644Y69557*X66437Y69902*X66386Y70170*X66437Y70439*X66644Y70707*X66902Y70898*X67315Y70975*X67728Y70937*X68090Y70745*X68296Y70477*X68400Y70132*X68348Y69787*X68193Y69519*X67935Y69289*X68400Y67800D2*X66902Y67225D1*Y66267D2*Y67225D1*X66747Y67493*X66489Y67723*X66076Y67800*X65663Y67723*X65456Y67531*X65301Y67225*Y66267*X68400*X65748Y58701D2*Y6732D1*X55906*Y58701*X65748*X64450Y2165D2*X62841D1*X62918Y2630*X63148Y3146*X63493Y3508*X64259Y4024*X64412Y4283*X64450Y4593*X64374Y4902*X64106Y5161*X63722Y5264*X63416Y5212*X63148Y5057*X62918Y4747*X61429Y5264D2*Y2165D1*X59666Y5264*Y2165*X58407Y2630D2*X58215Y2424D1*X57985Y2269*X57717Y2165*X57449*X57181Y2269*X56912Y2475*X56682Y2785*X56567Y3095*X56491Y3559*X56529Y4024*X56682Y4541*X56874Y4851*X57142Y5109*X57487Y5264*X57794*X58062Y5161*X58292Y5006*X37021Y319134D2*X35412D1*X35489Y319598*X35719Y320115*X36063Y320476*X36830Y320993*X36983Y321251*X37021Y321561*X36944Y321871*X36676Y322129*X36293Y322232*X35987Y322181*X35719Y322026*X35489Y321716*X32237Y320786D2*X33425D1*X33693Y320683*X33923Y320373*X34000Y320012*X33923Y319650*X33770Y319341*X33501Y319134*X32237*Y322232*X33271*X33540Y322077*X33693Y321871*X33770Y321561*X33693Y321200*X33578Y320941*X33425Y320786*X73246Y319094D2*Y320541D1*X73131Y320902*X72901Y321108*X72633Y321160*X72326Y321108*X72096Y320902*X71943Y320644*Y319094D2*Y321160D1*X69496Y319094D2*X69726Y319146D1*X69956Y319353*X70109Y319714*X70148Y320127*X70109Y320541*X69956Y320902*X69726Y321108*X69496Y321160*X69266Y321108*X69036Y320902*X68883Y320541*X68806Y320127*X68883Y319714*X69036Y319353*X69266Y319146*X69496Y319094*X65861Y321160D2*X66934D1*X66398Y322193D2*Y319094D1*X62763Y321160D2*X63836D1*X63299Y322193D2*Y319094D1*X60852D2*Y321160D1*Y319714D2*X60699Y319353D1*X60469Y319146*X60201Y319094*X59933Y319146*X59703Y319353*X59549Y319714*Y321160*X56221Y320747D2*X57409D1*X57677Y320644*X57907Y320334*X57984Y319972*X57907Y319611*X57754Y319301*X57485Y319094*X56221*Y322193*X57256*X57524Y322038*X57677Y321831*X57754Y321522*X57677Y321160*X57562Y320902*X57409Y320747*X51442Y320954D2*X51212Y321108D1*X51020Y321160*X50752Y321108*X50561Y320954*X50369Y320747*Y319094D2*Y321160D1*X48459Y319507D2*X48190Y319198D1*X47922Y319094*X47654Y319146*X47424Y319353*X47232Y319663*X47156Y319972*Y320282*X47232Y320592*X47385Y320954*X47615Y321108*X47884Y321160*X48152Y321057*X48344Y320850*X48459Y320489*X47232*X45169Y320954D2*X44939Y321108D1*X44709Y321160*X44479Y321108*X44326Y320954*X44249Y320695*X44402Y320334*X45092Y320024*X45245Y319869*X45283Y319559*X45207Y319353*X45054Y319198*X44824Y319094*X44594*X44326Y319249*X44134Y319456*X42453Y322193D2*Y319972D1*X42300Y319507*X41993Y319198*X41610Y319094*X41227Y319198*X40920Y319507*X40767Y319972*Y322193*X38014Y320127D2*X39010D1*X40945Y292126D2*Y315748D1*X64567*Y292126*X40945*X39173Y283150D2*X42323D1*Y276850*X39173*Y283150*X48386Y284450D2*Y282841D1*X47921Y282918*X47405Y283148*X47043Y283493*X46527Y284259*X46269Y284412*X45959Y284450*X45649Y284374*X45391Y284106*X45287Y283722*X45339Y283416*X45494Y283148*X45804Y282918*X48386Y281352D2*Y279743D1*X47921Y279819*X47405Y280049*X47043Y280394*X46527Y281160*X46269Y281314*X45959Y281352*X45649Y281275*X45391Y281007*X45287Y280624*X45339Y280317*X45494Y280049*X45804Y279819*X48386Y278215D2*X46888Y277641D1*Y276682D2*Y277641D1*X46733Y277909*X46475Y278139*X46062Y278215*X45649Y278139*X45443Y277947*X45287Y277641*Y276682*X48386*X43346Y246102D2*X33346D1*X44539Y239535D2*Y238501D1*X45882Y238386*X45676Y238731*X45624Y238999*X45676Y239267*X45882Y239535*X46140Y239727*X46554Y239804*X46967Y239765*X47328Y239574*X47535Y239306*X47638Y238961*X47586Y238616*X47431Y238348*X47173Y238118*X46347Y235096D2*Y236015D1*X46192Y236360*X45882Y236552*X45469Y236629*X45056Y236552*X44694Y236322*X44539Y236015*Y235096*X47638*X44539Y233530D2*X46605D1*X47018Y233454*X47328Y233224*X47535Y232994*X47638Y232687*X47535Y232419*X47328Y232189*X47018Y231997*X33346Y246102D2*Y226102D1*X43346Y246102D2*Y226102D1*X33346*X50197Y220041D2*Y218431D1*X49732Y218508*X49216Y218738*X48854Y219083*X48338Y219849*X48080Y220003*X47770Y220041*X47460Y219964*X47202Y219696*X47098Y219313*X47150Y219006*X47305Y218738*X47615Y218508*X50197Y215678D2*Y216598D1*X47718Y215678D2*X47098Y216138D1*X50197*X49732Y213997D2*X49939Y213806D1*X50094Y213576*X50197Y213307*Y213039*X50094Y212771*X49887Y212503*X49577Y212273*X49267Y212158*X48803Y212081*X48338Y212120*X47821Y212273*X47511Y212465*X47254Y212733*X47098Y213078*Y213384*X47202Y213652*X47357Y213882*X36772Y203386D2*X39921D1*Y197087*X36772*Y203386*X47323Y209016D2*X50472D1*Y202717*X47323*Y209016*X36744Y194220D2*Y193186D1*X38087Y193071*X37880Y193416*X37829Y193684*X37880Y193952*X38087Y194220*X38345Y194412*X38758Y194489*X39171Y194450*X39533Y194259*X39739Y193991*X39843Y193646*X39791Y193301*X39636Y193033*X39378Y192803*X39843Y190087D2*Y191007D1*X37364Y190087D2*X36744Y190547D1*X39843*Y188215D2*X38345Y187641D1*Y186682D2*Y187641D1*X38190Y187909*X37932Y188139*X37519Y188215*X37106Y188139*X36899Y187947*X36744Y187641*Y186682*X39843*X50472Y185433D2*X47323D1*Y191732*X50472*Y185433*X47435Y181849D2*X47229Y182194D1*X47177Y182539*X47332Y182884*X47590Y183076*X47900Y183152*X48210Y183076*X48468Y182884*X48623Y182654*Y182309D2*Y182654D1*X48726Y182922*X48985Y183191*X49346Y183267*X49656Y183229*X49966Y183037*X50224Y182731*X50276Y182424*X50224Y182079*X50017Y181773*X49656Y181543*X50276Y178828D2*Y179747D1*X47797Y178828D2*X47177Y179287D1*X50276*X49811Y177147D2*X50017Y176956D1*X50172Y176726*X50276Y176457*Y176189*X50172Y175921*X49966Y175652*X49656Y175422*X49346Y175307*X48881Y175231*X48417Y175269*X47900Y175422*X47590Y175614*X47332Y175882*X47177Y176227*Y176534*X47280Y176802*X47435Y177032*X46543Y162547D2*X45509D1*X45394Y161205*X45739Y161411*X46007Y161463*X46275Y161411*X46543Y161205*X46735Y160946*X46811Y160533*X46773Y160120*X46581Y159759*X46313Y159552*X45969Y159449*X45624Y159500*X45356Y159656*X45126Y159913*X43752Y162547D2*Y159449D1*X41989Y162547*Y159449*X40730Y159913D2*X40538Y159707D1*X40308Y159552*X40040Y159449*X39772*X39504Y159552*X39235Y159759*X39005Y160069*X38890Y160378*X38814Y160843*X38852Y161308*X39005Y161824*X39197Y162134*X39465Y162392*X39810Y162547*X40117*X40385Y162444*X40615Y162289*X45478Y72547D2*X47011D1*X46704Y71772*X46512Y71205*X46359Y70688*X46244Y70120*X46167Y69449*X44027Y72547D2*Y69449D1*X42264Y72547*Y69449*X41005Y69913D2*X40814Y69707D1*X40584Y69552*X40315Y69449*X40047*X39779Y69552*X39511Y69759*X39281Y70069*X39166Y70378*X39089Y70843*X39128Y71308*X39281Y71824*X39472Y72134*X39741Y72392*X40085Y72547*X40392*X40660Y72444*X40890Y72289*X37835Y76969D2*Y156969D1*X47677*Y76969*X37835*X54120Y43811D2*X55191D1*X54656D2*Y41614D1*X53378Y43555D2*X53239Y43738D1*X53076Y43811*X52912*X52749Y43701*X52633Y43518*X52586Y43262*X52656Y43006*X52819Y42859*X53099Y42786*X53308Y42639*X53425Y42420*X53472Y42163*X53402Y41907*X53262Y41724*X53076Y41614*X52889*X52680Y41724*X52493Y41907*X51775Y41614D2*X51426Y42676D1*X50843D2*X51426D1*X51589Y42786*X51728Y42969*X51775Y43262*X51728Y43555*X51612Y43701*X51426Y43811*X50843*Y41614*X50172Y43811D2*Y41614D1*X49100Y43811*Y41614*X55030Y31260D2*X55216Y31296D1*X55379Y31443*X55519Y31663*X55612Y31919*X55659Y32212*Y32505*X55612Y32798*X55519Y33054*X55379Y33274*X55216Y33420*X55030Y33457*X54843Y33420*X54680Y33274*X54540Y33054*X54447Y32798*X54400Y32505*Y32212*X54447Y31919*X54540Y31663*X54680Y31443*X54843Y31296*X55030Y31260*X53077D2*X53636D1*X53356Y33457D2*Y31260D1*X53077Y33457D2*X53636D1*X51170Y31260D2*X51637D1*X51823Y31370*X51963Y31516*X52079Y31736*X52172Y31992*X52196Y32358*X52172Y32724*X52079Y32981*X51963Y33200*X51823Y33347*X51637Y33457*X51170*Y31260*X50709Y33457D2*X50383Y31260D1*X50010Y33457*X49637Y31260*X49311Y33457*X48733Y33200D2*X48593Y33383D1*X48430Y33457*X48267*X48104Y33347*X47987Y33164*X47941Y32907*X48011Y32651*X48174Y32505*X48453Y32431*X48663Y32285*X48779Y32065*X48826Y31809*X48756Y31553*X48616Y31370*X48430Y31260*X48243*X48034Y31370*X47847Y31553*X52863Y21575D2*X53330D1*X53516Y21685*X53656Y21831*X53772Y22051*X53865Y22307*X53889Y22673*X53865Y23039*X53772Y23296*X53656Y23515*X53516Y23662*X53330Y23772*X52863*Y21575*X52239Y23772D2*Y21575D1*X51167Y23772*Y21575*X50519Y23552D2*X50379Y23698D1*X50193Y23772*X50030*X49843Y23662*X49704Y23515*X49564Y23296*X49470Y23039*X49424Y22820*Y22563*X49470Y22270*X49564Y22014*X49704Y21794*X49867Y21648*X50100Y21575*X50332Y21648*X50495Y21794*X50635Y22014*Y22673*X50169*X37874Y6969D2*Y66969D1*X47717*Y6969*X37874*X55542Y11693D2*X54913Y13157D1*X55402Y13890D2*X54517Y12535D1*Y11693D2*Y13890D1*X53822Y11693D2*X52891D1*Y13890*X52265Y12022D2*X52149Y11876D1*X52009Y11766*X51846Y11693*X51683*X51520Y11766*X51357Y11913*X51217Y12132*X51147Y12352*X51101Y12681*X51124Y13011*X51217Y13377*X51334Y13597*X51497Y13780*X51706Y13890*X51893*X52056Y13817*X52196Y13707*X50709Y13890D2*X50383Y11693D1*X50010Y13890*X49637Y11693*X49311Y13890*X48733Y13633D2*X48593Y13817D1*X48430Y13890*X48267*X48104Y13780*X47987Y13597*X47941Y13341*X48011Y13084*X48174Y12938*X48453Y12865*X48663Y12718*X48779Y12498*X48826Y12242*X48756Y11986*X48616Y11803*X48430Y11693*X48243*X48034Y11803*X47847Y11986*X34882Y276850D2*X31732D1*Y283150*X34882*Y276850*X31469Y272976D2*X31572Y273283D1*X31830Y273513*X32140Y273666*X32553Y273781*X33018Y273819*X33483Y273781*X33896Y273666*X34206Y273513*X34464Y273283*X34567Y272976*X34464Y272670*X34206Y272440*X33896Y272287*X33483Y272172*X33018Y272133*X32553Y272172*X32140Y272287*X31830Y272440*X31572Y272670*X31469Y272976*X34567Y269418D2*Y270338D1*X32088Y269418D2*X31469Y269878D1*X34567*X34102Y267737D2*X34309Y267546D1*X34464Y267316*X34567Y267048*Y266780*X34464Y266511*X34257Y266243*X33947Y266013*X33637Y265898*X33173Y265822*X32708Y265860*X32191Y266013*X31881Y266205*X31624Y266473*X31469Y266818*Y267124*X31572Y267393*X31727Y267622*X34950Y142602D2*X34417D1*X35270Y143311D2*X35190Y143519D1*X35030Y143602*X34870Y143561*X34763Y143436*X34710Y143228*Y141102*X33126Y141435D2*X32940Y141186D1*X32753Y141102*X32567Y141144*X32407Y141311*X32274Y141561*X32220Y141811*Y142061*X32274Y142311*X32380Y142602*X32540Y142727*X32726Y142769*X32913Y142686*X33046Y142519*X33126Y142227*X32274*X31009Y141102D2*X30609Y142311D1*X29944D2*X30609D1*X30796Y142436*X30956Y142644*X31009Y142977*X30956Y143311*X30823Y143477*X30609Y143602*X29944*Y141102*X28946Y143602D2*X28280Y141102D1*X27613Y143602*X33903Y133484D2*X35128D1*X34516D2*Y130984D1*X32772Y133193D2*X32612Y133401D1*X32426Y133484*X32239*X32052Y133359*X31919Y133151*X31866Y132859*X31946Y132568*X32132Y132401*X32452Y132318*X32692Y132151*X32825Y131901*X32878Y131609*X32798Y131317*X32639Y131109*X32426Y130984*X32212*X31972Y131109*X31759Y131317*X30655Y130984D2*X30255Y132193D1*X29589D2*X30255D1*X30442Y132318*X30602Y132526*X30655Y132859*X30602Y133193*X30469Y133359*X30255Y133484*X29589*Y130984*X28538Y133484D2*Y130984D1*X27313Y133484*Y130984*X34615Y112572D2*X35361D1*X34988Y113406D2*Y110906D1*X33244D2*Y112572D1*Y111406D2*X33138Y111114D1*X32978Y110947*X32791Y110906*X32605Y110947*X32445Y111114*X32339Y111406*Y112572*X30594Y110906D2*X30754Y110947D1*X30914Y111114*X31021Y111406*X31047Y111739*X31021Y112072*X30914Y112364*X30754Y112530*X30594Y112572*X30435Y112530*X30275Y112364*X30168Y112072*X30115Y111739*X30168Y111406*X30275Y111114*X30435Y110947*X30594Y110906*X29064Y113406D2*X28398Y110906D1*X27731Y113406*X34379Y123237D2*X34619Y123403D1*X34859Y123445*X35098Y123320*X35231Y123111*X35285Y122861*X35231Y122611*X35098Y122403*X34939Y122278*X34699D2*X34939D1*X35125Y122195*X35311Y121987*X35365Y121695*X35338Y121445*X35205Y121195*X34992Y120987*X34779Y120945*X34539Y120987*X34326Y121153*X34166Y121445*X33221Y123445D2*X32555Y120945D1*X31889Y123445*X29985Y123237D2*X30225Y123403D1*X30465Y123445*X30705Y123320*X30838Y123111*X30891Y122861*X30838Y122611*X30705Y122403*X30545Y122278*X30305D2*X30545D1*X30731Y122195*X30918Y121987*X30971Y121695*X30944Y121445*X30811Y121195*X30598Y120987*X30385Y120945*X30145Y120987*X29932Y121153*X29772Y121445*X28161Y122320D2*Y121237D1*X27869Y121778D2*X28508D1*X34292Y90866D2*X34825D1*X35038Y90991*X35198Y91158*X35331Y91408*X35437Y91700*X35464Y92116*X35437Y92533*X35331Y92824*X35198Y93074*X35038Y93241*X34825Y93366*X34292*Y90866*X33294Y93366D2*Y90866D1*X32069Y93366*Y90866*X31044Y93116D2*X30884Y93283D1*X30671Y93366*X30484*X30271Y93241*X30111Y93074*X29952Y92824*X29845Y92533*X29792Y92283*Y91991*X29845Y91658*X29952Y91366*X30111Y91116*X30298Y90950*X30564Y90866*X30831Y90950*X31017Y91116*X31177Y91366*Y92116*X30644*X34292Y101102D2*X34825D1*X35038Y101227*X35198Y101394*X35331Y101644*X35437Y101936*X35464Y102352*X35437Y102769*X35331Y103061*X35198Y103311*X35038Y103477*X34825Y103602*X34292*Y101102*X33294Y103602D2*Y101102D1*X32069Y103602*Y101102*X31044Y103352D2*X30884Y103519D1*X30671Y103602*X30484*X30271Y103477*X30111Y103311*X29952Y103061*X29845Y102769*X29792Y102519*Y102227*X29845Y101894*X29952Y101602D2*X30111Y101352D1*X30298Y101186*X30564Y101102*X30831Y101186*X31017Y101352*X31177Y101602*Y102352*X30644*X35331Y80827D2*Y81993D1*X35251Y82285*X35091Y82452*X34905Y82493*X34691Y82452*X34531Y82285*X34425Y82077*Y80827D2*Y82493D1*X32681Y83160D2*X32734Y83202D1*Y83285*X32681Y83327*X32628Y83285*Y83202*X32681Y83160*Y82493D2*Y80827D1*X31150Y83327D2*X30484Y80827D1*X29818Y83327*X18001Y235622D2*X17501Y235155D1*X17251Y234688*X17126Y234035*X17376Y233289*X18001Y232728*X18751Y232355*X19626Y232262*X20501Y232355*X21251Y232728*X21876Y233289*X22126Y234035*X22001Y234688*X21626Y235248*X21001Y235622*X14626D2*X22126D1*X17626Y227748D2*X17251Y227188D1*X17126Y226722*X17251Y226069*X17626Y225602*X18126Y225135*X22126D2*X17126D1*X21126Y220622D2*X21626Y220248D1*X22001Y219688*X22126Y219035*X21876Y218382*X21376Y217822*X20626Y217448*X19626Y217262*X18626Y217448*X17876Y217822*X17376Y218382*X17126Y219035*X17251Y219688*X17501Y220248*X18001Y220622*X22126D2*X17126D1*X22126Y211442D2*X22001Y212002D1*X21501Y212562*X20626Y212935*X19626Y213028*X18626Y212935*X17751Y212562*X17251Y212002*X17126Y211442*X17251Y210882*X17751Y210322*X18626Y209948*X19626Y209762*X20626Y209948*X21501Y210322*X22001Y210882*X22126Y211442*X18126Y201795D2*Y204688D1*X18376Y205342*X19126Y205902*X20001Y206088*X20876Y205902*X21626Y205528*X22126Y204875*Y201795*X14626*Y204315*X15001Y204969*X15501Y205342*X16251Y205528*X17126Y205342*X17751Y205062*X18126Y204688*X22126Y190528D2*X18626D1*X17751Y190248*X17251Y189688*X17126Y189035*X17251Y188289*X17751Y187728*X18376Y187355*X22126D2*X17126D1*X22126Y181442D2*X22001Y182002D1*X21501Y182562*X20626Y182935*X19626Y183028*X18626Y182935*X17751Y182562*X17251Y182002*X17126Y181442*X17251Y180882*X17751Y180322*X18626Y179948*X19626Y179762*X20626Y179948*X21501Y180322*X22001Y180882*X22126Y181442*X15126Y173942D2*X15001Y174128D1*X14751*X14626Y173942*X14751Y173755*X15001*X15126Y173942*X17126D2*X22126D1*X17126Y165135D2*Y167748D1*X14626Y166442D2*X22126D1*X21126Y160622D2*X21626Y160248D1*X22001Y159688*X22126Y159035*X21876Y158382*X21376Y157822*X20626Y157448*X19626Y157262*X18626Y157448*X17876Y157822*X17376Y158382*X17126Y159035*X17251Y159688*X17501Y160248*X18001Y160622*X22126D2*X17126D1*X22126Y153028D2*X17126D1*X20626D2*X21501Y152655D1*X22001Y152095*X22126Y151442*X22001Y150789*X21501Y150228*X20626Y149855*X17126*X22126Y143942D2*X14626D1*X21126Y138122D2*X21626Y137748D1*X22001Y137188*X22126Y136535*X21876Y135882*X21376Y135322*X20626Y134948*X19626Y134762*X18626Y134948*X17876Y135322*X17376Y135882*X17126Y136535*X17251Y137188*X17501Y137748*X18001Y138122*X22126D2*X17126D1*Y130622D2*X22126Y128942D1*X17126Y127262*X18251Y121815D2*Y119575D1*X14626Y123308D2*Y119575D1*X22126*Y123308*X34760Y63720D2*X34973Y63637D1*X35133Y63429*X35239Y63179*X35319Y62845*X35346Y62470*X35319Y62095*X35239Y61762*X35133Y61512*X34973Y61304*X34760Y61220*X34547Y61304*X34387Y61512*X34280Y61762*X34200Y62095*X34174Y62470*X34200Y62845*X34280Y63179*X34387Y63429*X34547Y63637*X34760Y63720*X31950Y62554D2*X32776D1*X32963Y62470*X33122Y62220*X33176Y61929*X33122Y61637*X33016Y61387*X32830Y61220*X31950*Y63720*X32670*X32856Y63595*X32963Y63429*X33016Y63179*X32963Y62887*X32883Y62679*X32776Y62554*X29833Y62262D2*X30473D1*X30713Y62387*X30846Y62637*X30899Y62970*X30846Y63304*X30686Y63595*X30473Y63720*X29833*Y61220*X35623Y42047D2*X34291D1*X35276Y43839*Y41339*X33186Y42213D2*X32333D1*X33426Y41339D2*X32760Y43839D1*X32094Y41339*X30030Y42380D2*X30670D1*X30909Y42505*X31043Y42755*X31096Y43089*X31043Y43422*X30883Y43713*X30670Y43839*X30030*Y41339*X34637Y21142D2*X35276D1*X34637Y23142D2*X34957Y23642D1*Y21142*X32147Y22475D2*X32973D1*X33159Y22392*X33319Y22142*X33372Y21850*X33319Y21558*X33213Y21308*X33026Y21142*X32147*Y23642*X32867*X33053Y23517*X33159Y23350*X33213Y23100*X33159Y22808*X33080Y22600*X32973Y22475*X30030Y22183D2*X30670D1*X30909Y22308*X31043Y22558*X31096Y22892*X31043Y23225*X30883Y23517*X30670Y23642*X30030*Y21142*X35280Y31181D2*X34161D1*X34214Y31556*X34374Y31973*X34614Y32265*X35147Y32681*X35253Y32889*X35280Y33139*X35227Y33389*X35040Y33598*X34774Y33681*X34561Y33639*X34374Y33515*X34214Y33265*X32950Y32056D2*X32097D1*X33190Y31181D2*X32524Y33681D1*X31857Y31181*X29794Y32223D2*X30433D1*X30673Y32348*X30806Y32598*X30859Y32931*X30806Y33265*X30646Y33556*X30433Y33681*X29794*Y31181*X34755Y10906D2*X35394D1*X34755Y12906D2*X35075Y13406D1*Y10906*X33304Y11780D2*X32452D1*X33544Y10906D2*X32878Y13406D1*X32212Y10906*X30148Y11947D2*X30788D1*X31028Y12072*X31161Y12322*X31214Y12656*X31161Y12989*X31001Y13280*X30788Y13406*X30148*Y10906*X11220Y137344D2*X8281D1*X7546Y137109*X7126Y136639*X7021Y136090*X7126Y135463*X7546Y134993*X8071Y134680*X11220D2*X7021D1*X11220Y129713D2*X11115Y130183D1*X10696Y130653*X9961Y130966*X9121Y131044*X8281Y130966*X7546Y130653*X7126Y130183*X7021Y129713*X7126Y129243*X7546Y128772*X8281Y128459*X9121Y128302*X9961Y128459*X10696Y128772*X11115Y129243*X11220Y129713*X7441Y124510D2*X7126Y124040D1*X7021Y123648*X7126Y123100*X7441Y122708*X7861Y122317*X11220D2*X7021D1*X10591Y118368D2*X11011Y117898D1*X11220Y117349*X11011Y116722*X10486Y116252*X9856Y115939*X9121Y115861*X8386Y115939*X7651Y116252*X7231Y116722*X7021Y117349*X7126Y117819*X7546Y118368*X5341Y110815D2*X5236Y110972D1*X5026*X4921Y110815*X5026Y110658*X5236*X5341Y110815*X7021D2*X11220D1*Y106553D2*X4921D1*X10170Y104516*X4921Y91917D2*X11220D1*X8071Y87263D2*Y83973D1*X4921Y87263D2*X11220D1*Y83973D2*X4921D1*X0Y324803D2*X275591D1*Y0*X0*Y324803*D600*X191519Y216795D2*X191137Y216458D1*X191859Y298044D2*X191367Y298461D1*X190873Y298832*X190373Y299159*X189862Y299442*X189337Y299684*X188794Y299885*X188229Y300046*X187639Y300170*X187019Y300256*X186366Y300307*X185676Y300324*X184945Y300307*X184169Y300259*X183344Y300180*X182466Y300072*X181532Y299936*X180879Y299827*X180212Y299701*X179533Y299558*X178842Y299397*X178138Y299220*X177422Y299027*X175957Y298590*X174448Y298090*X172897Y297527*X171306Y296902*X169679Y296217*X168016Y295474*X166321Y294673*X164595Y293816*X162840Y292905*X161060Y291941*X159256Y290924*X157431Y289858*X155586Y288742*X153725Y287579*X151848Y286370*X149959Y285115*X148060Y283818*X146153Y282478*X144240Y281097*X142324Y279677*X140406Y278219*X138489Y276725*X136575Y275195*X134667Y273631*X132767Y272035*X130876Y270408*X128998Y268752*X127134Y267066*X125287Y265355*X120671Y261031*X116003Y256708*X132159Y256676*X148262Y256645*X180450Y256582*X184265Y263092*X185279Y264869*X186275Y266706*X187247Y268584*X188188Y270485*X189091Y272392*X189950Y274284*X190758Y276146*X191141Y277060*X191509Y277958*X191861Y278840*X192196Y279703*X192513Y280545*X192812Y281362*X193092Y282154*X193352Y282918*X193591Y283651*X193808Y284351*X194002Y285016*X194173Y285644*X194320Y286233*X194442Y286779*X194538Y287282*X194608Y287738*X194650Y288145*X194663Y288502*Y289164*X194636Y289835*X194585Y290510*X194508Y291186*X194408Y291860*X194283Y292528*X194136Y293186*X193966Y293830*X193773Y294456*X193560Y295062*X193325Y295643*X193071Y296195*X192796Y296715*X192502Y297199*X192190Y297643*X191859Y298044*X88016Y195193D2*X88722Y194712D1*X89425Y194251*X89773Y194033*X90119Y193828*X90461Y193637*X90799Y193463*X91132Y193307*X91459Y193171*X91781Y193053*X92095Y192951*X92402Y192864*X92702Y192790*X92993Y192728*X93274Y192676*X93546Y192632*X93809Y192596*X94075Y192569*X94357Y192553*X94668Y192550*X94839Y192554*X95022Y192562*X95220Y192574*X95433Y192591*X95665Y192613*X95915Y192640*X96186Y192672*X96480Y192710*X96799Y192754*X97143Y192804*X97513Y192860*X97909Y192924*X98329Y192996*X98774Y193075*X99242Y193164*X99732Y193263*X100246Y193371*X100780Y193490*X101336Y193621*X101913Y193763*X102509Y193917*X103124Y194085*X103759Y194266*X104411Y194461*X105080Y194671*X105767Y194896*X106470Y195137*X107189Y195393*X107924Y195666*X108677Y195956*X109446Y196262*X110234Y196584*X111039Y196923*X111862Y197279*X112704Y197652*X113564Y198042*X114443Y198450*X115342Y198875*X116261Y199317*X117199Y199777*X118158Y200254*X119138Y200750*X120138Y201264*X121160Y201795*X122203Y202346*X123269Y202914*X124358Y203502*X125470Y204108*X126605Y204733*X127766Y205378*X128951Y206042*X130162Y206726*X131400Y207430*X132664Y208154*X133955Y208898*X135274Y209663*X136621Y210448*X137998Y211254*X139404Y212081*X140840Y212929*X142306Y213799*X143795Y214684*X146786Y216471*X148260Y217355*X148987Y217791*X149703Y218221*X150408Y218645*X151100Y219062*X151777Y219470*X152438Y219868*X153080Y220255*X153703Y220631*X154303Y220994*X154881Y221343*X155433Y221677*X155958Y221995*X156455Y222295*X156922Y222578*X157357Y222842*X157758Y223085*X157945Y223199*X158124Y223307*X158293Y223409*X158453Y223506*X158603Y223597*X158743Y223682*X158873Y223761*X158992Y223834*X159101Y223900*X159200Y223960*X159287Y224013*X159363Y224059*X159428Y224099*X159481Y224131*X159523Y224156*X159552Y224174*X159569Y224184*X159574Y224187*X159570Y224190*X159560Y224196*X159542Y224208*X159511Y224228*X159466Y224257*X159402Y224298*X159318Y224353*X159210Y224423*X159074Y224510*X158909Y224617*X158711Y224745*X158598Y224818*X158476Y224897*X158345Y224982*X158203Y225074*X158051Y225172*X157888Y225277*X157714Y225390*X157528Y225510*X157330Y225638*X157120Y225774*X156897Y225918*X156661Y226071*X156411Y226232*X156148Y226402*X155870Y226582*X155578Y226771*X155271Y226970*X154948Y227178*X154610Y227397*X154255Y227626*X153884Y227866*X153496Y228117*X153091Y228379*X152669Y228652*X152228Y228937*X151769Y229233*X151291Y229542*X150794Y229863*X150278Y230197*X149742Y230544*X149186Y230904*X148609Y231277*X148011Y231663*X147391Y232064*X146750Y232478*X146087Y232907*X145402Y233350*X144693Y233808*X143961Y234281*X143206Y234770*X142427Y235274*X141623Y235793*X140795Y236329*X139941Y236880*X139063Y237449*X138167Y238035*X137263Y238640*X136363Y239265*X135476Y239912*X134613Y240582*X132939Y241962*X131287Y243338*X130476Y244016*X129681Y244685*X128905Y245340*X128153Y245978*X127429Y246594*X127078Y246893*X126736Y247186*X126403Y247471*X126079Y247749*X125765Y248019*X125461Y248280*X125169Y248533*X124888Y248776*X124619Y249009*X124362Y249233*X124115Y249447*X123880Y249653*X123655Y249850*X123440Y250038*X123235Y250219*X123040Y250392*X122853Y250557*X122675Y250715*X122506Y250866*X122344Y251011*X122043Y251281*X121770Y251529*X121521Y251756*X121294Y251965*X121085Y252158*X120892Y252337*X120712Y252506*X120378Y252818*X120063Y253112*X119760Y253394*X119468Y253662*X119188Y253918*X118920Y254161*X118664Y254392*X118420Y254611*X118188Y254818*X117968Y255012*X117760Y255195*X117565Y255366*X117382Y255525*X117212Y255672*X117054Y255808*X116909Y255933*X116777Y256046*X116657Y256149*X116550Y256240*X116456Y256321*X116373Y256392*X116301Y256453*X116238Y256506*X116186Y256551*X116105Y256620*X116052Y256665*X116022Y256691*X116007Y256704*X116003Y256707*Y256708*X115996Y256701*X115986Y256689*X115967Y256667*X115937Y256634*X115895Y256586*X115838Y256521*X115764Y256437*X115669Y256330*X115553Y256198*X115412Y256039*X115332Y255948*X115245Y255850*X115151Y255743*X115049Y255627*X114939Y255503*X114821Y255370*X114695Y255227*X114560Y255074*X114416Y254911*X114263Y254738*X114101Y254554*X113928Y254358*X113746Y254152*X113555Y253935*X113355Y253708*X113146Y253471*X112929Y253223*X112704Y252966*X112472Y252700*X112232Y252424*X111985Y252140*X111731Y251846*X111205Y251235*X110655Y250592*X110085Y249919*X109497Y249219*X108894Y248493*X108277Y247743*X107650Y246972*X107015Y246181*X106375Y245372*X105731Y244548*X105088Y243710*X104446Y242861*X103175Y241133*X101923Y239371*X100694Y237581*X99490Y235771*X98317Y233947*X97177Y232116*X96074Y230283*X95538Y229368*X95012Y228456*X94498Y227546*X93995Y226640*X93504Y225739*X93025Y224844*X92558Y223954*X92105Y223072*X91665Y222198*X91239Y221332*X90828Y220476*X90430Y219631*X90048Y218796*X89681Y217974*X89330Y217164*X88995Y216369*X88677Y215587*X88375Y214821*X88091Y214071*X87824Y213339*X87575Y212623*X87343Y211926*X87128Y211249*X86928Y210590*X86744Y209952*X86574Y209334*X86417Y208738*X86275Y208163*X86144Y207611*X86026Y207082*X85919Y206577*X85822Y206096*X85736Y205639*X85658Y205209*X85590Y204804*X85529Y204426*X85476Y204074*X85430Y203751*X85390Y203452*X85356Y203178*X85328Y202925*X85306Y202692*X85289Y202478*X85277Y202280*X85270Y202097*X85267Y201927*X85272Y201619*X85292Y201340*X85322Y201078*X85362Y200817*X85408Y200546*X85463Y200264*X85528Y199971*X85605Y199669*X85695Y199357*X85800Y199038*X85922Y198711*X86062Y198377*X86223Y198038*X86404Y197693*X86602Y197344*X86814Y196991*X87040Y196634*X87518Y195915*X88016Y195193*X191960Y234331D2*X191831Y234743D1*X191695Y235163*X191552Y235591*X191402Y236026*X191085Y236918*X190745Y237831*X190386Y238761*X190009Y239702*X189617Y240649*X189213Y241596*X188799Y242538*X188377Y243469*X187950Y244385*X187519Y245280*X187089Y246148*X186660Y246983*X186448Y247387*X186236Y247781*X186027Y248165*X185819Y248537*X185614Y248897*X185411Y249244*X185211Y249578*X185015Y249897*X184918Y250052*X184898Y250083*X184883Y250106*X184854Y250152*X184737Y250336*X184503Y250704*X183563Y252171*X182607Y253617*X182119Y254328*X181623Y255029*X181117Y255717*X180600Y256392*X180469Y256559*X180453Y256579*X180439Y256582*X180412Y256583*X180359Y256584*X180147Y256588*X179723Y256596*X178023Y256627*X174615Y256677*X171196Y256714*X167768Y256739*X164333Y256756*X160891Y256764*X153993*X147088Y256754*X143628Y256749*X140149Y256743*X136640Y256738*X134871Y256735*X133090Y256732*X131295Y256730*X129486Y256727*X127661Y256724*X125817Y256722*X123955Y256719*X122072Y256716*X120167Y256714*X118238Y256711*X116284Y256708*X116038*X116007*X116012Y256700*X116033Y256683*X116074Y256647*X116241Y256507*X116571Y256228*X117217Y255683*X117847Y255152*X118461Y254634*X119060Y254129*X119644Y253636*X120213Y253154*X120769Y252682*X121313Y252219*X121844Y251765*X122364Y251319*X122873Y250881*X123372Y250448*X123861Y250021*X124342Y249599*X125279Y248766*X125737Y248354*X125851Y248251*X125907Y248200*X125921Y248187*X125928Y248181*X125937Y248173*X125977Y248139*X126294Y247870*X127561Y246801*X128828Y245744*X130092Y244701*X131355Y243671*X132616Y242654*X133874Y241652*X135129Y240663*X136381Y239689*X137629Y238729*X138872Y237784*X140112Y236854*X141346Y235940*X142576Y235041*X143800Y234158*X145018Y233291*X146229Y232440*X147434Y231606*X148632Y230789*X149823Y229988*X151006Y229205*X152181Y228440*X153347Y227692*X154504Y226962*X155653Y226251*X156791Y225558*X157920Y224884*X159039Y224229*X160146Y223593*X161243Y222976*X162329Y222380*X163402Y221803*X164464Y221247*X165513Y220711*X166549Y220196*X167572Y219702*X168581Y219229*X169576Y218778*X170558Y218348*X171524Y217941*X172475Y217555*X173411Y217192*X174331Y216852*X175235Y216535*X176123Y216241*X176993Y215971*X177847Y215724*X178682Y215501*X179500Y215302*X180300Y215128*X181080Y214979*X181842Y214854*X182584Y214755*X183307Y214681*X184009Y214633*X184691Y214611*X185351Y214615*X185991Y214645*X186609Y214702*X187205Y214786*X187779Y214898*X188329Y215036*X188857Y215203*X189361Y215397*X189842Y215619*X190298Y215870*X190730Y216149*X191137Y216458*X191519Y216795D2*X191875Y217162D1*X192043Y217357*X192205Y217559*X192360Y217768*X192508Y217985*X192650Y218210*X192785Y218442*X192913Y218682*X192975Y218804*X193002Y218861*X193013Y218884*X193100Y219065*X193266Y219416*X193423Y219752*X193569Y220077*X193704Y220391*X193830Y220696*X193944Y220993*X194049Y221285*X194142Y221572*X194225Y221856*X194296Y222139*X194357Y222423*X194406Y222709*X194444Y222998*X194471Y223293*X194486Y223595*X194489Y223905*X194481Y224225*X194461Y224556*X194430Y224901*X194386Y225261*X194330Y225637*X194261Y226031*X194181Y226445*X194088Y226880*X193982Y227337*X193864Y227819*X193733Y228327*X193589Y228863*X193432Y229428*X193262Y230023*X193078Y230651*X192882Y231313*X192672Y232010*X192562Y232373*X192448Y232745*X192331Y233126*X192211Y233518*X192087Y233920*X191960Y234332*Y234331*X150361Y285256D2*X149758Y285824D1*X149163Y286379*X148578Y286922*X148003Y287453*X147436Y287972*X146878Y288480*X146330Y288976*X145790Y289461*X145259Y289935*X144738Y290399*X144225Y290851*X143720Y291293*X143225Y291724*X142738Y292145*X142260Y292556*X141790Y292957*X141329Y293348*X140877Y293730*X140432Y294102*X139997Y294465*X139569Y294819*X139150Y295163*X138739Y295500*X138336Y295827*X137941Y296146*X137555Y296457*X137176Y296760*X136805Y297055*X136443Y297342*X136088Y297622*X135741Y297894*X135401Y298159*X135070Y298416*X134746Y298667*X134429Y298911*X134121Y299149*X133819Y299380*X133526Y299605*X132960Y300036*X132424Y300445*X131917Y300831*X131438Y301198*X130987Y301545*X130563Y301875*X130165Y302190*X129786Y302491*X129423Y302784*X128721Y303351*X128025Y303912*X126635Y305024*X125249Y306119*X123868Y307194*X122493Y308245*X121127Y309269*X119772Y310262*X118428Y311221*X117761Y311686*X117097Y312142*X116438Y312587*X115782Y313021*X115130Y313444*X114483Y313856*X113841Y314256*X113203Y314644*X112569Y315020*X111941Y315385*X111317Y315739*X110699Y316081*X110085Y316412*X109477Y316732*X108874Y317041*X108277Y317338*X107685Y317625*X107098Y317901*X106518Y318165*X105943Y318419*X105374Y318663*X104811Y318896*X104254Y319118*X103704Y319329*X103160Y319531*X102622Y319722*X102090Y319902*X101566Y320073*X101047Y320233*X100536Y320383*X100032Y320524*X99534Y320654*X99044Y320775*X98561Y320886*X98085Y320987*X97617Y321079*X97156Y321161*X96703Y321233*X96257Y321297*X95819Y321351*X95390Y321396*X94968Y321431*X94554Y321457*X94148Y321474*X93750Y321482*X93361Y321480*X92979Y321469*X92606Y321449*X92241Y321419*X91885Y321379*X91537Y321330*X91197Y321271*X90866Y321203*X90544Y321125*X90230Y321037*X89925Y320939*X89628Y320832*X89341Y320714*X89062Y320587*X88791Y320450*X88530Y320303*X88278Y320146*X88035Y319979*X87800Y319801*X87575Y319614*X87359Y319417*X87152Y319209*X86955Y318991*X86767Y318762*X86588Y318524*X86418Y318275*X86258Y318015*X86107Y317745*X85966Y317465*X85835Y317174*X85713Y316872*X85600Y316560*X85498Y316237*X85405Y315904*X85323Y315560*X85250Y315206*X85187Y314841*X85134Y314466*X85092Y314080*X85059Y313684*X85038Y313278*X85026Y312861*X85025Y312434*X85034Y311997*X85054Y311549*X85085Y311091*X85126Y310623*X85178Y310145*X85241Y309657*X85315Y309158*X85400Y308650*X85496Y308131*X85603Y307602*X85721Y307064*X85851Y306515*X85992Y305957*X86144Y305388*X86308Y304810*X86483Y304221*X86671Y303623*X86869Y303016*X87080Y302398*X87302Y301770*X87536Y301133*X87783Y300486*X88041Y299830*X88311Y299164*X88593Y298489*X88886Y297805*X89190Y297114*X89503Y296417*X89826Y295713*X90158Y295004*X90846Y293574*X91563Y292131*X92305Y290683*X93066Y289234*X93843Y287792*X94631Y286361*X95426Y284948*X96223Y283560*X97018Y282201*X97414Y281535*X97807Y280878*X98197Y280232*X98584Y279598*X98967Y278975*X99346Y278365*X99719Y277769*X100088Y277186*X100450Y276619*X100805Y276068*X101153Y275532*X101494Y275014*X101828Y274512*X102154Y274026*X102473Y273555*X102785Y273099*X103090Y272659*X103388Y272233*X103680Y271821*X103964Y271423*X104242Y271038*X104513Y270666*X104778Y270308*X105036Y269961*X105287Y269627*X105533Y269304*X105772Y268993*X106005Y268692*X106232Y268403*X106452Y268123*X106667Y267854*X106876Y267594*X107079Y267343*X107277Y267101*X107469Y266868*X107655Y266643*X108011Y266216*X108346Y265817*X108660Y265445*X108953Y265095*X109228Y264765*X109483Y264452*X109722Y264155*X109946Y263873*X110157Y263603*X110356Y263344*X110546Y263094*X110905Y262616*X111249Y262157*X111593Y261702*X111951Y261239*X112140Y261001*X112339Y260756*X112549Y260502*X112771Y260239*X113006Y259966*X113251Y259687*X113756Y259120*X114263Y258563*X114509Y258295*X114747Y258039*X114973Y257796*X115185Y257570*X115379Y257364*X115552Y257181*X115701Y257023*X115766Y256955*X115824Y256894*X115874Y256841*X115917Y256797*X115952Y256761*X115977Y256734*X115994Y256716*X116002Y256708*X116013Y256718*X116052Y256753*X116118Y256814*X116208Y256897*X116321Y257000*X116455Y257123*X116608Y257263*X116777Y257418*X116962Y257586*X117159Y257767*X117367Y257957*X117809Y258360*X118270Y258781*X118736Y259205*X119192Y259619*X119631Y260017*X120054Y260401*X120463Y260771*X120858Y261131*X121241Y261480*X121613Y261822*X121974Y262157*X122326Y262487*X122670Y262813*X123004Y263133*X123324Y263443*X123628Y263740*X123913Y264020*X124175Y264279*X124412Y264514*X124520Y264621*X124620Y264720*X124712Y264812*X124797Y264895*X124872Y264969*X124939Y265035*X124999Y265093*X125051Y265144*X125136Y265225*X125197Y265282*X125239Y265319*X125264Y265341*X125279Y265352*X125287Y265354*X125296Y265360*X125311Y265373*X125338Y265398*X125382Y265436*X125446Y265493*X125534Y265572*X125588Y265620*X125649Y265675*X125719Y265737*X125796Y265806*X125883Y265884*X125979Y265969*X126084Y266064*X126200Y266167*X126327Y266281*X126465Y266404*X126614Y266538*X126776Y266683*X126951Y266839*X127139Y267006*X127340Y267186*X127555Y267379*X127785Y267585*X128031Y267804*X128291Y268037*X128568Y268284*X128861Y268546*X129171Y268823*X129496Y269113*X129836Y269416*X130189Y269731*X130554Y270056*X130930Y270390*X131316Y270732*X131712Y271082*X132115Y271438*X132940Y272163*X133784Y272900*X135493Y274373*X136341Y275091*X137172Y275786*X137579Y276122*X137978Y276449*X138369Y276766*X138751Y277072*X139122Y277365*X139481Y277645*X139827Y277910*X140160Y278160*X140478Y278393*X140779Y278608*X141062Y278804*X141322Y278980*X141441Y279059*X141553Y279133*X141656Y279201*X141751Y279263*X141836Y279319*X141913Y279369*X142049Y279459*X142295Y279626*X142431Y279720*X142507Y279774*X142592Y279834*X142686Y279902*X142791Y279977*X142909Y280062*X143041Y280157*X143190Y280264*X143356Y280384*X143541Y280517*X143747Y280666*X143974Y280829*X144222Y281007*X144493Y281201*X144787Y281410*X145105Y281636*X145447Y281878*X145815Y282137*X146208Y282412*X146628Y282705*X147074Y283015*X147549Y283342*X148052Y283688*X148584Y284052*X149146Y284434*X149738Y284836*X150361Y285256*D10*X110768Y170039D2*G2X102500Y178307I0J8268D1*G1X102500Y180276D2*G2X110768Y188543I8268J-1D1*G1X137736Y188543D2*G2X146004Y180276I0J-8268D1*G1X146004Y178307D2*G2X137736Y170039I-8268J0D1*
%LPC*%
X0Y0D2*G36*G1X216232Y217379D2*X216442Y217417D1*X216645Y217476*X216839Y217556*X217196Y217773*X217354Y217908*X217498Y218060*X217624Y218227*X217731Y218409*X217818Y218605*X217883Y218814*X217924Y219034*X217940Y219266*X217928Y219507*X217915Y219614*X217904Y219684*X217848Y219941*X217771Y220163*X217671Y220351*X217545Y220509*X217388Y220637*X217198Y220738*X216972Y220814*X216706Y220868*X216398Y220901*X216044Y220915*X215948*X215815Y220914*X215528Y220894*X215261Y220851*X215014Y220786*X214787Y220702*X214582Y220600*X214399Y220481*X214238Y220347*X214101Y220200*X213988Y220041*X213899Y219872*X213835Y219694*X213797Y219509*X213785Y219319*X213800Y219124*X213843Y218928*X213913Y218731*X214013Y218534*X214141Y218341*X214300Y218151*X214489Y217967*X214710Y217790*X214921Y217652*X215137Y217542*X215356Y217459*X215577Y217402*X215798Y217371*X216016Y217363*X216232Y217379*G37*G36*G1X226838Y230764D2*X227097Y230666D1*X227369Y230588*X227653Y230530*X227946Y230494*X228246Y230481*X228550Y230491*X228858Y230525*X229167Y230585*X229474Y230671*X229779Y230785*X229916Y230846*X230024Y230901*X230230Y231026*X230422Y231168*X230598Y231326*X230759Y231497*X230904Y231678*X231032Y231868*X231237Y232262*X231312Y232461*X231368Y232659*X231404Y232854*X231421Y233041*X231416Y233221*X231391Y233389*X231344Y233543*X231275Y233682*X231182Y233803*X231066Y233902*X230927Y233979*X230762Y234030*X230671Y234045*X230647Y234047*X230593Y234053*X229940Y234110*X229456Y234146*X229007Y234173*X228591Y234192*X228206Y234201*X227852*X227528Y234191*X227232Y234171*X226963Y234141*X226719Y234100*X226501Y234048*X226306Y233985*X226134Y233911*X225984Y233826*X225854Y233729*X225743Y233619*X225649Y233497*X225573Y233363*X225512Y233216*X225466Y233056*X225434Y232882*X225414Y232628*X225430Y232384*X225480Y232150*X225561Y231927*X225671Y231717*X225809Y231519*X225973Y231336*X226159Y231169*X226367Y231017*X226594Y230882*X226838Y230764*G37*G36*G1X232278Y262531D2*X232385Y262720D1*X232471Y262911*X232536Y263104*X232580Y263296*X232603Y263489*X232605Y263680*X232586Y263869*X232548Y264054*X232490Y264236*X232412Y264413*X232314Y264585*X232198Y264750*X232062Y264908*X231907Y265058*X231734Y265199*X231542Y265330*X231332Y265450*X231104Y265559*X230984Y265609*X230903Y265640*X230783Y265684*X230543Y265761*X230303Y265826*X230064Y265881*X229827Y265924*X229591Y265956*X229358Y265977*X229127Y265989*X228899Y265990*X228453Y265964*X228024Y265901*X227616Y265805*X227232Y265677*X226875Y265519*X226708Y265431*X226549Y265335*X226398Y265234*X226256Y265126*X226124Y265013*X226001Y264895*X225889Y264771*X225787Y264644*X225696Y264511*X225617Y264375*X225550Y264234*X225495Y264090*X225453Y263943*X225424Y263793*X225409Y263641*X225408Y263486*X225421Y263329*X225449Y263170*X225493Y263010*X225552Y262848*X225627Y262686*X225719Y262523*X225828Y262360*X225955Y262196*X226022Y262123*X226099Y262053*X226281Y261922*X226497Y261804*X226743Y261699*X227016Y261608*X227310Y261529*X227624Y261464*X227952Y261411*X228291Y261373*X228637Y261348*X228987Y261337*X229336Y261339*X229681Y261355*X230018Y261386*X230344Y261430*X230653Y261489*X230944Y261561*X231211Y261648*X231451Y261750*X231660Y261866*X231834Y261996*X231913Y262073*X231997Y262162*X232149Y262345*X232278Y262531*G37*G1X0Y0D2*M02*