G04 ================== begin FILE IDENTIFICATION RECORD ==================*
G04 Layout Name:  C:/Projects/HT_EVAL_BOARD/HT_EVAL_BOARD_V2-16.brd*
G04 Film Name:    SOLDERT*
G04 File Format:  Gerber RS274X*
G04 File Origin:  Cadence Allegro 17.2-S047*
G04 Origin Date:  Tue Oct 29 19:01:22 2019*
G04 *
G04 Layer:  EMBEDDED GEOMETRY/ASSEMBLY*
G04 Layer:  EMBEDDED GEOMETRY/PLACE_BOUND*
G04 Layer:  EMBEDDED GEOMETRY/DISPLAY*
G04 Layer:  EMBEDDED GEOMETRY/PASTEMASK*
G04 Layer:  EMBEDDED GEOMETRY/CAVITY_OUTLINE*
G04 Layer:  EMBEDDED GEOMETRY/SOLDERMASK*
G04 Layer:  BOUNDARY/MULTI_USER_LOCK*
G04 Layer:  VIA CLASS/SOLDERMASK_TOP*
G04 Layer:  USER PART NUMBER/DISPLAY_EMBEDDED*
G04 Layer:  USER PART NUMBER/ASSEMBLY_EMBEDDED*
G04 Layer:  TOLERANCE/DISPLAY_EMBEDDED*
G04 Layer:  TOLERANCE/ASSEMBLY_EMBEDDED*
G04 Layer:  REF DES/DISPLAY_EMBEDDED*
G04 Layer:  REF DES/ASSEMBLY_EMBEDDED*
G04 Layer:  PIN/SOLDERMASK_TOP*
G04 Layer:  DRC ERROR CLASS/SOLDERMASK_TOP*
G04 Layer:  DEVICE TYPE/DISPLAY_EMBEDDED*
G04 Layer:  DEVICE TYPE/ASSEMBLY_EMBEDDED*
G04 Layer:  COMPONENT VALUE/DISPLAY_EMBEDDED*
G04 Layer:  COMPONENT VALUE/ASSEMBLY_EMBEDDED*
G04 Layer:  BOARD GEOMETRY/DESIGN_OUTLINE*
G04 *
G04 Offset:    (0.0000 0.0000)*
G04 Mirror:    No*
G04 Mode:      Positive*
G04 Rotation:  0*
G04 FullContactRelief:  No*
G04 UndefLineWidth:     0.1000*
G04 ================== end FILE IDENTIFICATION RECORD ====================*
%FSLAX25Y25*MOMM*%
%IR0*IPPOS*OFA0.00000B0.00000*MIA0B0*SFA1.00000B1.00000*%
%AMMACRO11*
4,1,40,-.5,.3,
-.5,-.3,
-.49924,-.308682,
-.496985,-.317101,
-.493301,-.325,
-.488302,-.332139,
-.482139,-.338302,
-.475,-.343301,
-.467101,-.346985,
-.458682,-.34924,
-.45,-.35,
.45,-.35,
.458682,-.34924,
.467101,-.346985,
.475,-.343301,
.482139,-.338302,
.488302,-.332139,
.493301,-.325,
.496985,-.317101,
.49924,-.308682,
.5,-.3,
.5,.3,
.49924,.308682,
.496985,.317101,
.493301,.325,
.488302,.332139,
.482139,.338302,
.475,.343301,
.467101,.346985,
.458682,.34924,
.45,.35,
-.45,.35,
-.458682,.34924,
-.467101,.346985,
-.475,.343301,
-.482139,.338302,
-.488302,.332139,
-.493301,.325,
-.496985,.317101,
-.49924,.308682,
-.5,.3,
0.0*
%
%ADD11MACRO11*%
%ADD35R,.5X1.4*%
%ADD36R,1.4X.5*%
%ADD30R,.9X1.1*%
%AMMACRO31*
4,1,40,-.375,1.15,
-.375,-1.15,
-.37424,-1.158682,
-.371985,-1.167101,
-.368301,-1.175,
-.363302,-1.182139,
-.357139,-1.188302,
-.35,-1.193301,
-.342101,-1.196985,
-.333682,-1.19924,
-.325,-1.2,
.325,-1.2,
.333682,-1.19924,
.342101,-1.196985,
.35,-1.193301,
.357139,-1.188302,
.363302,-1.182139,
.368301,-1.175,
.371985,-1.167101,
.37424,-1.158682,
.375,-1.15,
.375,1.15,
.37424,1.158682,
.371985,1.167101,
.368301,1.175,
.363302,1.182139,
.357139,1.188302,
.35,1.193301,
.342101,1.196985,
.333682,1.19924,
.325,1.2,
-.325,1.2,
-.333682,1.19924,
-.342101,1.196985,
-.35,1.193301,
-.357139,1.188302,
-.363302,1.182139,
-.368301,1.175,
-.371985,1.167101,
-.37424,1.158682,
-.375,1.15,
0.0*
%
%ADD31MACRO31*%
%ADD29R,.7X2.4*%
%ADD19R,.8X1.4*%
%AMMACRO28*
4,1,40,1.15,.375,
-1.15,.375,
-1.158682,.37424,
-1.167101,.371985,
-1.175,.368301,
-1.182139,.363302,
-1.188302,.357139,
-1.193301,.35,
-1.196985,.342101,
-1.19924,.333682,
-1.2,.325,
-1.2,-.325,
-1.19924,-.333682,
-1.196985,-.342101,
-1.193301,-.35,
-1.188302,-.357139,
-1.182139,-.363302,
-1.175,-.368301,
-1.167101,-.371985,
-1.158682,-.37424,
-1.15,-.375,
1.15,-.375,
1.158682,-.37424,
1.167101,-.371985,
1.175,-.368301,
1.182139,-.363302,
1.188302,-.357139,
1.193301,-.35,
1.196985,-.342101,
1.19924,-.333682,
1.2,-.325,
1.2,.325,
1.19924,.333682,
1.196985,.342101,
1.193301,.35,
1.188302,.357139,
1.182139,.363302,
1.175,.368301,
1.167101,.371985,
1.158682,.37424,
1.15,.375,
0.0*
%
%ADD28MACRO28*%
%ADD39R,.81X2.07*%
%AMMACRO22*
4,1,5,-.4,-.65,
.4,-.65,
.4,.65,
0.0,.25,
-.4,.65,
-.4,-.65,
0.0*
%
%ADD22MACRO22*%
%AMMACRO20*
4,1,5,-.65,.4,
-.65,-.4,
.65,-.4,
.25,0.0,
.65,.4,
-.65,.4,
0.0*
%
%ADD20MACRO20*%
%ADD16R,.9X.9*%
%AMMACRO25*
4,1,5,-.25,-.4,
.65,-.4,
.65,.4,
-.25,.4,
-.65,0.0,
-.25,-.4,
0.0*
%
%ADD25MACRO25*%
%AMMACRO23*
4,1,5,.4,-.25,
.4,.65,
-.4,.65,
-.4,-.25,
0.0,-.65,
.4,-.25,
0.0*
%
%ADD23MACRO23*%
%AMMACRO15*
4,1,40,.5,-.3,
.5,.3,
.49924,.308682,
.496985,.317101,
.493301,.325,
.488302,.332139,
.482139,.338302,
.475,.343301,
.467101,.346985,
.458682,.34924,
.45,.35,
-.45,.35,
-.458682,.34924,
-.467101,.346985,
-.475,.343301,
-.482139,.338302,
-.488302,.332139,
-.493301,.325,
-.496985,.317101,
-.49924,.308682,
-.5,.3,
-.5,-.3,
-.49924,-.308682,
-.496985,-.317101,
-.493301,-.325,
-.488302,-.332139,
-.482139,-.338302,
-.475,-.343301,
-.467101,-.346985,
-.458682,-.34924,
-.45,-.35,
.45,-.35,
.458682,-.34924,
.467101,-.346985,
.475,-.343301,
.482139,-.338302,
.488302,-.332139,
.493301,-.325,
.496985,-.317101,
.49924,-.308682,
.5,-.3,
0.0*
%
%ADD15MACRO15*%
%ADD21R,1.7X1.*%
%AMMACRO32*
4,1,40,1.25,1.3,
-1.25,1.3,
-1.258682,1.29924,
-1.267101,1.296985,
-1.275,1.293301,
-1.282139,1.288302,
-1.288302,1.282139,
-1.293301,1.275,
-1.296985,1.267101,
-1.29924,1.258682,
-1.3,1.25,
-1.3,-1.25,
-1.29924,-1.258682,
-1.296985,-1.267101,
-1.293301,-1.275,
-1.288302,-1.282139,
-1.282139,-1.288302,
-1.275,-1.293301,
-1.267101,-1.296985,
-1.258682,-1.29924,
-1.25,-1.3,
1.25,-1.3,
1.258682,-1.29924,
1.267101,-1.296985,
1.275,-1.293301,
1.282139,-1.288302,
1.288302,-1.282139,
1.293301,-1.275,
1.296985,-1.267101,
1.29924,-1.258682,
1.3,-1.25,
1.3,1.25,
1.29924,1.258682,
1.296985,1.267101,
1.293301,1.275,
1.288302,1.282139,
1.282139,1.288302,
1.275,1.293301,
1.267101,1.296985,
1.258682,1.29924,
1.25,1.3,
0.0*
%
%ADD32MACRO32*%
%ADD12R,2.3X1.6*%
%ADD34R,1.6X5.1*%
%ADD26R,2.2X2.7*%
%ADD24R,1.7X1.3*%
%AMMACRO33*
4,1,5,-1.3,-1.3,
-1.3,.65,
-.65,1.3,
1.3,1.3,
1.3,-1.3,
-1.3,-1.3,
0.0*
%
%ADD33MACRO33*%
%ADD40R,5.7X2.2*%
%ADD27C,1.2*%
%ADD18R,.55X.6*%
%ADD13C,1.6*%
%ADD10C,3.5*%
%ADD17R,2.6X1.85*%
%ADD14R,1.6X1.6*%
%AMMACRO38*
4,1,5,.4,.65,
-.4,.65,
-.4,-.65,
0.0,-.25,
.4,-.65,
.4,.65,
0.0*
%
%ADD38MACRO38*%
%AMMACRO37*
4,1,5,-.4,.25,
-.4,-.65,
.4,-.65,
.4,.25,
0.0,.65,
-.4,.25,
0.0*
%
%ADD37MACRO37*%
%ADD41C,.1*%
G75*
%LPD*%
G75*
G54D10*
X250000Y250000D03*
Y8000000D03*
X6750000Y250000D03*
Y8000000D03*
G54D20*
X2129000Y2054000D03*
G54D11*
X846000Y7037000D03*
Y7187000D03*
X1242000Y4865000D03*
Y4715000D03*
X1580000Y1640000D03*
Y1790000D03*
X1571000Y3077000D03*
X1749000D03*
X1571000Y3227000D03*
X1749000D03*
X1404000Y4865000D03*
Y4715000D03*
X1557000Y5304000D03*
Y5154000D03*
X1797000Y323000D03*
X2097000Y688000D03*
Y538000D03*
X1797000Y473000D03*
X1826000Y2082000D03*
Y1932000D03*
X2227000Y242000D03*
Y92000D03*
X2417000Y743000D03*
Y593000D03*
X2550000Y743000D03*
Y593000D03*
X2575000Y1623000D03*
Y1473000D03*
X2441000Y1623000D03*
Y1473000D03*
X2444000Y4404000D03*
Y4554000D03*
X2993000Y1571000D03*
Y1421000D03*
X2705000Y2581000D03*
Y2444000D03*
Y2294000D03*
Y2731000D03*
X3250000Y1571000D03*
Y1421000D03*
X3283000Y3992000D03*
Y3842000D03*
X3877000Y4404000D03*
Y4554000D03*
X4185000Y2094000D03*
Y1944000D03*
X4693000Y2133000D03*
Y1983000D03*
X4841000Y2133000D03*
Y1983000D03*
X5254000Y7086000D03*
Y6936000D03*
X5394000Y3561000D03*
Y3411000D03*
G54D12*
X885000Y7495000D03*
Y7945000D03*
X1795000Y7495000D03*
Y7945000D03*
X5205000Y7495000D03*
Y7945000D03*
X6115000Y7495000D03*
Y7945000D03*
G54D21*
X1960000Y2337500D03*
Y2464500D03*
Y2591500D03*
Y2718500D03*
X2460000Y2591500D03*
Y2464500D03*
Y2337500D03*
Y2718500D03*
G54D30*
X3466000Y1742000D03*
X3276000D03*
X3371000Y1942000D03*
G54D13*
X1087000Y304000D03*
Y558000D03*
Y812000D03*
Y1066000D03*
Y1320000D03*
X1086000Y2082000D03*
Y2336000D03*
Y2590000D03*
Y2844000D03*
Y3098000D03*
Y3352000D03*
Y3606000D03*
X974000Y5870000D03*
Y6124000D03*
X1545000Y831000D03*
Y577000D03*
Y1339000D03*
Y1085000D03*
X1546000Y2082000D03*
Y2336000D03*
X2324000Y3843000D03*
Y4097000D03*
X2266000Y4951000D03*
Y5205000D03*
X4413000Y1305000D03*
Y1559000D03*
Y1813000D03*
X4398000Y4480000D03*
Y4734000D03*
X4700000Y4480000D03*
Y4734000D03*
X5361000Y2209000D03*
Y1955000D03*
Y2463000D03*
X5913000Y812000D03*
Y558000D03*
Y1320000D03*
Y1066000D03*
Y1574000D03*
Y2082000D03*
Y1828000D03*
Y2996000D03*
Y2742000D03*
Y3504000D03*
Y3250000D03*
Y4012000D03*
Y3758000D03*
Y4266000D03*
Y4774000D03*
Y4520000D03*
G54D40*
X4429000Y333000D03*
X5379000D03*
G54D22*
X1783000Y4715000D03*
G54D31*
X3442500Y5872000D03*
X3327500D03*
X3212500D03*
X3097500D03*
Y7112000D03*
X3212500D03*
X3327500D03*
X3442500D03*
X3902500Y5872000D03*
X3787500D03*
X3672500D03*
X3557500D03*
Y7112000D03*
X3672500D03*
X3787500D03*
X3902500D03*
G54D41*
G01X0Y8250000D02*
Y0D01*
X7000000D01*
Y8250000D01*
X0D01*
G54D14*
X1087000Y1574000D03*
X1086000Y3860000D03*
X1545000Y323000D03*
X1546000Y2590000D03*
X4413000Y1051000D03*
X5361000Y1701000D03*
X5913000Y304000D03*
Y2488000D03*
G54D32*
X3265000Y6287000D03*
X3735000D03*
X3736000Y6697000D03*
G54D23*
X1783000Y4845000D03*
G54D33*
X3265000Y6697000D03*
G54D24*
X2686800Y388400D03*
X2388000Y392000D03*
Y242000D03*
X2688000D03*
G54D15*
X1242000Y5154000D03*
Y5304000D03*
X974000Y5011000D03*
Y5161000D03*
X1035000Y7037000D03*
Y7187000D03*
X1557000Y4715000D03*
Y4865000D03*
X1404000Y5154000D03*
Y5304000D03*
X2098000Y242000D03*
Y392000D03*
X2048000Y3817000D03*
Y3967000D03*
X1881000Y3817000D03*
Y3967000D03*
X2574000Y1217000D03*
X2441000D03*
X2479000Y933000D03*
Y1083000D03*
X2619000Y933000D03*
Y1083000D03*
X2574000Y1367000D03*
X2441000D03*
X2241000Y3435000D03*
X2478000D03*
X2241000Y3585000D03*
X2478000D03*
X2595000Y3843000D03*
Y3993000D03*
X2687000Y593000D03*
Y743000D03*
X3067000Y3842000D03*
Y3992000D03*
X2818000Y3843000D03*
Y3993000D03*
X3500000Y1421000D03*
Y1571000D03*
X3121000Y1421000D03*
Y1571000D03*
X3268000Y2386000D03*
Y2536000D03*
X3213000Y3204000D03*
Y3354000D03*
X3638000Y1421000D03*
Y1571000D03*
X3775000Y1421000D03*
Y1571000D03*
X3838000Y3639000D03*
Y3789000D03*
X5114000Y807000D03*
X4920000D03*
X5114000Y957000D03*
X4920000D03*
X5036000Y3237000D03*
Y3387000D03*
X5181000Y3237000D03*
Y3387000D03*
X5580000Y2990000D03*
Y3140000D03*
G54D34*
X3478000Y7975000D03*
X4328000D03*
G54D25*
X2259000Y2054000D03*
G54D16*
X1343000Y1640000D03*
Y1840000D03*
X2725000Y1624000D03*
Y1424000D03*
G54D17*
X1666000Y3544000D03*
G54D26*
X3055000Y324000D03*
Y874000D03*
X3945000Y324000D03*
Y874000D03*
G54D35*
X3935000Y2411000D03*
X3885000D03*
X3835000D03*
Y3261000D03*
X3885000D03*
X3935000D03*
X4385000Y2411000D03*
X4335000D03*
X4285000D03*
X4235000D03*
X4185000D03*
X4135000D03*
X4085000D03*
X4035000D03*
X3985000D03*
Y3261000D03*
X4035000D03*
X4085000D03*
X4135000D03*
X4185000D03*
X4235000D03*
X4285000D03*
X4335000D03*
X4385000D03*
G54D18*
X1666000Y3414000D03*
X1571000D03*
Y3674000D03*
X1666000D03*
X1761000Y3414000D03*
Y3674000D03*
G54D27*
X2912000Y4554000D03*
X3400000D03*
G54D36*
X3685000Y2561000D03*
Y2611000D03*
Y2661000D03*
Y2711000D03*
Y2761000D03*
Y2811000D03*
Y2861000D03*
Y2911000D03*
Y2961000D03*
Y3011000D03*
Y3061000D03*
Y3111000D03*
X4535000Y2611000D03*
Y2561000D03*
Y3061000D03*
Y3011000D03*
Y2961000D03*
Y2911000D03*
Y2861000D03*
Y2811000D03*
Y2761000D03*
Y2711000D03*
Y2661000D03*
Y3111000D03*
G54D37*
X3694000Y4021000D03*
X4711000Y7595000D03*
X5394000Y2860000D03*
G54D28*
X2880000Y6089500D03*
Y6204500D03*
Y6319500D03*
Y6434500D03*
Y6549500D03*
Y6664500D03*
Y6779500D03*
Y6894500D03*
X4120000Y6204500D03*
Y6089500D03*
Y6664500D03*
Y6549500D03*
Y6434500D03*
Y6319500D03*
Y6894500D03*
Y6779500D03*
G54D19*
X2097000Y835000D03*
Y1065000D03*
X2192000D03*
X2287000Y835000D03*
Y1065000D03*
G54D38*
X3694000Y4151000D03*
X4711000Y7725000D03*
X5394000Y2990000D03*
G54D29*
X3500000Y889000D03*
X3420000D03*
X3340000D03*
X3660000D03*
X3580000D03*
G54D39*
X3903000Y8126500D03*
M02*
