G04 ================== begin FILE IDENTIFICATION RECORD ==================*
G04 Layout Name:  C:/Projects/HT_EVAL_BOARD/HT_EVAL_BOARD_V2-16.brd*
G04 Film Name:    SOLDERB*
G04 File Format:  Gerber RS274X*
G04 File Origin:  Cadence Allegro 17.2-S047*
G04 Origin Date:  Tue Oct 29 19:01:22 2019*
G04 *
G04 Layer:  EMBEDDED GEOMETRY/ASSEMBLY*
G04 Layer:  EMBEDDED GEOMETRY/PLACE_BOUND*
G04 Layer:  EMBEDDED GEOMETRY/DISPLAY*
G04 Layer:  EMBEDDED GEOMETRY/PASTEMASK*
G04 Layer:  EMBEDDED GEOMETRY/CAVITY_OUTLINE*
G04 Layer:  EMBEDDED GEOMETRY/SOLDERMASK*
G04 Layer:  BOUNDARY/MULTI_USER_LOCK*
G04 Layer:  VIA CLASS/SOLDERMASK_BOTTOM*
G04 Layer:  USER PART NUMBER/DISPLAY_EMBEDDED*
G04 Layer:  USER PART NUMBER/ASSEMBLY_EMBEDDED*
G04 Layer:  TOLERANCE/DISPLAY_EMBEDDED*
G04 Layer:  TOLERANCE/ASSEMBLY_EMBEDDED*
G04 Layer:  REF DES/DISPLAY_EMBEDDED*
G04 Layer:  REF DES/ASSEMBLY_EMBEDDED*
G04 Layer:  PIN/SOLDERMASK_BOTTOM*
G04 Layer:  DRC ERROR CLASS/SOLDERMASK_BOTTOM*
G04 Layer:  DEVICE TYPE/DISPLAY_EMBEDDED*
G04 Layer:  DEVICE TYPE/ASSEMBLY_EMBEDDED*
G04 Layer:  COMPONENT VALUE/DISPLAY_EMBEDDED*
G04 Layer:  COMPONENT VALUE/ASSEMBLY_EMBEDDED*
G04 Layer:  BOARD GEOMETRY/DESIGN_OUTLINE*
G04 *
G04 Offset:    (0.0000 0.0000)*
G04 Mirror:    No*
G04 Mode:      Positive*
G04 Rotation:  0*
G04 FullContactRelief:  No*
G04 UndefLineWidth:     0.1000*
G04 ================== end FILE IDENTIFICATION RECORD ====================*
%FSLAX25Y25*MOMM*%
%IR0*IPPOS*OFA0.00000B0.00000*MIA0B0*SFA1.00000B1.00000*%
%ADD14R,1.6X5.1*%
%ADD13C,1.2*%
%ADD11C,1.6*%
%ADD10C,3.5*%
%ADD12R,1.6X1.6*%
%ADD15C,.1*%
G75*
%LPD*%
G75*
G54D10*
X250000Y250000D03*
Y8000000D03*
X6750000Y250000D03*
Y8000000D03*
G54D11*
X1087000Y304000D03*
Y558000D03*
Y812000D03*
Y1066000D03*
Y1320000D03*
X1086000Y2082000D03*
Y2336000D03*
Y2590000D03*
Y2844000D03*
Y3098000D03*
Y3352000D03*
Y3606000D03*
X974000Y5870000D03*
Y6124000D03*
X1545000Y831000D03*
Y577000D03*
Y1339000D03*
Y1085000D03*
X1546000Y2082000D03*
Y2336000D03*
X2324000Y3843000D03*
Y4097000D03*
X2266000Y4951000D03*
Y5205000D03*
X4413000Y1305000D03*
Y1559000D03*
Y1813000D03*
X4398000Y4480000D03*
Y4734000D03*
X4700000Y4480000D03*
Y4734000D03*
X5361000Y2209000D03*
Y1955000D03*
Y2463000D03*
X5913000Y812000D03*
Y558000D03*
Y1320000D03*
Y1066000D03*
Y1574000D03*
Y2082000D03*
Y1828000D03*
Y2996000D03*
Y2742000D03*
Y3504000D03*
Y3250000D03*
Y4012000D03*
Y3758000D03*
Y4266000D03*
Y4774000D03*
Y4520000D03*
G54D12*
X1087000Y1574000D03*
X1086000Y3860000D03*
X1545000Y323000D03*
X1546000Y2590000D03*
X4413000Y1051000D03*
X5361000Y1701000D03*
X5913000Y304000D03*
Y2488000D03*
G54D13*
X2912000Y4554000D03*
X3400000D03*
G54D14*
X3478000Y7975000D03*
X4328000D03*
G54D15*
G01X0Y8250000D02*
Y0D01*
X7000000D01*
Y8250000D01*
X0D01*
M02*
