G04 ================== begin FILE IDENTIFICATION RECORD ==================*
G04 Layout Name:  C:/Projects/HT_EVAL_BOARD/HT_EVAL_BOARD_V2-16.brd*
G04 Film Name:    TOPL*
G04 File Format:  Gerber RS274X*
G04 File Origin:  Cadence Allegro 17.2-S047*
G04 Origin Date:  Tue Oct 29 19:01:22 2019*
G04 *
G04 Layer:  EMBEDDED GEOMETRY/ASSEMBLY*
G04 Layer:  EMBEDDED GEOMETRY/PLACE_BOUND*
G04 Layer:  EMBEDDED GEOMETRY/DISPLAY*
G04 Layer:  EMBEDDED GEOMETRY/PASTEMASK*
G04 Layer:  EMBEDDED GEOMETRY/CAVITY_OUTLINE*
G04 Layer:  EMBEDDED GEOMETRY/SOLDERMASK*
G04 Layer:  VIA CLASS/TOP*
G04 Layer:  USER PART NUMBER/DISPLAY_EMBEDDED*
G04 Layer:  USER PART NUMBER/ASSEMBLY_EMBEDDED*
G04 Layer:  TOLERANCE/DISPLAY_EMBEDDED*
G04 Layer:  TOLERANCE/ASSEMBLY_EMBEDDED*
G04 Layer:  REF DES/DISPLAY_EMBEDDED*
G04 Layer:  REF DES/ASSEMBLY_EMBEDDED*
G04 Layer:  PIN/TOP*
G04 Layer:  ETCH/TOP*
G04 Layer:  DEVICE TYPE/DISPLAY_EMBEDDED*
G04 Layer:  DEVICE TYPE/ASSEMBLY_EMBEDDED*
G04 Layer:  COMPONENT VALUE/DISPLAY_EMBEDDED*
G04 Layer:  COMPONENT VALUE/ASSEMBLY_EMBEDDED*
G04 Layer:  BOARD GEOMETRY/DESIGN_OUTLINE*
G04 *
G04 Offset:    (0.0000 0.0000)*
G04 Mirror:    No*
G04 Mode:      Positive*
G04 Rotation:  0*
G04 FullContactRelief:  No*
G04 UndefLineWidth:     0.1000*
G04 ================== end FILE IDENTIFICATION RECORD ====================*
%FSLAX25Y25*MOMM*%
%IR0*IPPOS*OFA0.00000B0.00000*MIA0B0*SFA1.00000B1.00000*%
%ADD37R,.3X1.2*%
%ADD38R,1.2X.3*%
%ADD31R,.5X2.2*%
%ADD21R,.6X1.2*%
%AMMACRO35*
4,1,5,-1.25,-1.25,
-1.25,.625,
-.625,1.25,
1.25,1.25,
1.25,-1.25,
-1.25,-1.25,
0.0*
%
%ADD35MACRO35*%
%AMMACRO16*
4,1,40,.45,-.25,
.45,.25,
.44924,.258682,
.446985,.267101,
.443301,.275,
.438302,.282139,
.432139,.288302,
.425,.293301,
.417101,.296985,
.408682,.29924,
.4,.3,
-.4,.3,
-.408682,.29924,
-.417101,.296985,
-.425,.293301,
-.432139,.288302,
-.438302,.282139,
-.443301,.275,
-.446985,.267101,
-.44924,.258682,
-.45,.25,
-.45,-.25,
-.44924,-.258682,
-.446985,-.267101,
-.443301,-.275,
-.438302,-.282139,
-.432139,-.288302,
-.425,-.293301,
-.417101,-.296985,
-.408682,-.29924,
-.4,-.3,
.4,-.3,
.408682,-.29924,
.417101,-.296985,
.425,-.293301,
.432139,-.288302,
.438302,-.282139,
.443301,-.275,
.446985,-.267101,
.44924,-.258682,
.45,-.25,
0.0*
%
%ADD16MACRO16*%
%AMMACRO33*
4,1,40,-.325,1.1,
-.325,-1.1,
-.32424,-1.108682,
-.321985,-1.117101,
-.318301,-1.125,
-.313302,-1.132139,
-.307139,-1.138302,
-.3,-1.143301,
-.292101,-1.146985,
-.283682,-1.14924,
-.275,-1.15,
.275,-1.15,
.283682,-1.14924,
.292101,-1.146985,
.3,-1.143301,
.307139,-1.138302,
.313302,-1.132139,
.318301,-1.125,
.321985,-1.117101,
.32424,-1.108682,
.325,-1.1,
.325,1.1,
.32424,1.108682,
.321985,1.117101,
.318301,1.125,
.313302,1.132139,
.307139,1.138302,
.3,1.143301,
.292101,1.146985,
.283682,1.14924,
.275,1.15,
-.275,1.15,
-.283682,1.14924,
-.292101,1.146985,
-.3,1.143301,
-.307139,1.138302,
-.313302,1.132139,
-.318301,1.125,
-.321985,1.117101,
-.32424,1.108682,
-.325,1.1,
0.0*
%
%ADD33MACRO33*%
%AMMACRO30*
4,1,40,1.1,.325,
-1.1,.325,
-1.108682,.32424,
-1.117101,.321985,
-1.125,.318301,
-1.132139,.313302,
-1.138302,.307139,
-1.143301,.3,
-1.146985,.292101,
-1.14924,.283682,
-1.15,.275,
-1.15,-.275,
-1.14924,-.283682,
-1.146985,-.292101,
-1.143301,-.3,
-1.138302,-.307139,
-1.132139,-.313302,
-1.125,-.318301,
-1.117101,-.321985,
-1.108682,-.32424,
-1.1,-.325,
1.1,-.325,
1.108682,-.32424,
1.117101,-.321985,
1.125,-.318301,
1.132139,-.313302,
1.138302,-.307139,
1.143301,-.3,
1.146985,-.292101,
1.14924,-.283682,
1.15,-.275,
1.15,.275,
1.14924,.283682,
1.146985,.292101,
1.143301,.3,
1.138302,.307139,
1.132139,.313302,
1.125,.318301,
1.117101,.321985,
1.108682,.32424,
1.1,.325,
0.0*
%
%ADD30MACRO30*%
%ADD23R,1.5X.8*%
%ADD11C,.3*%
%ADD41C,.51*%
%ADD42R,.61X1.97*%
%ADD18R,.6X.6*%
%AMMACRO24*
4,1,5,-.4,-.65,
.4,-.65,
.4,.65,
0.0,.25,
-.4,.65,
-.4,-.65,
0.0*
%
%ADD24MACRO24*%
%AMMACRO22*
4,1,5,-.65,.4,
-.65,-.4,
.65,-.4,
.25,0.0,
.65,.4,
-.65,.4,
0.0*
%
%ADD22MACRO22*%
%AMMACRO27*
4,1,5,-.25,-.4,
.65,-.4,
.65,.4,
-.25,.4,
-.65,0.0,
-.25,-.4,
0.0*
%
%ADD27MACRO27*%
%AMMACRO25*
4,1,5,.4,-.25,
.4,.65,
-.4,.65,
-.4,-.25,
0.0,-.65,
.4,-.25,
0.0*
%
%ADD25MACRO25*%
%ADD13R,2.1X1.4*%
%ADD28R,2.X2.5*%
%ADD26R,1.5X1.1*%
%ADD36R,1.4X5.*%
%AMMACRO34*
4,1,40,1.2,1.25,
-1.2,1.25,
-1.208682,1.24924,
-1.217101,1.246985,
-1.225,1.243301,
-1.232139,1.238302,
-1.238302,1.232139,
-1.243301,1.225,
-1.246985,1.217101,
-1.24924,1.208682,
-1.25,1.2,
-1.25,-1.2,
-1.24924,-1.208682,
-1.246985,-1.217101,
-1.243301,-1.225,
-1.238302,-1.232139,
-1.232139,-1.238302,
-1.225,-1.243301,
-1.217101,-1.246985,
-1.208682,-1.24924,
-1.2,-1.25,
1.2,-1.25,
1.208682,-1.24924,
1.217101,-1.246985,
1.225,-1.243301,
1.232139,-1.238302,
1.238302,-1.232139,
1.243301,-1.225,
1.246985,-1.217101,
1.24924,-1.208682,
1.25,-1.2,
1.25,1.2,
1.24924,1.208682,
1.246985,1.217101,
1.243301,1.225,
1.238302,1.232139,
1.232139,1.238302,
1.225,1.243301,
1.217101,1.246985,
1.208682,1.24924,
1.2,1.25,
0.0*
%
%ADD34MACRO34*%
%ADD43R,5.5X2.*%
%ADD29C,1.*%
%AMMACRO12*
4,1,40,-.45,.25,
-.45,-.25,
-.44924,-.258682,
-.446985,-.267101,
-.443301,-.275,
-.438302,-.282139,
-.432139,-.288302,
-.425,-.293301,
-.417101,-.296985,
-.408682,-.29924,
-.4,-.3,
.4,-.3,
.408682,-.29924,
.417101,-.296985,
.425,-.293301,
.432139,-.288302,
.438302,-.282139,
.443301,-.275,
.446985,-.267101,
.44924,-.258682,
.45,-.25,
.45,.25,
.44924,.258682,
.446985,.267101,
.443301,.275,
.438302,.282139,
.432139,.288302,
.425,.293301,
.417101,.296985,
.408682,.29924,
.4,.3,
-.4,.3,
-.408682,.29924,
-.417101,.296985,
-.425,.293301,
-.432139,.288302,
-.438302,.282139,
-.443301,.275,
-.446985,.267101,
-.44924,.258682,
-.45,.25,
0.0*
%
%ADD12MACRO12*%
%ADD20R,.45X.5*%
%ADD14C,1.4*%
%ADD17C,1.5*%
%ADD32R,.7X.9*%
%ADD19R,2.5X1.75*%
%ADD10C,3.4*%
%ADD15R,1.4X1.4*%
%AMMACRO40*
4,1,5,.4,.65,
-.4,.65,
-.4,-.65,
0.0,-.25,
.4,-.65,
.4,.65,
0.0*
%
%ADD40MACRO40*%
%AMMACRO39*
4,1,5,-.4,.25,
-.4,-.65,
.4,-.65,
.4,.25,
0.0,.65,
-.4,.25,
0.0*
%
%ADD39MACRO39*%
%ADD44C,.4*%
%ADD45C,.5*%
%ADD46C,.6*%
%ADD47C,.1*%
%ADD49C,2.0004*%
%ADD51C,2.1004*%
%ADD48C,4.0004*%
%ADD50C,2.0544*%
G75*
%LPD*%
G75*
G36*
G01X4430720Y8230000D02*
X6980000D01*
Y20000D01*
X20000D01*
Y8230000D01*
X3375280D01*
Y7730000D01*
G03X3408000Y7697280I32720J0D01*
G01X3548000D01*
G03X3580720Y7730000I0J32720D01*
G01Y8230000D01*
X3842480D01*
Y8033000D01*
G03X3842910Y8028020I30015J83D01*
G01X3842980Y8027600D01*
Y7295060D01*
X3842480Y7294560D01*
Y7266640D01*
G02X3828650Y7257170I-10158J1D01*
G03X3815030Y7259720I-13634J-35173D01*
G01X3760000D01*
G03X3759140Y7259710I9J-37720D01*
G02X3751720Y7277050I-236J10157D01*
G01X3774440Y7299770D01*
X3775940Y7300080D01*
G03X3820020Y7354000I-10938J53920D01*
G03X3765000Y7409020I-55020J0D01*
G03X3711080Y7364950I0J-55021D01*
G01Y7364940D01*
X3710770Y7363440D01*
X3700990Y7353660D01*
G02X3692410Y7358220I-3592J3594D01*
G01X3692570Y7359020D01*
X3692740Y7359450D01*
G03X3696520Y7379480I-51237J20041D01*
G01Y7379500D01*
G03X3641500Y7434520I-55020J0D01*
G03X3587580Y7390450I0J-55021D01*
G01Y7390440D01*
X3587270Y7388940D01*
X3512480Y7314150D01*
Y7252320D01*
G03X3506750Y7248190I17507J-30329D01*
G02X3493250I-6750J7592D01*
G03X3487520Y7252320I-23237J-26199D01*
G01Y7383650D01*
X3411150Y7460020D01*
X2446350D01*
X2205980Y7219650D01*
Y7006650D01*
X2124350Y6925020D01*
X801350D01*
X479580Y6603250D01*
Y6271630D01*
G03X469580Y6240000I45023J-31630D01*
G03X579620I55020J0D01*
G03X569620Y6271630I-55023J0D01*
G01Y6565950D01*
X838650Y6834980D01*
X2161650D01*
X2296020Y6969350D01*
Y7182350D01*
X2483650Y7369980D01*
X3373850D01*
X3397480Y7346350D01*
Y7252320D01*
G03X3391750Y7248190I17507J-30329D01*
G02X3378250I-6750J7592D01*
G03X3372520Y7252320I-23237J-26199D01*
G01Y7265060D01*
X3373320Y7266310D01*
G03X3382020Y7296000I-46311J29690D01*
G03X3271980I-55020J0D01*
G03X3281590Y7264930I55031J0D01*
G01X3282480Y7263630D01*
Y7252320D01*
G03X3276750Y7248190I17507J-30329D01*
G02X3263250I-6750J7592D01*
G03X3257520Y7252320I-23237J-26199D01*
G01Y7283350D01*
X3199850Y7341020D01*
X2498350D01*
X2339980Y7182650D01*
Y5406350D01*
X2393770Y5352560D01*
X2394080Y5351060D01*
Y5351050D01*
G03X2448000Y5306980I53920J10951D01*
G03X2503020Y5362000I0J55020D01*
G03X2458940Y5415920I-55018J0D01*
G01X2457440Y5416230D01*
X2430020Y5443650D01*
Y7145350D01*
X2535650Y7250980D01*
X3028930D01*
G02X3038160Y7236590I-5J-10158D01*
G03X3034980Y7222020I31842J-14582D01*
G01Y7157020D01*
X2752630D01*
G03X2721000Y7167020I-31630J-45023D01*
G03Y7056980I0J-55020D01*
G03X2752630Y7066980I0J55023D01*
G01X3034980D01*
Y7002000D01*
G03X3070000Y6966980I35020J0D01*
G01X3125000D01*
G03X3148250Y6975810I0J35024D01*
G02X3161750I6750J-7592D01*
G03X3185000Y6966980I23250J26194D01*
G01X3240000D01*
G03X3263250Y6975810I0J35024D01*
G02X3276750I6750J-7592D01*
G03X3300000Y6966980I23250J26194D01*
G01X3355000D01*
G03X3378250Y6975810I0J35024D01*
G02X3391750I6750J-7592D01*
G03X3415000Y6966980I23250J26194D01*
G01X3470000D01*
G03X3493250Y6975810I0J35024D01*
G02X3506750I6750J-7592D01*
G03X3530000Y6966980I23250J26194D01*
G01X3585000D01*
G03X3608250Y6975810I0J35024D01*
G02X3621750I6750J-7592D01*
G03X3645000Y6966980I23250J26194D01*
G01X3700000D01*
G03X3721630Y6974460I0J35014D01*
G02X3734720Y6974010I6278J-7990D01*
G03X3760000Y6964280I25285J27988D01*
G01X3815000D01*
G03X3840280Y6974010I-5J37718D01*
G02X3853370Y6974460I6812J-7540D01*
G03X3875000Y6966980I21630J27534D01*
G01X3930000D01*
G03X3965020Y7002000I0J35020D01*
G01Y7222010D01*
G03X3962840Y7234170I-35021J-3D01*
G01X3962520Y7235030D01*
Y7244840D01*
X3963020Y7245340D01*
Y8027600D01*
X3963090Y8028020D01*
G03X3963520Y8033000I-29585J5063D01*
G01Y8230000D01*
X4225280D01*
Y7730000D01*
G03X4258000Y7697280I32720J0D01*
G01X4398000D01*
G03X4430720Y7730000I0J32720D01*
G01Y8230000D01*
G37*
%LPC*%
G75*
G36*
G01X1612970Y7990020D02*
X1670810Y8038090D01*
G02X1690000Y8045020I19185J-23092D01*
G01X1900000D01*
G02X1930020Y8015000I0J-30020D01*
G01Y7875000D01*
G02X1900000Y7844980I-30020J0D01*
G01X1690000D01*
G02X1670810Y7851910I-5J30022D01*
G01X1612970Y7899980D01*
X1067030D01*
X1009190Y7851910D01*
G02X990000Y7844980I-19185J23092D01*
G01X780000D01*
G02X749980Y7875000I0J30020D01*
G01Y7899850D01*
X726530D01*
X695020Y7868340D01*
Y7253120D01*
X725720Y7232020D01*
X777270D01*
G02X806000Y7247020I28730J-20014D01*
G01X886000D01*
G02X921020Y7212000I0J-35020D01*
G01Y7162000D01*
G02X886000Y7126980I-35020J0D01*
G01X806000D01*
G02X777270Y7141980I0J35014D01*
G01X725720D01*
X695020Y7120880D01*
Y6944350D01*
X375020Y6624350D01*
Y6022650D01*
X482650Y5915020D01*
X841940D01*
X919960Y5960050D01*
X919990Y5960070D01*
G02X974000Y5975020I54006J-90071D01*
G02X1079020Y5870000I0J-105020D01*
G02X1064070Y5815990I-105021J-4D01*
G01X1064050Y5815960D01*
X1024020Y5746600D01*
Y5219730D01*
X1027190Y5218440D01*
G02X1049020Y5186000I-13188J-32440D01*
G01Y5136000D01*
G02X1014000Y5100980I-35020J0D01*
G01X934000D01*
G02X898980Y5136000I0J35020D01*
G01Y5186000D01*
G02X920810Y5218440I35018J0D01*
G01X923980Y5219730D01*
Y5397150D01*
G03X909800Y5406480I-10159J1D01*
G02X888000Y5401980I-21793J50521D01*
G02X856370Y5411980I0J55023D01*
G01X488950D01*
X334040Y5257070D01*
X335600Y5253820D01*
G02X341020Y5230000I-49602J-23813D01*
G02X230980I-55020J0D01*
G02X240980Y5261630I55023J0D01*
G01Y5291350D01*
X451650Y5502020D01*
X856370D01*
G02X888000Y5512020I31630J-45023D01*
G02X909800Y5507520I7J-55021D01*
G03X923980Y5516850I4021J9329D01*
G01Y5746600D01*
X897130Y5793130D01*
X841940Y5824980D01*
X445350D01*
X284980Y5985350D01*
Y6661650D01*
X604980Y6981650D01*
Y7905640D01*
X689230Y7989890D01*
X749980D01*
Y8015000D01*
G02X780000Y8045020I30020J0D01*
G01X990000D01*
G02X1009190Y8038090I5J-30022D01*
G01X1067030Y7990020D01*
X1612970D01*
G37*
G36*
G01X2732280Y6922000D02*
G02X2770000Y6959720I37720J0D01*
G01X2990000D01*
G02X3027720Y6922000I0J-37720D01*
G01Y6867000D01*
G02X3017990Y6841720I-37718J5D01*
G03X3017540Y6828630I7540J-6812D01*
G02X3025020Y6807000I-27534J-21630D01*
G01Y6752000D01*
G02X3017540Y6730370I-35014J0D01*
G03X3017990Y6717280I7990J-6278D01*
G02X3027720Y6692000I-27988J-25285D01*
G01Y6637000D01*
G02X3017990Y6611720I-37718J5D01*
G03X3017540Y6598630I7540J-6812D01*
G02X3025020Y6577000I-27534J-21630D01*
G01Y6522000D01*
G02X3016190Y6498750I-35024J0D01*
G03Y6485250I7592J-6750D01*
G02X3025020Y6462000I-26194J-23250D01*
G01Y6407000D01*
G02X3016190Y6383750I-35024J0D01*
G03Y6370250I7592J-6750D01*
G02X3025020Y6347000I-26194J-23250D01*
G01Y6292000D01*
G02X3016190Y6268750I-35024J0D01*
G03Y6255250I7592J-6750D01*
G02X3025020Y6232000I-26194J-23250D01*
G01Y6177000D01*
G02X3016190Y6153750I-35024J0D01*
G03Y6140250I7592J-6750D01*
G02X3025020Y6117000I-26194J-23250D01*
G01Y6062000D01*
G02X2990000Y6026980I-35020J0D01*
G01X2925020D01*
Y6000650D01*
X2923020Y5998650D01*
Y5184650D01*
X2992440Y5115230D01*
X2993940Y5114920D01*
G02X3038020Y5061000I-10938J-53920D01*
G02X2983000Y5005980I-55020J0D01*
G02X2929080Y5050060I0J55018D01*
G01X2928770Y5051560D01*
X2832980Y5147350D01*
Y6026980D01*
X2770000D01*
G02X2763160Y6027650I-22J35022D01*
G03X2751020Y6017690I-1982J-9963D01*
G01Y5101650D01*
X2848940Y5003730D01*
X2850440Y5003420D01*
G02X2894520Y4949500I-10938J-53920D01*
G02X2839500Y4894480I-55020J0D01*
G02X2785580Y4938560I0J55018D01*
G01X2785270Y4940060D01*
X2660980Y5064350D01*
Y5199900D01*
G03X2645390Y5208490I-10160J2D01*
G02X2616000Y5199980I-29394J46509D01*
G02X2562080Y5244060I0J55018D01*
G01X2561770Y5245560D01*
X2513980Y5293350D01*
Y6290650D01*
X2587350Y6364020D01*
X2708150D01*
X2708650Y6364520D01*
X2739680D01*
G02X2743810Y6370250I30329J-17507D01*
G03Y6383750I-7592J6750D01*
G02X2739680Y6389480I26199J23237D01*
G01X2670630D01*
G02X2639000Y6379480I-31630J45023D01*
G02Y6489520I0J55020D01*
G02X2670630Y6479520I0J-55023D01*
G01X2739680D01*
G02X2743810Y6485250I30329J-17507D01*
G03Y6498750I-7592J6750D01*
G02X2739680Y6504480I26199J23237D01*
G01X2595630D01*
G02X2564000Y6494480I-31630J45023D01*
G02Y6604520I0J55020D01*
G02X2595630Y6594520I0J-55023D01*
G01X2739680D01*
G02X2742460Y6598630I30324J-17516D01*
G03X2742010Y6611720I-7990J6278D01*
G02X2732280Y6637000I27988J25285D01*
G01Y6692000D01*
G02X2742010Y6717280I37718J-5D01*
G03X2742460Y6730370I-7540J6812D01*
G02X2739680Y6734480I27544J21626D01*
G01X2648130D01*
G02X2616500Y6724480I-31630J45023D01*
G02Y6834520I0J55020D01*
G02X2648130Y6824520I0J-55023D01*
G01X2739680D01*
G02X2742460Y6828630I30324J-17516D01*
G03X2742010Y6841720I-7990J6278D01*
G02X2732280Y6867000I27988J25285D01*
G01Y6922000D01*
G37*
G36*
G01X4665980Y5692370D02*
G02X4766020Y5724000I45020J31630D01*
G02X4756020Y5692370I-55023J0D01*
G01Y5504350D01*
X4180020Y4928350D01*
Y3630270D01*
G03X4194050Y3620870I10161J-4D01*
G02X4215000Y3625020I20962J-50868D01*
G02X4245160Y3616020I4J-55021D01*
G01X4888370D01*
G02X4920000Y3626020I31630J-45023D01*
G02Y3515980I0J-55020D01*
G02X4888370Y3525980I0J55023D01*
G01X4560250D01*
G03X4552730Y3508990I1J-10160D01*
G02X4567020Y3472000I-40730J-36990D01*
G02X4557020Y3440370I-55023J0D01*
G01Y3290350D01*
X4482650Y3215980D01*
X4430020D01*
Y3201000D01*
G02X4400000Y3170980I-30020J0D01*
G01X4120000D01*
G02X4110000Y3172690I-12J30022D01*
G02X4100000Y3170980I-9988J28312D01*
G01X4063050D01*
X4062140Y3170620D01*
G02X4050000Y3168280I-12151J30378D01*
G01X4020000D01*
G02X4007860Y3170620I11J32718D01*
G01X4006950Y3170980D01*
X3970000D01*
G02X3960000Y3172690I-12J30022D01*
G02X3950000Y3170980I-9988J28312D01*
G01X3913050D01*
X3912140Y3170620D01*
G02X3900000Y3168280I-12151J30378D01*
G01X3870000D01*
G02X3857860Y3170620I11J32718D01*
G01X3856950Y3170980D01*
X3820000D01*
G02X3789980Y3201000I0J30020D01*
G01Y3387350D01*
X3732350Y3444980D01*
X3261630D01*
G02X3230000Y3434980I-31630J45023D01*
G02Y3545020I0J55020D01*
G02X3261630Y3535020I0J-55023D01*
G01X3769650D01*
X3880020Y3424650D01*
Y3353720D01*
X3900000D01*
G02X3912140Y3351380I-11J-32718D01*
G01X3913050Y3351020D01*
X3950000D01*
G02X3960000Y3349310I12J-30022D01*
G02X3970000Y3351020I9988J-28312D01*
G01X4006950D01*
X4007860Y3351380D01*
G02X4020000Y3353720I12151J-30378D01*
G01X4050000D01*
G02X4062140Y3351380I-11J-32718D01*
G01X4063050Y3351020D01*
X4089980D01*
Y3572880D01*
X4059280Y3593980D01*
X3906730D01*
G02X3878000Y3578980I-28730J20014D01*
G01X3798000D01*
G02X3762980Y3614000I0J35020D01*
G01Y3664000D01*
G02X3798000Y3699020I35020J0D01*
G01X3878000D01*
G02X3906730Y3684020I0J-35014D01*
G01X4059280D01*
X4089980Y3705120D01*
Y4965650D01*
X4665980Y5541650D01*
Y5692370D01*
G37*
G36*
G01X4326630Y3870980D02*
G02X4295000Y3971020I-31630J45020D01*
G02X4326630Y3961020I0J-55023D01*
G01X4847650D01*
X5081020Y3727650D01*
Y3446880D01*
X5084820Y3445890D01*
G02X5099690Y3437790I-8820J-33891D01*
G03X5113870Y3438210I6875J7480D01*
G02X5141000Y3449720I27130J-26219D01*
G01X5221000D01*
G02X5221650Y3449710I-255J-37716D01*
G03X5231980Y3459870I169J10160D01*
G01Y3540350D01*
X5297650Y3606020D01*
X5325270D01*
G02X5354000Y3621020I28730J-20014D01*
G01X5434000D01*
G02X5469020Y3586000I0J-35020D01*
G01Y3536000D01*
G02X5434000Y3500980I-35020J0D01*
G01X5354000D01*
G02X5329730Y3510760I5J35018D01*
G01X5322020Y3503050D01*
Y3475560D01*
G03X5337090Y3466660I10162J-2D01*
G02X5354000Y3471020I16922J-30657D01*
G01X5434000D01*
G02X5469020Y3436000I0J-35020D01*
G01Y3386000D01*
G02X5442820Y3352110I-35019J0D01*
G01X5439020Y3351120D01*
Y3085020D01*
X5464020D01*
Y3035020D01*
X5511270D01*
G02X5540000Y3050020I28730J-20014D01*
G01X5620000D01*
G02X5655020Y3015000I0J-35020D01*
G01Y2965000D01*
G02X5620000Y2929980I-35020J0D01*
G01X5540000D01*
G02X5511270Y2944980I0J35014D01*
G01X5464020D01*
Y2901250D01*
X5466720Y2898550D01*
Y2762280D01*
X5321280D01*
Y2898550D01*
X5323980Y2901250D01*
Y2944980D01*
X5282650D01*
X5160240Y2822570D01*
G02X5176020Y2784000I-39247J-38570D01*
G02X5166020Y2752370I-55023J0D01*
G01Y1799650D01*
X5217070Y1748600D01*
X5271810Y1794090D01*
G02X5291000Y1801020I19185J-23092D01*
G01X5431000D01*
G02X5461020Y1771000I0J-30020D01*
G01Y1631000D01*
G02X5431000Y1600980I-30020J0D01*
G01X5291000D01*
G02X5271810Y1607910I-5J30022D01*
G01X5213970Y1655980D01*
X5182350D01*
X5113230Y1725100D01*
G03X5095890Y1717910I-7181J-7186D01*
G01Y1096480D01*
X5159020Y1033350D01*
Y1016880D01*
X5162820Y1015890D01*
G02X5182730Y1002020I-8822J-33889D01*
G01X5298650D01*
X5424020Y876650D01*
Y463020D01*
X5654000D01*
G02X5684020Y433000I0J-30020D01*
G01Y233000D01*
G02X5654000Y202980I-30020J0D01*
G01X5104000D01*
G02X5073980Y233000I0J30020D01*
G01Y433000D01*
G02X5104000Y463020I30020J0D01*
G01X5333980D01*
Y839350D01*
X5261350Y911980D01*
X5182730D01*
G02X5154000Y896980I-28730J20014D01*
G01X5074000D01*
G02X5038980Y932000I0J35020D01*
G01Y982000D01*
G02X5047260Y1004610I35010J0D01*
G03X5046680Y1018350I-7763J6555D01*
G01X5017000Y1048030D01*
X4987320Y1018350D01*
G03X4986740Y1004610I7183J-7185D01*
G02X4995020Y982000I-26730J-22610D01*
G01Y932000D01*
G02X4960000Y896980I-35020J0D01*
G01X4880000D01*
G02X4851270Y911980I0J35014D01*
G01X4784650D01*
X4474020Y601350D01*
Y463020D01*
X4704000D01*
G02X4734020Y433000I0J-30020D01*
G01Y233000D01*
G02X4704000Y202980I-30020J0D01*
G01X4154000D01*
G02X4123980Y233000I0J30020D01*
G01Y433000D01*
G02X4154000Y463020I30020J0D01*
G01X4383980D01*
Y638650D01*
X4747350Y1002020D01*
X4851270D01*
G02X4871180Y1015890I28732J-20019D01*
G01X4874980Y1016880D01*
Y1033350D01*
X4938110Y1096480D01*
Y2658220D01*
X4880350Y2715980D01*
X4804220D01*
G03X4797030Y2698640I-4J-10159D01*
G01X4886020Y2609650D01*
Y2192880D01*
X4889820Y2191890D01*
G02X4916020Y2158000I-8819J-33890D01*
G01Y2108000D01*
G02X4881000Y2072980I-35020J0D01*
G01X4801000D01*
G02X4774650Y2084940I0J35007D01*
G03X4759350I-7650J-6692D01*
G02X4733000Y2072980I-26350J23047D01*
G01X4653000D01*
G02X4617980Y2108000I0J35020D01*
G01Y2158000D01*
G02X4644180Y2191890I35019J0D01*
G01X4647980Y2192880D01*
Y2399540D01*
G03X4633330Y2408650I-10159J-3D01*
G02X4609000Y2402980I-24327J49351D01*
G02X4577370Y2412980I0J55023D01*
G01X4547650D01*
X4489980Y2470650D01*
Y2515980D01*
X4475000D01*
G02X4444980Y2546000I0J30020D01*
G01Y2576000D01*
G02X4446690Y2586000I30022J12D01*
G02X4444980Y2596000I28312J9988D01*
G01Y2626000D01*
G02X4446690Y2636000I30022J12D01*
G02X4444980Y2646000I28312J9988D01*
G01Y2676000D01*
G02X4446690Y2686000I30022J12D01*
G02X4444980Y2696000I28312J9988D01*
G01Y2726000D01*
G02X4446690Y2736000I30022J12D01*
G02X4444980Y2746000I28312J9988D01*
G01Y2776000D01*
G02X4446690Y2786000I30022J12D01*
G02X4444980Y2796000I28312J9988D01*
G01Y2826000D01*
G02X4446690Y2836000I30022J12D01*
G02X4444980Y2846000I28312J9988D01*
G01Y2876000D01*
G02X4445540Y2881770I30020J-1D01*
G02X4442280Y2896000I29458J14237D01*
G01Y2926000D01*
G02X4445540Y2940230I32718J-7D01*
G02X4444980Y2946000I29460J5771D01*
G01Y2976000D01*
G02X4446690Y2986000I30022J12D01*
G02X4444980Y2996000I28312J9988D01*
G01Y3026000D01*
G02X4446690Y3036000I30022J12D01*
G02X4444980Y3046000I28312J9988D01*
G01Y3076000D01*
G02X4446690Y3086000I30022J12D01*
G02X4444980Y3096000I28312J9988D01*
G01Y3126000D01*
G02X4475000Y3156020I30020J0D01*
G01X4672350D01*
X4699980Y3183650D01*
Y3194330D01*
X4699130Y3195610D01*
G02X4689980Y3226000I45872J30384D01*
G02X4800020I55020J0D01*
G02X4790870Y3195610I-55022J-6D01*
G01X4790020Y3194330D01*
Y3176220D01*
G03X4807360Y3169030I10159J-4D01*
G01X4920350Y3282020D01*
X4967270D01*
G02X4996000Y3297020I28730J-20014D01*
G01X5076000D01*
G02X5103990Y3283050I0J-35025D01*
G01X5105510Y3281020D01*
X5111490D01*
X5113010Y3283050D01*
G02X5141000Y3297020I27990J-21055D01*
G01X5221000D01*
G02X5221640Y3297010I-227J-35016D01*
G03X5231980Y3307170I179J10159D01*
G01Y3314130D01*
G03X5221650Y3324290I-10161J0D01*
G02X5221000Y3324280I-905J37706D01*
G01X5141000D01*
G02X5113870Y3335790I0J37729D01*
G03X5099690Y3336210I-7305J-7060D01*
G02X5076000Y3326980I-23690J25787D01*
G01X4996000D01*
G02X4960980Y3362000I0J35020D01*
G01Y3412000D01*
G02X4987180Y3445890I35019J0D01*
G01X4990980Y3446880D01*
Y3690350D01*
X4810350Y3870980D01*
X4326630D01*
G37*
G36*
G01X1979270Y3862020D02*
G02X2008000Y3877020I28730J-20014D01*
G01X2088000D01*
G02X2123020Y3842000I0J-35020D01*
G01Y3792000D01*
G02X2088000Y3756980I-35020J0D01*
G01X2008000D01*
G02X1979270Y3771980I0J35014D01*
G01X1949730D01*
G02X1929820Y3758110I-28732J20019D01*
G01X1926020Y3757120D01*
Y3749500D01*
X1941740Y3729020D01*
X1971790D01*
X2054020Y3646790D01*
Y3310000D01*
G02X2051920Y3294960I-55018J15D01*
G03X2061700Y3282020I9774J-2779D01*
G01X2180260D01*
X2195980Y3302500D01*
Y3375120D01*
X2192180Y3376110D01*
G02X2165980Y3410000I8819J33890D01*
G01Y3460000D01*
G02X2201000Y3495020I35020J0D01*
G01X2281000D01*
G02X2316020Y3460000I0J-35020D01*
G01Y3410000D01*
G02X2289820Y3376110I-35019J0D01*
G01X2286020Y3375120D01*
Y3302500D01*
X2301740Y3282020D01*
X2438210D01*
X2488090Y3331910D01*
G02X2527000Y3348020I38901J-38914D01*
G02X2582020Y3293000I0J-55020D01*
G02X2565910Y3254090I-55024J-9D01*
G01X2483790Y3171980D01*
X1807080D01*
X1805930Y3171350D01*
G02X1789000Y3166980I-16940J30647D01*
G01X1709000D01*
G02X1692070Y3171350I10J35017D01*
G01X1690920Y3171980D01*
X1629080D01*
X1627930Y3171350D01*
G02X1611000Y3166980I-16940J30647D01*
G01X1531000D01*
G02X1514070Y3171350I10J35017D01*
G01X1512920Y3171980D01*
X1457000D01*
G02Y3282020I0J55020D01*
G01X1512920D01*
X1514070Y3282650D01*
G02X1522180Y3285890I16945J-30644D01*
G01X1525980Y3286880D01*
Y3367970D01*
X1522500Y3373990D01*
G02X1518480Y3389000I26012J15010D01*
G01Y3432760D01*
G02X1508280Y3456500I22527J23740D01*
G01Y3631500D01*
G02X1518480Y3655240I32727J0D01*
G01Y3699000D01*
G02X1548500Y3729020I30020J0D01*
G01X1593500D01*
G02X1613200Y3721650I0J-30014D01*
G03X1620160Y3721930I3331J3836D01*
G02X1643500Y3731720I23340J-22927D01*
G01X1688500D01*
G02X1711840Y3721930I0J-32717D01*
G03X1718800Y3721650I3629J3556D01*
G02X1738500Y3729020I19700J-22644D01*
G01X1820260D01*
X1835980Y3749500D01*
Y3757120D01*
X1832180Y3758110D01*
G02X1805980Y3792000I8819J33890D01*
G01Y3842000D01*
G02X1841000Y3877020I35020J0D01*
G01X1921000D01*
G02X1949730Y3862020I0J-35014D01*
G01X1979270D01*
G37*
G36*
G01X3137980Y3379000D02*
G02X3173000Y3414020I35020J0D01*
G01X3253000D01*
G02X3281730Y3399020I0J-35014D01*
G01X3633650D01*
X3730020Y3302650D01*
Y3156020D01*
X3745000D01*
G02X3775020Y3126000I0J-30020D01*
G01Y3096000D01*
G02X3773310Y3086000I-30022J-12D01*
G02X3775020Y3076000I-28312J-9988D01*
G01Y3046000D01*
G02X3773310Y3036000I-30022J-12D01*
G02X3775020Y3026000I-28312J-9988D01*
G01Y2996000D01*
G02X3773310Y2986000I-30022J-12D01*
G02X3775020Y2976000I-28312J-9988D01*
G01Y2946000D01*
G02X3773310Y2936000I-30022J-12D01*
G02X3775020Y2926000I-28312J-9988D01*
G01Y2906020D01*
X3847650D01*
X3904020Y2849650D01*
Y2810630D01*
G02X3914020Y2779000I-45023J-31630D01*
G02X3803980I-55020J0D01*
G02X3808850Y2801640I55022J8D01*
G03X3799590Y2815980I-9258J4181D01*
G01X3775020D01*
Y2796000D01*
G02X3773310Y2786000I-30022J-12D01*
G02X3775020Y2776000I-28312J-9988D01*
G01Y2746000D01*
G02X3773310Y2736000I-30022J-12D01*
G02X3775020Y2726000I-28312J-9988D01*
G01Y2696000D01*
G02X3773310Y2686000I-30022J-12D01*
G02X3775020Y2676000I-28312J-9988D01*
G01Y2646000D01*
G02X3774460Y2640230I-30020J1D01*
G02X3777720Y2626000I-29458J-14237D01*
G01Y2596000D01*
G02X3774460Y2581770I-32718J7D01*
G02X3775020Y2576000I-29460J-5771D01*
G01Y2546000D01*
G02X3745000Y2515980I-30020J0D01*
G01X3730020D01*
Y2454220D01*
G03X3747360Y2447030I10159J-4D01*
G01X3756350Y2456020D01*
X3789980D01*
Y2471000D01*
G02X3820000Y2501020I30020J0D01*
G01X3900000D01*
G02X3905770Y2500460I-1J-30020D01*
G02X3920000Y2503720I14237J-29458D01*
G01X3950000D01*
G02X3964230Y2500460I-7J-32718D01*
G02X3970000Y2501020I5771J-29460D01*
G01X4300000D01*
G02X4305770Y2500460I-1J-30020D01*
G02X4320000Y2503720I14237J-29458D01*
G01X4350000D01*
G02X4364230Y2500460I-7J-32718D01*
G02X4370000Y2501020I5771J-29460D01*
G01X4400000D01*
G02X4430020Y2471000I0J-30020D01*
G01Y2196630D01*
G02X4440020Y2165000I-45023J-31630D01*
G02X4329980I-55020J0D01*
G02X4339980Y2196630I55023J0D01*
G01Y2318280D01*
X4320000D01*
G02X4305770Y2321540I7J32718D01*
G02X4300000Y2320980I-5771J29460D01*
G01X4230020D01*
Y2153880D01*
X4233820Y2152890D01*
G02X4260020Y2119000I-8819J-33890D01*
G01Y2069000D01*
G02X4225000Y2033980I-35020J0D01*
G01X4146020D01*
Y2006720D01*
X4225000D01*
G02X4262720Y1969000I0J-37720D01*
G01Y1919000D01*
G02X4225000Y1881280I-37720J0D01*
G01X4146020D01*
Y1339350D01*
X3863650Y1056980D01*
X3822630D01*
G02X3791000Y1046980I-31630J45023D01*
G02Y1157020I0J55020D01*
G02X3821390Y1147870I6J-55022D01*
G01X3822670Y1147020D01*
X3826350D01*
X4055980Y1376650D01*
Y1619920D01*
G03X4039930Y1628190I-10159J-6D01*
G02X4008000Y1617980I-31930J44823D01*
G02X3976370Y1627980I0J55023D01*
G01X3857620D01*
G03X3848580Y1613190I1J-10158D01*
G02X3852720Y1596000I-33582J-17181D01*
G01Y1546000D01*
G02X3815000Y1508280I-37720J0D01*
G01X3735000D01*
G02X3708150Y1519500I-6J37722D01*
G03X3701170Y1519750I-3622J-3563D01*
G02X3678000Y1510980I-23179J26247D01*
G01X3598000D01*
G02X3575520Y1519150I0J35012D01*
G03X3562480I-6520J-7794D01*
G02X3540000Y1510980I-22480J26842D01*
G01X3460000D01*
G02X3424980Y1546000I0J35020D01*
G01Y1596000D01*
G02X3435280Y1620810I35030J0D01*
G03X3435300Y1635190I-7167J7200D01*
G01X3411980Y1658510D01*
Y1673770D01*
G02X3400980Y1697000I19029J23230D01*
G01Y1787000D01*
G02X3431000Y1817020I30020J0D01*
G01X3501000D01*
G02X3531020Y1787000I0J-30020D01*
G01Y1695090D01*
X3555020Y1671090D01*
Y1627640D01*
G02X3562480Y1622850I-15040J-31627D01*
G03X3575520I6520J7794D01*
G02X3589180Y1629890I22482J-26850D01*
G01X3592980Y1630880D01*
Y1929350D01*
X3444360Y2077970D01*
G03X3427020Y2070780I-7181J-7186D01*
G01Y2010290D01*
X3431720Y2002490D01*
G02X3436020Y1987000I-25722J-15482D01*
G01Y1897000D01*
G02X3406000Y1866980I-30020J0D01*
G01X3336000D01*
G02X3305980Y1897000I0J30020D01*
G01Y1987000D01*
G02X3310280Y2002490I30022J8D01*
G01X3315980Y2011950D01*
Y2020990D01*
X3308770D01*
X3307270Y2019470D01*
G02X3268000Y2002980I-39275J38528D01*
G02X3212980Y2058000I0J55020D01*
G02X3222980Y2089630I55023J0D01*
G01Y2326120D01*
X3219180Y2327110D01*
G02X3192980Y2361000I8819J33890D01*
G01Y2411000D01*
G02X3228000Y2446020I35020J0D01*
G01X3308000D01*
G02X3343020Y2411000I0J-35020D01*
G01Y2402220D01*
G03X3360360Y2395030I10159J-4D01*
G01X3402350Y2437020D01*
X3505910D01*
G03X3515590Y2450270I0J10161D01*
G02X3512980Y2467000I52408J16745D01*
G02X3522980Y2498630I55023J0D01*
G01Y2611780D01*
G03X3505640Y2618970I-10159J4D01*
G01X3501020Y2614350D01*
Y2568630D01*
G02X3511020Y2537000I-45023J-31630D01*
G02X3400980I-55020J0D01*
G02X3410980Y2568630I55023J0D01*
G01Y2651650D01*
X3457970Y2698640D01*
G03X3450780Y2715980I-7186J7181D01*
G01X3379650D01*
X3313020Y2649350D01*
Y2595880D01*
X3316820Y2594890D01*
G02X3343020Y2561000I-8819J-33890D01*
G01Y2511000D01*
G02X3308000Y2475980I-35020J0D01*
G01X3228000D01*
G02X3192980Y2511000I0J35020D01*
G01Y2561000D01*
G02X3219180Y2594890I35019J0D01*
G01X3222980Y2595880D01*
Y2686650D01*
X3284970Y2748640D01*
G03X3277780Y2765980I-7186J7181D01*
G01X2985350D01*
X2962560Y2788770D01*
X2961060Y2789080D01*
G02X2916980Y2843000I10938J53920D01*
G02X2972000Y2898020I55020J0D01*
G02X3024470Y2859570I0J-55026D01*
G01X3025590Y2856020D01*
X3184770D01*
G03X3194630Y2868650I3J10162D01*
G02X3192980Y2882000I53367J13373D01*
G02X3196790Y2902110I55019J-8D01*
G03X3187330Y2915980I-9459J3709D01*
G01X2787650D01*
X2750020Y2878350D01*
Y2790880D01*
X2753820Y2789890D01*
G02X2780020Y2756000I-8819J-33890D01*
G01Y2706000D01*
G02X2745000Y2670980I-35020J0D01*
G01X2665000D01*
G02X2636270Y2685980I0J35014D01*
G01X2593850D01*
X2581350Y2673480D01*
X2576300D01*
X2563310Y2662870D01*
G03Y2647130I6432J-7870D01*
G01X2576300Y2636520D01*
X2581350D01*
X2591850Y2626020D01*
X2636270D01*
G02X2665000Y2641020I28730J-20014D01*
G01X2745000D01*
G02X2780020Y2606000I0J-35020D01*
G01Y2556000D01*
G02X2745000Y2520980I-35020J0D01*
G01X2665000D01*
G02X2636270Y2535980I0J35014D01*
G01X2563450D01*
X2554520Y2528680D01*
X2559250Y2522190D01*
G02X2565020Y2504500I-24248J-17695D01*
G01Y2424500D01*
G02X2559250Y2406810I-30018J5D01*
G01X2555020Y2401000D01*
X2559250Y2395190D01*
G02X2565020Y2377500I-24248J-17695D01*
G01Y2297500D01*
G02X2559250Y2279810I-30018J5D01*
G01X2515020Y2219170D01*
Y2140290D01*
X2546290Y2109020D01*
X2650790D01*
X2915020Y1844790D01*
Y1631600D01*
G03X2931440Y1623590I10161J-5D01*
G02X2953000Y1631020I21567J-27587D01*
G01X3033000D01*
G02X3049930Y1626650I-10J-35017D01*
G01X3051080Y1626020D01*
X3062920D01*
X3064070Y1626650D01*
G02X3081000Y1631020I16940J-30647D01*
G01X3161000D01*
G02X3177930Y1626650I-10J-35017D01*
G01X3179080Y1626020D01*
X3191970D01*
G02X3194980Y1627640I18083J-29992D01*
G01Y1677090D01*
X3211130Y1693240D01*
X3211020Y1695490D01*
G02X3210980Y1697000I29979J1550D01*
G01Y1787000D01*
G02X3241000Y1817020I30020J0D01*
G01X3311000D01*
G02X3341020Y1787000I0J-30020D01*
G01Y1697000D01*
G02X3331020Y1674630I-30021J0D01*
G01Y1657510D01*
X3311550Y1638040D01*
G03X3312280Y1623020I7189J-7178D01*
G02X3325020Y1596000I-22283J-27020D01*
G01Y1546000D01*
G02X3290000Y1510980I-35020J0D01*
G01X3210000D01*
G02X3193070Y1515350I10J35017D01*
G01X3191920Y1515980D01*
X3179080D01*
X3177930Y1515350D01*
G02X3161000Y1510980I-16940J30647D01*
G01X3081000D01*
G02X3064070Y1515350I10J35017D01*
G01X3062920Y1515980D01*
X3051080D01*
X3049930Y1515350D01*
G02X3033000Y1510980I-16940J30647D01*
G01X2953000D01*
G02X2924270Y1525980I0J35014D01*
G01X2922750Y1528150D01*
X2915020D01*
Y1510290D01*
X2945100Y1480210D01*
X2947650Y1480610D01*
G02X2953000Y1481020I5343J-34611D01*
G01X3033000D01*
G02X3054950Y1473280I-8J-35017D01*
G02X3081000Y1483720I26050J-27280D01*
G01X3161000D01*
G02X3187500Y1472840I0J-37713D01*
G02X3210000Y1481020I22495J-26842D01*
G01X3290000D01*
G02X3314780Y1470750I0J-35030D01*
G03X3330550Y1472480I7193J7176D01*
G02X3377000Y1498020I46450J-29470D01*
G02X3422170Y1474420I0J-55027D01*
G03X3437140Y1472530I8337J5804D01*
G02X3460000Y1481020I22860J-26531D01*
G01X3540000D01*
G02X3555250Y1477530I9J-35022D01*
G01X3556290Y1477020D01*
X3581710D01*
X3582750Y1477530D01*
G02X3598000Y1481020I15241J-31532D01*
G01X3678000D01*
G02X3702890Y1470640I0J-35032D01*
G03X3710110I3610J3569D01*
G02X3735000Y1481020I24890J-24652D01*
G01X3815000D01*
G02X3850020Y1446000I0J-35020D01*
G01Y1396000D01*
G02X3823820Y1362110I-35019J0D01*
G01X3820020Y1361120D01*
Y1251350D01*
X3625020Y1056350D01*
Y1031400D01*
X3630430D01*
X3630760Y1031440D01*
G02X3635000Y1031720I4271J-32438D01*
G01X3685000D01*
G02X3717720Y999000I0J-32720D01*
G01Y779000D01*
G02X3685000Y746280I-32720J0D01*
G01X3635000D01*
G02X3617180Y751560I0J32711D01*
G02X3605000Y748980I-12176J27441D01*
G01X3315000D01*
G02X3284980Y779000I0J30020D01*
G01Y1013910D01*
X3249910Y1048980D01*
X3054210D01*
X2937980Y1165210D01*
Y1364360D01*
G02X2930720Y1368980I15030J31633D01*
G01X2771650D01*
X2770440Y1368260D01*
G02X2755000Y1363980I-15448J25738D01*
G01X2695000D01*
G02X2664980Y1394000I0J30020D01*
G01Y1454000D01*
G02X2695000Y1484020I30020J0D01*
G01X2755000D01*
G02X2771590Y1479020I0J-30023D01*
G01X2773710D01*
X2804980Y1510290D01*
Y1799210D01*
X2605210Y1998980D01*
X2354020D01*
Y1983980D01*
X2033980D01*
Y2008980D01*
X2017650D01*
X1914980Y2111650D01*
Y2217630D01*
X1862400Y2277740D01*
G02X1854980Y2297500I22601J19760D01*
G01Y2377500D01*
G02X1860750Y2395190I30018J-5D01*
G01X1864980Y2401000D01*
X1860750Y2406810D01*
G02X1854980Y2424500I24248J17695D01*
G01Y2504500D01*
G02X1860750Y2522190I30018J-5D01*
G01X1861780Y2523600D01*
G03X1860160Y2531020I-4106J2990D01*
G01X1853130Y2534980D01*
X1692970D01*
X1632580Y2494970D01*
G02X1616000Y2489980I-16575J25032D01*
G01X1476000D01*
G02X1445980Y2520000I0J30020D01*
G01Y2660000D01*
G02X1476000Y2690020I30020J0D01*
G01X1616000D01*
G02X1632580Y2685030I5J-30022D01*
G01X1692970Y2645020D01*
X1823010D01*
X1824510Y2646520D01*
X1850460D01*
X1860160Y2651980D01*
G03X1861780Y2659400I-2486J4430D01*
G01X1860750Y2660810D01*
G02X1854980Y2678500I24248J17695D01*
G01Y2758500D01*
G02X1885000Y2788520I30020J0D01*
G01X2035000D01*
G02X2065020Y2758500I0J-30020D01*
G01Y2678500D01*
G02X2059250Y2660810I-30018J5D01*
G01X2055020Y2655000D01*
X2059250Y2649190D01*
G02X2065020Y2631500I-24248J-17695D01*
G01Y2551500D01*
G02X2059250Y2533810I-30018J5D01*
G01X2055020Y2528000D01*
X2059250Y2522190D01*
G02X2065020Y2504500I-24248J-17695D01*
G01Y2424500D01*
G02X2059250Y2406810I-30018J5D01*
G01X2055020Y2401000D01*
X2059250Y2395190D01*
G02X2065020Y2377500I-24248J-17695D01*
G01Y2297500D01*
G02X2057600Y2277740I-30021J0D01*
G01X2005020Y2217630D01*
Y2148950D01*
X2029950Y2124020D01*
X2354020D01*
Y2109020D01*
X2373710D01*
X2404980Y2140290D01*
Y2219170D01*
X2360750Y2279810D01*
G02X2354980Y2297500I24248J17695D01*
G01Y2377500D01*
G02X2360750Y2395190I30018J-5D01*
G01X2364980Y2401000D01*
X2360750Y2406810D01*
G02X2354980Y2424500I24248J17695D01*
G01Y2504500D01*
G02X2360750Y2522190I30018J-5D01*
G01X2364980Y2528000D01*
X2360750Y2533810D01*
G02X2354980Y2551500I24248J17695D01*
G01Y2631500D01*
G02X2362700Y2651600I30026J0D01*
G03Y2658400I-3772J3400D01*
G02X2354980Y2678500I22306J20100D01*
G01Y2758500D01*
G02X2385000Y2788520I30020J0D01*
G01X2535000D01*
G02X2553990Y2781750I0J-30019D01*
G01X2561000Y2776020D01*
X2636270D01*
G02X2656180Y2789890I28732J-20019D01*
G01X2659980Y2790880D01*
Y2915650D01*
X2750350Y3006020D01*
X2880290D01*
G03X2889360Y3020750I-3J10159D01*
G02X2884580Y3034560I49143J24742D01*
G01X2884270Y3036060D01*
X2867350Y3052980D01*
X2243630D01*
G02X2212000Y3042980I-31630J45023D01*
G02Y3153020I0J55020D01*
G02X2243630Y3143020I0J-55023D01*
G01X2904650D01*
X2947940Y3099730D01*
X2949440Y3099420D01*
G02X2993520Y3045500I-10938J-53920D01*
G02X2987640Y3020750I-55029J0D01*
G03X2996710Y3006020I9073J-4571D01*
G01X3228780D01*
G03X3235970Y3023360I4J10159D01*
G01X3167980Y3091350D01*
Y3144120D01*
X3164180Y3145110D01*
G02X3137980Y3179000I8819J33890D01*
G01Y3229000D01*
G02X3173000Y3264020I35020J0D01*
G01X3253000D01*
G02X3288020Y3229000I0J-35020D01*
G01Y3179000D01*
G02X3261820Y3145110I-35019J0D01*
G01X3258020Y3144120D01*
Y3128650D01*
X3287650Y3099020D01*
X3319370D01*
G02X3382630I31630J-45023D01*
G01X3453650D01*
X3496650Y3056020D01*
X3502750D01*
G03X3510270Y3073010I-1J10160D01*
G02X3495980Y3110000I40730J36990D01*
G02X3551000Y3165020I55020J0D01*
G02X3590420Y3148390I6J-55022D01*
G03X3604600Y3148020I7280J7086D01*
G02X3625000Y3156020I20400J-22010D01*
G01X3639980D01*
Y3265350D01*
X3596350Y3308980D01*
X3281730D01*
G02X3253000Y3293980I-28730J20014D01*
G01X3173000D01*
G02X3137980Y3329000I0J35020D01*
G01Y3379000D01*
G37*
G36*
G01X2680720Y1680410D02*
G02X2695000Y1684020I14273J-26412D01*
G01X2755000D01*
G02X2785020Y1654000I0J-30020D01*
G01Y1594000D01*
G02X2755000Y1563980I-30020J0D01*
G01X2695000D01*
G02X2680720Y1567590I-7J30022D01*
G01X2661520Y1577980D01*
X2643730D01*
G02X2615000Y1562980I-28730J20014D01*
G01X2535000D01*
G02X2511420Y1572110I0J35015D01*
G03X2504580I-3420J-3758D01*
G02X2481000Y1562980I-23580J25885D01*
G01X2401000D01*
G02X2372270Y1577980I0J35014D01*
G01X2359650D01*
X2142020Y1360350D01*
Y1334120D01*
X2172720Y1313020D01*
X2252650D01*
X2332020Y1233650D01*
Y1160330D01*
X2343410Y1139280D01*
G02X2347020Y1125000I-26412J-14273D01*
G01Y1005000D01*
G02X2317000Y974980I-30020J0D01*
G01X2257000D01*
G02X2241920Y979040I-4J30021D01*
G02X2222000Y972280I-19920J25970D01*
G01X2162000D01*
G02X2142080Y979040I0J32730D01*
G02X2127000Y974980I-15076J25961D01*
G01X2067000D01*
G02X2036980Y1005000I0J30020D01*
G01Y1125000D01*
G02X2040590Y1139280I30022J7D01*
G01X2051980Y1160330D01*
Y1244880D01*
X2021280Y1265980D01*
X1900350D01*
X1843980Y1322350D01*
Y1545350D01*
X1820350Y1568980D01*
X1773630D01*
G02X1742000Y1558980I-31630J45023D01*
G02Y1669020I0J55020D01*
G02X1773630Y1659020I0J-55023D01*
G01X1857650D01*
X1934020Y1582650D01*
Y1359650D01*
X1937650Y1356020D01*
X2021280D01*
X2051980Y1377120D01*
Y1397650D01*
X2322350Y1668020D01*
X2372270D01*
G02X2401000Y1683020I28730J-20014D01*
G01X2481000D01*
G02X2504580Y1673890I0J-35015D01*
G03X2511420I3420J3758D01*
G02X2535000Y1683020I23580J-25885D01*
G01X2615000D01*
G02X2643010Y1669020I0J-35020D01*
G01X2659670D01*
X2680720Y1680410D01*
G37*
G36*
G01X1498920Y5209020D02*
X1500070Y5209650D01*
G02X1517000Y5214020I16940J-30647D01*
G01X1597000D01*
G02X1632020Y5179000I0J-35020D01*
G01Y5129000D01*
G02X1597000Y5093980I-35020J0D01*
G01X1517000D01*
G02X1500070Y5098350I10J35017D01*
G01X1498920Y5098980D01*
X1481860D01*
G03X1474680Y5081640I5J-10158D01*
G01X1490290Y5066020D01*
X1630000D01*
G02Y4955980I0J-55020D01*
G01X1328290D01*
X1309680Y4937360D01*
G03X1316860Y4920020I7185J-7182D01*
G01X1345920D01*
X1347070Y4920650D01*
G02X1364000Y4925020I16940J-30647D01*
G01X1444000D01*
G02X1470960Y4912350I0J-35019D01*
G03X1486890Y4912720I7819J6488D01*
G02X1517000Y4927720I30110J-22720D01*
G01X1597000D01*
G02X1634720Y4890000I0J-37720D01*
G01Y4840000D01*
G02X1597000Y4802280I-37720J0D01*
G01X1517000D01*
G02X1486890Y4817280I0J37720D01*
G03X1470960Y4817650I-8111J-6118D01*
G02X1444000Y4804980I-26960J22349D01*
G01X1364000D01*
G02X1347070Y4809350I10J35017D01*
G01X1345920Y4809980D01*
X1300080D01*
X1298930Y4809350D01*
G02X1282000Y4804980I-16940J30647D01*
G01X1202000D01*
G02X1166980Y4840000I0J35020D01*
G01Y4890000D01*
G02X1179380Y4916740I35032J0D01*
G03X1180010Y4931680I-6557J7760D01*
G01X1155710Y4955980D01*
X1032080D01*
X1030930Y4955350D01*
G02X1014000Y4950980I-16940J30647D01*
G01X934000D01*
G02X898980Y4986000I0J35020D01*
G01Y5036000D01*
G02X934000Y5071020I35020J0D01*
G01X1014000D01*
G02X1030930Y5066650I-10J-35017D01*
G01X1032080Y5066020D01*
X1317710D01*
X1333320Y5081640D01*
G03X1326140Y5098980I-7185J7182D01*
G01X1300080D01*
X1298930Y5098350D01*
G02X1282000Y5093980I-16940J30647D01*
G01X1202000D01*
G02X1166980Y5129000I0J35020D01*
G01Y5179000D01*
G02X1202000Y5214020I35020J0D01*
G01X1282000D01*
G02X1298930Y5209650I-10J-35017D01*
G01X1300080Y5209020D01*
X1345920D01*
X1347070Y5209650D01*
G02X1364000Y5214020I16940J-30647D01*
G01X1444000D01*
G02X1460930Y5209650I-10J-35017D01*
G01X1462080Y5209020D01*
X1498920D01*
G37*
G36*
G01X1331700Y5348480D02*
G02X1364000Y5366720I32300J-19479D01*
G01X1444000D01*
G02X1474110Y5351720I0J-37720D01*
G03X1490040Y5351350I8111J6118D01*
G02X1517000Y5364020I26960J-22349D01*
G01X1597000D01*
G02X1625730Y5349020I0J-35014D01*
G01X1697650D01*
X1828020Y5218650D01*
Y4940020D01*
X1853020D01*
Y4619980D01*
X1712980D01*
Y4669980D01*
X1625730D01*
G02X1605820Y4656110I-28732J20019D01*
G01X1602020Y4655120D01*
Y4458650D01*
X1645440Y4415230D01*
X1646940Y4414920D01*
G02X1691020Y4361000I-10938J-53920D01*
G02X1636000Y4305980I-55020J0D01*
G02X1582080Y4350060I0J55018D01*
G01X1581770Y4351560D01*
X1511980Y4421350D01*
Y4655120D01*
X1508180Y4656110D01*
G02X1490040Y4667650I8819J33891D01*
G03X1474110Y4667280I-7819J-6488D01*
G02X1444000Y4652280I-30110J22720D01*
G01X1364000D01*
G02X1331700Y4670520I0J37719D01*
G03X1314300I-8700J-5248D01*
G02X1282000Y4652280I-32300J19479D01*
G01X1202000D01*
G02X1164280Y4690000I0J37720D01*
G01Y4740000D01*
G02X1202000Y4777720I37720J0D01*
G01X1282000D01*
G02X1314300Y4759480I0J-37719D01*
G03X1331700I8700J5248D01*
G02X1364000Y4777720I32300J-19479D01*
G01X1444000D01*
G02X1474110Y4762720I0J-37720D01*
G03X1490040Y4762350I8111J6118D01*
G02X1517000Y4775020I26960J-22349D01*
G01X1597000D01*
G02X1625730Y4760020I0J-35014D01*
G01X1712980D01*
Y4940020D01*
X1737980D01*
Y5181350D01*
X1660350Y5258980D01*
X1625730D01*
G02X1597000Y5243980I-28730J20014D01*
G01X1517000D01*
G02X1490040Y5256650I0J35019D01*
G03X1474110Y5256280I-7819J-6488D01*
G02X1444000Y5241280I-30110J22720D01*
G01X1364000D01*
G02X1331700Y5259520I0J37719D01*
G03X1314300I-8700J-5248D01*
G02X1282000Y5241280I-32300J19479D01*
G01X1202000D01*
G02X1164280Y5279000I0J37720D01*
G01Y5329000D01*
G02X1202000Y5366720I37720J0D01*
G01X1282000D01*
G02X1314300Y5348480I0J-37719D01*
G03X1331700I8700J5248D01*
G37*
G36*
G01X5271630Y5316980D02*
G02X5240000Y5417020I-31630J45020D01*
G02X5271630Y5407020I0J-55023D01*
G01X6834650D01*
X6919940Y5321730D01*
X6921440Y5321420D01*
G02X6965520Y5267500I-10938J-53920D01*
G02X6910500Y5212480I-55020J0D01*
G02X6856580Y5256560I0J55018D01*
G01X6856270Y5258060D01*
X6797350Y5316980D01*
X5391270D01*
Y5308260D01*
X5394710Y5307090D01*
G02X5408630Y5300020I-17703J-52094D01*
G01X6620650D01*
X6687440Y5233230D01*
X6688940Y5232920D01*
G02X6733020Y5179000I-10938J-53920D01*
G02X6678000Y5123980I-55020J0D01*
G02X6624080Y5168060I0J55018D01*
G01X6623770Y5169560D01*
X6583350Y5209980D01*
X5408630D01*
G02X5377000Y5199980I-31630J45023D01*
G02X5321980Y5255000I0J55020D01*
G02X5343630Y5298740I55009J0D01*
G03X5337460Y5316980I-6163J8079D01*
G01X5271630D01*
G37*
G36*
G01X3972280Y6922000D02*
G02X4010000Y6959720I37720J0D01*
G01X4230000D01*
G02X4267720Y6922000I0J-37720D01*
G01Y6867000D01*
G02X4257990Y6841720I-37718J5D01*
G03X4257540Y6828630I7540J-6812D01*
G02X4260320Y6824520I-27544J-21626D01*
G01X6477850D01*
X6504290Y6798080D01*
X6505790Y6797770D01*
G02X6549870Y6743850I-10938J-53920D01*
G02X6494850Y6688830I-55020J0D01*
G02X6440650Y6734380I0J55021D01*
G01X6440550Y6734480D01*
X4260320D01*
G02X4256190Y6728750I-30329J17507D01*
G03Y6715250I7592J-6750D01*
G02X4260320Y6709520I-26199J-23237D01*
G01X6396150D01*
X6428440Y6677230D01*
X6429940Y6676920D01*
G02X6474020Y6623000I-10938J-53920D01*
G02X6462570Y6589400I-55025J0D01*
G01X6640020Y6411950D01*
Y6338630D01*
G02X6650020Y6307000I-45023J-31630D01*
G02X6539980I-55020J0D01*
G02X6549980Y6338630I55023J0D01*
G01Y6374650D01*
X6420650Y6503980D01*
X4341350D01*
X4340850Y6504480D01*
X4260320D01*
G02X4256190Y6498750I-30329J17507D01*
G03Y6485250I7592J-6750D01*
G02X4260320Y6479520I-26199J-23237D01*
G01X5116370D01*
G02X5148000Y6489520I31630J-45023D01*
G02Y6379480I0J-55020D01*
G02X5116370Y6389480I0J55023D01*
G01X4260320D01*
G02X4257540Y6385370I-30324J17516D01*
G03X4257990Y6372280I7990J-6278D01*
G02X4267720Y6347000I-27988J-25285D01*
G01Y6292000D01*
G02X4257990Y6266720I-37718J5D01*
G03X4257540Y6253630I7540J-6812D01*
G02X4260320Y6249520I-27544J-21626D01*
G01X4291350D01*
X4291850Y6249020D01*
X4340370D01*
G02X4372000Y6259020I31630J-45023D01*
G02X4427020Y6204000I0J-55020D01*
G02X4421010Y6179000I-55019J4D01*
G01X4429130Y6173090D01*
X4429770Y6173740D01*
X6695970D01*
X6716960Y6152750D01*
X6718460Y6152440D01*
G02X6762540Y6098520I-10938J-53920D01*
G02X6752230Y6066450I-55033J0D01*
G01X6749720Y6062950D01*
X6841440Y5971230D01*
X6842940Y5970920D01*
G02X6887020Y5917000I-10938J-53920D01*
G02X6832000Y5861980I-55020J0D01*
G02X6778080Y5906060I0J55018D01*
G01X6777770Y5907560D01*
X6713540Y5971790D01*
X5183120D01*
X5162020Y5941090D01*
Y5134340D01*
X5023660Y4995980D01*
X4861650D01*
X4745020Y4879350D01*
Y4866060D01*
X4790050Y4788040D01*
X4790070Y4788010D01*
G02X4805020Y4734000I-90071J-54006D01*
G02X4594980I-105020J0D01*
G02X4609930Y4788010I105021J4D01*
G01X4609950Y4788040D01*
X4654980Y4866060D01*
Y4916650D01*
X4824350Y5086020D01*
X4986360D01*
X5071980Y5171640D01*
Y5941090D01*
X5050880Y5971790D01*
X5041940D01*
G03X5031980Y5959660I6J-10159D01*
G02X5033020Y5949000I-53981J-10647D01*
G02X5023020Y5917370I-55023J0D01*
G01Y5216350D01*
X4988230Y5181560D01*
X4987920Y5180060D01*
G02X4934000Y5135980I-53920J10938D01*
G02X4878980Y5191000I0J55020D01*
G02X4923060Y5244920I55018J0D01*
G01X4924560Y5245230D01*
X4932980Y5253650D01*
Y5818220D01*
G03X4917080Y5826600I-10160J-3D01*
G02X4886000Y5816980I-31080J45396D01*
G02X4884120Y5817010I-62J55021D01*
G01X4881330Y5817110D01*
X4867020Y5796280D01*
Y5352350D01*
X4443020Y4928350D01*
Y4866060D01*
X4488050Y4788040D01*
X4488070Y4788010D01*
G02X4503020Y4734000I-90071J-54006D01*
G02X4292980I-105020J0D01*
G02X4307930Y4788010I105021J4D01*
G01X4307950Y4788040D01*
X4352980Y4866060D01*
Y4965650D01*
X4776980Y5389650D01*
Y5796280D01*
X4755880Y5826980D01*
X3965020D01*
Y5762000D01*
G02X3930000Y5726980I-35020J0D01*
G01X3906710D01*
G03X3898730Y5710540I4J-10159D01*
G02X3910520Y5676500I-43232J-34035D01*
G02X3907780Y5659350I-55021J-3D01*
G03X3917430Y5646020I9652J-3171D01*
G01X4487370D01*
G02X4519000Y5656020I31630J-45023D01*
G02Y5545980I0J-55020D01*
G02X4487370Y5555980I0J55023D01*
G01X4400090D01*
G03X4390410Y5542730I0J-10161D01*
G02X4393020Y5526000I-52408J-16745D01*
G02X4338000Y5470980I-55020J0D01*
G02X4306370Y5480980I0J55023D01*
G01X3622350D01*
X3512480Y5590850D01*
Y5731680D01*
G02X3506070Y5736430I17509J30328D01*
G03X3497520Y5732720I-3470J-3709D01*
G01Y5627000D01*
G02X3487520Y5595370I-55023J0D01*
G01Y5311150D01*
X3595650Y5203020D01*
X4085370D01*
G02X4117000Y5213020I31630J-45023D01*
G02Y5102980I0J-55020D01*
G02X4085370Y5112980I0J55023D01*
G01X3558350D01*
X3397480Y5273850D01*
Y5595370D01*
G02X3387480Y5627000I45023J31630D01*
G01Y5719640D01*
G03X3372580Y5728630I-10161J3D01*
G02X3355000Y5724280I-17585J33369D01*
G01X3300000D01*
G02X3274720Y5734010I5J37718D01*
G03X3261630Y5734460I-6812J-7540D01*
G02X3257520Y5731680I-21626J27544D01*
G01Y4602650D01*
X3261150Y4599020D01*
X3317940D01*
X3358680Y4622530D01*
X3358720Y4622550D01*
G02X3441280I41280J-68547D01*
G01X3441320Y4622530D01*
X3482060Y4599020D01*
X3808270D01*
G02X3837000Y4614020I28730J-20014D01*
G01X3917000D01*
G02X3945730Y4599020I0J-35014D01*
G01X3987650D01*
X4057020Y4529650D01*
Y4064350D01*
X3968650Y3975980D01*
X3764020D01*
Y3925980D01*
X3623980D01*
Y4105980D01*
X3349120D01*
X3328020Y4075280D01*
Y4051880D01*
X3331820Y4050890D01*
G02X3358020Y4017000I-8819J-33890D01*
G01Y3967000D01*
G02X3323000Y3931980I-35020J0D01*
G01X3243000D01*
G02X3207980Y3967000I0J35020D01*
G01Y4017000D01*
G02X3234180Y4050890I35019J0D01*
G01X3237980Y4051880D01*
Y4075280D01*
X3216880Y4105980D01*
X3149650D01*
X3112020Y4068350D01*
Y4051880D01*
X3115820Y4050890D01*
G02X3142020Y4017000I-8819J-33890D01*
G01Y3967000D01*
G02X3107000Y3931980I-35020J0D01*
G01X3027000D01*
G02X2991980Y3967000I0J35020D01*
G01Y4017000D01*
G02X3017310Y4050650I35016J0D01*
G01X3020980Y4051710D01*
Y4104650D01*
X3112350Y4196020D01*
X3623980D01*
Y4246020D01*
X3764020D01*
Y4066020D01*
X3931350D01*
X3966980Y4101650D01*
Y4492350D01*
X3955610Y4503720D01*
G03X3941360Y4503840I-7186J-7181D01*
G02X3917000Y4493980I-24360J25162D01*
G01X3837000D01*
G02X3808270Y4508980I0J35014D01*
G01X3482060D01*
X3441320Y4485470D01*
X3441280Y4485450D01*
G02X3358720I-41280J68547D01*
G01X3358680Y4485470D01*
X3317940Y4508980D01*
X3223850D01*
X3167480Y4565350D01*
Y5731680D01*
G02X3161750Y5735810I17507J30329D01*
G03X3148250I-6750J-7592D01*
G02X3142520Y5731680I-23237J26199D01*
G01Y4565350D01*
X3086150Y4508980D01*
X2994060D01*
X2953320Y4485470D01*
X2953280Y4485450D01*
G02X2870720I-41280J68547D01*
G01X2870680Y4485470D01*
X2829940Y4508980D01*
X2512730D01*
G02X2484000Y4493980I-28730J20014D01*
G01X2404000D01*
G02X2368980Y4529000I0J35020D01*
G01Y4579000D01*
G02X2404000Y4614020I35020J0D01*
G01X2484000D01*
G02X2512730Y4599020I0J-35014D01*
G01X2829940D01*
X2870680Y4622530D01*
X2870720Y4622550D01*
G02X2953280I41280J-68547D01*
G01X2953320Y4622530D01*
X2994060Y4599020D01*
X3048850D01*
X3052480Y4602650D01*
Y5731680D01*
G02X3034980Y5762000I17516J30320D01*
G01Y5982000D01*
G02X3070000Y6017020I35020J0D01*
G01X3125000D01*
G02X3148250Y6008190I0J-35024D01*
G03X3161750I6750J7592D01*
G02X3185000Y6017020I23250J-26194D01*
G01X3240000D01*
G02X3261630Y6009540I0J-35014D01*
G03X3274720Y6009990I6278J7990D01*
G02X3300000Y6019720I25285J-27988D01*
G01X3355000D01*
G02X3380280Y6009990I-5J-37718D01*
G03X3393370Y6009540I6812J7540D01*
G02X3415000Y6017020I21630J-27534D01*
G01X3470000D01*
G02X3493250Y6008190I0J-35024D01*
G03X3506750I6750J7592D01*
G02X3530000Y6017020I23250J-26194D01*
G01X3585000D01*
G02X3608250Y6008190I0J-35024D01*
G03X3621750I6750J7592D01*
G02X3645000Y6017020I23250J-26194D01*
G01X3700000D01*
G02X3723250Y6008190I0J-35024D01*
G03X3736750I6750J7592D01*
G02X3760000Y6017020I23250J-26194D01*
G01X3815000D01*
G02X3838250Y6008190I0J-35024D01*
G03X3851750I6750J7592D01*
G02X3875000Y6017020I23250J-26194D01*
G01X3930000D01*
G02X3965020Y5982000I0J-35020D01*
G01Y5917020D01*
X4394930D01*
G03X4402650Y5933780I-3J10159D01*
G02X4389480Y5969500I41855J35720D01*
G02X4433560Y6023420I55018J0D01*
G01X4435060Y6023730D01*
X4473160Y6061830D01*
X6647980D01*
G03X6657260Y6076130I3J10159D01*
G02X6655600Y6080300I50248J22418D01*
G01X6654410Y6083700D01*
X4467070D01*
X4427350Y6043980D01*
X4397630D01*
G02X4334370I-31630J45023D01*
G01X4260030D01*
G02X4230000Y6026980I-30030J18024D01*
G01X4010000D01*
G02X3974980Y6062000I0J35020D01*
G01Y6117000D01*
G02X3983810Y6140250I35024J0D01*
G03Y6153750I-7592J6750D01*
G02X3974980Y6177000I26194J23250D01*
G01Y6232000D01*
G02X3982460Y6253630I35014J0D01*
G03X3982010Y6266720I-7990J6278D01*
G02X3972280Y6292000I27988J25285D01*
G01Y6347000D01*
G02X3982010Y6372280I37718J-5D01*
G03X3982460Y6385370I-7540J6812D01*
G02X3974980Y6407000I27534J21630D01*
G01Y6462000D01*
G02X3983810Y6485250I35024J0D01*
G03Y6498750I-7592J6750D01*
G02X3974980Y6522000I26194J23250D01*
G01Y6577000D01*
G02X3983810Y6600250I35024J0D01*
G03Y6613750I-7592J6750D01*
G02X3974980Y6637000I26194J23250D01*
G01Y6692000D01*
G02X3983810Y6715250I35024J0D01*
G03Y6728750I-7592J6750D01*
G02X3974980Y6752000I26194J23250D01*
G01Y6807000D01*
G02X3982460Y6828630I35014J0D01*
G03X3982010Y6841720I-7990J6278D01*
G02X3972280Y6867000I27988J25285D01*
G01Y6922000D01*
G37*
G36*
G01X5932970Y7990020D02*
X5990810Y8038090D01*
G02X6010000Y8045020I19185J-23092D01*
G01X6220000D01*
G02X6250020Y8015000I0J-30020D01*
G01Y7875000D01*
G02X6220000Y7844980I-30020J0D01*
G01X6010000D01*
G02X5990810Y7851910I-5J30022D01*
G01X5932970Y7899980D01*
X5387030D01*
X5329190Y7851910D01*
G02X5310000Y7844980I-19185J23092D01*
G01X5100000D01*
G02X5080810Y7851910I-5J30022D01*
G01X5044990Y7881680D01*
G03X5030130Y7879620I-6489J-7815D01*
G01X5023020Y7869280D01*
Y7152120D01*
X5053720Y7131020D01*
X5185270D01*
G02X5214000Y7146020I28730J-20014D01*
G01X5294000D01*
G02X5329020Y7111000I0J-35020D01*
G01Y7061000D01*
G02X5294000Y7025980I-35020J0D01*
G01X5214000D01*
G02X5185270Y7040980I0J35014D01*
G01X5053720D01*
X5023020Y7019880D01*
Y6946630D01*
G02X5033020Y6915000I-45023J-31630D01*
G02X4922980I-55020J0D01*
G02X4932980Y6946630I55023J0D01*
G01Y7869280D01*
X4911880Y7899980D01*
X4795650D01*
X4756020Y7860350D01*
Y7820020D01*
X4781020D01*
Y7499980D01*
X4756020D01*
Y6960630D01*
G02X4766020Y6929000I-45023J-31630D01*
G02X4655980I-55020J0D01*
G02X4665980Y6960630I55023J0D01*
G01Y7499980D01*
X4640980D01*
Y7820020D01*
X4665980D01*
Y7897650D01*
X4758350Y7990020D01*
X5022970D01*
X5080810Y8038090D01*
G02X5100000Y8045020I19185J-23092D01*
G01X5310000D01*
G02X5329190Y8038090I5J-30022D01*
G01X5387030Y7990020D01*
X5932970D01*
G37*
G36*
G01X1927480Y7024130D02*
Y7155150D01*
X2095770Y7323440D01*
X2096080Y7324940D01*
G02X2150000Y7369020I53920J-10938D01*
G02X2205020Y7314000I0J-55020D01*
G02X2160940Y7260080I-55018J0D01*
G01X2159440Y7259770D01*
X2017520Y7117850D01*
Y7024130D01*
G02X2027520Y6992500I-45023J-31630D01*
G02X1917480I-55020J0D01*
G02X1927480Y7024130I55023J0D01*
G37*
G36*
G01X6195350Y7147980D02*
X5894630D01*
G02X5863000Y7137980I-31630J45023D01*
G02Y7248020I0J55020D01*
G02X5894630Y7238020I0J-55023D01*
G01X6232650D01*
X6349440Y7121230D01*
X6350940Y7120920D01*
G02X6395020Y7067000I-10938J-53920D01*
G02X6340000Y7011980I-55020J0D01*
G02X6286080Y7056060I0J55018D01*
G01X6285770Y7057560D01*
X6195350Y7147980D01*
G37*
G36*
G01X914730Y7082020D02*
X966270D01*
G02X995000Y7097020I28730J-20014D01*
G01X1075000D01*
G02X1110020Y7062000I0J-35020D01*
G01Y7012000D01*
G02X1075000Y6976980I-35020J0D01*
G01X995000D01*
G02X966270Y6991980I0J35014D01*
G01X914730D01*
G02X886000Y6976980I-28730J20014D01*
G01X806000D01*
G02X770980Y7012000I0J35020D01*
G01Y7062000D01*
G02X806000Y7097020I35020J0D01*
G01X886000D01*
G02X914730Y7082020I0J-35014D01*
G37*
G36*
G01X1926980Y4248350D02*
Y6683370D01*
G02X1916980Y6715000I45023J31630D01*
G02X2027020I55020J0D01*
G02X2017020Y6683370I-55023J0D01*
G01Y4285650D01*
X2160650Y4142020D01*
X2191940D01*
X2269960Y4187050D01*
X2269990Y4187070D01*
G02X2324000Y4202020I54006J-90071D01*
G02Y3991980I0J-105020D01*
G02X2269990Y4006930I-4J105021D01*
G01X2269960Y4006950D01*
X2191940Y4051980D01*
X2123350D01*
X1926980Y4248350D01*
G37*
G36*
G01X2220980Y5337060D02*
Y6636370D01*
G02X2210980Y6668000I45023J31630D01*
G02X2321020I55020J0D01*
G02X2311020Y6636370I-55023J0D01*
G01Y5337060D01*
X2356050Y5259040D01*
X2356070Y5259010D01*
G02X2371020Y5205000I-90071J-54006D01*
G02X2160980I-105020J0D01*
G02X2175930Y5259010I105021J4D01*
G01X2175950Y5259040D01*
X2220980Y5337060D01*
G37*
G36*
G01X5981350Y5015980D02*
X5310630D01*
G02X5279000Y5005980I-31630J45023D01*
G02Y5116020I0J55020D01*
G02X5310630Y5106020I0J-55023D01*
G01X6018650D01*
X6121020Y5003650D01*
Y4540350D01*
X6055650Y4474980D01*
X6035060D01*
X5964500Y4434260D01*
X5964460Y4434240D01*
G02X5913000Y4419980I-51470J85757D01*
G02Y4620020I0J100020D01*
G02X5964460Y4605760I-10J-100017D01*
G01X5964500Y4605740D01*
X6024470Y4571130D01*
X6030980Y4577650D01*
Y4966350D01*
X5981350Y5015980D01*
G37*
G36*
G01X5847350Y4903980D02*
X5172630D01*
G02X5141000Y4893980I-31630J45023D01*
G02Y5004020I0J55020D01*
G02X5172630Y4994020I0J-55023D01*
G01X5884650D01*
X5958020Y4920650D01*
Y4896060D01*
X5998740Y4825500D01*
X5998760Y4825460D01*
G02X6013020Y4774000I-85757J-51470D01*
G02X5812980I-100020J0D01*
G02X5827240Y4825460I100017J-10D01*
G01X5827260Y4825500D01*
X5863330Y4888000D01*
X5847350Y4903980D01*
G37*
G36*
G01X4301630Y4311020D02*
X5790940D01*
X5861500Y4351740D01*
X5861540Y4351760D01*
G02X5913000Y4366020I51470J-85757D01*
G02Y4165980I0J-100020D01*
G02X5861540Y4180240I10J100017D01*
G01X5861500Y4180260D01*
X5790940Y4220980D01*
X4301630D01*
G02X4270000Y4210980I-31630J45023D01*
G02Y4321020I0J55020D01*
G02X4301630Y4311020I0J-55023D01*
G37*
G36*
G01X2663730Y4038020D02*
X2749270D01*
G02X2778000Y4053020I28730J-20014D01*
G01X2858000D01*
G02X2893020Y4018000I0J-35020D01*
G01Y3968000D01*
G02X2858000Y3932980I-35020J0D01*
G01X2778000D01*
G02X2749270Y3947980I0J35014D01*
G01X2663730D01*
G02X2635000Y3932980I-28730J20014D01*
G01X2555000D01*
G02X2519980Y3968000I0J35020D01*
G01Y4018000D01*
G02X2555000Y4053020I35020J0D01*
G01X2635000D01*
G02X2663730Y4038020I0J-35014D01*
G37*
G36*
G01X2456060Y3797980D02*
X2378040Y3752950D01*
X2378010Y3752930D01*
G02X2324000Y3737980I-54006J90071D01*
G02Y3948020I0J105020D01*
G02X2378010Y3933070I4J-105021D01*
G01X2378040Y3933050D01*
X2456060Y3888020D01*
X2526270D01*
G02X2555000Y3903020I28730J-20014D01*
G01X2635000D01*
G02X2670020Y3868000I0J-35020D01*
G01Y3818000D01*
G02X2635000Y3782980I-35020J0D01*
G01X2555000D01*
G02X2526270Y3797980I0J35014D01*
G01X2456060D01*
G37*
G36*
G01X2991980Y3817000D02*
Y3867000D01*
G02X3027000Y3902020I35020J0D01*
G01X3107000D01*
G02X3142020Y3867000I0J-35020D01*
G01Y3817000D01*
G02X3115820Y3783110I-35019J0D01*
G01X3112020Y3782120D01*
Y3765650D01*
X3111230Y3764860D01*
Y3224630D01*
G02X3121230Y3193000I-45023J-31630D01*
G02X3011190I-55020J0D01*
G02X3021190Y3224630I55023J0D01*
G01Y3782250D01*
X3017490Y3783300D01*
G02X2991980Y3817000I9505J33700D01*
G37*
G36*
G01X3484630Y3834020D02*
X3769270D01*
G02X3798000Y3849020I28730J-20014D01*
G01X3878000D01*
G02X3913020Y3814000I0J-35020D01*
G01Y3764000D01*
G02X3878000Y3728980I-35020J0D01*
G01X3798000D01*
G02X3769270Y3743980I0J35014D01*
G01X3484630D01*
G02X3453000Y3733980I-31630J45023D01*
G02Y3844020I0J55020D01*
G02X3484630Y3834020I0J-55023D01*
G37*
G36*
G01X4397630Y3643980D02*
G02X4366000Y3744020I-31630J45020D01*
G02X4397630Y3734020I0J-55023D01*
G01X4824370D01*
G02X4856000Y3744020I31630J-45023D01*
G02Y3633980I0J-55020D01*
G02X4824370Y3643980I0J55023D01*
G01X4397630D01*
G37*
G36*
G01X2299080Y3640020D02*
X2419920D01*
X2421070Y3640650D01*
G02X2438000Y3645020I16940J-30647D01*
G01X2518000D01*
G02X2553020Y3610000I0J-35020D01*
G01Y3560000D01*
G02X2518000Y3524980I-35020J0D01*
G01X2438000D01*
G02X2421070Y3529350I10J35017D01*
G01X2419920Y3529980D01*
X2299080D01*
X2297930Y3529350D01*
G02X2281000Y3524980I-16940J30647D01*
G01X2201000D01*
G02X2165980Y3560000I0J35020D01*
G01Y3610000D01*
G02X2201000Y3645020I35020J0D01*
G01X2281000D01*
G02X2297930Y3640650I-10J-35017D01*
G01X2299080Y3640020D01*
G37*
G36*
G01X879350Y2889020D02*
X963940D01*
X1034500Y2929740D01*
X1034540Y2929760D01*
G02X1086000Y2944020I51470J-85757D01*
G02Y2743980I0J-100020D01*
G02X1034540Y2758240I10J100017D01*
G01X1034500Y2758260D01*
X963940Y2798980D01*
X916650D01*
X888020Y2770350D01*
Y1899650D01*
X902650Y1885020D01*
X1277670D01*
X1298720Y1896410D01*
G02X1313000Y1900020I14273J-26412D01*
G01X1373000D01*
G02X1403020Y1870000I0J-30020D01*
G01Y1810000D01*
G02X1373000Y1779980I-30020J0D01*
G01X1313000D01*
G02X1298720Y1783590I-7J30022D01*
G01X1277670Y1794980D01*
X865350D01*
X797980Y1862350D01*
Y2807650D01*
X879350Y2889020D01*
G37*
G36*
G01X5585980Y2559650D02*
Y2801370D01*
G02X5575980Y2833000I45023J31630D01*
G02X5686020I55020J0D01*
G02X5680930Y2809880I-55022J-7D01*
G01X5679120Y2805990D01*
X5706720Y2787020D01*
X5790940D01*
X5861500Y2827740D01*
X5861540Y2827760D01*
G02X5913000Y2842020I51470J-85757D01*
G02Y2641980I0J-100020D01*
G02X5861540Y2656240I10J100017D01*
G01X5861500Y2656260D01*
X5790940Y2696980D01*
X5706720D01*
X5676020Y2675880D01*
Y2522350D01*
X5571650Y2417980D01*
X5483060D01*
X5412500Y2377260D01*
X5412460Y2377240D01*
G02X5361000Y2362980I-51470J85757D01*
G02Y2563020I0J100020D01*
G02X5412460Y2548760I-10J-100017D01*
G01X5412500Y2548740D01*
X5483060Y2508020D01*
X5534350D01*
X5585980Y2559650D01*
G37*
G36*
G01X2629980Y2419000D02*
Y2469000D01*
G02X2665000Y2504020I35020J0D01*
G01X2745000D01*
G02X2773730Y2489020I0J-35014D01*
G01X2909370D01*
G02X2941000Y2499020I31630J-45023D01*
G02Y2388980I0J-55020D01*
G02X2909370Y2398980I0J55023D01*
G01X2773730D01*
G02X2745000Y2383980I-28730J20014D01*
G01X2665000D01*
G02X2629980Y2419000I0J35020D01*
G37*
G36*
G01X2848060Y2237920D02*
X2849560Y2238230D01*
X3063770Y2452440D01*
X3064080Y2453940D01*
G02X3118000Y2498020I53920J-10938D01*
G02X3173020Y2443000I0J-55020D01*
G02X3128940Y2389080I-55018J0D01*
G01X3127440Y2388770D01*
X2913230Y2174560D01*
X2912920Y2173060D01*
G02X2859000Y2128980I-53920J10938D01*
G02X2803980Y2184000I0J55020D01*
G02X2848060Y2237920I55018J0D01*
G37*
G36*
G01X2629980Y2269000D02*
Y2319000D01*
G02X2665000Y2354020I35020J0D01*
G01X2745000D01*
G02X2780020Y2319000I0J-35020D01*
G01Y2269000D01*
G02X2753840Y2235110I-35025J0D01*
G01X2750040Y2234120D01*
Y2175670D01*
X2737580Y2163210D01*
X2737270Y2161710D01*
G02X2683350Y2117630I-53920J10938D01*
G02X2628330Y2172650I0J55020D01*
G02X2659980Y2222460I55020J0D01*
G01Y2234120D01*
X2656180Y2235110D01*
G02X2629980Y2269000I8819J33890D01*
G37*
G36*
G01X1668060Y2036980D02*
X1597500Y1996260D01*
X1597460Y1996240D01*
G02X1546000Y1981980I-51470J85757D01*
G02Y2182020I0J100020D01*
G02X1597460Y2167760I-10J-100017D01*
G01X1597500Y2167740D01*
X1668060Y2127020D01*
X1757270D01*
G02X1786000Y2142020I28730J-20014D01*
G01X1866000D01*
G02X1901020Y2107000I0J-35020D01*
G01Y2057000D01*
G02X1866000Y2021980I-35020J0D01*
G01X1786000D01*
G02X1757270Y2036980I0J35014D01*
G01X1668060D01*
G37*
G36*
G01X4759790Y2034560D02*
G03X4774210I7210J7151D01*
G02X4801000Y2045720I26785J-26562D01*
G01X4881000D01*
G02X4918720Y2008000I0J-37720D01*
G01Y1958000D01*
G02X4881000Y1920280I-37720J0D01*
G01X4801000D01*
G02X4774210Y1931440I-5J37722D01*
G03X4759790I-7210J-7151D01*
G02X4733000Y1920280I-26785J26562D01*
G01X4653000D01*
G02X4615280Y1958000I0J37720D01*
G01Y2008000D01*
G02X4653000Y2045720I37720J0D01*
G01X4733000D01*
G02X4759790Y2034560I5J-37722D01*
G37*
G36*
G01X1648730Y1835020D02*
X1917350D01*
X1953270Y1870940D01*
X1953580Y1872440D01*
G02X2007500Y1916520I53920J-10938D01*
G02X2062520Y1861500I0J-55020D01*
G02X2018440Y1807580I-55018J0D01*
G01X2016940Y1807270D01*
X1954650Y1744980D01*
X1648730D01*
G02X1620000Y1729980I-28730J20014D01*
G01X1540000D01*
G02X1504980Y1765000I0J35020D01*
G01Y1815000D01*
G02X1540000Y1850020I35020J0D01*
G01X1620000D01*
G02X1648730Y1835020I0J-35014D01*
G37*
G36*
G01X1282980Y1610000D02*
Y1670000D01*
G02X1313000Y1700020I30020J0D01*
G01X1373000D01*
G02X1403020Y1670000I0J-30020D01*
G01Y1610000D01*
G02X1399410Y1595720I-30022J-7D01*
G01X1396150Y1589700D01*
G03X1401250Y1575460I8936J-4833D01*
G02X1435520Y1524500I-20754J-50960D01*
G02X1380500Y1469480I-55020J0D01*
G02X1326580Y1513560I0J55018D01*
G01X1326270Y1515060D01*
X1297980Y1543350D01*
Y1574670D01*
X1286590Y1595720D01*
G02X1282980Y1610000I26412J14273D01*
G37*
G36*
G01X2504800Y1527270D02*
G03X2511200I3200J3939D01*
G02X2535000Y1535720I23793J-29272D01*
G01X2615000D01*
G02X2652720Y1498000I0J-37720D01*
G01Y1448000D01*
G02X2643080Y1422810I-37732J0D01*
G03X2642960Y1416170I3782J-3389D01*
G02X2651720Y1392000I-28964J-24170D01*
G01Y1342000D01*
G02X2614000Y1304280I-37720J0D01*
G01X2534000D01*
G02X2507500Y1315160I0J37713D01*
G02X2481000Y1304280I-26500J26833D01*
G01X2401000D01*
G02X2363280Y1342000I0J37720D01*
G01Y1392000D01*
G02X2372470Y1416680I37722J5D01*
G03Y1423320I-3840J3320D01*
G02X2363280Y1448000I28532J24675D01*
G01Y1498000D01*
G02X2401000Y1535720I37720J0D01*
G01X2481000D01*
G02X2504800Y1527270I7J-37722D01*
G37*
G36*
G01X2499080Y1272020D02*
X2515920D01*
X2517070Y1272650D01*
G02X2534000Y1277020I16940J-30647D01*
G01X2614000D01*
G02X2630930Y1272650I-10J-35017D01*
G01X2632080Y1272020D01*
X2787000D01*
G02X2825910Y1255910I9J-55024D01*
G01X2883020Y1198790D01*
Y568000D01*
G02X2772980I-55020J0D01*
G01Y748710D01*
X2770690Y750990D01*
G03X2762020Y747400I-3591J-3591D01*
G01Y718000D01*
G02X2727000Y682980I-35020J0D01*
G01X2647000D01*
G02X2622110Y693360I0J35032D01*
G03X2614890I-3610J-3569D01*
G02X2590000Y682980I-24890J24652D01*
G01X2510000D01*
G02X2486860Y691720I6J35018D01*
G03X2480140I-3360J-3816D01*
G02X2457000Y682980I-23146J26278D01*
G01X2377000D01*
G02X2341980Y718000I0J35020D01*
G01Y745860D01*
G03X2334490Y750330I-5081J-3D01*
G01X2331260Y748590D01*
G02X2317000Y744980I-14272J26407D01*
G01X2257000D01*
G02X2226980Y775000I0J30020D01*
G01Y895000D01*
G02X2257000Y925020I30020J0D01*
G01X2317000D01*
G02X2331260Y921410I-12J-30017D01*
G01X2389400Y890020D01*
X2394500D01*
G03X2404510Y901940I3J10160D01*
G02X2403980Y908000I34489J6070D01*
G01Y958000D01*
G02X2439000Y993020I35020J0D01*
G01X2519000D01*
G02X2542250Y984190I0J-35024D01*
G03X2555750I6750J7592D01*
G02X2579000Y993020I23250J-26194D01*
G01X2659000D01*
G02X2694020Y958000I0J-35020D01*
G01Y908000D01*
G02X2693490Y901940I-35019J10D01*
G03X2703500Y890020I10007J-1760D01*
G01X2741710D01*
X2772980Y921290D01*
Y1153210D01*
X2764210Y1161980D01*
X2632080D01*
X2630930Y1161350D01*
G02X2614000Y1156980I-16940J30647D01*
G01X2534000D01*
G02X2517070Y1161350I10J35017D01*
G01X2515920Y1161980D01*
X2499080D01*
X2497930Y1161350D01*
G02X2481000Y1156980I-16940J30647D01*
G01X2401000D01*
G02X2365980Y1192000I0J35020D01*
G01Y1242000D01*
G02X2401000Y1277020I35020J0D01*
G01X2481000D01*
G02X2497930Y1272650I-10J-35017D01*
G01X2499080Y1272020D01*
G37*
G36*
G01X2545440Y1134900D02*
G03X2552560I3560J3626D01*
G02X2579000Y1145720I26440J-26895D01*
G01X2659000D01*
G02X2696720Y1108000I0J-37720D01*
G01Y1058000D01*
G02X2659000Y1020280I-37720J0D01*
G01X2579000D01*
G02X2552560Y1031100I0J37715D01*
G03X2545440I-3560J-3626D01*
G02X2519000Y1020280I-26440J26895D01*
G01X2439000D01*
G02X2401280Y1058000I0J37720D01*
G01Y1108000D01*
G02X2439000Y1145720I37720J0D01*
G01X2519000D01*
G02X2545440Y1134900I0J-37715D01*
G37*
G36*
G01X2036980Y775000D02*
Y895000D01*
G02X2067000Y925020I30020J0D01*
G01X2127000D01*
G02X2157020Y895000I0J-30020D01*
G01Y775000D01*
G02X2153410Y760720I-30022J-7D01*
G01X2151200Y756640D01*
G03X2154930Y743080I8936J-4835D01*
G02X2172020Y713000I-17927J-30080D01*
G01Y663000D01*
G02X2137000Y627980I-35020J0D01*
G01X2057000D01*
G02X2021980Y663000I0J35020D01*
G01Y713000D01*
G02X2039070Y743080I35017J0D01*
G03X2042800Y756640I-5206J8725D01*
G01X2040590Y760720D01*
G02X2036980Y775000I26412J14273D01*
G37*
G36*
G01X1751980Y532880D02*
Y654370D01*
G02X1741980Y686000I45023J31630D01*
G02X1852020I55020J0D01*
G02X1842020Y654370I-55023J0D01*
G01Y532880D01*
X1845820Y531890D01*
G02X1872020Y498000I-8819J-33890D01*
G01Y448000D01*
G02X1837000Y412980I-35020J0D01*
G01X1757000D01*
G02X1721980Y448000I0J35020D01*
G01Y498000D01*
G02X1748180Y531890I35019J0D01*
G01X1751980Y532880D01*
G37*
G36*
G01X2457000Y655720D02*
G02X2483500Y644840I0J-37713D01*
G02X2510000Y655720I26500J-26833D01*
G01X2590000D01*
G02X2616850Y644500I6J-37722D01*
G03X2623830Y644250I3622J3563D01*
G02X2647000Y653020I23179J-26247D01*
G01X2727000D01*
G02X2762020Y618000I0J-35020D01*
G01Y568000D01*
G02X2735820Y534110I-35019J0D01*
G01X2732020Y533120D01*
Y520160D01*
X2783900Y463710D01*
G02X2791820Y443400I-22098J-20316D01*
G01Y333400D01*
G02X2787780Y318360I-30015J0D01*
G02X2795720Y297000I-24778J-21366D01*
G01Y187000D01*
G02X2763000Y154280I-32720J0D01*
G01X2613000D01*
G02X2580280Y187000I0J32720D01*
G01Y297000D01*
G02X2586860Y316690I32723J9D01*
G02X2581780Y333400I24943J16710D01*
G01Y443400D01*
G02X2589700Y463710I30018J-6D01*
G01X2641780Y520380D01*
Y521750D01*
X2641980Y521950D01*
Y533120D01*
X2638180Y534110D01*
G02X2623830Y541750I8832J33885D01*
G03X2616850Y541500I-3358J-3813D01*
G02X2590000Y530280I-26844J26502D01*
G01X2510000D01*
G02X2483500Y541160I0J37713D01*
G02X2457000Y530280I-26500J26833D01*
G01X2377000D01*
G02X2339280Y568000I0J37720D01*
G01Y618000D01*
G02X2377000Y655720I37720J0D01*
G01X2457000D01*
G37*
G36*
G01X2297330Y472600D02*
G02X2313000Y477020I15679J-25598D01*
G01X2463000D01*
G02X2493020Y447000I0J-30020D01*
G01Y337000D01*
G02X2485390Y317000I-30027J0D01*
G02X2493020Y297000I-22397J-20000D01*
G01Y187000D01*
G02X2463000Y156980I-30020J0D01*
G01X2433020D01*
Y123350D01*
X2356650Y46980D01*
X2295730D01*
G02X2267000Y31980I-28730J20014D01*
G01X2187000D01*
G02X2151980Y67000I0J35020D01*
G01Y117000D01*
G02X2187000Y152020I35020J0D01*
G01X2267000D01*
G02X2295730Y137020I0J-35014D01*
G01X2319350D01*
X2321970Y139640D01*
G03X2314780Y156980I-7186J7181D01*
G01X2313000D01*
G02X2284970Y176260I0J30016D01*
G03X2273570Y182600I-9486J-3638D01*
G02X2267000Y181980I-6561J34401D01*
G01X2187000D01*
G02X2162500Y191980I0J35012D01*
G02X2138000Y181980I-24500J25012D01*
G01X2058000D01*
G02X2029270Y196980I0J35014D01*
G01X2006650D01*
X1993850Y209780D01*
X1992550D01*
X1971560Y230770D01*
X1970060Y231080D01*
G02X1925980Y285000I10938J53920D01*
G02X1981000Y340020I55020J0D01*
G02X2032130Y305330I0J-55026D01*
G03X2048060Y301270I9439J3755D01*
G03X2039930Y321300I-54056J-10276D01*
G02X2039470Y331730I8477J5599D01*
G03X2037920Y338310I-4466J2421D01*
G02X2022980Y367000I20077J28690D01*
G01Y417000D01*
G02X2058000Y452020I35020J0D01*
G01X2138000D01*
G02X2166730Y437020I0J-35014D01*
G01X2239200D01*
X2297330Y472600D01*
G37*
G36*
G01X1444980Y253000D02*
Y393000D01*
G02X1475000Y423020I30020J0D01*
G01X1615000D01*
G02X1634190Y416090I5J-30022D01*
G01X1692030Y368020D01*
X1728270D01*
G02X1757000Y383020I28730J-20014D01*
G01X1837000D01*
G02X1872020Y348000I0J-35020D01*
G01Y298000D01*
G02X1837000Y262980I-35020J0D01*
G01X1757000D01*
G02X1728270Y277980I0J35014D01*
G01X1692030D01*
X1634190Y229910D01*
G02X1615000Y222980I-19185J23092D01*
G01X1475000D01*
G02X1444980Y253000I0J30020D01*
G37*
G36*
G01X747280Y7425000D02*
Y7565000D01*
G02X780000Y7597720I32720J0D01*
G01X990000D01*
G02X1022720Y7565000I0J-32720D01*
G01Y7425000D01*
G02X990000Y7392280I-32720J0D01*
G01X780000D01*
G02X747280Y7425000I0J32720D01*
G37*
G36*
G01X986980Y1504000D02*
Y1644000D01*
G02X1017000Y1674020I30020J0D01*
G01X1157000D01*
G02X1187020Y1644000I0J-30020D01*
G01Y1504000D01*
G02X1157000Y1473980I-30020J0D01*
G01X1017000D01*
G02X986980Y1504000I0J30020D01*
G37*
G36*
G01X985980Y3790000D02*
Y3930000D01*
G02X1016000Y3960020I30020J0D01*
G01X1156000D01*
G02X1186020Y3930000I0J-30020D01*
G01Y3790000D01*
G02X1156000Y3759980I-30020J0D01*
G01X1016000D01*
G02X985980Y3790000I0J30020D01*
G37*
G36*
G01X995000Y7249720D02*
X1075000D01*
G02X1112720Y7212000I0J-37720D01*
G01Y7162000D01*
G02X1075000Y7124280I-37720J0D01*
G01X995000D01*
G02X957280Y7162000I0J37720D01*
G01Y7212000D01*
G02X995000Y7249720I37720J0D01*
G37*
G36*
G01X1611000Y3014280D02*
X1531000D01*
G02X1493280Y3052000I0J37720D01*
G01Y3102000D01*
G02X1531000Y3139720I37720J0D01*
G01X1611000D01*
G02X1648720Y3102000I0J-37720D01*
G01Y3052000D01*
G02X1611000Y3014280I-37720J0D01*
G37*
G36*
G01X1789000D02*
X1709000D01*
G02X1671280Y3052000I0J37720D01*
G01Y3102000D01*
G02X1709000Y3139720I37720J0D01*
G01X1789000D01*
G02X1826720Y3102000I0J-37720D01*
G01Y3052000D01*
G02X1789000Y3014280I-37720J0D01*
G37*
G36*
G01X1657280Y7425000D02*
Y7565000D01*
G02X1690000Y7597720I32720J0D01*
G01X1900000D01*
G02X1932720Y7565000I0J-32720D01*
G01Y7425000D01*
G02X1900000Y7392280I-32720J0D01*
G01X1690000D01*
G02X1657280Y7425000I0J32720D01*
G37*
G36*
G01X2137000Y475280D02*
X2057000D01*
G02X2019280Y513000I0J37720D01*
G01Y563000D01*
G02X2057000Y600720I37720J0D01*
G01X2137000D01*
G02X2174720Y563000I0J-37720D01*
G01Y513000D01*
G02X2137000Y475280I-37720J0D01*
G37*
G36*
G01X1866000Y1869280D02*
X1786000D01*
G02X1748280Y1907000I0J37720D01*
G01Y1957000D01*
G02X1786000Y1994720I37720J0D01*
G01X1866000D01*
G02X1903720Y1957000I0J-37720D01*
G01Y1907000D01*
G02X1866000Y1869280I-37720J0D01*
G37*
G36*
G01X2008000Y4029720D02*
X2088000D01*
G02X2125720Y3992000I0J-37720D01*
G01Y3942000D01*
G02X2088000Y3904280I-37720J0D01*
G01X2008000D01*
G02X1970280Y3942000I0J37720D01*
G01Y3992000D01*
G02X2008000Y4029720I37720J0D01*
G37*
G36*
G01X1841000D02*
X1921000D01*
G02X1958720Y3992000I0J-37720D01*
G01Y3942000D01*
G02X1921000Y3904280I-37720J0D01*
G01X1841000D01*
G02X1803280Y3942000I0J37720D01*
G01Y3992000D01*
G02X1841000Y4029720I37720J0D01*
G37*
G36*
G01X2438000Y3497720D02*
X2518000D01*
G02X2555720Y3460000I0J-37720D01*
G01Y3410000D01*
G02X2518000Y3372280I-37720J0D01*
G01X2438000D01*
G02X2400280Y3410000I0J37720D01*
G01Y3460000D01*
G02X2438000Y3497720I37720J0D01*
G37*
G36*
G01X2484000Y4341280D02*
X2404000D01*
G02X2366280Y4379000I0J37720D01*
G01Y4429000D01*
G02X2404000Y4466720I37720J0D01*
G01X2484000D01*
G02X2521720Y4429000I0J-37720D01*
G01Y4379000D01*
G02X2484000Y4341280I-37720J0D01*
G37*
G36*
G01X2922280Y199000D02*
Y449000D01*
G02X2955000Y481720I32720J0D01*
G01X3155000D01*
G02X3187720Y449000I0J-32720D01*
G01Y199000D01*
G02X3155000Y166280I-32720J0D01*
G01X2955000D01*
G02X2922280Y199000I0J32720D01*
G37*
G36*
G01Y749000D02*
Y999000D01*
G02X2955000Y1031720I32720J0D01*
G01X3155000D01*
G02X3187720Y999000I0J-32720D01*
G01Y749000D01*
G02X3155000Y716280I-32720J0D01*
G01X2955000D01*
G02X2922280Y749000I0J32720D01*
G37*
G36*
G01X2778000Y3905720D02*
X2858000D01*
G02X2895720Y3868000I0J-37720D01*
G01Y3818000D01*
G02X2858000Y3780280I-37720J0D01*
G01X2778000D01*
G02X2740280Y3818000I0J37720D01*
G01Y3868000D01*
G02X2778000Y3905720I37720J0D01*
G37*
G36*
G01X3323000Y3779280D02*
X3243000D01*
G02X3205280Y3817000I0J37720D01*
G01Y3867000D01*
G02X3243000Y3904720I37720J0D01*
G01X3323000D01*
G02X3360720Y3867000I0J-37720D01*
G01Y3817000D01*
G02X3323000Y3779280I-37720J0D01*
G37*
G36*
G01X3107280Y6167000D02*
Y6407000D01*
G02X3145000Y6444720I37720J0D01*
G01X3385000D01*
G02X3422720Y6407000I0J-37720D01*
G01Y6167000D01*
G02X3385000Y6129280I-37720J0D01*
G01X3145000D01*
G02X3107280Y6167000I0J37720D01*
G37*
G36*
G01X3188950Y6854720D02*
X3422720D01*
Y6539280D01*
X3107280D01*
Y6773050D01*
X3188950Y6854720D01*
G37*
G36*
G01X3812280Y199000D02*
Y449000D01*
G02X3845000Y481720I32720J0D01*
G01X4045000D01*
G02X4077720Y449000I0J-32720D01*
G01Y199000D01*
G02X4045000Y166280I-32720J0D01*
G01X3845000D01*
G02X3812280Y199000I0J32720D01*
G37*
G36*
G01Y749000D02*
Y999000D01*
G02X3845000Y1031720I32720J0D01*
G01X4045000D01*
G02X4077720Y999000I0J-32720D01*
G01Y749000D01*
G02X4045000Y716280I-32720J0D01*
G01X3845000D01*
G02X3812280Y749000I0J32720D01*
G37*
G36*
G01X3917000Y4341280D02*
X3837000D01*
G02X3799280Y4379000I0J37720D01*
G01Y4429000D01*
G02X3837000Y4466720I37720J0D01*
G01X3917000D01*
G02X3954720Y4429000I0J-37720D01*
G01Y4379000D01*
G02X3917000Y4341280I-37720J0D01*
G37*
G36*
G01X3577280Y6167000D02*
Y6407000D01*
G02X3615000Y6444720I37720J0D01*
G01X3855000D01*
G02X3892720Y6407000I0J-37720D01*
G01Y6167000D01*
G02X3855000Y6129280I-37720J0D01*
G01X3615000D01*
G02X3577280Y6167000I0J37720D01*
G37*
G36*
G01X3578280Y6577000D02*
Y6817000D01*
G02X3616000Y6854720I37720J0D01*
G01X3856000D01*
G02X3893720Y6817000I0J-37720D01*
G01Y6577000D01*
G02X3856000Y6539280I-37720J0D01*
G01X3616000D01*
G02X3578280Y6577000I0J37720D01*
G37*
G36*
G01X4312980Y981000D02*
Y1121000D01*
G02X4343000Y1151020I30020J0D01*
G01X4483000D01*
G02X4513020Y1121000I0J-30020D01*
G01Y981000D01*
G02X4483000Y950980I-30020J0D01*
G01X4343000D01*
G02X4312980Y981000I0J30020D01*
G37*
G36*
G01X5074000Y869720D02*
X5154000D01*
G02X5191720Y832000I0J-37720D01*
G01Y782000D01*
G02X5154000Y744280I-37720J0D01*
G01X5074000D01*
G02X5036280Y782000I0J37720D01*
G01Y832000D01*
G02X5074000Y869720I37720J0D01*
G37*
G36*
G01X4880000D02*
X4960000D01*
G02X4997720Y832000I0J-37720D01*
G01Y782000D01*
G02X4960000Y744280I-37720J0D01*
G01X4880000D01*
G02X4842280Y782000I0J37720D01*
G01Y832000D01*
G02X4880000Y869720I37720J0D01*
G37*
G36*
G01X5294000Y6873280D02*
X5214000D01*
G02X5176280Y6911000I0J37720D01*
G01Y6961000D01*
G02X5214000Y6998720I37720J0D01*
G01X5294000D01*
G02X5331720Y6961000I0J-37720D01*
G01Y6911000D01*
G02X5294000Y6873280I-37720J0D01*
G37*
G36*
G01X5067280Y7425000D02*
Y7565000D01*
G02X5100000Y7597720I32720J0D01*
G01X5310000D01*
G02X5342720Y7565000I0J-32720D01*
G01Y7425000D01*
G02X5310000Y7392280I-32720J0D01*
G01X5100000D01*
G02X5067280Y7425000I0J32720D01*
G37*
G36*
G01X5540000Y3202720D02*
X5620000D01*
G02X5657720Y3165000I0J-37720D01*
G01Y3115000D01*
G02X5620000Y3077280I-37720J0D01*
G01X5540000D01*
G02X5502280Y3115000I0J37720D01*
G01Y3165000D01*
G02X5540000Y3202720I37720J0D01*
G37*
G36*
G01X5812980Y234000D02*
Y374000D01*
G02X5843000Y404020I30020J0D01*
G01X5983000D01*
G02X6013020Y374000I0J-30020D01*
G01Y234000D01*
G02X5983000Y203980I-30020J0D01*
G01X5843000D01*
G02X5812980Y234000I0J30020D01*
G37*
G36*
G01Y2418000D02*
Y2558000D01*
G02X5843000Y2588020I30020J0D01*
G01X5983000D01*
G02X6013020Y2558000I0J-30020D01*
G01Y2418000D01*
G02X5983000Y2387980I-30020J0D01*
G01X5843000D01*
G02X5812980Y2418000I0J30020D01*
G37*
G36*
G01X5977280Y7425000D02*
Y7565000D01*
G02X6010000Y7597720I32720J0D01*
G01X6220000D01*
G02X6252720Y7565000I0J-32720D01*
G01Y7425000D01*
G02X6220000Y7392280I-32720J0D01*
G01X6010000D01*
G02X5977280Y7425000I0J32720D01*
G37*
G36*
G01X1504980Y1615000D02*
Y1665000D01*
G02X1540000Y1700020I35020J0D01*
G01X1620000D01*
G02X1655020Y1665000I0J-35020D01*
G01Y1615000D01*
G02X1628820Y1581110I-35019J0D01*
G01X1625020Y1580120D01*
Y1530350D01*
X1590020Y1495350D01*
Y1428320D01*
G02X1645020Y1339000I-45028J-89320D01*
G02X1444980I-100020J0D01*
G02X1499980Y1428320I100028J0D01*
G01Y1532650D01*
X1534980Y1567650D01*
Y1580120D01*
X1531180Y1581110D01*
G02X1504980Y1615000I8819J33890D01*
G37*
G54D49*
X5913000Y3758000D03*
Y3250000D03*
Y3504000D03*
Y2996000D03*
Y1828000D03*
Y2082000D03*
Y1574000D03*
Y1066000D03*
Y1320000D03*
Y558000D03*
Y812000D03*
X5361000Y1955000D03*
Y2209000D03*
X4413000Y1813000D03*
Y1305000D03*
X1546000Y2336000D03*
X1545000Y1085000D03*
Y831000D03*
X1086000Y3606000D03*
Y3352000D03*
Y3098000D03*
Y2082000D03*
X1087000Y1320000D03*
Y1066000D03*
Y812000D03*
Y558000D03*
Y304000D03*
G54D51*
X4700000Y4480000D03*
X4398000D03*
X2266000Y4951000D03*
X974000Y6124000D03*
G54D48*
X6750000Y8000000D03*
Y250000D03*
X250000Y8000000D03*
Y250000D03*
G54D50*
X5913000Y4012000D03*
X4413000Y1559000D03*
X1545000Y577000D03*
X1086000Y2590000D03*
Y2336000D03*
%LPD*%
G75*
G36*
G01X720240Y7199360D02*
X658500Y7241790D01*
X646250Y7202000D01*
Y7172000D01*
X658500Y7132210D01*
X720240Y7174640D01*
G03Y7199360I-8500J12360D01*
G37*
G36*
G01X968500Y2831010D02*
X1051010Y2783390D01*
X1089750Y2844000D01*
X1051010Y2904610D01*
X968500Y2856990D01*
G03Y2831010I7500J-12990D01*
G37*
G36*
G01X1259680Y4929820D02*
X1323180Y4993320D01*
X1267000Y5017250D01*
X1217000D01*
X1160820Y4993320D01*
X1224320Y4929820D01*
G03X1259680I17680J17680D01*
G37*
G36*
G01X991320Y5750000D02*
X1038940Y5832510D01*
X974000Y5875000D01*
X909060Y5832510D01*
X956680Y5750000D01*
G03X991320I17320J10000D01*
G37*
G36*
G01X846500Y5857010D02*
X936510Y5805060D01*
X977750Y5870000D01*
X936510Y5934940D01*
X846500Y5882990D01*
G03Y5857010I7500J-12990D01*
G37*
G36*
G01X1062370Y7954860D02*
X990000Y8015000D01*
X881250Y7945000D01*
X990000Y7875000D01*
X1062370Y7935140D01*
G03Y7954860I-11300J9860D01*
G37*
G36*
G01X1687370Y332860D02*
X1615000Y393000D01*
X1541250Y323000D01*
X1615000Y253000D01*
X1687370Y313140D01*
G03Y332860I-11300J9860D01*
G37*
G36*
G01X1352820Y1572690D02*
X1373000Y1610000D01*
X1343000Y1643750D01*
X1313000Y1610000D01*
X1333180Y1572690D01*
G03X1352820I9820J11340D01*
G37*
G36*
G01X1275690Y1830180D02*
X1313000Y1810000D01*
X1346750Y1840000D01*
X1313000Y1870000D01*
X1275690Y1849820D01*
G03Y1830180I11340J-9820D01*
G37*
G36*
G01X1663500Y2094990D02*
X1580990Y2142610D01*
X1542250Y2082000D01*
X1580990Y2021390D01*
X1663500Y2069010D01*
G03Y2094990I-7500J12990D01*
G37*
G36*
G01X1696650Y2606570D02*
X1616000Y2660000D01*
X1539750Y2590000D01*
X1616000Y2520000D01*
X1696650Y2573430D01*
G03Y2606570I-18720J16570D01*
G37*
G36*
G01X1688500Y3358980D02*
G03X1709880Y3367930I0J30012D01*
G02X1717120I3620J-3567D01*
G03X1738500Y3358980I21380J21062D01*
G01X1783500D01*
G03X1798940Y3363260I-8J30018D01*
G01X1800150Y3363980D01*
X1918160D01*
X1943980Y3341930D01*
Y3310000D01*
G03X1946080Y3294960I55018J15D01*
G02X1936300Y3282020I-9774J-2779D01*
G01X1807080D01*
X1805930Y3282650D01*
G03X1789000Y3287020I-16940J-30647D01*
G01X1709000D01*
G03X1692070Y3282650I10J-35017D01*
G01X1690920Y3282020D01*
X1629080D01*
X1627930Y3282650D01*
G03X1619820Y3285890I-16945J-30644D01*
G01X1616020Y3286880D01*
Y3352750D01*
G02X1630560Y3361910I10159J-6D01*
G03X1643500Y3358980I12936J27091D01*
G01X1688500D01*
G37*
G36*
G01X1578500Y3363030D02*
X1593500Y3389000D01*
X1571000Y3417750D01*
X1548500Y3389000D01*
X1563500Y3363030D01*
G03X1578500I7500J12990D01*
G37*
G36*
G01X1658500Y3724970D02*
X1643500Y3699000D01*
X1666000Y3670250D01*
X1688500Y3699000D01*
X1673500Y3724970D01*
G03X1658500I-7500J-12990D01*
G37*
G36*
G01X1386320Y5092180D02*
X1322820Y5028680D01*
X1379000Y5004750D01*
X1429000D01*
X1485180Y5028680D01*
X1421680Y5092180D01*
G03X1386320I-17680J-17680D01*
G37*
G36*
G01X1617630Y7935140D02*
X1690000Y7875000D01*
X1798750Y7945000D01*
X1690000Y8015000D01*
X1617630Y7954860D01*
G03Y7935140I11300J-9860D01*
G37*
G36*
G01X2106820Y737690D02*
X2127000Y775000D01*
X2097000Y838750D01*
X2067000Y775000D01*
X2087180Y737690D01*
G03X2106820I9820J11340D01*
G37*
G36*
G01X2172720Y1222980D02*
X2215350D01*
X2241980Y1196350D01*
Y1160330D01*
X2238380Y1153680D01*
X2234180Y1155370D01*
G03X2222000Y1157720I-12176J-30371D01*
G01X2162000D01*
G03X2149820Y1155370I-4J-32721D01*
G01X2145620Y1153680D01*
X2142020Y1160330D01*
Y1201880D01*
X2172720Y1222980D01*
G37*
G36*
G01X2087180Y1162310D02*
X2067000Y1125000D01*
X2097000Y1061250D01*
X2127000Y1125000D01*
X2106820Y1162310D01*
G03X2087180I-9820J-11340D01*
G37*
G36*
G01X2167240Y1280360D02*
X2105500Y1322790D01*
X2093250Y1283000D01*
Y1253000D01*
X2105500Y1213210D01*
X2167240Y1255640D01*
G03Y1280360I-8500J12360D01*
G37*
G36*
G01X2026760Y1298640D02*
X2088500Y1256210D01*
X2100750Y1296000D01*
Y1326000D01*
X2088500Y1365790D01*
X2026760Y1323360D01*
G03Y1298640I8500J-12360D01*
G37*
G36*
G01X1975890Y2597470D02*
X2035000Y2678500D01*
X1960000Y2724750D01*
X1885000Y2678500D01*
X1944110Y2597470D01*
G03X1975890I15890J19300D01*
G37*
G36*
G01X1838060Y2577890D02*
X1885000Y2551500D01*
X1966250Y2591500D01*
X1885000Y2631500D01*
X1838060Y2605110D01*
G03Y2577890I20970J-13610D01*
G37*
G36*
G01X1975890Y2470470D02*
X2035000Y2551500D01*
X1960000Y2597750D01*
X1885000Y2551500D01*
X1944110Y2470470D01*
G03X1975890I15890J19300D01*
G37*
G36*
G01X1944110Y2712530D02*
X1885000Y2631500D01*
X1960000Y2585250D01*
X2035000Y2631500D01*
X1975890Y2712530D01*
G03X1944110I-15890J-19300D01*
G37*
G36*
G01X1975890Y2343470D02*
X2035000Y2424500D01*
X1960000Y2470750D01*
X1885000Y2424500D01*
X1944110Y2343470D01*
G03X1975890I15890J19300D01*
G37*
G36*
G01X1944110Y2585530D02*
X1885000Y2504500D01*
X1960000Y2458250D01*
X2035000Y2504500D01*
X1975890Y2585530D01*
G03X1944110I-15890J-19300D01*
G37*
G36*
G01X1969670Y2222810D02*
X2035000Y2297500D01*
X1960000Y2341250D01*
X1885000Y2297500D01*
X1950330Y2222810D01*
G03X1969670I9670J11470D01*
G37*
G36*
G01X1944110Y2458530D02*
X1885000Y2377500D01*
X1960000Y2331250D01*
X2035000Y2377500D01*
X1975890Y2458530D01*
G03X1944110I-15890J-19300D01*
G37*
G36*
G01X1823720Y3618980D02*
X1926210D01*
X1943980Y3601210D01*
Y3486070D01*
X1918160Y3464020D01*
X1823720D01*
Y3618980D01*
G37*
G36*
G01X1811050Y3420540D02*
X1783500Y3439000D01*
X1756000Y3414000D01*
X1783500Y3389000D01*
X1811050Y3407460D01*
G03Y3420540I-18900J6540D01*
G37*
G36*
G01X1923630Y3398790D02*
X1986010Y3345510D01*
X2004000Y3394000D01*
Y3434000D01*
X1986010Y3482490D01*
X1923630Y3429210D01*
G03Y3398790I12990J-15210D01*
G37*
G36*
G01X1869100Y3743350D02*
X1822890Y3683130D01*
X1866000Y3670250D01*
X1896000D01*
X1939110Y3683130D01*
X1892900Y3743350D01*
G03X1869100I-11900J-9130D01*
G37*
G36*
G01X2241430Y380810D02*
X2313000Y337000D01*
X2391750Y392000D01*
X2313000Y447000D01*
X2241430Y403190D01*
G03Y380810I9990J-11190D01*
G37*
G36*
G01X2395200Y852770D02*
X2317000Y895000D01*
X2280750Y835000D01*
X2317000Y775000D01*
X2395200Y817230D01*
G03Y852770I-17590J17770D01*
G37*
G36*
G01X2561900Y765650D02*
X2608110Y825870D01*
X2565000Y838750D01*
X2535000D01*
X2491890Y825870D01*
X2538100Y765650D01*
G03X2561900I11900J9130D01*
G37*
G36*
G01X2428900D02*
X2475110Y825870D01*
X2432000Y838750D01*
X2402000D01*
X2358890Y825870D01*
X2405100Y765650D01*
G03X2428900I11900J9130D01*
G37*
G36*
G01X2467100Y904350D02*
X2420890Y844130D01*
X2464000Y831250D01*
X2494000D01*
X2537110Y844130D01*
X2490900Y904350D01*
G03X2467100I-11900J-9130D01*
G37*
G36*
G01X2607100D02*
X2560890Y844130D01*
X2604000Y831250D01*
X2634000D01*
X2677110Y844130D01*
X2630900Y904350D01*
G03X2607100I-11900J-9130D01*
G37*
G36*
G01X2277180Y1162310D02*
X2257000Y1125000D01*
X2287000Y1061250D01*
X2317000Y1125000D01*
X2296820Y1162310D01*
G03X2277180I-9820J-11340D01*
G37*
G36*
G01X2182180D02*
X2162000Y1125000D01*
X2192000Y1061250D01*
X2222000Y1125000D01*
X2201820Y1162310D01*
G03X2182180I-9820J-11340D01*
G37*
G36*
G01X2201820Y967690D02*
X2222000Y1005000D01*
X2192000Y1068750D01*
X2162000Y1005000D01*
X2182180Y967690D01*
G03X2201820I9820J11340D01*
G37*
G36*
G01X2442320Y2135180D02*
X2378820Y2071680D01*
X2435000Y2047750D01*
X2485000D01*
X2541180Y2071680D01*
X2477680Y2135180D01*
G03X2442320I-17680J-17680D01*
G37*
G36*
G01X2573860Y2599750D02*
X2535000Y2631500D01*
X2456250Y2591500D01*
X2535000Y2551500D01*
X2573860Y2583250D01*
G03Y2599750I-12530J8250D01*
G37*
G36*
G01X2475890Y2470470D02*
X2535000Y2551500D01*
X2460000Y2597750D01*
X2385000Y2551500D01*
X2444110Y2470470D01*
G03X2475890I15890J19300D01*
G37*
G36*
G01X2444110Y2585530D02*
X2385000Y2504500D01*
X2460000Y2458250D01*
X2535000Y2504500D01*
X2475890Y2585530D01*
G03X2444110I-15890J-19300D01*
G37*
G36*
G01X2475890Y2343470D02*
X2535000Y2424500D01*
X2460000Y2470750D01*
X2385000Y2424500D01*
X2444110Y2343470D01*
G03X2475890I15890J19300D01*
G37*
G36*
G01Y2216470D02*
X2535000Y2297500D01*
X2460000Y2343750D01*
X2385000Y2297500D01*
X2444110Y2216470D01*
G03X2475890I15890J19300D01*
G37*
G36*
G01X2444110Y2458530D02*
X2385000Y2377500D01*
X2460000Y2331250D01*
X2535000Y2377500D01*
X2475890Y2458530D01*
G03X2444110I-15890J-19300D01*
G37*
G36*
G01X2573860Y2726750D02*
X2535000Y2758500D01*
X2456250Y2718500D01*
X2535000Y2678500D01*
X2573860Y2710250D01*
G03Y2726750I-12530J8250D01*
G37*
G36*
G01X2229100Y3296350D02*
X2182890Y3236130D01*
X2226000Y3223250D01*
X2256000D01*
X2299110Y3236130D01*
X2252900Y3296350D01*
G03X2229100I-11900J-9130D01*
G37*
G36*
G01X2451500Y3855990D02*
X2361490Y3907940D01*
X2320250Y3843000D01*
X2361490Y3778060D01*
X2451500Y3830010D01*
G03Y3855990I-7500J12990D01*
G37*
G36*
G01X2196500Y4084010D02*
X2286510Y4032060D01*
X2327750Y4097000D01*
X2286510Y4161940D01*
X2196500Y4109990D01*
G03Y4084010I7500J-12990D01*
G37*
G36*
G01X2624650Y6273980D02*
X2739970D01*
G03X2743810Y6268750I30028J18022D01*
G02Y6255250I-7592J-6750D01*
G03X2739680Y6249520I26199J-23237D01*
G01X2717350D01*
X2660980Y6193150D01*
Y5310100D01*
G02X2645390Y5301510I-10160J-2D01*
G03X2626940Y5308920I-29393J-46510D01*
G01X2625440Y5309230D01*
X2604020Y5330650D01*
Y6253350D01*
X2624650Y6273980D01*
G37*
G36*
G01X2253010Y5332500D02*
X2201060Y5242490D01*
X2266000Y5201250D01*
X2330940Y5242490D01*
X2278990Y5332500D01*
G03X2253010I-12990J-7500D01*
G37*
G36*
G01X2698900Y765650D02*
X2745110Y825870D01*
X2702000Y838750D01*
X2672000D01*
X2628890Y825870D01*
X2675100Y765650D01*
G03X2698900I11900J9130D01*
G37*
G36*
G01X2746820Y817320D02*
X2810320Y753820D01*
X2834250Y810000D01*
Y860000D01*
X2810320Y916180D01*
X2746820Y852680D01*
G03Y817320I17680J-17680D01*
G37*
G36*
G01X2677460Y514840D02*
X2611800Y443400D01*
X2686800Y384650D01*
X2761800Y443400D01*
X2696140Y514840D01*
G03X2677460I-9340J-11740D01*
G37*
G36*
G01X3161000Y1358280D02*
G03X3187500Y1369160I0J37713D01*
G03X3201180Y1362110I22491J26844D01*
G01X3204980Y1361120D01*
Y1319350D01*
X3227770Y1296560D01*
X3228080Y1295060D01*
G03X3282000Y1250980I53920J10938D01*
G03X3315610Y1262440I0J55016D01*
G02X3331980Y1254400I6210J-8041D01*
G01Y1147060D01*
G02X3314640Y1139870I-10160J-2D01*
G01X3295490Y1159020D01*
X3099790D01*
X3048020Y1210790D01*
Y1364360D01*
G03X3054950Y1368720I-15056J31618D01*
G03X3081000Y1358280I26050J27280D01*
G01X3161000D01*
G37*
G36*
G01X2657690Y1614180D02*
X2695000Y1594000D01*
X2728750Y1624000D01*
X2695000Y1654000D01*
X2657690Y1633820D01*
G03Y1614180I11340J-9820D01*
G37*
G36*
G01X2842320Y1505180D02*
X2778820Y1441680D01*
X2835000Y1417750D01*
X2885000D01*
X2941180Y1441680D01*
X2877680Y1505180D01*
G03X2842320I-17680J-17680D01*
G37*
G36*
G01X2787670Y1430930D02*
X2755000Y1454000D01*
X2718750Y1424000D01*
X2755000Y1394000D01*
X2787670Y1417070D01*
G03Y1430930I-24020J6930D01*
G37*
G36*
G01X2989500Y4566990D02*
X2936990Y4597290D01*
X2908250Y4554000D01*
X2936990Y4510710D01*
X2989500Y4541010D01*
G03Y4566990I-7500J12990D01*
G37*
G36*
G01X2834500Y4541010D02*
X2887010Y4510710D01*
X2915750Y4554000D01*
X2887010Y4597290D01*
X2834500Y4566990D01*
G03Y4541010I7500J-12990D01*
G37*
G36*
G01X3659650Y2346980D02*
X3682640Y2369970D01*
G02X3699980Y2362780I7181J-7186D01*
G01Y1756350D01*
X3805270Y1651060D01*
G02X3798080Y1633720I-7186J-7181D01*
G01X3735000D01*
G03X3708150Y1622500I-6J-37722D01*
G02X3701170Y1622250I-3622J3563D01*
G03X3686820Y1629890I-23182J-26245D01*
G01X3683020Y1630880D01*
Y1966650D01*
X3501020Y2148650D01*
Y2230370D01*
G03X3511020Y2262000I-45023J31630D01*
G03X3456000Y2317020I-55020J0D01*
G03X3431670Y2311350I-3J-55021D01*
G02X3417020Y2320460I-4491J9113D01*
G01Y2324350D01*
X3439650Y2346980D01*
X3659650D01*
G37*
G36*
G01X3359920Y2026720D02*
X3336000Y1987000D01*
X3371000Y1935750D01*
X3406000Y1987000D01*
X3382080Y2026720D01*
G03X3359920I-11080J-22410D01*
G37*
G36*
G01X3295360Y4080760D02*
X3337790Y4142500D01*
X3298000Y4154750D01*
X3268000D01*
X3228210Y4142500D01*
X3270640Y4080760D01*
G03X3295360I12360J8500D01*
G37*
G36*
G01X3477500Y4566990D02*
X3424990Y4597290D01*
X3396250Y4554000D01*
X3424990Y4510710D01*
X3477500Y4541010D01*
G03Y4566990I-7500J12990D01*
G37*
G36*
G01X3322500Y4541010D02*
X3375010Y4510710D01*
X3403750Y4554000D01*
X3375010Y4597290D01*
X3322500Y4566990D01*
G03Y4541010I7500J-12990D01*
G37*
G36*
G01X3678000Y1360980D02*
G03X3702890Y1371360I0J35032D01*
G02X3710110I3610J-3569D01*
G03X3726180Y1362110I24882J24644D01*
G01X3729980Y1361120D01*
Y1288650D01*
X3562360Y1121030D01*
G02X3545020Y1128220I-7181J7186D01*
G01Y1361120D01*
X3548820Y1362110D01*
G03X3559600Y1366980I-8820J33890D01*
G01X3578400D01*
G03X3598000Y1360980I19600J29013D01*
G01X3678000D01*
G37*
G36*
G01X3790020Y1793650D02*
Y2316050D01*
G02X3805190Y2324890I10160J0D01*
G03X3820000Y2320980I14814J26109D01*
G01X3839980D01*
Y1829630D01*
G03X3829980Y1798000I45023J-31630D01*
G03X3940020I55020J0D01*
G03X3930020Y1829630I-55023J0D01*
G01Y2181920D01*
G02X3946070Y2190190I10159J-6D01*
G03X3967060Y2181080I31922J44813D01*
G01X3968560Y2180770D01*
X3972180Y2177150D01*
Y2023550D01*
X3971980Y2023350D01*
Y1956630D01*
G03X3961980Y1925000I45023J-31630D01*
G03X4017000Y1869980I55020J0D01*
G03X4041330Y1875650I3J55021D01*
G02X4055980Y1866540I4491J-9113D01*
G01Y1726080D01*
G02X4039930Y1717810I-10159J6D01*
G03X4008000Y1728020I-31930J-44823D01*
G03X3976370Y1718020I0J-55023D01*
G01X3865650D01*
X3790020Y1793650D01*
G37*
G36*
G01X4180020Y3351020D02*
Y3509730D01*
G02X4194050Y3519130I10161J4D01*
G03X4215000Y3514980I20962J50868D01*
G03X4222660Y3515520I-30J55018D01*
G01X4225770Y3515950D01*
X4239980Y3495280D01*
Y3351020D01*
X4180020D01*
G37*
G36*
G01X4351120Y3525980D02*
X4463750D01*
G02X4471270Y3508990I-1J-10160D01*
G03X4456980Y3472000I40730J-36990D01*
G03X4466980Y3440370I55023J0D01*
G01Y3327650D01*
X4445350Y3306020D01*
X4430020D01*
Y3321000D01*
G03X4400000Y3351020I-30020J0D01*
G01X4330020D01*
Y3495280D01*
X4351120Y3525980D01*
G37*
G36*
G01X4297360Y3500760D02*
X4339790Y3562500D01*
X4300000Y3574750D01*
X4270000D01*
X4230210Y3562500D01*
X4272640Y3500760D01*
G03X4297360I12360J8500D01*
G37*
G36*
G01X4064760Y3626640D02*
X4126500Y3584210D01*
X4138750Y3624000D01*
Y3654000D01*
X4126500Y3693790D01*
X4064760Y3651360D01*
G03Y3626640I8500J-12360D01*
G37*
G36*
G01X4385010Y4861500D02*
X4333060Y4771490D01*
X4398000Y4730250D01*
X4462940Y4771490D01*
X4410990Y4861500D01*
G03X4385010I-12990J-7500D01*
G37*
G36*
G01X4735220Y2615980D02*
X4752350D01*
X4795980Y2572350D01*
Y2192880D01*
X4792180Y2191890D01*
G03X4774650Y2181060I8825J-33888D01*
G02X4759350I-7650J6692D01*
G03X4741820Y2191890I-26355J-23058D01*
G01X4738020Y2192880D01*
Y2588650D01*
X4728030Y2598640D01*
G02X4735220Y2615980I7186J7181D01*
G37*
G36*
G01X4687010Y4861500D02*
X4635060Y4771490D01*
X4700000Y4730250D01*
X4764940Y4771490D01*
X4712990Y4861500D01*
G03X4687010I-12990J-7500D01*
G37*
G36*
G01X4834360Y5801760D02*
X4876790Y5863500D01*
X4837000Y5875750D01*
X4807000D01*
X4767210Y5863500D01*
X4809640Y5801760D01*
G03X4834360I12360J8500D01*
G37*
G36*
G01X5218630Y1691140D02*
X5291000Y1631000D01*
X5364750Y1701000D01*
X5291000Y1771000D01*
X5218630Y1710860D01*
G03Y1691140I11300J-9860D01*
G37*
G36*
G01X4962660Y2995430D02*
X5012160Y3056560D01*
X4966000Y3069750D01*
X4936000D01*
X4889840Y3056560D01*
X4939340Y2995430D01*
G03X4962660I11660J9440D01*
G37*
G36*
G01X4957650Y3191980D02*
X4967270D01*
G03X4996000Y3176980I28730J20014D01*
G01X5076000D01*
G03X5102590Y3189210I0J35020D01*
G01X5104110Y3190980D01*
X5112890D01*
X5114410Y3189210D01*
G03X5141000Y3176980I26590J22790D01*
G01X5221000D01*
G03X5221640Y3176990I-227J35016D01*
G02X5231980Y3166830I179J-10159D01*
G01Y3145650D01*
X5197350Y3111020D01*
X4972830D01*
X4971820Y3111480D01*
G03X4930180I-20820J-45469D01*
G01X4929170Y3111020D01*
X4901220D01*
G02X4894030Y3128360I-4J10159D01*
G01X4957650Y3191980D01*
G37*
G36*
G01X5129360Y5946570D02*
X5171790Y6008310D01*
X5132000Y6020560D01*
X5102000D01*
X5062210Y6008310D01*
X5104640Y5946570D01*
G03X5129360I12360J8500D01*
G37*
G36*
G01X5048240Y7098360D02*
X4986500Y7140790D01*
X4974250Y7101000D01*
Y7071000D01*
X4986500Y7031210D01*
X5048240Y7073640D01*
G03Y7098360I-8500J12360D01*
G37*
G36*
G01X4990360Y7874760D02*
X5032790Y7936500D01*
X4993000Y7948750D01*
X4963000D01*
X4923210Y7936500D01*
X4965640Y7874760D01*
G03X4990360I12360J8500D01*
G37*
G36*
G01X5027630Y7935140D02*
X5100000Y7875000D01*
X5208750Y7945000D01*
X5100000Y8015000D01*
X5027630Y7954860D01*
G03Y7935140I11300J-9860D01*
G37*
G36*
G01X5382370Y7954860D02*
X5310000Y8015000D01*
X5201250Y7945000D01*
X5310000Y7875000D01*
X5382370Y7935140D01*
G03Y7954860I-11300J9860D01*
G37*
G36*
G01X5478500Y2475990D02*
X5395990Y2523610D01*
X5357250Y2463000D01*
X5395990Y2402390D01*
X5478500Y2450010D01*
G03Y2475990I-7500J12990D01*
G37*
G36*
G01X5701240Y2754360D02*
X5639500Y2796790D01*
X5627250Y2757000D01*
Y2727000D01*
X5639500Y2687210D01*
X5701240Y2729640D01*
G03Y2754360I-8500J12360D01*
G37*
G36*
G01X5795500Y2729010D02*
X5878010Y2681390D01*
X5916750Y2742000D01*
X5878010Y2802610D01*
X5795500Y2754990D01*
G03Y2729010I7500J-12990D01*
G37*
G36*
G01Y4253010D02*
X5878010Y4205390D01*
X5916750Y4266000D01*
X5878010Y4326610D01*
X5795500Y4278990D01*
G03Y4253010I7500J-12990D01*
G37*
G36*
G01X5900010Y4891500D02*
X5852390Y4808990D01*
X5913000Y4770250D01*
X5973610Y4808990D01*
X5925990Y4891500D01*
G03X5900010I-12990J-7500D01*
G37*
G36*
G01X6030500Y4532990D02*
X5947990Y4580610D01*
X5909250Y4520000D01*
X5947990Y4459390D01*
X6030500Y4507010D01*
G03Y4532990I-7500J12990D01*
G37*
G36*
G01X5937630Y7935140D02*
X6010000Y7875000D01*
X6118750Y7945000D01*
X6010000Y8015000D01*
X5937630Y7954860D01*
G03Y7935140I11300J-9860D01*
G37*
G54D10*
X250000Y250000D03*
Y8000000D03*
X6750000Y250000D03*
Y8000000D03*
G54D20*
X1666000Y3414000D03*
X1571000D03*
Y3674000D03*
X1666000D03*
X1761000Y3414000D03*
Y3674000D03*
G54D11*
G01X888000Y5457000D02*
X470300D01*
X286000Y5272700D01*
Y5230000D01*
G01X650000Y7187000D02*
Y6963000D01*
X330000Y6643000D01*
Y6004000D01*
X464000Y5870000D01*
X974000D01*
G01X524600Y6240000D02*
Y6584600D01*
X820000Y6880000D01*
X2143000D01*
X2251000Y6988000D01*
Y7201000D01*
X2465000Y7415000D01*
X3392500D01*
X3442500Y7365000D01*
Y7112000D01*
G01X846000Y7187000D02*
X650000D01*
G01X819000Y7944870D02*
X707880D01*
X650000Y7886990D01*
Y7187000D01*
G01X885000Y7945000D02*
X819130D01*
X819000Y7944870D01*
G01D02*
X818870Y7945000D01*
G01X1343000Y1840000D02*
X884000D01*
X843000Y1881000D01*
Y2789000D01*
X898000Y2844000D01*
X1086000D01*
G01X846000Y7037000D02*
X1035000D01*
G01X885000Y7945000D02*
X1795000D01*
G01X1545000Y323000D02*
X1797000D01*
G01X1545000Y1339000D02*
Y1514000D01*
X1580000Y1549000D01*
Y1640000D01*
G01X1380500Y1524500D02*
X1343000Y1562000D01*
Y1640000D01*
G01X2007500Y1861500D02*
X1936000Y1790000D01*
X1580000D01*
G01X1826000Y2082000D02*
X1546000D01*
G01X1571000Y3414000D02*
Y3227000D01*
G01X1666000Y3674000D02*
Y3740000D01*
G01X1636000Y4361000D02*
X1557000Y4440000D01*
Y4715000D01*
G01X1783000Y4725000D02*
X1773000Y4715000D01*
X1557000D01*
G01Y5304000D02*
X1679000D01*
X1783000Y5200000D01*
Y4835000D01*
G01X1981000Y285000D02*
X2011200Y254800D01*
X2012500D01*
X2025300Y242000D01*
X2098000D01*
G01D02*
X2227000D01*
G01X2098000Y392000D02*
X2388000D01*
G01X1797000Y473000D02*
Y686000D01*
G01X2097000Y835000D02*
Y688000D01*
G01Y1268000D02*
Y1311000D01*
G01Y1065000D02*
Y1268000D01*
G01D02*
X2234000D01*
X2287000Y1215000D01*
Y1065000D01*
G01X1742000Y1614000D02*
X1839000D01*
X1889000Y1564000D01*
Y1341000D01*
X1919000Y1311000D01*
X2097000D01*
G01D02*
Y1379000D01*
X2341000Y1623000D01*
X2441000D01*
G01X1960000Y2337500D02*
Y2130300D01*
X2036300Y2054000D01*
X2139000D01*
G01X1732500Y3871500D02*
X1733500Y3872500D01*
G01X1881000Y3817000D02*
Y3674000D01*
G01X2048000Y3817000D02*
X1881000D01*
G01X1972000Y6715000D02*
Y4267000D01*
X2142000Y4097000D01*
X2324000D01*
G01X2150000Y7314000D02*
X1972500Y7136500D01*
Y6992500D01*
G01X2227000Y92000D02*
X2338000D01*
X2388000Y142000D01*
Y242000D01*
G01X2550000Y593000D02*
X2417000D01*
G01X2479000Y933000D02*
Y835000D01*
G01X2619000Y933000D02*
Y835000D01*
G01X2417000Y743000D02*
Y835000D01*
G01X2550000Y743000D02*
Y835000D01*
G01X2192000Y1165000D02*
Y1065000D01*
G01X2191000Y950000D02*
X2192000Y951000D01*
G01D02*
Y1065000D01*
G01X2441000Y1473000D02*
X2343000D01*
G01X2574000Y1367000D02*
X2573000Y1366000D01*
G01X2575000Y1473000D02*
X2574000Y1472000D01*
G01X2441000Y1367000D02*
X2574000D01*
G01Y1472000D02*
X2442000D01*
X2441000Y1473000D01*
G01X2572000Y1470000D02*
X2574000Y1472000D01*
G01X2441000Y1623000D02*
X2575000D01*
G01D02*
X2647700D01*
X2648700Y1624000D01*
X2725000D01*
G01X2705000Y2581000D02*
X2573200D01*
X2562700Y2591500D01*
X2460000D01*
G01X2705000Y2731000D02*
X2575200D01*
X2562700Y2718500D01*
X2460000D01*
G01X2241000Y3435000D02*
Y3227000D01*
G01X2938500Y3045500D02*
X2886000Y3098000D01*
X2212000D01*
G01X2595000Y3993000D02*
X2818000D01*
G01X2595000Y3843000D02*
X2324000D01*
G01X2912000Y4554000D02*
X2444000D01*
G01X2616000Y5255000D02*
X2559000Y5312000D01*
Y6272000D01*
X2606000Y6319000D01*
X2726800D01*
X2727300Y6319500D01*
X2880000D01*
G01X2266000Y5205000D02*
Y6668000D01*
G01X2448000Y5362000D02*
X2385000Y5425000D01*
Y7164000D01*
X2517000Y7296000D01*
X3181200D01*
X3212500Y7264700D01*
Y7112000D01*
G01X2564000Y6549500D02*
X2880000D01*
G01Y6779500D02*
X2616500D01*
G01X2687000Y593000D02*
Y503300D01*
X2686800Y503100D01*
Y388400D01*
G01X2687000Y743000D02*
Y835000D01*
G01X2859000Y2184000D02*
X3118000Y2443000D01*
G01X2683350Y2172650D02*
X2705020Y2194320D01*
Y2236280D01*
X2705000Y2236300D01*
Y2294000D01*
G01X2941000Y2444000D02*
X2705000D01*
G01X2972000Y2843000D02*
X3004000Y2811000D01*
X3685000D01*
G01Y2961000D02*
X2769000D01*
X2705000Y2897000D01*
Y2731000D01*
G01X3066210Y3193000D02*
Y3783510D01*
X3067000Y3784300D01*
Y3842000D01*
G01Y3992000D02*
Y4049700D01*
X3066000Y4050700D01*
Y4086000D01*
X3131000Y4151000D01*
X3283000D01*
G01X3097500Y5872000D02*
Y4584000D01*
X3067500Y4554000D01*
X2912000D01*
G01X2839500Y4949500D02*
X2706000Y5083000D01*
Y6174500D01*
X2736000Y6204500D01*
X2880000D01*
G01X2983000Y5061000D02*
X2878000Y5166000D01*
Y6017300D01*
X2880000Y6019300D01*
Y6089500D01*
G01X2639000Y6434500D02*
X2880000D01*
G01X2721000Y7112000D02*
X3097500D01*
G01X3420000Y889000D02*
Y1109000D01*
X3377000Y1152000D01*
Y1443000D01*
G01X3500000Y1421000D02*
Y889000D01*
G01X3250000Y1421000D02*
Y1338000D01*
X3282000Y1306000D01*
G01X3250000Y1424000D02*
Y1421000D01*
G01X3638000Y1571000D02*
Y1948000D01*
X3456000Y2130000D01*
Y2262000D01*
G01X3268000Y2386000D02*
Y2058000D01*
G01X3372000Y2165000D02*
Y2343000D01*
X3421000Y2392000D01*
X3641000D01*
X3685000Y2436000D01*
Y2561000D01*
G01X3456000Y2537000D02*
Y2633000D01*
X3534000Y2711000D01*
X3685000D01*
G01X3268000Y2536000D02*
Y2668000D01*
X3361000Y2761000D01*
X3685000D01*
G01X3248000Y2882000D02*
X3290700D01*
X3319700Y2911000D01*
X3685000D01*
G01Y3011000D02*
X3478000D01*
X3435000Y3054000D01*
X3351000D01*
G01D02*
X3269000D01*
X3213000Y3110000D01*
Y3204000D01*
G01Y3354000D02*
X3615000D01*
X3685000Y3284000D01*
Y3111000D01*
G01X3230000Y3490000D02*
X3751000D01*
X3835000Y3406000D01*
Y3261000D01*
G01X3453000Y3789000D02*
X3838000D01*
G01X3283000Y3992000D02*
Y4151000D01*
G01D02*
X3684000D01*
X3694000Y4141000D01*
G01X3877000Y4554000D02*
X3400000D01*
G01D02*
X3242500D01*
X3212500Y4584000D01*
Y5872000D01*
G01X4117000Y5158000D02*
X3577000D01*
X3442500Y5292500D01*
Y5627000D01*
G01X3327000Y5700000D02*
X3327500Y5700500D01*
G01D02*
Y5872000D01*
G01X3329000Y6033000D02*
X3327500Y6031500D01*
G01D02*
Y5872000D01*
G01Y7112000D02*
Y7295500D01*
X3327000Y7296000D01*
G01X4101000Y2253000D02*
Y1358000D01*
X3845000Y1102000D01*
X3791000D01*
G01X3580000Y889000D02*
Y1075000D01*
X3775000Y1270000D01*
Y1421000D01*
G01X3835000Y2411000D02*
X3775000D01*
X3745000Y2381000D01*
Y1775000D01*
X3847000Y1673000D01*
X4008000D01*
G01X3885000Y2411000D02*
Y1798000D01*
G01X3685000Y2611000D02*
X3785000D01*
G01X3935000Y2411000D02*
Y2516000D01*
G01X3978000Y2235000D02*
X4017200Y2195800D01*
Y2004900D01*
X4017000Y2004700D01*
Y1925000D01*
G01X3568000Y2467000D02*
Y2631700D01*
X3597300Y2661000D01*
X3685000D01*
G01X3551000Y3110000D02*
Y3107300D01*
X3597300Y3061000D01*
X3685000D01*
G01Y2861000D02*
X3829000D01*
X3859000Y2831000D01*
Y2779000D01*
G01X3884000Y3132000D02*
X3885000Y3133000D01*
G01D02*
Y3261000D01*
G01X3838000Y3639000D02*
X4135000D01*
G01X3877000Y4554000D02*
X3969000D01*
X4012000Y4511000D01*
Y4083000D01*
X3950000Y4021000D01*
X3704000D01*
X3694000Y4031000D01*
G01X4338000Y5526000D02*
X3641000D01*
X3557500Y5609500D01*
Y5872000D01*
G01X4519000Y5601000D02*
X3724000D01*
X3672000Y5653000D01*
Y5718800D01*
X3672500Y5719300D01*
Y5872000D01*
G01X3855500Y5676500D02*
X3787500Y5744500D01*
Y5872000D01*
G01X4822000D02*
X3902500D01*
G01X3787500Y6928000D02*
Y7112000D01*
G01X3765000Y7354000D02*
X3672500Y7261500D01*
Y7112000D01*
G01X3641500Y7379500D02*
X3557500Y7295500D01*
Y7112000D01*
G01X4429000Y333000D02*
Y620000D01*
X4766000Y957000D01*
X4920000D01*
G01X4385000Y2165000D02*
Y2411000D01*
G01X4185000D02*
Y2094000D01*
G01X4334000Y2523000D02*
X4335000Y2522000D01*
G01D02*
Y2411000D01*
G01X4535000Y2911000D02*
X4411000D01*
G01X4285000Y3261000D02*
Y3571000D01*
G01X4135000Y3261000D02*
Y3639000D01*
G01X4512000Y3472000D02*
Y3309000D01*
X4464000Y3261000D01*
X4385000D01*
G01X4295000Y3916000D02*
X4829000D01*
X5036000Y3709000D01*
Y3387000D01*
G01X4285000Y3571000D02*
X4920000D01*
G01X4215000Y3570000D02*
X4216000Y3571000D01*
X4285000D01*
G01X4135000Y3639000D02*
Y4947000D01*
X4711000Y5523000D01*
Y5724000D01*
G01X4366000Y3689000D02*
X4856000D01*
G01X4270000Y4266000D02*
X5913000D01*
G01X4822000Y5872000D02*
Y5371000D01*
X4398000Y4947000D01*
Y4734000D01*
G01X4366000Y6089000D02*
X4273200D01*
X4272700Y6089500D01*
X4120000D01*
G01X6707520Y6098520D02*
X6677320Y6128720D01*
X4448420D01*
X4408700Y6089000D01*
X4366000D01*
G01X4372000Y6204000D02*
X4273200D01*
X4272700Y6204500D01*
X4120000D01*
G01X6595000Y6307000D02*
Y6393300D01*
X6439300Y6549000D01*
X4360000D01*
X4359500Y6549500D01*
X4120000D01*
G01X6419000Y6623000D02*
X6377500Y6664500D01*
X4120000D01*
G01Y6434500D02*
X5148000D01*
G01X6494850Y6743850D02*
X6459200Y6779500D01*
X4120000D01*
G01X4841000Y2133000D02*
Y2591000D01*
X4771000Y2661000D01*
X4535000D01*
G01X4693000Y2133000D02*
Y2570000D01*
X4652000Y2611000D01*
X4535000D01*
G01X4609000Y2458000D02*
X4566300D01*
X4535000Y2489300D01*
Y2561000D01*
G01X4920000Y957000D02*
Y1014700D01*
X4983130Y1077830D01*
Y2676870D01*
X4899000Y2761000D01*
X4535000D01*
G01X5114000Y957000D02*
Y1014700D01*
X5050870Y1077830D01*
Y2712130D01*
X4952000Y2811000D01*
X4535000D01*
G01X5394000Y2980000D02*
X5384000Y2990000D01*
X5264000D01*
X5135000Y2861000D01*
X4535000D01*
G01Y2961000D02*
X4787000D01*
X4892000Y3066000D01*
X4951000D01*
G01X4535000Y3011000D02*
X4713000D01*
X4939000Y3237000D01*
X5036000D01*
G01X4745000Y3226000D02*
Y3165000D01*
X4691000Y3111000D01*
X4535000D01*
G01X5117000Y6016810D02*
Y5152990D01*
X5005010Y5041000D01*
X4843000D01*
X4700000Y4898000D01*
Y4734000D01*
G01X5117000Y6016810D02*
X4491810D01*
X4444500Y5969500D01*
G01X4886000Y5872000D02*
X4822000D01*
G01X4711000Y6929000D02*
Y7605000D01*
G01X4978000Y7945000D02*
X4777000D01*
X4711000Y7879000D01*
Y7715000D01*
G01X5114000Y957000D02*
X5280000D01*
X5379000Y858000D01*
Y333000D01*
G01X5361000Y1701000D02*
X5201000D01*
X5121000Y1781000D01*
Y2784000D01*
G01X5394000Y3561000D02*
X5316300D01*
X5277000Y3521700D01*
Y3127000D01*
X5216000Y3066000D01*
X4951000D01*
G01X5181000Y3237000D02*
X5180000Y3236000D01*
X5037000D01*
X5036000Y3237000D01*
G01X4978000Y5949000D02*
Y5235000D01*
X4934000Y5191000D01*
G01X5141000Y4949000D02*
X5866000D01*
X5913000Y4902000D01*
Y4774000D01*
G01X5279000Y5061000D02*
X6000000D01*
X6076000Y4985000D01*
Y4559000D01*
X6037000Y4520000D01*
X5913000D01*
G01X6910500Y5267500D02*
X6816000Y5362000D01*
X5240000D01*
G01X6832000Y5917000D02*
X6732190Y6016810D01*
X5117000D01*
G01X5254000Y7086000D02*
X4978000D01*
G01D02*
Y6915000D01*
G01Y7945000D02*
Y7086000D01*
G01X5205000Y7945000D02*
X6115000D01*
G01X5205000D02*
X4978000D01*
G01X5361000Y2463000D02*
X5553000D01*
X5631000Y2541000D01*
Y2742000D01*
G01D02*
X5913000D01*
G01X5631000D02*
Y2833000D01*
G01X5394000Y2980000D02*
Y3411000D01*
G01X5580000Y2990000D02*
X5404000D01*
X5394000Y2980000D01*
G01X5377000Y5255000D02*
X6602000D01*
X6678000Y5179000D01*
G01X6340000Y7067000D02*
X6214000Y7193000D01*
X5863000D01*
X98000Y570000D03*
X280000Y503000D03*
X98000Y1229000D03*
Y899000D03*
Y1558000D03*
Y1888000D03*
Y2547000D03*
Y2217000D03*
Y2876000D03*
Y3535000D03*
Y3205000D03*
Y3864000D03*
Y4194000D03*
Y4852000D03*
Y4523000D03*
X286000Y5230000D03*
X98000Y5182000D03*
X286000Y5510000D03*
X98000Y5511000D03*
X284000Y5846000D03*
X98000Y6170000D03*
Y5841000D03*
Y6499000D03*
Y6829000D03*
Y7488000D03*
Y7158000D03*
X273000Y7566000D03*
X98000Y7817000D03*
X758000Y222000D03*
X504000Y297000D03*
X515000Y94000D03*
X753000Y711000D03*
X754000Y441000D03*
X746000Y1029000D03*
X805000Y1691000D03*
X765000Y1381000D03*
X756000Y1888000D03*
Y2547000D03*
Y2217000D03*
Y2876000D03*
Y3205000D03*
X764000Y5710000D03*
X524600Y6240000D03*
X756000Y6170000D03*
X688000Y6446000D03*
X426000Y6829000D03*
Y7488000D03*
Y7817000D03*
Y8146000D03*
X756000D03*
X854000Y94000D03*
X1195000D03*
X1081000Y1747000D03*
X950000Y2219000D03*
X909000Y3494000D03*
X1002000Y4200000D03*
X990000Y4837000D03*
X988000Y4470000D03*
X1098000Y5238000D03*
X888000Y5457000D03*
X1086000Y6807000D03*
X1085000Y7488000D03*
Y7817000D03*
Y8146000D03*
X1537000Y94000D03*
X1718000Y613000D03*
X1323000Y438000D03*
X1326000Y664000D03*
X1321000Y959000D03*
X1326000Y1233000D03*
X1467000Y1719000D03*
X1325000Y1419000D03*
X1380500Y1524500D03*
X1318000Y1970000D03*
X1674000Y1879000D03*
X1312000Y2219000D03*
X1398000Y2526000D03*
X1417000Y2969000D03*
X1457000Y3227000D03*
X1410000Y3386000D03*
X1413000Y3862000D03*
X1410000Y3627000D03*
X1413000Y4192000D03*
X1636000Y4361000D03*
X1413000Y4520000D03*
X1630000Y5011000D03*
X1413000Y6168000D03*
Y5839000D03*
X1410000Y6811000D03*
X1415000Y7488000D03*
Y7817000D03*
Y8146000D03*
X1981000Y285000D03*
X1744000Y241000D03*
X1874000Y94000D03*
X1930000Y638000D03*
X1797000Y686000D03*
X1729000Y1004000D03*
X1894000Y1694000D03*
X1742000Y1614000D03*
X2007500Y1861500D03*
X1989000Y2002000D03*
X1744000Y2217000D03*
X1743000Y2420000D03*
X1821000Y2965000D03*
X2014000Y2862000D03*
X1999000Y3310000D03*
X1856000Y3325000D03*
X1858000Y3581000D03*
X1744000Y4194000D03*
X2073000Y4852000D03*
X1863000Y5342000D03*
X1744000Y5841000D03*
Y6170000D03*
X2073000D03*
Y5841000D03*
X1972500Y6992500D03*
X1972000Y6715000D03*
X2073000Y6816000D03*
X1744000Y6813000D03*
X2150000Y7314000D03*
X2073000Y7817000D03*
X1744000Y8146000D03*
X2073000D03*
X2557000Y94000D03*
X2207000Y1205000D03*
X2509000Y1550000D03*
X2248000Y1365000D03*
X2597000Y2488000D03*
X2571000Y2205000D03*
X2218000Y2433000D03*
X2240000Y2867000D03*
X2514000Y2891000D03*
X2527000Y3293000D03*
X2212000Y3098000D03*
X2173000Y3358000D03*
X2175000Y3677000D03*
X2463000Y3681000D03*
X2411000Y4205000D03*
X2403000Y4852000D03*
X2616000Y5255000D03*
X2403000Y5182000D03*
X2448000Y5362000D03*
X2564000Y6549500D03*
X2266000Y6668000D03*
X2605000Y6959000D03*
X2616500Y6779500D03*
X2368000Y7422000D03*
X2403000Y7817000D03*
Y8146000D03*
X2899000Y94000D03*
X2846000Y355000D03*
X2986000Y652000D03*
X2828000Y568000D03*
X2734000Y1019000D03*
X2787000Y1217000D03*
X2804000Y1316000D03*
X2715000Y1534000D03*
X2940000Y2030000D03*
X2683350Y2172650D03*
X2859000Y2184000D03*
X3058000Y1888000D03*
X2941000Y2444000D03*
X2938500Y3045500D03*
X2972000Y2843000D03*
X2946000Y2705000D03*
X3066210Y3193000D03*
X2732000Y3205000D03*
X2964000Y3207000D03*
X2976000Y3681000D03*
X2732000Y4194000D03*
X3058000D03*
X2732000Y4852000D03*
X2839500Y4949500D03*
X2983000Y5061000D03*
X3005000Y5173000D03*
X2831000Y5082000D03*
X2976000Y5726000D03*
X2634000Y5845000D03*
X2639000Y6434500D03*
X2721000Y7112000D03*
X2732000Y7225000D03*
Y7817000D03*
X3058000D03*
X2732000Y8146000D03*
X3058000D03*
X3506000Y93000D03*
X3240000Y94000D03*
X3503000Y263000D03*
X3487000Y652000D03*
X3282000Y1306000D03*
X3377000Y1443000D03*
X3268000Y2058000D03*
X3372000Y2165000D03*
X3118000Y2443000D03*
X3456000Y2262000D03*
Y2537000D03*
X3146000Y2324000D03*
X3366000Y2463000D03*
X3248000Y2882000D03*
X3351000Y3054000D03*
X3085000Y2884000D03*
X3460000Y3238000D03*
X3230000Y3490000D03*
X3453000Y3789000D03*
X3398000Y3987000D03*
X3506000Y3577000D03*
X3244000Y3678000D03*
X3388000Y4852000D03*
Y5182000D03*
X3442500Y5627000D03*
X3521000Y5539000D03*
X3318000Y5540000D03*
X3500000Y6492000D03*
X3265000D03*
X3500000Y6697000D03*
Y6287000D03*
X3265000Y6697000D03*
Y6287000D03*
X3327000Y7296000D03*
X3337000Y7516000D03*
X3344000Y7805000D03*
X3345000Y8145000D03*
X3776000Y95000D03*
X3791000Y1102000D03*
X3586000Y1195000D03*
X3729000Y1678000D03*
X3885000Y1798000D03*
X3815000Y2003000D03*
X3568000Y2467000D03*
X3672000Y2330000D03*
X3810000Y2537000D03*
X3859000Y2779000D03*
X3551000Y3110000D03*
X3736000Y3368000D03*
X3760000Y3237000D03*
X3816000Y4145000D03*
X3717000Y4852000D03*
X3855500Y5676500D03*
X3735000Y6492000D03*
Y6697000D03*
Y6287000D03*
X3765000Y7354000D03*
X3641500Y7379500D03*
X3679000Y7523000D03*
X3687000Y7803000D03*
Y8145000D03*
X4096000Y90000D03*
X4266000Y53000D03*
X4095000Y670000D03*
X4007000Y1153000D03*
X4189000Y976000D03*
X4008000Y1673000D03*
X4006000Y1482000D03*
X4017000Y1925000D03*
X3987000Y1774000D03*
X4385000Y2165000D03*
X3978000Y2235000D03*
X4101000Y2253000D03*
X4043000Y3467000D03*
X4208000Y3462000D03*
X4392000Y3457000D03*
X4295000Y3916000D03*
X4215000Y3570000D03*
X4366000Y3689000D03*
X4049000Y3987000D03*
X4384000Y3980000D03*
X4270000Y4266000D03*
X4046000Y4852000D03*
X4117000Y5158000D03*
X4338000Y5526000D03*
X4050000Y5779000D03*
X4366000Y6089000D03*
X4372000Y6204000D03*
X4299000Y5976000D03*
X4257000Y7073000D03*
X4052000Y7213000D03*
X4129000Y7529000D03*
X4128000Y7803000D03*
Y8144000D03*
X4716000Y680000D03*
X4705000Y1229000D03*
Y1558000D03*
X4492000Y2407000D03*
X4766000Y2228000D03*
X4765000Y2553000D03*
X4609000Y2458000D03*
X4639000Y3460000D03*
X4638000Y3210000D03*
X4745000Y3226000D03*
X4512000Y3472000D03*
X4856000Y3689000D03*
X4674000Y3981000D03*
X4711000Y5724000D03*
X4519000Y5601000D03*
X4549000Y5730000D03*
X4444500Y5969500D03*
X4445000Y6331000D03*
X4791000D03*
X4711000Y6929000D03*
X4489000Y6964000D03*
X4847000D03*
X4851000Y7525000D03*
X4478000Y7527000D03*
X4485000Y7814000D03*
X4470000Y8144000D03*
X4705000Y8146000D03*
X4893000Y347000D03*
X4907000Y49000D03*
X5217000Y666000D03*
X5121000Y2784000D03*
X4951000Y2934000D03*
X4996000Y3147000D03*
X4920000Y3571000D03*
X5035000Y3864000D03*
Y4852000D03*
X4934000Y5191000D03*
X5141000Y4949000D03*
X5279000Y5061000D03*
X5035000Y5182000D03*
X5240000Y5362000D03*
X4898000Y5740000D03*
X4978000Y5949000D03*
X4886000Y5872000D03*
X5148000Y6434500D03*
X5063000Y6327000D03*
X4978000Y6915000D03*
X5065000Y7816000D03*
X5035000Y8146000D03*
X5707000Y237000D03*
X5364000Y1229000D03*
X5558000Y918000D03*
X5694000Y2217000D03*
X5631000Y2833000D03*
X5364000Y3864000D03*
Y4852000D03*
Y4523000D03*
X5377000Y5255000D03*
X5397000Y5140000D03*
X5357000Y5735000D03*
X5474000Y6322000D03*
X5674000Y6962000D03*
X5694000Y7486000D03*
X5364000Y7484000D03*
X5694000Y7815000D03*
X5364000Y7814000D03*
Y8146000D03*
X5694000D03*
X5972000Y94000D03*
X6195000Y3422000D03*
X6181000Y3705000D03*
X6098000Y4209000D03*
X6023000Y5182000D03*
Y5511000D03*
Y6196000D03*
Y5841000D03*
X6021000Y6483000D03*
X5863000Y7193000D03*
X6023000Y7814000D03*
Y8146000D03*
X6399000Y238000D03*
X6540000Y381000D03*
X6313000Y94000D03*
X6354000Y586000D03*
X6352000Y899000D03*
Y1229000D03*
X6350000Y1697000D03*
Y1461000D03*
X6347000Y1955000D03*
X6352000Y2547000D03*
Y2876000D03*
Y3205000D03*
X6595000Y6307000D03*
X6419000Y6623000D03*
X6494850Y6743850D03*
X6340000Y7067000D03*
X6352000Y7488000D03*
X6463000Y7936000D03*
X6352000Y8146000D03*
X6746000Y515000D03*
X6942000Y568000D03*
X6682000Y1229000D03*
X6910500Y5267500D03*
X6678000Y5179000D03*
X6682000Y5511000D03*
X6707520Y6098520D03*
X6683000Y6194000D03*
X6682000Y5841000D03*
X6832000Y5917000D03*
X6682000Y6499000D03*
Y6829000D03*
Y7488000D03*
Y7158000D03*
X6675000Y7755000D03*
G54D12*
X846000Y7037000D03*
Y7187000D03*
X1242000Y4865000D03*
Y4715000D03*
X1580000Y1640000D03*
Y1790000D03*
X1571000Y3077000D03*
X1749000D03*
X1571000Y3227000D03*
X1749000D03*
X1404000Y4865000D03*
Y4715000D03*
X1557000Y5304000D03*
Y5154000D03*
X1797000Y323000D03*
X2097000Y688000D03*
Y538000D03*
X1797000Y473000D03*
X1826000Y2082000D03*
Y1932000D03*
X2227000Y242000D03*
Y92000D03*
X2417000Y743000D03*
Y593000D03*
X2550000Y743000D03*
Y593000D03*
X2575000Y1623000D03*
Y1473000D03*
X2441000Y1623000D03*
Y1473000D03*
X2444000Y4404000D03*
Y4554000D03*
X2993000Y1571000D03*
Y1421000D03*
X2705000Y2581000D03*
Y2444000D03*
Y2294000D03*
Y2731000D03*
X3250000Y1571000D03*
Y1421000D03*
X3283000Y3992000D03*
Y3842000D03*
X3877000Y4404000D03*
Y4554000D03*
X4185000Y2094000D03*
Y1944000D03*
X4693000Y2133000D03*
Y1983000D03*
X4841000Y2133000D03*
Y1983000D03*
X5254000Y7086000D03*
Y6936000D03*
X5394000Y3561000D03*
Y3411000D03*
G54D30*
X2880000Y6089500D03*
Y6204500D03*
Y6319500D03*
Y6434500D03*
Y6549500D03*
Y6664500D03*
Y6779500D03*
Y6894500D03*
X4120000Y6204500D03*
Y6089500D03*
Y6664500D03*
Y6549500D03*
Y6434500D03*
Y6319500D03*
Y6894500D03*
Y6779500D03*
G54D21*
X2097000Y835000D03*
Y1065000D03*
X2192000D03*
X2287000Y835000D03*
Y1065000D03*
G54D40*
X3694000Y4151000D03*
X4711000Y7725000D03*
X5394000Y2990000D03*
G54D13*
X885000Y7495000D03*
Y7945000D03*
X1795000Y7495000D03*
Y7945000D03*
X5205000Y7495000D03*
Y7945000D03*
X6115000Y7495000D03*
Y7945000D03*
G54D22*
X2129000Y2054000D03*
G54D31*
X3500000Y889000D03*
X3420000D03*
X3340000D03*
X3660000D03*
X3580000D03*
G54D32*
X3466000Y1742000D03*
X3276000D03*
X3371000Y1942000D03*
G54D14*
X1087000Y304000D03*
Y558000D03*
Y812000D03*
Y1066000D03*
Y1320000D03*
X1086000Y2082000D03*
Y2336000D03*
Y2590000D03*
Y2844000D03*
Y3098000D03*
Y3352000D03*
Y3606000D03*
X1545000Y831000D03*
Y577000D03*
Y1339000D03*
Y1085000D03*
X1546000Y2082000D03*
Y2336000D03*
X4413000Y1305000D03*
Y1559000D03*
Y1813000D03*
X5361000Y2209000D03*
Y1955000D03*
Y2463000D03*
X5913000Y812000D03*
Y558000D03*
Y1320000D03*
Y1066000D03*
Y1574000D03*
Y2082000D03*
Y1828000D03*
Y2996000D03*
Y2742000D03*
Y3504000D03*
Y3250000D03*
Y4012000D03*
Y3758000D03*
Y4266000D03*
Y4774000D03*
Y4520000D03*
G54D41*
X3805000Y7500000D03*
Y7585000D03*
Y7670000D03*
Y7755000D03*
Y7840000D03*
Y7925000D03*
Y8011000D03*
Y8096000D03*
Y8182000D03*
X4000000Y7500000D03*
Y7585000D03*
Y7670000D03*
Y7755000D03*
Y7840000D03*
Y7926000D03*
Y8011000D03*
Y8097000D03*
Y8182000D03*
G54D23*
X1960000Y2337500D03*
Y2464500D03*
Y2591500D03*
Y2718500D03*
X2460000Y2591500D03*
Y2464500D03*
Y2337500D03*
Y2718500D03*
G54D15*
X1087000Y1574000D03*
X1086000Y3860000D03*
X1545000Y323000D03*
X1546000Y2590000D03*
X4413000Y1051000D03*
X5361000Y1701000D03*
X5913000Y304000D03*
Y2488000D03*
G54D24*
X1783000Y4715000D03*
G54D42*
X3903000Y8131500D03*
G54D33*
X3442500Y5872000D03*
X3327500D03*
X3212500D03*
X3097500D03*
Y7112000D03*
X3212500D03*
X3327500D03*
X3442500D03*
X3902500Y5872000D03*
X3787500D03*
X3672500D03*
X3557500D03*
Y7112000D03*
X3672500D03*
X3787500D03*
X3902500D03*
G54D43*
X4429000Y333000D03*
X5379000D03*
G54D34*
X3265000Y6287000D03*
X3735000D03*
X3736000Y6697000D03*
G54D25*
X1783000Y4845000D03*
G54D16*
X1242000Y5154000D03*
Y5304000D03*
X974000Y5011000D03*
Y5161000D03*
X1035000Y7037000D03*
Y7187000D03*
X1557000Y4715000D03*
Y4865000D03*
X1404000Y5154000D03*
Y5304000D03*
X2098000Y242000D03*
Y392000D03*
X2048000Y3817000D03*
Y3967000D03*
X1881000Y3817000D03*
Y3967000D03*
X2574000Y1217000D03*
X2441000D03*
X2479000Y933000D03*
Y1083000D03*
X2619000Y933000D03*
Y1083000D03*
X2574000Y1367000D03*
X2441000D03*
X2241000Y3435000D03*
X2478000D03*
X2241000Y3585000D03*
X2478000D03*
X2595000Y3843000D03*
Y3993000D03*
X2687000Y593000D03*
Y743000D03*
X3067000Y3842000D03*
Y3992000D03*
X2818000Y3843000D03*
Y3993000D03*
X3500000Y1421000D03*
Y1571000D03*
X3121000Y1421000D03*
Y1571000D03*
X3268000Y2386000D03*
Y2536000D03*
X3213000Y3204000D03*
Y3354000D03*
X3638000Y1421000D03*
Y1571000D03*
X3775000Y1421000D03*
Y1571000D03*
X3838000Y3639000D03*
Y3789000D03*
X5114000Y807000D03*
X4920000D03*
X5114000Y957000D03*
X4920000D03*
X5036000Y3237000D03*
Y3387000D03*
X5181000Y3237000D03*
Y3387000D03*
X5580000Y2990000D03*
Y3140000D03*
G54D44*
G01X974000Y5870000D02*
Y5161000D01*
G01X1761000Y3414000D02*
X1999000D01*
G01X4951000Y3066000D02*
Y2934000D01*
G54D17*
X974000Y5870000D03*
Y6124000D03*
X2324000Y3843000D03*
Y4097000D03*
X2266000Y4951000D03*
Y5205000D03*
X4398000Y4480000D03*
Y4734000D03*
X4700000Y4480000D03*
Y4734000D03*
G54D26*
X2686800Y388400D03*
X2388000Y392000D03*
Y242000D03*
X2688000D03*
G54D35*
X3265000Y6697000D03*
G54D45*
G01X742200Y7495000D02*
X885000D01*
G01X1086000Y2336000D02*
X1193800D01*
G01X978200D02*
X1086000D01*
G01D02*
Y2443800D01*
G01Y2228200D02*
Y2336000D01*
G01Y2590000D02*
X1193800D01*
G01X978200D02*
X1086000D01*
G01D02*
Y2697800D01*
G01Y2482200D02*
Y2590000D01*
G01X1242000Y4715000D02*
Y4782800D01*
G01Y4647200D02*
Y4715000D01*
G01X1159200D02*
X1242000D01*
G01Y4865000D02*
X1404000D01*
G01X1242000D02*
Y5011000D01*
G01Y5304000D02*
Y5371800D01*
G01Y5236200D02*
Y5304000D01*
G01X1159200D02*
X1242000D01*
G01Y5154000D02*
X1404000D01*
G01X974000Y5011000D02*
X1242000D01*
G01D02*
X1404000D01*
G01X1035000Y7119200D02*
Y7187000D01*
G01X885000Y7495000D02*
X1027800D01*
G01X885000D02*
Y7602800D01*
G01Y7387200D02*
Y7495000D01*
G01X1035000Y7187000D02*
Y7254800D01*
G01Y7187000D02*
X1117800D01*
G01X952200D02*
X1035000D01*
G01X1545000Y577000D02*
X1652800D01*
G01X1437200D02*
X1545000D01*
G01D02*
Y684800D01*
G01Y469200D02*
Y577000D01*
G01X1546000Y2590000D02*
X1845800D01*
X1847300Y2591500D01*
X1960000D01*
G01X1571000Y3077000D02*
Y3144800D01*
G01Y3009200D02*
Y3077000D01*
G01D02*
X1653800D01*
G01X1488200D02*
X1571000D01*
G01X1666200D02*
X1749000D01*
G01X1666000Y3544000D02*
X1828800D01*
G01X1503200D02*
X1666000D01*
G01X1571000Y3227000D02*
X1749000D01*
G01X1571000D02*
X1457000D01*
G01X1404000Y4715000D02*
Y4782800D01*
G01Y4647200D02*
Y4715000D01*
G01X1557000Y4865000D02*
Y4932800D01*
G01Y4797200D02*
Y4865000D01*
G01D02*
X1639800D01*
G01X1404000Y5304000D02*
Y5371800D01*
G01Y5236200D02*
Y5304000D01*
G01Y5154000D02*
X1557000D01*
G01X1404000Y5011000D02*
X1630000D01*
G01X1404000Y5154000D02*
Y5011000D01*
G01X1652200Y7495000D02*
X1795000D01*
G01X2097000Y538000D02*
Y605800D01*
G01Y470200D02*
Y538000D01*
G01D02*
X2179800D01*
G01X2014200D02*
X2097000D01*
G01X1826000Y1932000D02*
Y1999800D01*
G01Y1864200D02*
Y1932000D01*
G01D02*
X1908800D01*
G01X1743200D02*
X1826000D01*
G01X1960000Y2464500D02*
Y2337500D01*
G01Y2591500D02*
Y2464500D01*
G01Y2718500D02*
Y2591500D01*
G01X1749000Y3077000D02*
Y3144800D01*
G01Y3009200D02*
Y3077000D01*
G01D02*
X1831800D01*
G01X2241000Y3227000D02*
X1749000D01*
G01X1999000Y3414000D02*
Y3624000D01*
X1949000Y3674000D01*
X1881000D01*
G01X1999000Y3414000D02*
Y3310000D01*
G01X2048000Y3967000D02*
Y4034800D01*
G01Y3899200D02*
Y3967000D01*
G01D02*
X2130800D01*
G01X1965200D02*
X2048000D01*
G01X1881000D02*
Y4034800D01*
G01Y3899200D02*
Y3967000D01*
G01D02*
X1963800D01*
G01X1798200D02*
X1881000D01*
G01Y3674000D02*
X1761000D01*
G01X1795000Y7495000D02*
X1937800D01*
G01X1795000D02*
Y7602800D01*
G01Y7387200D02*
Y7495000D01*
G01X2575200Y242000D02*
X2688000D01*
G01X2417000Y593000D02*
Y660800D01*
G01Y525200D02*
Y593000D01*
G01X2334200D02*
X2417000D01*
G01X2550000D02*
Y660800D01*
G01Y525200D02*
Y593000D01*
G01X2287000Y835000D02*
X2417000D01*
G01D02*
X2479000D01*
G01D02*
X2550000D01*
G01X2687000D02*
X2619000D01*
G01X2550000D02*
X2619000D01*
G01X2479000Y1083000D02*
Y1150800D01*
G01Y1015200D02*
Y1083000D01*
G01X2396200D02*
X2479000D01*
G01X2619000D02*
Y1150800D01*
G01Y1015200D02*
Y1083000D01*
G01D02*
X2701800D01*
G01X2574000Y1299200D02*
Y1367000D01*
G01X2441000Y1299200D02*
Y1367000D01*
G01Y1217000D02*
X2574000D01*
G01D02*
X2787000D01*
G01X2575000Y1473000D02*
Y1540800D01*
G01Y1473000D02*
X2657800D01*
G01X2574000Y1367000D02*
X2656800D01*
G01X2358200D02*
X2441000D01*
G01X2249000Y2054000D02*
X2460000D01*
G01D02*
X2628000D01*
X2860000Y1822000D01*
Y1424000D01*
G01X2460000Y2054000D02*
Y2337500D01*
G01Y2464500D02*
Y2337500D01*
G01Y2591500D02*
Y2464500D01*
G01X2478000Y3435000D02*
Y3502800D01*
G01Y3367200D02*
Y3435000D01*
G01D02*
X2560800D01*
G01X2395200D02*
X2478000D01*
G01X2241000Y3227000D02*
X2461000D01*
X2527000Y3293000D01*
G01X2241000Y3585000D02*
X2478000D01*
G01X2444000Y4404000D02*
Y4471800D01*
G01Y4336200D02*
Y4404000D01*
G01D02*
X2526800D01*
G01X2361200D02*
X2444000D01*
G01X2688000Y242000D02*
X2800800D01*
G01X2688000Y149200D02*
Y242000D01*
G01X3055000Y324000D02*
X3192800D01*
G01X2917200D02*
X3055000D01*
G01D02*
Y486800D01*
G01Y161200D02*
Y324000D01*
G01Y711200D02*
Y874000D01*
G01X2787000Y1217000D02*
X2828000Y1176000D01*
Y835000D01*
G01D02*
X2687000D01*
G01X2828000D02*
Y568000D01*
G01X3055000Y874000D02*
X3192800D01*
G01X2917200D02*
X3055000D01*
G01D02*
Y1036800D01*
G01X3340000Y889000D02*
Y1036700D01*
X3272700Y1104000D01*
X3077000D01*
X2993000Y1188000D01*
Y1421000D01*
G01D02*
Y1424000D01*
X2860000D01*
G01D02*
X2725000D01*
G01X2993000Y1571000D02*
X3121000D01*
G01X2818000Y3843000D02*
Y3910800D01*
G01Y3775200D02*
Y3843000D01*
G01D02*
X2900800D01*
G01X2735200D02*
X2818000D01*
G01X2880000Y6664500D02*
X3032800D01*
G01X2727200D02*
X2880000D01*
G01Y6894500D02*
X3032800D01*
G01X2727200D02*
X2880000D01*
G01D02*
Y6964800D01*
G01X3121000Y1421000D02*
Y1488800D01*
G01Y1353200D02*
Y1421000D01*
G01X3638000D02*
X3624000D01*
X3623000Y1422000D01*
X3503000D01*
X3502000Y1421000D01*
X3500000D01*
G01X3466000Y1742000D02*
X3467000Y1741000D01*
Y1681300D01*
X3500000Y1648300D01*
Y1571000D01*
G01X3250000D02*
X3121000D01*
G01X3250000D02*
Y1654300D01*
X3276000Y1680300D01*
Y1742000D01*
G01X3372000Y2165000D02*
Y2025700D01*
X3371000Y2024700D01*
Y1942000D01*
G01X3283000Y3842000D02*
Y3909800D01*
G01Y3774200D02*
Y3842000D01*
G01D02*
X3365800D01*
G01X3200200D02*
X3283000D01*
G01X3442500Y5627000D02*
Y5872000D01*
G01X3265000Y6124200D02*
Y6287000D01*
G01D02*
X3427800D01*
G01X3102200D02*
X3265000D01*
G01D02*
Y6449800D01*
G01Y6697000D02*
X3427800D01*
G01X3102200D02*
X3265000D01*
G01D02*
Y6859800D01*
G01Y6534200D02*
Y6697000D01*
G01X3478000Y7980000D02*
X3585800D01*
G01X3370200D02*
X3478000D01*
G01Y7692200D02*
Y7980000D01*
G01X3945000Y324000D02*
X4082800D01*
G01X3807200D02*
X3945000D01*
G01D02*
Y486800D01*
G01Y161200D02*
Y324000D01*
G01Y711200D02*
Y874000D01*
G01X3660000Y741200D02*
Y889000D01*
G01X3945000Y874000D02*
X4082800D01*
G01X3807200D02*
X3945000D01*
G01D02*
Y1036800D01*
G01X3660000Y889000D02*
X3722800D01*
G01X3660000D02*
Y1036800D01*
G01X3775000Y1571000D02*
Y1638800D01*
G01Y1503200D02*
Y1571000D01*
G01D02*
X3857800D01*
G01X3877000Y4404000D02*
Y4471800D01*
G01Y4336200D02*
Y4404000D01*
G01D02*
X3959800D01*
G01X3794200D02*
X3877000D01*
G01X3735000Y6124200D02*
Y6287000D01*
G01D02*
X3897800D01*
G01X3572200D02*
X3735000D01*
G01D02*
Y6449800D01*
G01X3736000Y6697000D02*
X3898800D01*
G01X3573200D02*
X3736000D01*
G01D02*
Y6859800D01*
G01Y6534200D02*
Y6697000D01*
G01X3967200Y6319500D02*
X4120000D01*
G01X3967200Y6894500D02*
X4120000D01*
G01X4413000Y1559000D02*
X4520800D01*
G01X4305200D02*
X4413000D01*
G01D02*
Y1666800D01*
G01Y1451200D02*
Y1559000D01*
G01X4185000Y1944000D02*
Y2011800D01*
G01Y1876200D02*
Y1944000D01*
G01D02*
X4267800D01*
G01X4035000Y3261000D02*
Y3358800D01*
G01Y3163200D02*
Y3261000D01*
G01X4120000Y6319500D02*
X4272800D01*
G01X4120000Y6894500D02*
X4272800D01*
G01X4120000D02*
Y6964800D01*
G01X4220200Y7980000D02*
X4328000D01*
G01Y7692200D02*
Y7980000D01*
G01D02*
X4425700D01*
G01X4837200Y807000D02*
X4920000D01*
G01X4693000Y1983000D02*
Y2050800D01*
G01Y1915200D02*
Y1983000D01*
G01X4610200D02*
X4693000D01*
G01X4841000D02*
Y2050800D01*
G01Y1915200D02*
Y1983000D01*
G01D02*
X4923800D01*
G01X5114000Y807000D02*
Y874800D01*
G01Y739200D02*
Y807000D01*
G01D02*
X5196800D01*
G01X5031200D02*
X5114000D01*
G01X4920000D02*
Y874800D01*
G01Y739200D02*
Y807000D01*
G01D02*
X5002800D01*
G01X5316200Y2870000D02*
X5394000D01*
G01X5181000Y3387000D02*
Y3454800D01*
G01Y3319200D02*
Y3387000D01*
G01X5254000Y6936000D02*
Y7003800D01*
G01Y6868200D02*
Y6936000D01*
G01D02*
X5336800D01*
G01X5171200D02*
X5254000D01*
G01X5205000Y7495000D02*
X5347800D01*
G01X5062200D02*
X5205000D01*
G01D02*
Y7602800D01*
G01Y7387200D02*
Y7495000D01*
G01X5394000Y2757200D02*
Y2870000D01*
G01D02*
X5471800D01*
G01X5580000Y3072200D02*
Y3140000D01*
G01D02*
Y3207800D01*
G01Y3140000D02*
X5662800D01*
G01X5497200D02*
X5580000D01*
G01X5913000Y3904200D02*
Y4012000D01*
G01D02*
X6020800D01*
G01X5805200D02*
X5913000D01*
G01D02*
Y4119800D01*
G01X6115000Y7495000D02*
X6257800D01*
G01X5972200D02*
X6115000D01*
G01D02*
Y7602800D01*
G01Y7387200D02*
Y7495000D01*
G54D36*
X3478000Y7980000D03*
X4328000D03*
G54D27*
X2259000Y2054000D03*
G54D18*
X1343000Y1640000D03*
Y1840000D03*
X2725000Y1624000D03*
Y1424000D03*
G54D46*
G01X3903000Y8131500D02*
Y7270200D01*
X3902500Y7269700D01*
Y7112000D01*
G54D19*
X1666000Y3544000D03*
G54D28*
X3055000Y324000D03*
Y874000D03*
X3945000Y324000D03*
Y874000D03*
G54D37*
X3935000Y2411000D03*
X3885000D03*
X3835000D03*
Y3261000D03*
X3885000D03*
X3935000D03*
X4385000Y2411000D03*
X4335000D03*
X4285000D03*
X4235000D03*
X4185000D03*
X4135000D03*
X4085000D03*
X4035000D03*
X3985000D03*
Y3261000D03*
X4035000D03*
X4085000D03*
X4135000D03*
X4185000D03*
X4235000D03*
X4285000D03*
X4335000D03*
X4385000D03*
G54D47*
G01X0Y8250000D02*
Y0D01*
X7000000D01*
Y8250000D01*
X0D01*
G54D29*
X2912000Y4554000D03*
X3400000D03*
G54D38*
X3685000Y2561000D03*
Y2611000D03*
Y2661000D03*
Y2711000D03*
Y2761000D03*
Y2811000D03*
Y2861000D03*
Y2911000D03*
Y2961000D03*
Y3011000D03*
Y3061000D03*
Y3111000D03*
X4535000Y2611000D03*
Y2561000D03*
Y3061000D03*
Y3011000D03*
Y2961000D03*
Y2911000D03*
Y2861000D03*
Y2811000D03*
Y2761000D03*
Y2711000D03*
Y2661000D03*
Y3111000D03*
G54D39*
X3694000Y4021000D03*
X4711000Y7595000D03*
X5394000Y2860000D03*
M02*
