G04 ================== begin FILE IDENTIFICATION RECORD ==================*
G04 Layout Name:  certification_board.mcm*
G04 Film Name:    layer_botton*
G04 File Format:  Gerber RS274X*
G04 File Origin:  Cadence Allegro 17.2-S049*
G04 Origin Date:  Fri Jun 26 15:46:56 2020*
G04 *
G04 Layer:  VIA CLASS/BOT_COND*
G04 Layer:  PIN/BOT_COND*
G04 Layer:  CONDUCTOR/BOT_COND*
G04 *
G04 Offset:    (0.0000 0.0000)*
G04 Mirror:    No*
G04 Mode:      Positive*
G04 Rotation:  0*
G04 FullContactRelief:  No*
G04 UndefLineWidth:     0.1000*
G04 ================== end FILE IDENTIFICATION RECORD ====================*
%FSLAX25Y25*MOMM*%
%IR0*IPPOS*OFA0.00000B0.00000*MIA0B0*SFA1.00000B1.00000*%
%ADD10C,.4*%
%ADD12C,2.*%
%ADD13C,2.3*%
%ADD11C,1.5*%
%ADD14C,.5*%
%ADD15C,.8*%
%ADD16C,.325*%
%ADD17C,.65*%
%ADD18C,2.0504*%
%ADD21C,4.0504*%
%ADD20C,2.5504*%
%ADD19C,2.8504*%
G75*
%LPD*%
G75*
G36*
G01X600000Y7950000D02*
X6000000D01*
Y2800000D01*
X600000D01*
Y7950000D01*
G37*
%LPC*%
G75*
G36*
G01X4524400Y3855330D02*
X4159050D01*
G02Y3960370I0J52520D01*
G01X4546150D01*
G02X4583290Y3944990I0J-52533D01*
G01X4978440Y3549840D01*
G02X4993820Y3512700I-37153J-37140D01*
G01Y3292460D01*
X5013140Y3273140D01*
X5013160Y3273120D01*
G02X5043820Y3200000I-71861J-73120D01*
G02X4838780I-102520J0D01*
G02X4869440Y3273120I102521J0D01*
G01X4869460Y3273140D01*
X4888780Y3292460D01*
Y3490950D01*
X4524400Y3855330D01*
G37*
G36*
G01X2655250Y3302520D02*
X3144980Y3792250D01*
Y4518600D01*
G02X3250020I52520J0D01*
G01Y3770500D01*
G02X3234640Y3733360I-52533J0D01*
G01X2729520Y3228250D01*
Y3200000D01*
G02X2627000Y3302520I-102520J0D01*
G01X2655250D01*
G37*
G36*
G01X2312980Y5238800D02*
G02X2330560Y5281240I60017J0D01*
G01X2664260Y5614940D01*
G02X2706700Y5632520I42440J-42437D01*
G02X2766720Y5572500I0J-60020D01*
G02X2749140Y5530060I-60017J0D01*
G01X2433020Y5213940D01*
Y3283110D01*
G02X2475520Y3200000I-60012J-83110D01*
G02X2270480I-102520J0D01*
G02X2312980Y3283110I102512J0D01*
G01Y5238800D01*
G37*
G36*
G01X2104860Y5459940D02*
X2986760Y6341840D01*
G02X3034500Y6361620I47747J-47737D01*
G01X3317500D01*
G02X3352390Y6351910I5J-67521D01*
G01X3352440Y6351880D01*
X3361560Y6346620D01*
X3467100D01*
G02X3504240Y6331240I0J-52533D01*
G01X3579640Y6255840D01*
G02X3595020Y6218700I-37153J-37140D01*
G02X3542500Y6166180I-52520J0D01*
G02X3505360Y6181560I0J52533D01*
G01X3445350Y6241580D01*
X3361560D01*
X3352440Y6236320D01*
X3352390Y6236290D01*
G02X3317500Y6226580I-34885J57811D01*
G01X3062470D01*
X2220120Y5384230D01*
Y3704400D01*
G02X2085080I-67520J0D01*
G01Y5412200D01*
G02X2104860Y5459940I67517J-7D01*
G37*
G36*
G01X1843410Y5581290D02*
X2797160Y6535040D01*
G02X2844900Y6554820I47747J-47737D01*
G01X3318300D01*
G02X3353190Y6545110I5J-67521D01*
G01X3353240Y6545080D01*
X3362360Y6539820D01*
X3492200D01*
G02X3529340Y6524440I0J-52533D01*
G01X3694640Y6359140D01*
G02X3710020Y6322000I-37153J-37140D01*
G02X3657500Y6269480I-52520J0D01*
G02X3620360Y6284860I0J52533D01*
G01X3470450Y6434780D01*
X3362360D01*
X3353240Y6429520D01*
X3353190Y6429490D01*
G02X3318300Y6419780I-34885J57811D01*
G01X2872870D01*
X1958670Y5505580D01*
Y3674420D01*
X2087890Y3545190D01*
G02X2107670Y3497450I-47737J-47747D01*
G02X2040150Y3429930I-67520J0D01*
G02X1992410Y3449710I7J67517D01*
G01X1843410Y3598710D01*
G02X1823630Y3646450I47737J47747D01*
G01Y5533550D01*
G02X1843410Y5581290I67517J-7D01*
G37*
G36*
G01X1548310Y6299890D02*
X1814810Y6566390D01*
G02X1887300Y6596420I72490J-72478D01*
G01X2182700D01*
G02X2234440Y6582400I-10J-102517D01*
G01X2234460D01*
X2283790Y6553920D01*
X2569200D01*
G02Y6433880I0J-60020D01*
G01X2283790D01*
X2234460Y6405400D01*
X2234440D01*
G02X2182700Y6391380I-51750J88497D01*
G01X1929770D01*
X1723320Y6184930D01*
Y3361920D01*
G02X1723420Y3357500I-102418J-4528D01*
G01Y3200000D01*
G02X1518380I-102520J0D01*
G01Y3353180D01*
G02X1518280Y3357600I102418J4528D01*
G01Y6227400D01*
G02X1548310Y6299890I102508J0D01*
G37*
G54D18*
X4179300Y3200000D03*
X4433300D03*
X4687300D03*
X3373000D03*
X3627000D03*
X848200Y6777400D03*
Y6269400D03*
X1102300Y6777400D03*
Y6523400D03*
Y6269400D03*
Y6015400D03*
Y5761400D03*
Y5507400D03*
Y5253400D03*
Y4999400D03*
X1874900Y3200000D03*
X848200Y6015400D03*
Y5761400D03*
Y6523400D03*
Y5507400D03*
Y5253400D03*
Y4999400D03*
X5489200Y6107300D03*
Y6361300D03*
Y6615300D03*
Y6869300D03*
X848300Y3983400D03*
Y4237400D03*
Y4491400D03*
Y4745400D03*
X1102300D03*
Y4491400D03*
Y4237400D03*
Y3983400D03*
X5743200Y6107300D03*
Y6361300D03*
Y6615300D03*
Y6869300D03*
G54D21*
X1050000Y7500000D03*
X5500000D03*
X1055000Y3250000D03*
X5500000D03*
G54D20*
X4256500Y7574000D03*
Y7066000D03*
X3748500D03*
Y7574000D03*
G54D19*
X4002500Y7320000D03*
%LPD*%
G75*
G36*
G01X2283950Y6522050D02*
X2220200Y6558850D01*
G03Y6428950I-37500J-64950D01*
G01X2283950Y6465750D01*
G03Y6522050I-16250J28150D01*
G37*
G36*
G01X2677000Y3275000D02*
X2627000D01*
X2622580Y3195580D01*
X2702000Y3200000D01*
Y3250000D01*
G03X2677000Y3275000I-25000J0D01*
G37*
G36*
G01X3360000Y6315750D02*
X3337490Y6328730D01*
G03Y6259470I-19990J-34630D01*
G01X3360000Y6272450D01*
G03Y6315750I-12500J21650D01*
G37*
G36*
G01X3360800Y6508950D02*
X3338290Y6521930D01*
G03Y6452670I-19990J-34630D01*
G01X3360800Y6465650D01*
G03Y6508950I-12500J21650D01*
G37*
G36*
G01X4923620Y3288390D02*
X4888270Y3253030D01*
X4941300Y3193750D01*
X4994330Y3253030D01*
X4958980Y3288390D01*
G03X4923620I-17680J-17680D01*
G37*
G54D10*
X850000Y3650000D03*
X1150000D03*
Y6950000D03*
X1450000Y3050000D03*
Y3350000D03*
Y3650000D03*
Y4250000D03*
Y4550000D03*
Y4850000D03*
Y6350000D03*
Y6950000D03*
Y7250000D03*
Y7550000D03*
X1750000Y3050000D03*
Y3350000D03*
Y3650000D03*
Y4250000D03*
Y4550000D03*
Y4850000D03*
Y6950000D03*
Y7250000D03*
Y7550000D03*
X2050000Y3050000D03*
Y3650000D03*
X2040150Y3497450D03*
X2050000Y4250000D03*
Y4550000D03*
Y4850000D03*
Y6350000D03*
Y6950000D03*
Y7250000D03*
Y7550000D03*
X2350000Y3050000D03*
X2152600Y3704400D03*
X2350000Y6350000D03*
Y6950000D03*
Y7250000D03*
Y7550000D03*
X2569200Y6493900D03*
X2650000Y3050000D03*
Y4250000D03*
Y4550000D03*
Y4850000D03*
X2706700Y5572500D03*
X2650000Y6950000D03*
Y7250000D03*
Y7550000D03*
X2950000Y3050000D03*
Y4250000D03*
Y4550000D03*
Y4850000D03*
Y6050000D03*
Y6950000D03*
Y7250000D03*
Y7550000D03*
X3250000Y3050000D03*
X3197500Y4518600D03*
X3345800Y5165700D03*
X3174000Y5391200D03*
X3274000D03*
X3344000Y5634600D03*
X3250000Y7250000D03*
Y7550000D03*
X3550000Y3050000D03*
Y3950000D03*
X3445800Y5165700D03*
X3542700Y4979600D03*
X3642700D03*
X3557000Y5384000D03*
X3444000Y5634600D03*
X3549800Y5835100D03*
X3649800D03*
X3542500Y6218700D03*
X3550000Y6950000D03*
Y7250000D03*
Y7550000D03*
X3850000Y3050000D03*
Y3350000D03*
Y3650000D03*
X3862800Y5162100D03*
X3762800D03*
X3657000Y5384000D03*
X3893500Y5387600D03*
X3853900Y5631100D03*
X3753900D03*
X3902500Y6180000D03*
Y6420000D03*
Y6340000D03*
Y6260000D03*
X3657500Y6322000D03*
X3902500Y6660000D03*
Y6580000D03*
Y6500000D03*
Y6900000D03*
Y6820000D03*
Y6740000D03*
Y7140000D03*
Y7060000D03*
Y6980000D03*
X3850000Y7250000D03*
X4150000Y3050000D03*
Y3350000D03*
X4159050Y3907850D03*
X4150000Y4550000D03*
Y4850000D03*
X3993500Y5387600D03*
X4102500Y6180000D03*
Y6100000D03*
Y6020000D03*
Y6420000D03*
Y6340000D03*
Y6260000D03*
Y6660000D03*
Y6580000D03*
Y6500000D03*
Y6900000D03*
Y6820000D03*
Y6740000D03*
Y7140000D03*
Y7060000D03*
Y6980000D03*
X4150000Y7250000D03*
X4450000Y3050000D03*
Y4250000D03*
Y4550000D03*
Y4850000D03*
Y6050000D03*
Y6350000D03*
Y6650000D03*
Y6950000D03*
Y7250000D03*
Y7550000D03*
X4750000Y3050000D03*
Y3950000D03*
Y4250000D03*
Y4550000D03*
Y4850000D03*
Y5150000D03*
Y6350000D03*
Y6650000D03*
Y6950000D03*
Y7250000D03*
Y7550000D03*
X5050000Y3050000D03*
Y3650000D03*
Y3950000D03*
Y4250000D03*
Y4850000D03*
Y5150000D03*
Y5450000D03*
Y5750000D03*
Y6650000D03*
Y6950000D03*
Y7250000D03*
Y7550000D03*
X5350000Y3650000D03*
Y3950000D03*
Y4250000D03*
Y5150000D03*
X5650000Y3650000D03*
Y3950000D03*
Y4250000D03*
Y4550000D03*
Y4850000D03*
Y5150000D03*
Y5450000D03*
Y5750000D03*
G54D11*
G01X1620900Y3200000D02*
Y3357500D01*
X1620800Y3357600D01*
Y6227400D01*
X1887300Y6493900D01*
X2182700D01*
X848300Y3983400D03*
Y4237400D03*
Y4491400D03*
Y4745400D03*
X848200Y4999400D03*
Y5253400D03*
Y5507400D03*
Y5761400D03*
Y6015400D03*
Y6269400D03*
Y6523400D03*
Y6777400D03*
X1102300Y3983400D03*
Y4237400D03*
Y4491400D03*
Y4745400D03*
Y4999400D03*
Y5253400D03*
Y5507400D03*
Y5761400D03*
Y6015400D03*
Y6269400D03*
Y6523400D03*
Y6777400D03*
X1620900Y3200000D03*
X1874900D03*
X2373000D03*
X2627000D03*
X3373000D03*
X3627000D03*
X4179300D03*
X4433300D03*
X4687300D03*
X4941300D03*
X5489200Y6107300D03*
Y6361300D03*
Y6615300D03*
Y6869300D03*
X5743200Y6107300D03*
Y6361300D03*
Y6615300D03*
Y6869300D03*
G54D12*
X3748500Y7066000D03*
Y7574000D03*
X4256500Y7066000D03*
Y7574000D03*
G54D13*
X4002500Y7320000D03*
G54D14*
G01X3197500Y4518600D02*
Y3770500D01*
X2627000Y3200000D01*
G01X3542500Y6218700D02*
X3467100Y6294100D01*
X3317500D01*
G01X3657500Y6322000D02*
X3492200Y6487300D01*
X3318300D01*
G01X4159050Y3907850D02*
X4546150D01*
X4941300Y3512700D01*
Y3200000D01*
G54D15*
G01X3318300Y6487300D02*
X2844900D01*
X1891150Y5533550D01*
Y3646450D01*
X2040150Y3497450D01*
G01X3317500Y6294100D02*
X3034500D01*
X2152600Y5412200D01*
Y3704400D01*
G54D16*
G01X848300Y3875800D02*
Y3983400D01*
G01Y4129800D02*
Y4237400D01*
G01Y3983400D02*
Y4091000D01*
G01X740700Y3983400D02*
X848300D01*
G01D02*
X955900D01*
G01X848300Y4383800D02*
Y4491400D01*
G01Y4237400D02*
Y4345000D01*
G01X740700Y4237400D02*
X848300D01*
G01D02*
X955900D01*
G01X848300Y4491400D02*
Y4599000D01*
G01X740700Y4491400D02*
X848300D01*
G01D02*
X955900D01*
G01X848300Y4637800D02*
Y4745400D01*
G01X848200Y4891800D02*
Y4999400D01*
G01X848300Y4745400D02*
Y4853000D01*
G01X740700Y4745400D02*
X848300D01*
G01D02*
X955900D01*
G01X848200Y4999400D02*
Y5107000D01*
G01X740600Y4999400D02*
X848200D01*
G01D02*
X955800D01*
G01X848200Y5145800D02*
Y5253400D01*
G01D02*
Y5361000D01*
G01X740600Y5253400D02*
X848200D01*
G01D02*
X955800D01*
G01X848200Y5399800D02*
Y5507400D01*
G01Y5653800D02*
Y5761400D01*
G01Y5507400D02*
Y5615000D01*
G01X740600Y5507400D02*
X848200D01*
G01D02*
X955800D01*
G01X848200Y5761400D02*
Y5869000D01*
G01X740600Y5761400D02*
X848200D01*
G01D02*
X955800D01*
G01X848200Y5907800D02*
Y6015400D01*
G01Y6161800D02*
Y6269400D01*
G01Y6015400D02*
Y6123000D01*
G01X740600Y6015400D02*
X848200D01*
G01D02*
X955800D01*
G01X848200Y6269400D02*
Y6377000D01*
G01X740600Y6269400D02*
X848200D01*
G01D02*
X955800D01*
G01X848200Y6415800D02*
Y6523400D01*
G01Y6669800D02*
Y6777400D01*
G01Y6523400D02*
Y6631000D01*
G01X740600Y6523400D02*
X848200D01*
G01D02*
X955800D01*
G01X848200Y6777400D02*
Y6885000D01*
G01X740600Y6777400D02*
X848200D01*
G01D02*
X955800D01*
G01X1767300Y3200000D02*
X1874900D01*
G01Y3092400D02*
Y3200000D01*
G01D02*
Y3307600D01*
G01Y3200000D02*
X1982500D01*
G01X3615900Y7066000D02*
X3748500D01*
G01X3615900Y7574000D02*
X3748500D01*
G01Y6933400D02*
Y7066000D01*
G01D02*
Y7198600D01*
G01Y7066000D02*
X3881100D01*
G01X3748500Y7441400D02*
Y7574000D01*
G01D02*
Y7706600D01*
G01Y7574000D02*
X3881100D01*
G01X4123900Y7066000D02*
X4256500D01*
G01X4123900Y7574000D02*
X4256500D01*
G01Y6933400D02*
Y7066000D01*
G01D02*
Y7198600D01*
G01Y7066000D02*
X4389100D01*
G01X4256500Y7441400D02*
Y7574000D01*
G01D02*
Y7706600D01*
G01Y7574000D02*
X4389100D01*
G01X4579700Y3200000D02*
X4687300D01*
G01Y3092400D02*
Y3200000D01*
G01D02*
Y3307600D01*
G01Y3200000D02*
X4794900D01*
G01X5635600Y6107300D02*
X5743200D01*
G01X5635600Y6361300D02*
X5743200D01*
G01X5635600Y6615300D02*
X5743200D01*
G01X5635600Y6869300D02*
X5743200D01*
G01Y5999700D02*
Y6107300D01*
G01D02*
Y6214900D01*
G01Y6107300D02*
X5850800D01*
G01X5743200Y6253700D02*
Y6361300D01*
G01D02*
Y6468900D01*
G01Y6361300D02*
X5850800D01*
G01X5743200Y6507700D02*
Y6615300D01*
G01D02*
Y6722900D01*
G01Y6615300D02*
X5850800D01*
G01X5743200Y6761700D02*
Y6869300D01*
G01D02*
Y6976900D01*
G01Y6869300D02*
X5850800D01*
G54D17*
G01X2706700Y5572500D02*
X2373000Y5238800D01*
Y3200000D01*
G01X2182700Y6493900D02*
X2569200D01*
M02*
