G04 ================== begin FILE IDENTIFICATION RECORD ==================*
G04 Layout Name:  certification_board.mcm*
G04 Film Name:    layer_top*
G04 File Format:  Gerber RS274X*
G04 File Origin:  Cadence Allegro 17.2-S049*
G04 Origin Date:  Fri Jun 26 15:46:56 2020*
G04 *
G04 Layer:  VIA CLASS/TOP_COND*
G04 Layer:  PIN/TOP_COND*
G04 Layer:  CONDUCTOR/TOP_COND*
G04 *
G04 Offset:    (0.0000 0.0000)*
G04 Mirror:    No*
G04 Mode:      Positive*
G04 Rotation:  0*
G04 FullContactRelief:  No*
G04 UndefLineWidth:     0.1000*
G04 ================== end FILE IDENTIFICATION RECORD ====================*
%FSLAX25Y25*MOMM*%
%IR0*IPPOS*OFA0.00000B0.00000*MIA0B0*SFA1.00000B1.00000*%
%AMMACRO14*
4,1,40,1.25,-1.2,
1.25,1.2,
1.24924,1.208682,
1.246985,1.217101,
1.243301,1.225,
1.238302,1.232139,
1.232139,1.238302,
1.225,1.243301,
1.217101,1.246985,
1.208682,1.24924,
1.2,1.25,
-1.2,1.25,
-1.208682,1.24924,
-1.217101,1.246985,
-1.225,1.243301,
-1.232139,1.238302,
-1.238302,1.232139,
-1.243301,1.225,
-1.246985,1.217101,
-1.24924,1.208682,
-1.25,1.2,
-1.25,-1.2,
-1.24924,-1.208682,
-1.246985,-1.217101,
-1.243301,-1.225,
-1.238302,-1.232139,
-1.232139,-1.238302,
-1.225,-1.243301,
-1.217101,-1.246985,
-1.208682,-1.24924,
-1.2,-1.25,
1.2,-1.25,
1.208682,-1.24924,
1.217101,-1.246985,
1.225,-1.243301,
1.232139,-1.238302,
1.238302,-1.232139,
1.243301,-1.225,
1.246985,-1.217101,
1.24924,-1.208682,
1.25,-1.2,
0.0*
%
%ADD14MACRO14*%
%AMMACRO20*
4,1,40,.3,-.2,
.3,.2,
.29924,.208682,
.296985,.217101,
.293301,.225,
.288302,.232139,
.282139,.238302,
.275,.243301,
.267101,.246985,
.258682,.24924,
.25,.25,
-.25,.25,
-.258682,.24924,
-.267101,.246985,
-.275,.243301,
-.282139,.238302,
-.288302,.232139,
-.293301,.225,
-.296985,.217101,
-.29924,.208682,
-.3,.2,
-.3,-.2,
-.29924,-.208682,
-.296985,-.217101,
-.293301,-.225,
-.288302,-.232139,
-.282139,-.238302,
-.275,-.243301,
-.267101,-.246985,
-.258682,-.24924,
-.25,-.25,
.25,-.25,
.258682,-.24924,
.267101,-.246985,
.275,-.243301,
.282139,-.238302,
.288302,-.232139,
.293301,-.225,
.296985,-.217101,
.29924,-.208682,
.3,-.2,
0.0*
%
%ADD20MACRO20*%
%AMMACRO19*
4,1,40,-.2,-.3,
.2,-.3,
.208682,-.29924,
.217101,-.296985,
.225,-.293301,
.232139,-.288302,
.238302,-.282139,
.243301,-.275,
.246985,-.267101,
.24924,-.258682,
.25,-.25,
.25,.25,
.24924,.258682,
.246985,.267101,
.243301,.275,
.238302,.282139,
.232139,.288302,
.225,.293301,
.217101,.296985,
.208682,.29924,
.2,.3,
-.2,.3,
-.208682,.29924,
-.217101,.296985,
-.225,.293301,
-.232139,.288302,
-.238302,.282139,
-.243301,.275,
-.246985,.267101,
-.24924,.258682,
-.25,.25,
-.25,-.25,
-.24924,-.258682,
-.246985,-.267101,
-.243301,-.275,
-.238302,-.282139,
-.232139,-.288302,
-.225,-.293301,
-.217101,-.296985,
-.208682,-.29924,
-.2,-.3,
0.0*
%
%ADD19MACRO19*%
%AMMACRO12*
4,1,40,1.1,.325,
-1.1,.325,
-1.108682,.32424,
-1.117101,.321985,
-1.125,.318301,
-1.132139,.313302,
-1.138302,.307139,
-1.143301,.3,
-1.146985,.292101,
-1.14924,.283682,
-1.15,.275,
-1.15,-.275,
-1.14924,-.283682,
-1.146985,-.292101,
-1.143301,-.3,
-1.138302,-.307139,
-1.132139,-.313302,
-1.125,-.318301,
-1.117101,-.321985,
-1.108682,-.32424,
-1.1,-.325,
1.1,-.325,
1.108682,-.32424,
1.117101,-.321985,
1.125,-.318301,
1.132139,-.313302,
1.138302,-.307139,
1.143301,-.3,
1.146985,-.292101,
1.14924,-.283682,
1.15,-.275,
1.15,.275,
1.14924,.283682,
1.146985,.292101,
1.143301,.3,
1.138302,.307139,
1.132139,.313302,
1.125,.318301,
1.117101,.321985,
1.108682,.32424,
1.1,.325,
0.0*
%
%ADD12MACRO12*%
%ADD10C,.4*%
%AMMACRO15*
4,1,5,-1.25,1.25,
.625,1.25,
1.25,.625,
1.25,-1.25,
-1.25,-1.25,
-1.25,1.25,
0.0*
%
%ADD15MACRO15*%
%AMMACRO18*
4,1,40,-.3,.2,
-.3,-.2,
-.29924,-.208682,
-.296985,-.217101,
-.293301,-.225,
-.288302,-.232139,
-.282139,-.238302,
-.275,-.243301,
-.267101,-.246985,
-.258682,-.24924,
-.25,-.25,
.25,-.25,
.258682,-.24924,
.267101,-.246985,
.275,-.243301,
.282139,-.238302,
.288302,-.232139,
.293301,-.225,
.296985,-.217101,
.29924,-.208682,
.3,-.2,
.3,.2,
.29924,.208682,
.296985,.217101,
.293301,.225,
.288302,.232139,
.282139,.238302,
.275,.243301,
.267101,.246985,
.258682,.24924,
.25,.25,
-.25,.25,
-.258682,.24924,
-.267101,.246985,
-.275,.243301,
-.282139,.238302,
-.288302,.232139,
-.293301,.225,
-.296985,.217101,
-.29924,.208682,
-.3,.2,
0.0*
%
%ADD18MACRO18*%
%AMMACRO13*
4,1,40,.325,-1.1,
.325,1.1,
.32424,1.108682,
.321985,1.117101,
.318301,1.125,
.313302,1.132139,
.307139,1.138302,
.3,1.143301,
.292101,1.146985,
.283682,1.14924,
.275,1.15,
-.275,1.15,
-.283682,1.14924,
-.292101,1.146985,
-.3,1.143301,
-.307139,1.138302,
-.313302,1.132139,
-.318301,1.125,
-.321985,1.117101,
-.32424,1.108682,
-.325,1.1,
-.325,-1.1,
-.32424,-1.108682,
-.321985,-1.117101,
-.318301,-1.125,
-.313302,-1.132139,
-.307139,-1.138302,
-.3,-1.143301,
-.292101,-1.146985,
-.283682,-1.14924,
-.275,-1.15,
.275,-1.15,
.283682,-1.14924,
.292101,-1.146985,
.3,-1.143301,
.307139,-1.138302,
.313302,-1.132139,
.318301,-1.125,
.321985,-1.117101,
.32424,-1.108682,
.325,-1.1,
0.0*
%
%ADD13MACRO13*%
%ADD21R,2.X5.5*%
%ADD16C,2.*%
%ADD17C,2.3*%
%ADD11C,1.5*%
%ADD22C,.3*%
%ADD23C,.5*%
%ADD24C,.8*%
%ADD25C,.325*%
%ADD26C,.65*%
%ADD28C,2.0504*%
%ADD29C,2.5504*%
%ADD27C,5.0146*%
G75*
%LPD*%
G75*
G36*
G01X700000Y7850000D02*
X5900000D01*
Y2900000D01*
X700000D01*
Y7850000D01*
G37*
%LPC*%
G75*
G36*
G01X3275000Y5317520D02*
X3515000D01*
G02X3547520Y5285000I0J-32520D01*
G01Y5045000D01*
G02X3515000Y5012480I-32520J0D01*
G01X3275000D01*
G02X3242480Y5045000I0J32520D01*
G01Y5285000D01*
G02X3275000Y5317520I32520J0D01*
G37*
G36*
G01Y5787520D02*
X3515000D01*
G02X3547520Y5755000I0J-32520D01*
G01Y5515000D01*
G02X3515000Y5482480I-32520J0D01*
G01X3275000D01*
G02X3242480Y5515000I0J32520D01*
G01Y5755000D01*
G02X3275000Y5787520I32520J0D01*
G37*
G36*
G01X3685000Y5316520D02*
X3925000D01*
G02X3957520Y5284000I0J-32520D01*
G01Y5044000D01*
G02X3925000Y5011480I-32520J0D01*
G01X3685000D01*
G02X3652480Y5044000I0J32520D01*
G01Y5284000D01*
G02X3685000Y5316520I32520J0D01*
G37*
G36*
G01X3957520Y5708900D02*
Y5482480D01*
X3652480D01*
Y5787520D01*
X3878900D01*
X3957520Y5708900D01*
G37*
G36*
G01X2092960Y3349160D02*
X1992410Y3449710D01*
G02X1972630Y3497450I47737J47747D01*
G02X2040150Y3564970I67520J0D01*
G02X2087890Y3545190I-7J-67517D01*
G01X2168670Y3464420D01*
X3176100D01*
G02X3223840Y3444640I-7J-67517D01*
G01X3366170Y3302320D01*
X3368410Y3302420D01*
G02X3373000Y3302520I4527J-102421D01*
G02X3270480Y3200000I0J-102520D01*
G02X3270580Y3204590I102521J63D01*
G01X3270680Y3206830D01*
X3148130Y3329380D01*
X2140700D01*
G02X2092960Y3349160I7J67517D01*
G37*
G36*
G01X2201460Y3560060D02*
X2104860Y3656660D01*
G02X2085080Y3704400I47737J47747D01*
G02X2152600Y3771920I67520J0D01*
G02X2200340Y3752140I-7J-67517D01*
G01X2277170Y3675320D01*
X3421500D01*
G02X3469240Y3655540I-7J-67517D01*
G01X3674740Y3450040D01*
G02X3694520Y3402300I-47737J-47747D01*
G01Y3277150D01*
G02X3729520Y3200000I-67530J-77150D01*
G02X3524480I-102520J0D01*
G02X3559480Y3277150I102530J0D01*
G01Y3374330D01*
X3393530Y3540280D01*
X2249200D01*
G02X2201460Y3560060I7J67517D01*
G37*
G36*
G01X3201500Y4922520D02*
Y4922600D01*
X3616500D01*
Y4921570D01*
X3622160D01*
X3622720Y4921690D01*
G02X3630000Y4922520I7300J-31688D01*
G01X3685000D01*
G02X3689230Y4922240I-28J-32518D01*
G01X3689560Y4922200D01*
X3740440D01*
X3740770Y4922240D01*
G02X3745000Y4922520I4258J-32238D01*
G01X3800000D01*
G02X3804230Y4922240I-28J-32518D01*
G01X3804560Y4922200D01*
X3855440D01*
X3855770Y4922240D01*
G02X3860000Y4922520I4258J-32238D01*
G01X3915000D01*
G02X3919230Y4922240I-28J-32518D01*
G01X3919560Y4922200D01*
X3970440D01*
X3970770Y4922240D01*
G02X3975000Y4922520I4258J-32238D01*
G01X4030000D01*
G02X4062520Y4890000I0J-32520D01*
G01Y4670000D01*
G02X4055020Y4649230I-32510J0D01*
G01Y4355650D01*
X4470440Y3940240D01*
G02X4485820Y3903100I-37153J-37140D01*
G01Y3292460D01*
X4505140Y3273140D01*
X4505160Y3273120D01*
G02X4535820Y3200000I-71861J-73120D01*
G02X4330780I-102520J0D01*
G02X4361440Y3273120I102521J0D01*
G01X4361460Y3273140D01*
X4380780Y3292460D01*
Y3881350D01*
X3965360Y4296760D01*
G02X3958660Y4304980I37153J37124D01*
G03X3940020Y4299380I-8480J-5595D01*
G01Y4201150D01*
X4196190Y3944990D01*
G02X4211570Y3907850I-37153J-37140D01*
G02X4159050Y3855330I-52520J0D01*
G02X4121910Y3870710I0J52533D01*
G01X3850360Y4142260D01*
G02X3843660Y4150480I37153J37124D01*
G03X3825020Y4144880I-8480J-5595D01*
G01Y4068250D01*
X4039140Y3854140D01*
G02X4054520Y3817000I-37153J-37140D01*
G01Y3399050D01*
X4151050Y3302520D01*
X4179300D01*
G02X4076780Y3200000I0J-102520D01*
G01Y3228250D01*
X3964860Y3340160D01*
G02X3949480Y3377300I37153J37140D01*
G01Y3795250D01*
X3735360Y4009360D01*
G02X3719980Y4046500I37153J37140D01*
G01Y4637400D01*
X3595020D01*
Y4203700D01*
G02X3579640Y4166560I-52533J0D01*
G01X3359340Y3946260D01*
G02X3322200Y3930880I-37140J37153D01*
G01X1194760D01*
X1175440Y3911560D01*
X1175420Y3911540D01*
G02X1102300Y3880880I-73120J71861D01*
G02Y4085920I0J102520D01*
G02X1175420Y4055260I0J-102521D01*
G01X1175440Y4055240D01*
X1194760Y4035920D01*
X3300450D01*
X3489980Y4225450D01*
Y4302780D01*
G03X3471340Y4308380I-10160J5D01*
G02X3464640Y4300160I-43853J28904D01*
G01X3288720Y4124240D01*
G02X3251580Y4108860I-37140J37153D01*
G01X1178320D01*
G02X1141180Y4124240I0J52533D01*
G01X1130550Y4134880D01*
X1102300D01*
G02X1204820Y4237400I0J102520D01*
G01Y4213900D01*
X3229830D01*
X3374980Y4359050D01*
Y4412280D01*
G03X3356340Y4417880I-10160J5D01*
G02X3349640Y4409660I-43853J28904D01*
G01X3245340Y4305360D01*
G02X3208200Y4289980I-37140J37153D01*
G01X1251200D01*
G02X1214060Y4305360I0J52533D01*
G01X1130550Y4388880D01*
X1102300D01*
G02X1204820Y4491400I0J102520D01*
G01Y4463150D01*
X1272950Y4395020D01*
X3186450D01*
X3259980Y4468550D01*
Y4484080D01*
G03X3241340Y4489680I-10160J5D01*
G02X3197500Y4466080I-43840J28919D01*
G02X3144980Y4518600I0J52520D01*
G01Y4649230D01*
G02X3137480Y4670000I25010J20770D01*
G01Y4890000D01*
G02X3170000Y4922520I32520J0D01*
G01X3201500D01*
G37*
G36*
G01X1194760Y5962880D02*
X1175440Y5943560D01*
X1175420Y5943540D01*
G02X1102300Y5912880I-73120J71861D01*
G02Y6117920I0J102520D01*
G02X1175420Y6087260I0J-102521D01*
G01X1175440Y6087240D01*
X1194760Y6067920D01*
X2832100D01*
G02X2869240Y6052540I0J-52533D01*
G01X3017140Y5904640D01*
G02X3032520Y5867590I-37141J-37135D01*
G01X3032530Y5862520D01*
X3090000D01*
G02X3122520Y5830000I0J-32520D01*
G01Y5775000D01*
G02X3122500Y5773940I-32518J83D01*
G01Y5716060D01*
G02X3122520Y5715000I-32498J-1143D01*
G01Y5660000D01*
G02X3122500Y5658940I-32518J83D01*
G01Y5601060D01*
G02X3122520Y5600000I-32498J-1143D01*
G01Y5545000D01*
G02X3122500Y5543940I-32518J83D01*
G01Y5486060D01*
G02X3122520Y5485000I-32498J-1143D01*
G01Y5430000D01*
G02X3122500Y5428940I-32518J83D01*
G01Y5371060D01*
G02X3122520Y5370000I-32498J-1143D01*
G01Y5315000D01*
G02X3122500Y5313940I-32518J83D01*
G01Y5256060D01*
G02X3122520Y5255000I-32498J-1143D01*
G01Y5200000D01*
G02X3122500Y5198940I-32518J83D01*
G01Y5141060D01*
G02X3122520Y5140000I-32498J-1143D01*
G01Y5085000D01*
G02X3122500Y5083940I-32518J83D01*
G01Y5026060D01*
G02X3122520Y5025000I-32498J-1143D01*
G01Y4970000D01*
G02X3090000Y4937480I-32520J0D01*
G01X2870000D01*
G02X2837480Y4970000I0J32520D01*
G01Y5021100D01*
X2837400D01*
Y5059980D01*
X1491150D01*
X1204820Y4773650D01*
Y4745400D01*
G02X1102300Y4847920I-102520J0D01*
G01X1130550D01*
X1432260Y5149640D01*
G02X1440480Y5156340I37123J-37153D01*
G03X1434880Y5174980I-5595J8480D01*
G01X1352150D01*
X1204820Y5027650D01*
Y4999400D01*
G02X1102300Y5101920I-102520J0D01*
G01X1130550D01*
X1293260Y5264640D01*
G02X1301480Y5271340I37123J-37153D01*
G03X1295880Y5289980I-5595J8480D01*
G01X1213150D01*
X1204820Y5281650D01*
Y5253400D01*
G02X1102300Y5355920I-102520J0D01*
G01X1130550D01*
X1154260Y5379640D01*
G02X1191400Y5395020I37140J-37153D01*
G01X1902480D01*
G03X1908080Y5413660I5J10160D01*
G02X1899860Y5420360I28904J43853D01*
G01X1865350Y5454880D01*
X1194760D01*
X1175440Y5435560D01*
X1175420Y5435540D01*
G02X1102300Y5404880I-73120J71861D01*
G02Y5609920I0J102520D01*
G02X1175420Y5579260I0J-102521D01*
G01X1175440Y5579240D01*
X1194760Y5559920D01*
X1887100D01*
G02X1924240Y5544540I0J-52533D01*
G01X1958750Y5510020D01*
X2659930D01*
G03X2666700Y5527750I-4J10159D01*
G02Y5617250I40004J44750D01*
G03X2659930Y5634980I-6774J7571D01*
G01X2265800D01*
G02X2228660Y5650360I0J52533D01*
G01X2170150Y5708880D01*
X1194760D01*
X1175440Y5689560D01*
X1175420Y5689540D01*
G02X1102300Y5658880I-73120J71861D01*
G02Y5863920I0J102520D01*
G02X1175420Y5833260I0J-102521D01*
G01X1175440Y5833240D01*
X1194760Y5813920D01*
X2191900D01*
G02X2229040Y5798540I0J-52533D01*
G01X2287550Y5740020D01*
X2837300D01*
Y5789800D01*
X2837480D01*
Y5830000D01*
G02X2870000Y5862520I32520J0D01*
G01X2886180D01*
G03X2893360Y5879860I-5J10158D01*
G01X2810350Y5962880D01*
X1194760D01*
G37*
G36*
G01X5386740Y6911820D02*
X5415650Y6940720D01*
X5415680Y6940750D01*
G02X5489200Y6971820I73520J-71449D01*
G02Y6766780I0J-102520D01*
G02X5415680Y6797850I0J102519D01*
G01X5415650Y6797880D01*
X5386740Y6826780D01*
X5329110D01*
X5195620Y6693290D01*
Y6435700D01*
G02X5183170Y6405630I-42523J-7D01*
G01X4434970Y5657430D01*
G02X4404900Y5644980I-30063J30073D01*
G01X4358840D01*
G02X4353130Y5637140I-28847J15011D01*
G03Y5622860I7227J-7140D01*
G02X4358840Y5615020I-23137J-22851D01*
G01X4428790D01*
X5386680Y6572910D01*
Y6615300D01*
G02X5489200Y6512780I102520J0D01*
G01X5446810D01*
X5355200Y6421160D01*
G03X5362380Y6403820I7183J-7182D01*
G01X5386740D01*
X5415650Y6432720D01*
X5415680Y6432750D01*
G02X5489200Y6463820I73520J-71449D01*
G02Y6258780I0J-102520D01*
G02X5415680Y6289850I0J102519D01*
G01X5415650Y6289880D01*
X5386740Y6318780D01*
X5366010D01*
X5202440Y6155210D01*
X5208210Y6149440D01*
X5211150Y6150360D01*
G02X5223900Y6152320I12761J-40558D01*
G01X5298800D01*
G02X5312400Y6150090I11J-42522D01*
G01X5313190Y6149820D01*
X5386740D01*
X5415650Y6178720D01*
X5415680Y6178750D01*
G02X5489200Y6209820I73520J-71449D01*
G02Y6004780I0J-102520D01*
G02X5415680Y6035850I0J102519D01*
G01X5415650Y6035880D01*
X5386740Y6064780D01*
X5301300D01*
G02X5287700Y6067010I-11J42522D01*
G01X5286910Y6067280D01*
X5241510D01*
X4486670Y5312430D01*
G02X4456600Y5299980I-30063J30073D01*
G01X4358840D01*
G02X4353130Y5292140I-28847J15011D01*
G03Y5277860I7227J-7140D01*
G02X4362520Y5255000I-23131J-22860D01*
G01Y5200000D01*
G02X4356460Y5181090I-32534J0D01*
G03X4364720Y5165020I8262J-5911D01*
G01X4395850D01*
X4797960Y5567140D01*
G02X4835100Y5582520I37140J-37153D01*
G01X5224880D01*
Y5805000D01*
G02X5252400Y5832520I27520J0D01*
G01X5452400D01*
G02X5479920Y5805000I0J-27520D01*
G01Y5255000D01*
G02X5452400Y5227480I-27520J0D01*
G01X5252400D01*
G02X5224880Y5255000I0J27520D01*
G01Y5477480D01*
X4961610D01*
G03X4952320Y5463200I-3J-10160D01*
G02X4955120Y5450000I-29714J-13200D01*
G01Y5410000D01*
G02X4922600Y5377480I-32520J0D01*
G01X4872600D01*
G02X4840080Y5410000I0J32520D01*
G01Y5436180D01*
G03X4822740Y5443360I-10158J-5D01*
G01X4454740Y5075360D01*
G02X4439520Y5064770I-37137J37141D01*
G03X4439930Y5046130I4243J-9231D01*
G02X4457240Y5034640I-19817J-48639D01*
G01X4825240Y4666640D01*
G03X4842580Y4673820I7182J7185D01*
G01Y4700000D01*
G02X4875100Y4732520I32520J0D01*
G01X4925100D01*
G02X4957620Y4700000I0J-32520D01*
G01Y4660000D01*
G02X4954820Y4646800I-32514J0D01*
G03X4964110Y4632520I9287J-4120D01*
G01X5224880D01*
Y4855000D01*
G02X5252400Y4882520I27520J0D01*
G01X5452400D01*
G02X5479920Y4855000I0J-27520D01*
G01Y4305000D01*
G02X5452400Y4277480I-27520J0D01*
G01X5252400D01*
G02X5224880Y4305000I0J27520D01*
G01Y4527480D01*
X4837600D01*
G02X4800460Y4542860I0J52533D01*
G01X4398350Y4944980D01*
X4350770D01*
G02X4330000Y4937480I-20770J25010D01*
G01X4110000D01*
G02X4077480Y4970000I0J32520D01*
G01Y5025000D01*
G02X4086870Y5047860I32521J0D01*
G03Y5062140I-7227J7140D01*
G02X4077480Y5085000I23131J22860D01*
G01Y5140000D01*
G02X4086870Y5162860I32521J0D01*
G03Y5177140I-7227J7140D01*
G02X4077480Y5200000I23131J22860D01*
G01Y5255000D01*
G02X4086870Y5277860I32521J0D01*
G03Y5292140I-7227J7140D01*
G02X4077480Y5315000I23131J22860D01*
G01Y5370000D01*
G02X4086870Y5392860I32521J0D01*
G03Y5407140I-7227J7140D01*
G02X4077480Y5430000I23131J22860D01*
G01Y5485000D01*
G02X4086870Y5507860I32521J0D01*
G03Y5522140I-7227J7140D01*
G02X4077480Y5545000I23131J22860D01*
G01Y5600000D01*
G02X4086870Y5622860I32521J0D01*
G03Y5637140I-7227J7140D01*
G02X4077480Y5660000I23131J22860D01*
G01Y5715000D01*
G02X4086870Y5737860I32521J0D01*
G03Y5752140I-7227J7140D01*
G02X4077480Y5775000I23131J22860D01*
G01Y5830000D01*
G02X4110000Y5862520I32520J0D01*
G01X4330000D01*
G02X4362520Y5830000I0J-32520D01*
G01Y5775000D01*
G02X4353130Y5752140I-32521J0D01*
G03Y5737860I7227J-7140D01*
G02X4358840Y5730020I-23137J-22851D01*
G01X4387290D01*
X5110580Y6453310D01*
Y6710900D01*
G02X5123030Y6740970I42523J7D01*
G01X5281430Y6899370D01*
G02X5311500Y6911820I30063J-30073D01*
G01X5386740D01*
G37*
G36*
G01X3942480Y6741300D02*
Y7190730D01*
G02X3859980Y7320000I60027J129270D01*
G02X4145020I142520J0D01*
G02X4062520Y7190730I-142527J0D01*
G01Y6705100D01*
G02X4062410Y6701460I-60020J-8D01*
G01X4062400Y6701300D01*
Y6311000D01*
X4062220D01*
Y6181000D01*
X4062240Y6180760D01*
G02X4062520Y6175000I-59739J-5791D01*
G01Y5910000D01*
G02X4030000Y5877480I-32520J0D01*
G01X3975000D01*
G02X3972400Y5877580I-51J32522D01*
G01X3972200Y5877600D01*
X3917800D01*
X3917600Y5877580D01*
G02X3915000Y5877480I-2549J32422D01*
G01X3860000D01*
G02X3857400Y5877580I-51J32522D01*
G01X3857200Y5877600D01*
X3802800D01*
X3802600Y5877580D01*
G02X3800000Y5877480I-2549J32422D01*
G01X3745000D01*
G02X3742400Y5877580I-51J32522D01*
G01X3742200Y5877600D01*
X3687800D01*
X3687600Y5877580D01*
G02X3685000Y5877480I-2549J32422D01*
G01X3630000D01*
G02X3627400Y5877580I-51J32522D01*
G01X3627200Y5877600D01*
X3572800D01*
X3572600Y5877580D01*
G02X3570000Y5877480I-2549J32422D01*
G01X3515000D01*
G02X3512400Y5877580I-51J32522D01*
G01X3512200Y5877600D01*
X3457800D01*
X3457600Y5877580D01*
G02X3455000Y5877480I-2549J32422D01*
G01X3400000D01*
G02X3397400Y5877580I-51J32522D01*
G01X3397200Y5877600D01*
X3342800D01*
X3342600Y5877580D01*
G02X3340000Y5877480I-2549J32422D01*
G01X3285000D01*
G02X3282400Y5877580I-51J32522D01*
G01X3282200Y5877600D01*
X3227800D01*
X3227600Y5877580D01*
G02X3225000Y5877480I-2549J32422D01*
G01X3170000D01*
G02X3137480Y5910000I0J32520D01*
G01Y6077640D01*
X2781240Y6433880D01*
X2569200D01*
G02Y6553920I0J60020D01*
G01X2806100D01*
G02X2848540Y6536340I0J-60017D01*
G01X3222360Y6162520D01*
X3225000D01*
G02X3243910Y6156460I0J-32534D01*
G03X3259980Y6164720I5911J8262D01*
G01Y6268850D01*
X2939350Y6589480D01*
X1496650D01*
X1204820Y6297650D01*
Y6269400D01*
G02X1102300Y6371920I-102520J0D01*
G01X1130550D01*
X1437760Y6679140D01*
G02X1474900Y6694520I37140J-37153D01*
G01X2961100D01*
G02X2998240Y6679140I0J-52533D01*
G01X3349640Y6327740D01*
G02X3356340Y6319520I-37153J-37124D01*
G03X3374980Y6325120I8480J5595D01*
G01Y6423150D01*
X2997050Y6801080D01*
X1454250D01*
X1204820Y6551650D01*
Y6523400D01*
G02X1102300Y6625920I-102520J0D01*
G01X1130550D01*
X1395360Y6890740D01*
G02X1432500Y6906120I37140J-37153D01*
G01X3018800D01*
G02X3055940Y6890740I0J-52533D01*
G01X3464640Y6482040D01*
G02X3480020Y6444900I-37153J-37140D01*
G01Y6253220D01*
G03X3498660Y6247620I10160J-5D01*
G02X3586340I43840J-28919D01*
G03X3604980Y6253220I8480J5595D01*
G01Y6322000D01*
G02X3657500Y6374520I52520J0D01*
G02X3661670Y6374350I-53J-52518D01*
G03X3669660Y6391670I809J10130D01*
G01X3022250Y7039080D01*
X1438250D01*
X1204820Y6805650D01*
Y6777400D01*
G02X1102300Y6879920I-102520J0D01*
G01X1130550D01*
X1379360Y7128740D01*
G02X1416500Y7144120I37140J-37153D01*
G01X3044000D01*
G02X3081140Y7128740I0J-52533D01*
G01X3809640Y6400240D01*
G02X3825020Y6363100I-37153J-37140D01*
G01Y6164720D01*
G03X3841090Y6156460I10159J2D01*
G02X3860000Y6162520I18910J-26474D01*
G01X3915000D01*
G02X3928200Y6159720I0J-32514D01*
G03X3942480Y6169010I4120J9287D01*
G01Y6169300D01*
X3942460Y6169540D01*
G02X3942180Y6175300I59739J5791D01*
G01Y6390000D01*
G02X3942200Y6391490I60019J-60D01*
G01Y6741300D01*
X3942480D01*
G37*
G54D28*
X4687300Y3200000D03*
X4941300D03*
X2373000D03*
X2627000D03*
X848200Y6777400D03*
Y6269400D03*
X1874900Y3200000D03*
X848200Y6015400D03*
Y5761400D03*
Y6523400D03*
Y5507400D03*
Y5253400D03*
X1620900Y3200000D03*
X848200Y4999400D03*
X848300Y3983400D03*
Y4237400D03*
Y4491400D03*
Y4745400D03*
X5743200Y6107300D03*
Y6361300D03*
Y6615300D03*
Y6869300D03*
G54D29*
X4256500Y7574000D03*
Y7066000D03*
X3748500D03*
Y7574000D03*
G54D27*
X1049300Y7500650D03*
X5499300D03*
X1054300Y3250650D03*
X5499300D03*
%LPD*%
G75*
G36*
G01X1190690Y4001080D02*
X1155330Y4036430D01*
X1096050Y3983400D01*
X1155330Y3930370D01*
X1190690Y3965720D01*
G03Y4001080I-17680J17680D01*
G37*
G36*
G01X1177300Y4187400D02*
Y4237400D01*
X1097880Y4241820D01*
X1102300Y4162400D01*
X1152300D01*
G03X1177300Y4187400I0J25000D01*
G37*
G36*
G01Y4441400D02*
Y4491400D01*
X1097880Y4495820D01*
X1102300Y4416400D01*
X1152300D01*
G03X1177300Y4441400I0J25000D01*
G37*
G36*
G01X1152300Y4820400D02*
X1102300D01*
X1097880Y4740980D01*
X1177300Y4745400D01*
Y4795400D01*
G03X1152300Y4820400I-25000J0D01*
G37*
G36*
G01Y5074400D02*
X1102300D01*
X1097880Y4994980D01*
X1177300Y4999400D01*
Y5049400D01*
G03X1152300Y5074400I-25000J0D01*
G37*
G36*
G01Y5328400D02*
X1102300D01*
X1097880Y5248980D01*
X1177300Y5253400D01*
Y5303400D01*
G03X1152300Y5328400I-25000J0D01*
G37*
G36*
G01X1190690Y5525080D02*
X1155330Y5560430D01*
X1096050Y5507400D01*
X1155330Y5454370D01*
X1190690Y5489720D01*
G03Y5525080I-17680J17680D01*
G37*
G36*
G01Y5779080D02*
X1155330Y5814430D01*
X1096050Y5761400D01*
X1155330Y5708370D01*
X1190690Y5743720D01*
G03Y5779080I-17680J17680D01*
G37*
G36*
G01Y6033080D02*
X1155330Y6068430D01*
X1096050Y6015400D01*
X1155330Y5962370D01*
X1190690Y5997720D01*
G03Y6033080I-17680J17680D01*
G37*
G36*
G01X1152300Y6344400D02*
X1102300D01*
X1097880Y6264980D01*
X1177300Y6269400D01*
Y6319400D01*
G03X1152300Y6344400I-25000J0D01*
G37*
G36*
G01Y6598400D02*
X1102300D01*
X1097880Y6518980D01*
X1177300Y6523400D01*
Y6573400D01*
G03X1152300Y6598400I-25000J0D01*
G37*
G36*
G01Y6852400D02*
X1102300D01*
X1097880Y6772980D01*
X1177300Y6777400D01*
Y6827400D01*
G03X1152300Y6852400I-25000J0D01*
G37*
G36*
G01X4104300Y3250000D02*
Y3200000D01*
X4183720Y3195580D01*
X4179300Y3275000D01*
X4129300D01*
G03X4104300Y3250000I0J-25000D01*
G37*
G36*
G01X4415620Y3288390D02*
X4380270Y3253030D01*
X4433300Y3193750D01*
X4486330Y3253030D01*
X4450980Y3288390D01*
G03X4415620I-17680J-17680D01*
G37*
G36*
G01X5393740Y6096690D02*
X5436170Y6054280D01*
X5492950Y6107300D01*
X5436170Y6160320D01*
X5393740Y6117910D01*
G03Y6096690I10610J-10610D01*
G37*
G36*
G01Y6350690D02*
X5436170Y6308280D01*
X5492950Y6361300D01*
X5436170Y6414320D01*
X5393740Y6371910D01*
G03Y6350690I10610J-10610D01*
G37*
G36*
G01Y6858690D02*
X5436170Y6816280D01*
X5492950Y6869300D01*
X5436170Y6922320D01*
X5393740Y6879910D01*
G03Y6858690I10610J-10610D01*
G37*
G36*
G01X5429200Y6540300D02*
X5489200D01*
X5491850Y6617950D01*
X5414200Y6615300D01*
Y6555300D01*
G03X5429200Y6540300I15000J0D01*
G37*
G54D10*
X850000Y3650000D03*
X1150000D03*
Y6950000D03*
X1450000Y3050000D03*
Y3350000D03*
Y3650000D03*
Y4250000D03*
Y4550000D03*
Y4850000D03*
Y6350000D03*
Y6950000D03*
Y7250000D03*
Y7550000D03*
X1750000Y3050000D03*
Y3350000D03*
Y3650000D03*
Y4250000D03*
Y4550000D03*
Y4850000D03*
Y6950000D03*
Y7250000D03*
Y7550000D03*
X2050000Y3050000D03*
Y3650000D03*
X2040150Y3497450D03*
X2050000Y4250000D03*
Y4550000D03*
Y4850000D03*
Y6350000D03*
Y6950000D03*
Y7250000D03*
Y7550000D03*
X2350000Y3050000D03*
X2152600Y3704400D03*
X2350000Y6350000D03*
Y6950000D03*
Y7250000D03*
Y7550000D03*
X2569200Y6493900D03*
X2650000Y3050000D03*
Y4250000D03*
Y4550000D03*
Y4850000D03*
X2706700Y5572500D03*
X2650000Y6950000D03*
Y7250000D03*
Y7550000D03*
X2950000Y3050000D03*
Y4250000D03*
Y4550000D03*
Y4850000D03*
Y6050000D03*
Y6950000D03*
Y7250000D03*
Y7550000D03*
X3250000Y3050000D03*
X3197500Y4518600D03*
X3345800Y5165700D03*
X3174000Y5391200D03*
X3274000D03*
X3344000Y5634600D03*
X3250000Y7250000D03*
Y7550000D03*
X3550000Y3050000D03*
Y3950000D03*
X3445800Y5165700D03*
X3542700Y4979600D03*
X3642700D03*
X3557000Y5384000D03*
X3444000Y5634600D03*
X3549800Y5835100D03*
X3649800D03*
X3542500Y6218700D03*
X3550000Y6950000D03*
Y7250000D03*
Y7550000D03*
X3850000Y3050000D03*
Y3350000D03*
Y3650000D03*
X3862800Y5162100D03*
X3762800D03*
X3657000Y5384000D03*
X3893500Y5387600D03*
X3853900Y5631100D03*
X3753900D03*
X3902500Y6180000D03*
Y6420000D03*
Y6340000D03*
Y6260000D03*
X3657500Y6322000D03*
X3902500Y6660000D03*
Y6580000D03*
Y6500000D03*
Y6900000D03*
Y6820000D03*
Y6740000D03*
Y7140000D03*
Y7060000D03*
Y6980000D03*
X3850000Y7250000D03*
X4150000Y3050000D03*
Y3350000D03*
X4159050Y3907850D03*
X4150000Y4550000D03*
Y4850000D03*
X3993500Y5387600D03*
X4102500Y6180000D03*
Y6100000D03*
Y6020000D03*
Y6420000D03*
Y6340000D03*
Y6260000D03*
Y6660000D03*
Y6580000D03*
Y6500000D03*
Y6900000D03*
Y6820000D03*
Y6740000D03*
Y7140000D03*
Y7060000D03*
Y6980000D03*
X4150000Y7250000D03*
X4450000Y3050000D03*
Y4250000D03*
Y4550000D03*
Y4850000D03*
Y6050000D03*
Y6350000D03*
Y6650000D03*
Y6950000D03*
Y7250000D03*
Y7550000D03*
X4750000Y3050000D03*
Y3950000D03*
Y4250000D03*
Y4550000D03*
Y4850000D03*
Y5150000D03*
Y6350000D03*
Y6650000D03*
Y6950000D03*
Y7250000D03*
Y7550000D03*
X5050000Y3050000D03*
Y3650000D03*
Y3950000D03*
Y4250000D03*
Y4850000D03*
Y5150000D03*
Y5450000D03*
Y5750000D03*
Y6650000D03*
Y6950000D03*
Y7250000D03*
Y7550000D03*
X5350000Y3650000D03*
Y3950000D03*
Y4250000D03*
Y5150000D03*
X5650000Y3650000D03*
Y3950000D03*
Y4250000D03*
Y4550000D03*
Y4850000D03*
Y5150000D03*
Y5450000D03*
Y5750000D03*
G54D11*
X848300Y3983400D03*
Y4237400D03*
Y4491400D03*
Y4745400D03*
X848200Y4999400D03*
Y5253400D03*
Y5507400D03*
Y5761400D03*
Y6015400D03*
Y6269400D03*
Y6523400D03*
Y6777400D03*
X1102300Y3983400D03*
Y4237400D03*
Y4491400D03*
Y4745400D03*
Y4999400D03*
Y5253400D03*
Y5507400D03*
Y5761400D03*
Y6015400D03*
Y6269400D03*
Y6523400D03*
Y6777400D03*
X1620900Y3200000D03*
X1874900D03*
X2373000D03*
X2627000D03*
X3373000D03*
X3627000D03*
X4179300D03*
X4433300D03*
X4687300D03*
X4941300D03*
X5489200Y6107300D03*
Y6361300D03*
Y6615300D03*
Y6869300D03*
X5743200Y6107300D03*
Y6361300D03*
Y6615300D03*
Y6869300D03*
G54D20*
X4900100Y4580000D03*
Y4680000D03*
G54D21*
X5352400Y4580000D03*
Y5530000D03*
G54D12*
X2980000Y4997500D03*
Y5112500D03*
Y5227500D03*
Y5342500D03*
Y5457500D03*
Y5572500D03*
Y5687500D03*
Y5802500D03*
X4220000Y5112500D03*
Y4997500D03*
Y5342500D03*
Y5227500D03*
Y5687500D03*
Y5572500D03*
Y5457500D03*
Y5802500D03*
G54D22*
G01X5489200Y6107300D02*
X5301300D01*
X5298800Y6109800D01*
X5223900D01*
X4456600Y5342500D01*
X4220000D01*
G01X5489200Y6615300D02*
X4446400Y5572500D01*
X4220000D01*
G01X5489200Y6361300D02*
X5348400D01*
X4444600Y5457500D01*
X4220000D01*
G01X5489200Y6869300D02*
X5311500D01*
X5153100Y6710900D01*
Y6435700D01*
X4404900Y5687500D01*
X4220000D01*
G54D13*
X3312500Y4780000D03*
X3197500D03*
Y6020000D03*
X3312500D03*
X3657500Y4780000D03*
X3542500D03*
X3427500D03*
Y6020000D03*
X3542500D03*
X3657500D03*
X3887500Y4780000D03*
X3772500D03*
Y6020000D03*
X3887500D03*
X4002500Y4780000D03*
Y6020000D03*
G54D23*
G01X1102300Y3983400D02*
X3322200D01*
X3542500Y4203700D01*
Y4780000D01*
G01X1102300Y4237400D02*
X1178320Y4161380D01*
X3251580D01*
X3427500Y4337300D01*
Y4780000D01*
G01X1102300Y4491400D02*
X1251200Y4342500D01*
X3208200D01*
X3312500Y4446800D01*
Y4780000D01*
G01X1102300Y4745400D02*
X1469400Y5112500D01*
X2980000D01*
G01X1102300Y4999400D02*
X1330400Y5227500D01*
X2980000D01*
G01X1102300Y5253400D02*
X1191400Y5342500D01*
X2980000D01*
G01X1102300Y5507400D02*
X1887100D01*
X1937000Y5457500D01*
X2980000D01*
G01X1102300Y5761400D02*
X2191900D01*
X2265800Y5687500D01*
X2980000D01*
G01X1102300Y6015400D02*
X2832100D01*
X2980000Y5867500D01*
Y5802500D01*
G01X1102300Y6269400D02*
X1474900Y6642000D01*
X2961100D01*
X3312500Y6290600D01*
Y6020000D01*
G01X1102300Y6523400D02*
X1432500Y6853600D01*
X3018800D01*
X3427500Y6444900D01*
Y6020000D01*
G01X1102300Y6777400D02*
X1416500Y7091600D01*
X3044000D01*
X3772500Y6363100D01*
Y6020000D01*
G01X3197500Y4518600D02*
Y4780000D01*
G01X3657500Y6020000D02*
Y6322000D01*
G01X3542500Y6020000D02*
Y6218700D01*
G01X3772500Y4780000D02*
Y4046500D01*
X4002000Y3817000D01*
Y3377300D01*
X4179300Y3200000D01*
G01X4159050Y3907850D02*
X3887500Y4179400D01*
Y4780000D01*
G01X4433300Y3200000D02*
Y3903100D01*
X4002500Y4333900D01*
Y4780000D01*
G01X4002200Y6420000D02*
Y6390000D01*
G01X4002500Y6670000D02*
Y6607500D01*
X4002200Y6607200D01*
Y6520000D01*
G01X4002500Y6705100D02*
Y6670000D01*
G01X4220000Y4997500D02*
X4420100D01*
X4837600Y4580000D01*
X4900100D01*
G01X4220000Y5112500D02*
X4417600D01*
X4835100Y5530000D01*
X4897600D01*
G01X4900100Y4580000D02*
X5352400D01*
G01X4897600Y5530000D02*
X5352400D01*
G54D14*
X3395000Y5165000D03*
Y5635000D03*
X3805000Y5164000D03*
G54D24*
G01X3373000Y3200000D02*
X3176100Y3396900D01*
X2140700D01*
X2040150Y3497450D01*
G01X3627000Y3200000D02*
Y3402300D01*
X3421500Y3607800D01*
X2249200D01*
X2152600Y3704400D01*
G54D15*
X3805000Y5635000D03*
G54D25*
G01X848300Y3875800D02*
Y3983400D01*
G01Y4129800D02*
Y4237400D01*
G01Y3983400D02*
Y4091000D01*
G01X740700Y3983400D02*
X848300D01*
G01D02*
X955900D01*
G01X848300Y4383800D02*
Y4491400D01*
G01Y4237400D02*
Y4345000D01*
G01X740700Y4237400D02*
X848300D01*
G01D02*
X955900D01*
G01X848300Y4491400D02*
Y4599000D01*
G01X740700Y4491400D02*
X848300D01*
G01D02*
X955900D01*
G01X848300Y4637800D02*
Y4745400D01*
G01X848200Y4891800D02*
Y4999400D01*
G01X848300Y4745400D02*
Y4853000D01*
G01X740700Y4745400D02*
X848300D01*
G01D02*
X955900D01*
G01X848200Y4999400D02*
Y5107000D01*
G01X740600Y4999400D02*
X848200D01*
G01D02*
X955800D01*
G01X848200Y5145800D02*
Y5253400D01*
G01D02*
Y5361000D01*
G01X740600Y5253400D02*
X848200D01*
G01D02*
X955800D01*
G01X848200Y5399800D02*
Y5507400D01*
G01Y5653800D02*
Y5761400D01*
G01Y5507400D02*
Y5615000D01*
G01X740600Y5507400D02*
X848200D01*
G01D02*
X955800D01*
G01X848200Y5761400D02*
Y5869000D01*
G01X740600Y5761400D02*
X848200D01*
G01D02*
X955800D01*
G01X848200Y5907800D02*
Y6015400D01*
G01Y6161800D02*
Y6269400D01*
G01Y6015400D02*
Y6123000D01*
G01X740600Y6015400D02*
X848200D01*
G01D02*
X955800D01*
G01X848200Y6269400D02*
Y6377000D01*
G01X740600Y6269400D02*
X848200D01*
G01D02*
X955800D01*
G01X848200Y6415800D02*
Y6523400D01*
G01Y6669800D02*
Y6777400D01*
G01Y6523400D02*
Y6631000D01*
G01X740600Y6523400D02*
X848200D01*
G01D02*
X955800D01*
G01X848200Y6777400D02*
Y6885000D01*
G01X740600Y6777400D02*
X848200D01*
G01D02*
X955800D01*
G01X1767300Y3200000D02*
X1874900D01*
G01Y3092400D02*
Y3200000D01*
G01D02*
Y3307600D01*
G01Y3200000D02*
X1982500D01*
G01X2832400Y4997500D02*
X2980000D01*
G01Y4932400D02*
Y4997500D01*
G01D02*
X3127600D01*
G01X3237400Y5165000D02*
X3395000D01*
G01D02*
X3552600D01*
G01X3395000Y5007400D02*
Y5165000D01*
G01D02*
Y5322600D01*
G01X3237400Y5635000D02*
X3395000D01*
G01D02*
X3552600D01*
G01X3395000Y5477400D02*
Y5635000D01*
G01D02*
Y5792600D01*
G01X3647400Y5164000D02*
X3805000D01*
G01X3647400Y5635000D02*
X3805000D01*
G01X3615900Y7066000D02*
X3748500D01*
G01X3615900Y7574000D02*
X3748500D01*
G01X3657500Y4632400D02*
Y4780000D01*
G01D02*
Y4927600D01*
G01X3805000Y5164000D02*
X3962600D01*
G01X3805000Y5006400D02*
Y5164000D01*
G01D02*
Y5321600D01*
G01Y5635000D02*
X3962600D01*
G01X3805000Y5477400D02*
Y5635000D01*
G01D02*
Y5792600D01*
G01X3748500Y6933400D02*
Y7066000D01*
G01D02*
Y7198600D01*
G01Y7066000D02*
X3881100D01*
G01X3748500Y7441400D02*
Y7574000D01*
G01D02*
Y7706600D01*
G01Y7574000D02*
X3881100D01*
G01X4072400Y5227500D02*
X4220000D01*
G01X4123900Y7066000D02*
X4256500D01*
G01X4123900Y7574000D02*
X4256500D01*
G01X4220000Y5227500D02*
X4367600D01*
G01X4256500Y6933400D02*
Y7066000D01*
G01D02*
Y7198600D01*
G01Y7066000D02*
X4389100D01*
G01X4256500Y7441400D02*
Y7574000D01*
G01D02*
Y7706600D01*
G01Y7574000D02*
X4389100D01*
G01X4579700Y3200000D02*
X4687300D01*
G01Y3092400D02*
Y3200000D01*
G01D02*
Y3307600D01*
G01Y3200000D02*
X4794900D01*
G01X4837500Y4680000D02*
X4900100D01*
G01D02*
X4962700D01*
G01X4900100D02*
Y4737600D01*
G01X4835000Y5430000D02*
X4897600D01*
G01D02*
X4960200D01*
G01X4897600Y5372400D02*
Y5430000D01*
G01X5635600Y6107300D02*
X5743200D01*
G01X5635600Y6361300D02*
X5743200D01*
G01X5635600Y6615300D02*
X5743200D01*
G01X5635600Y6869300D02*
X5743200D01*
G01Y5999700D02*
Y6107300D01*
G01D02*
Y6214900D01*
G01Y6107300D02*
X5850800D01*
G01X5743200Y6253700D02*
Y6361300D01*
G01D02*
Y6468900D01*
G01Y6361300D02*
X5850800D01*
G01X5743200Y6507700D02*
Y6615300D01*
G01D02*
Y6722900D01*
G01Y6615300D02*
X5850800D01*
G01X5743200Y6761700D02*
Y6869300D01*
G01D02*
Y6976900D01*
G01Y6869300D02*
X5850800D01*
G54D16*
X3748500Y7066000D03*
Y7574000D03*
X4256500Y7066000D03*
Y7574000D03*
G54D26*
G01X2569200Y6493900D02*
X2806100D01*
X3197500Y6102500D01*
Y6020000D01*
G01X2980000Y5572500D02*
X2706700D01*
G01X3886200Y5851500D02*
X3887500Y5852800D01*
G01D02*
Y6020000D01*
G01Y6227700D02*
Y6020000D01*
G01X3888000Y6228200D02*
X3887500Y6227700D01*
G01X4006700Y5803600D02*
X4007800Y5802500D01*
G01D02*
X4220000D01*
G01X4002200Y6390000D02*
Y6175300D01*
X4002500Y6175000D01*
Y6020000D01*
G01Y7320000D02*
Y6705100D01*
G01X4220000Y5802500D02*
X4367600D01*
G54D17*
X4002500Y7320000D03*
G54D18*
X4002200Y6420000D03*
Y6520000D03*
X4897600Y5430000D03*
Y5530000D03*
G54D19*
X4002500Y6670000D03*
X4102500D03*
M02*
