G04 ================== begin FILE IDENTIFICATION RECORD ==================*
G04 Layout Name:  certification_board.mcm*
G04 Film Name:    silk_top*
G04 File Format:  Gerber RS274X*
G04 File Origin:  Cadence Allegro 17.2-S049*
G04 Origin Date:  Fri Jun 26 15:46:56 2020*
G04 *
G04 Layer:  USER PART NUMBER/SILKSCREEN_TOP*
G04 Layer:  TOLERANCE/SILKSCREEN_TOP*
G04 Layer:  REF DES/SILKSCREEN_TOP*
G04 Layer:  COMPONENT GEOMETRY/ASSEMBLY_TOP*
G04 Layer:  COMPONENT GEOMETRY/SILKSCREEN_TOP*
G04 Layer:  DRAWING FORMAT/OUTLINE*
G04 Layer:  DEVICE TYPE/SILKSCREEN_TOP*
G04 Layer:  COMPONENT VALUE/SILKSCREEN_TOP*
G04 Layer:  SUBSTRATE GEOMETRY/SILKSCREEN_TOP*
G04 *
G04 Offset:    (0.0000 0.0000)*
G04 Mirror:    No*
G04 Mode:      Positive*
G04 Rotation:  0*
G04 FullContactRelief:  No*
G04 UndefLineWidth:     0.1000*
G04 ================== end FILE IDENTIFICATION RECORD ====================*
%FSLAX25Y25*MOMM*%
%IR0*IPPOS*OFA0.00000B0.00000*MIA0B0*SFA1.00000B1.00000*%
%ADD10C,.5*%
%ADD11C,.1*%
G75*
%LPD*%
G75*
G54D10*
G01X1587300Y7499300D02*
Y7709300D01*
G01X1692300D02*
Y7499300D01*
G01Y7604300D02*
X1587300D01*
G01X1839800Y7709300D02*
Y7499300D01*
G01X1782300Y7709300D02*
X1897300D01*
G01X2174800Y7499300D02*
Y7709300D01*
X2239800Y7534300D01*
X2304800Y7709300D01*
Y7499300D01*
G01X2409800Y7709300D02*
X2469800D01*
G01X2439800D02*
Y7499300D01*
G01X2409800D02*
X2469800D01*
G01X2694800Y7691800D02*
X2679800Y7702300D01*
X2662300Y7709300D01*
X2642300D01*
X2619800Y7698800D01*
X2602300Y7681300D01*
X2589800Y7660300D01*
X2579800Y7625300D01*
X2577300Y7593800D01*
X2582300Y7562300D01*
X2589800Y7541300D01*
X2604800Y7520300D01*
X2622300Y7506300D01*
X2639800Y7499300D01*
X2657300D01*
X2674800Y7506300D01*
X2689800Y7516800D01*
X2702300Y7530790D01*
G01X2789800Y7499300D02*
Y7709300D01*
X2852300D01*
X2872300Y7698800D01*
X2884800Y7684800D01*
X2889800Y7656800D01*
X2884800Y7628800D01*
X2869800Y7611300D01*
X2852300Y7600800D01*
X2789800D01*
G01X2852300D02*
X2889800Y7499300D01*
G01X3039800D02*
X3019800Y7502800D01*
X3002300Y7516800D01*
X2987300Y7537800D01*
X2977300Y7562300D01*
X2972300Y7590300D01*
Y7618300D01*
X2977300Y7646300D01*
X2987300Y7670800D01*
X3002300Y7691800D01*
X3019800Y7705800D01*
X3039800Y7709300D01*
X3059800Y7705800D01*
X3077300Y7691800D01*
X3092300Y7670800D01*
X3102300Y7646300D01*
X3107300Y7618300D01*
Y7590300D01*
X3102300Y7562300D01*
X3092300Y7537800D01*
X3077300Y7516800D01*
X3059800Y7502800D01*
X3039800Y7499300D01*
G01X3182300D02*
Y7709300D01*
X3297300Y7499300D01*
Y7709300D01*
G54D11*
G01X6050000Y2750000D02*
Y8000000D01*
X550000D01*
Y2750000D01*
X6050000D01*
G01X975300Y3856400D02*
X721300D01*
Y4872400D01*
X975300D01*
Y3856400D01*
G01D02*
X721300D01*
Y4872400D01*
X975300D01*
Y3856400D01*
G01X721200Y4872400D02*
X975200D01*
Y6904400D01*
X721200D01*
Y4872400D01*
G01D02*
X975200D01*
Y6904400D01*
X721200D01*
Y4872400D01*
G01X754280Y6984700D02*
X762330Y6972000D01*
X771970Y6963530D01*
X783230Y6959300D01*
X796100Y6963530D01*
X805750Y6972000D01*
X815400Y6984700D01*
X818620Y7001630D01*
Y7086300D01*
G01X885390Y7065130D02*
X895040Y7077830D01*
X906300Y7084180D01*
X919170Y7086300D01*
X935250Y7082070D01*
X946510Y7071480D01*
X949730Y7058790D01*
X948120Y7046080D01*
X941680Y7035500D01*
X909520Y7014330D01*
X895040Y6999520D01*
X885390Y6978350D01*
X882170Y6959300D01*
X949730D01*
G01X975300Y4872400D02*
X1229300D01*
Y3856400D01*
X975300D01*
Y4872400D01*
G01D02*
X1229300D01*
Y3856400D01*
X975300D01*
Y4872400D01*
G01X1229300Y6904400D02*
X975300D01*
Y4872400D01*
X1229300D01*
Y6904400D01*
G01D02*
X975300D01*
Y4872400D01*
X1229300D01*
Y6904400D01*
G01X1015580Y6984600D02*
X1023630Y6971900D01*
X1033270Y6963430D01*
X1044530Y6959200D01*
X1057400Y6963430D01*
X1067050Y6971900D01*
X1076700Y6984600D01*
X1079920Y7001530D01*
Y7086200D01*
G01X1141870Y6984600D02*
X1151510Y6969780D01*
X1164380Y6961320D01*
X1178860Y6959200D01*
X1191730Y6961320D01*
X1204590Y6971900D01*
X1212630Y6984600D01*
X1214240Y6997300D01*
X1211030Y7012110D01*
X1199770Y7022700D01*
X1188510Y7026930D01*
X1174030D01*
G01X1188510D02*
X1198160Y7033280D01*
X1206200Y7043860D01*
X1209420Y7056570D01*
X1206200Y7069270D01*
X1198160Y7079850D01*
X1183680Y7086200D01*
X1169210Y7084080D01*
X1154730Y7075620D01*
G01X1339830Y3923800D02*
Y4043800D01*
X1371830D01*
X1382500Y4037800D01*
X1390500Y4023800D01*
X1393170Y4007800D01*
X1390500Y3991800D01*
X1383830Y3979800D01*
X1371830Y3973800D01*
X1339830D01*
G01X1457470Y3987800D02*
X1462800Y3993800D01*
X1466800Y4003800D01*
X1469470Y4017800D01*
X1466800Y4029800D01*
X1461470Y4037800D01*
X1452130Y4043800D01*
X1416130D01*
Y3923800D01*
X1460130D01*
X1469470Y3931800D01*
X1474800Y3943800D01*
X1477470Y3957800D01*
X1474800Y3971800D01*
X1466800Y3983800D01*
X1457470Y3987800D01*
X1416130D01*
G01X1497770Y3941800D02*
X1505770Y3931800D01*
X1515100Y3925800D01*
X1527100Y3923800D01*
X1539100Y3927800D01*
X1548430Y3935800D01*
X1555100Y3949800D01*
X1556430Y3965800D01*
X1553770Y3981800D01*
X1547100Y3991800D01*
X1537770Y3999800D01*
X1528430Y4001800D01*
X1519100Y3999800D01*
X1507100Y3991800D01*
X1511100Y4043800D01*
X1547100D01*
G01X1335330Y4433800D02*
Y4553800D01*
X1367330D01*
X1378000Y4547800D01*
X1386000Y4533800D01*
X1388670Y4517800D01*
X1386000Y4501800D01*
X1379330Y4489800D01*
X1367330Y4483800D01*
X1335330D01*
G01X1408970Y4433800D02*
X1442300Y4553800D01*
X1475630Y4433800D01*
G01X1463630Y4475800D02*
X1420970D01*
G01X1522600Y4553800D02*
X1511930Y4549800D01*
X1503930Y4539800D01*
X1498600Y4527800D01*
X1494600Y4511800D01*
X1493270Y4493800D01*
X1494600Y4475800D01*
X1498600Y4459800D01*
X1503930Y4447800D01*
X1511930Y4437800D01*
X1522600Y4433800D01*
X1533270Y4437800D01*
X1541270Y4447800D01*
X1546600Y4459800D01*
X1550600Y4475800D01*
X1551930Y4493800D01*
X1550600Y4511800D01*
X1546600Y4527800D01*
X1541270Y4539800D01*
X1533270Y4549800D01*
X1522600Y4553800D01*
G01X1339830Y4203600D02*
Y4323600D01*
X1374500Y4223600D01*
X1409170Y4323600D01*
Y4203600D01*
G01X1484130Y4313600D02*
X1476130Y4319600D01*
X1466800Y4323600D01*
X1456130D01*
X1444130Y4317600D01*
X1434800Y4307600D01*
X1428130Y4295600D01*
X1422800Y4275600D01*
X1421470Y4257600D01*
X1424130Y4239600D01*
X1428130Y4227600D01*
X1436130Y4215600D01*
X1445470Y4207600D01*
X1454800Y4203600D01*
X1464130D01*
X1473470Y4207600D01*
X1481470Y4213600D01*
X1488130Y4221600D01*
G01X1505770Y4323600D02*
Y4237600D01*
X1511100Y4219600D01*
X1521770Y4207600D01*
X1535100Y4203600D01*
X1548430Y4207600D01*
X1559100Y4219600D01*
X1564430Y4237600D01*
Y4323600D01*
G01X1575400Y4163600D02*
X1655400D01*
G01X1706370Y4267600D02*
X1711700Y4273600D01*
X1715700Y4283600D01*
X1718370Y4297600D01*
X1715700Y4309600D01*
X1710370Y4317600D01*
X1701030Y4323600D01*
X1665030D01*
Y4203600D01*
X1709030D01*
X1718370Y4211600D01*
X1723700Y4223600D01*
X1726370Y4237600D01*
X1723700Y4251600D01*
X1715700Y4263600D01*
X1706370Y4267600D01*
X1665030D01*
G01X1776000Y4203600D02*
X1765330Y4205600D01*
X1756000Y4213600D01*
X1748000Y4225600D01*
X1742670Y4239600D01*
X1740000Y4255600D01*
Y4271600D01*
X1742670Y4287600D01*
X1748000Y4301600D01*
X1756000Y4313600D01*
X1765330Y4321600D01*
X1776000Y4323600D01*
X1786670Y4321600D01*
X1796000Y4313600D01*
X1804000Y4301600D01*
X1809330Y4287600D01*
X1812000Y4271600D01*
Y4255600D01*
X1809330Y4239600D01*
X1804000Y4225600D01*
X1796000Y4213600D01*
X1786670Y4205600D01*
X1776000Y4203600D01*
G01X1856300D02*
X1845630Y4205600D01*
X1836300Y4213600D01*
X1828300Y4225600D01*
X1822970Y4239600D01*
X1820300Y4255600D01*
Y4271600D01*
X1822970Y4287600D01*
X1828300Y4301600D01*
X1836300Y4313600D01*
X1845630Y4321600D01*
X1856300Y4323600D01*
X1866970Y4321600D01*
X1876300Y4313600D01*
X1884300Y4301600D01*
X1889630Y4287600D01*
X1892300Y4271600D01*
Y4255600D01*
X1889630Y4239600D01*
X1884300Y4225600D01*
X1876300Y4213600D01*
X1866970Y4205600D01*
X1856300Y4203600D01*
G01X1936600Y4323600D02*
Y4203600D01*
G01X1905930Y4323600D02*
X1967270D01*
G01X2016900D02*
X2006230Y4319600D01*
X1998230Y4309600D01*
X1992900Y4297600D01*
X1988900Y4281600D01*
X1987570Y4263600D01*
X1988900Y4245600D01*
X1992900Y4229600D01*
X1998230Y4217600D01*
X2006230Y4207600D01*
X2016900Y4203600D01*
X2027570Y4207600D01*
X2035570Y4217600D01*
X2040900Y4229600D01*
X2044900Y4245600D01*
X2046230Y4263600D01*
X2044900Y4281600D01*
X2040900Y4297600D01*
X2035570Y4309600D01*
X2027570Y4319600D01*
X2016900Y4323600D01*
G01X1335080Y4945400D02*
Y5065400D01*
X1367080D01*
X1377750Y5059400D01*
X1385750Y5045400D01*
X1388420Y5029400D01*
X1385750Y5013400D01*
X1379080Y5001400D01*
X1367080Y4995400D01*
X1335080D01*
G01X1408720Y4945400D02*
X1442050Y5065400D01*
X1475380Y4945400D01*
G01X1463380Y4987400D02*
X1420720D01*
G01X1497020Y4995400D02*
X1506350Y5009400D01*
X1514350Y5017400D01*
X1525020Y5021400D01*
X1534350Y5017400D01*
X1541020Y5009400D01*
X1546350Y4997400D01*
X1547680Y4983400D01*
X1546350Y4971400D01*
X1541020Y4959400D01*
X1533020Y4949400D01*
X1523680Y4945400D01*
X1513020Y4949400D01*
X1503680Y4961400D01*
X1498350Y4979400D01*
X1497020Y4999400D01*
X1499680Y5025400D01*
X1503680Y5039400D01*
X1510350Y5053400D01*
X1519680Y5063400D01*
X1529020Y5065400D01*
X1538350Y5061400D01*
X1545020Y5051400D01*
G01X1330030Y4698100D02*
Y4818100D01*
X1362030D01*
X1372700Y4812100D01*
X1380700Y4798100D01*
X1383370Y4782100D01*
X1380700Y4766100D01*
X1374030Y4754100D01*
X1362030Y4748100D01*
X1330030D01*
G01X1403670Y4698100D02*
X1437000Y4818100D01*
X1470330Y4698100D01*
G01X1458330Y4740100D02*
X1415670D01*
G01X1533300Y4698100D02*
Y4818100D01*
X1483970Y4732100D01*
X1550630D01*
G01X1330380Y5199100D02*
Y5319100D01*
X1362380D01*
X1373050Y5313100D01*
X1381050Y5299100D01*
X1383720Y5283100D01*
X1381050Y5267100D01*
X1374380Y5255100D01*
X1362380Y5249100D01*
X1330380D01*
G01X1448020Y5263100D02*
X1453350Y5269100D01*
X1457350Y5279100D01*
X1460020Y5293100D01*
X1457350Y5305100D01*
X1452020Y5313100D01*
X1442680Y5319100D01*
X1406680D01*
Y5199100D01*
X1450680D01*
X1460020Y5207100D01*
X1465350Y5219100D01*
X1468020Y5233100D01*
X1465350Y5247100D01*
X1457350Y5259100D01*
X1448020Y5263100D01*
X1406680D01*
G01X1517650Y5199100D02*
Y5319100D01*
X1501650Y5295100D01*
G01Y5199100D02*
X1533650D01*
G01X1597950Y5319100D02*
X1587280Y5315100D01*
X1579280Y5305100D01*
X1573950Y5293100D01*
X1569950Y5277100D01*
X1568620Y5259100D01*
X1569950Y5241100D01*
X1573950Y5225100D01*
X1579280Y5213100D01*
X1587280Y5203100D01*
X1597950Y5199100D01*
X1608620Y5203100D01*
X1616620Y5213100D01*
X1621950Y5225100D01*
X1625950Y5241100D01*
X1627280Y5259100D01*
X1625950Y5277100D01*
X1621950Y5293100D01*
X1616620Y5305100D01*
X1608620Y5315100D01*
X1597950Y5319100D01*
G01X1329880Y5455600D02*
Y5575600D01*
X1361880D01*
X1372550Y5569600D01*
X1380550Y5555600D01*
X1383220Y5539600D01*
X1380550Y5523600D01*
X1373880Y5511600D01*
X1361880Y5505600D01*
X1329880D01*
G01X1403520Y5455600D02*
X1436850Y5575600D01*
X1470180Y5455600D01*
G01X1458180Y5497600D02*
X1415520D01*
G01X1517150Y5455600D02*
Y5575600D01*
X1501150Y5551600D01*
G01Y5455600D02*
X1533150D01*
G01X1327780Y5698700D02*
Y5818700D01*
X1359780D01*
X1370450Y5812700D01*
X1378450Y5798700D01*
X1381120Y5782700D01*
X1378450Y5766700D01*
X1371780Y5754700D01*
X1359780Y5748700D01*
X1327780D01*
G01X1401420Y5698700D02*
X1434750Y5818700D01*
X1468080Y5698700D01*
G01X1456080Y5740700D02*
X1413420D01*
G01X1485720Y5716700D02*
X1493720Y5706700D01*
X1503050Y5700700D01*
X1515050Y5698700D01*
X1527050Y5702700D01*
X1536380Y5710700D01*
X1543050Y5724700D01*
X1544380Y5740700D01*
X1541720Y5756700D01*
X1535050Y5766700D01*
X1525720Y5774700D01*
X1516380Y5776700D01*
X1507050Y5774700D01*
X1495050Y5766700D01*
X1499050Y5818700D01*
X1535050D01*
G01X1324480Y5960400D02*
Y6080400D01*
X1356480D01*
X1367150Y6074400D01*
X1375150Y6060400D01*
X1377820Y6044400D01*
X1375150Y6028400D01*
X1368480Y6016400D01*
X1356480Y6010400D01*
X1324480D01*
G01X1398120Y5960400D02*
X1431450Y6080400D01*
X1464780Y5960400D01*
G01X1452780Y6002400D02*
X1410120D01*
G01X1511750Y5960400D02*
X1521080Y5962400D01*
X1531750Y5968400D01*
X1538420Y5978400D01*
X1541080Y5992400D01*
X1538420Y6006400D01*
X1530420Y6018400D01*
X1518420Y6024400D01*
X1505080D01*
X1497080Y6028400D01*
X1490420Y6038400D01*
X1487750Y6052400D01*
X1491750Y6066400D01*
X1501080Y6076400D01*
X1511750Y6080400D01*
X1522420Y6076400D01*
X1531750Y6066400D01*
X1535750Y6052400D01*
X1533080Y6038400D01*
X1526420Y6028400D01*
X1518420Y6024400D01*
X1505080D01*
X1493080Y6018400D01*
X1485080Y6006400D01*
X1482420Y5992400D01*
X1485080Y5978400D01*
X1491750Y5968400D01*
X1502420Y5962400D01*
X1511750Y5960400D01*
G01X1327830Y6223100D02*
Y6343100D01*
X1359830D01*
X1370500Y6337100D01*
X1378500Y6323100D01*
X1381170Y6307100D01*
X1378500Y6291100D01*
X1371830Y6279100D01*
X1359830Y6273100D01*
X1327830D01*
G01X1445470Y6287100D02*
X1450800Y6293100D01*
X1454800Y6303100D01*
X1457470Y6317100D01*
X1454800Y6329100D01*
X1449470Y6337100D01*
X1440130Y6343100D01*
X1404130D01*
Y6223100D01*
X1448130D01*
X1457470Y6231100D01*
X1462800Y6243100D01*
X1465470Y6257100D01*
X1462800Y6271100D01*
X1454800Y6283100D01*
X1445470Y6287100D01*
X1404130D01*
G01X1515100Y6343100D02*
X1504430Y6339100D01*
X1496430Y6329100D01*
X1491100Y6317100D01*
X1487100Y6301100D01*
X1485770Y6283100D01*
X1487100Y6265100D01*
X1491100Y6249100D01*
X1496430Y6237100D01*
X1504430Y6227100D01*
X1515100Y6223100D01*
X1525770Y6227100D01*
X1533770Y6237100D01*
X1539100Y6249100D01*
X1543100Y6265100D01*
X1544430Y6283100D01*
X1543100Y6301100D01*
X1539100Y6317100D01*
X1533770Y6329100D01*
X1525770Y6339100D01*
X1515100Y6343100D01*
G01X1319980Y6457500D02*
Y6577500D01*
X1351980D01*
X1362650Y6571500D01*
X1370650Y6557500D01*
X1373320Y6541500D01*
X1370650Y6525500D01*
X1363980Y6513500D01*
X1351980Y6507500D01*
X1319980D01*
G01X1437620Y6521500D02*
X1442950Y6527500D01*
X1446950Y6537500D01*
X1449620Y6551500D01*
X1446950Y6563500D01*
X1441620Y6571500D01*
X1432280Y6577500D01*
X1396280D01*
Y6457500D01*
X1440280D01*
X1449620Y6465500D01*
X1454950Y6477500D01*
X1457620Y6491500D01*
X1454950Y6505500D01*
X1446950Y6517500D01*
X1437620Y6521500D01*
X1396280D01*
G01X1507250Y6457500D02*
Y6577500D01*
X1491250Y6553500D01*
G01Y6457500D02*
X1523250D01*
G01X1587550D02*
Y6577500D01*
X1571550Y6553500D01*
G01Y6457500D02*
X1603550D01*
G01X1322480Y6719000D02*
Y6839000D01*
X1354480D01*
X1365150Y6833000D01*
X1373150Y6819000D01*
X1375820Y6803000D01*
X1373150Y6787000D01*
X1366480Y6775000D01*
X1354480Y6769000D01*
X1322480D01*
G01X1396120Y6719000D02*
X1429450Y6839000D01*
X1462780Y6719000D01*
G01X1450780Y6761000D02*
X1408120D01*
G01X1509750Y6719000D02*
Y6839000D01*
X1493750Y6815000D01*
G01Y6719000D02*
X1525750D01*
G01X1590050D02*
Y6839000D01*
X1574050Y6815000D01*
G01Y6719000D02*
X1606050D01*
G01X1424870Y2907900D02*
X1432870Y2893900D01*
X1443530Y2885900D01*
X1455530Y2883900D01*
X1466200Y2885900D01*
X1476870Y2895900D01*
X1483530Y2907900D01*
X1484870Y2919900D01*
X1482200Y2933900D01*
X1472870Y2943900D01*
X1463530Y2947900D01*
X1451530D01*
G01X1463530D02*
X1471530Y2953900D01*
X1478200Y2963900D01*
X1480870Y2975900D01*
X1478200Y2987900D01*
X1471530Y2997900D01*
X1459530Y3003900D01*
X1447530Y3001900D01*
X1435530Y2993900D01*
G01X1534500Y2879900D02*
X1531830Y2881900D01*
Y2885900D01*
X1534500Y2887900D01*
X1537170Y2885900D01*
Y2881900D01*
X1534500Y2879900D01*
G01X1585470Y2907900D02*
X1593470Y2893900D01*
X1604130Y2885900D01*
X1616130Y2883900D01*
X1626800Y2885900D01*
X1637470Y2895900D01*
X1644130Y2907900D01*
X1645470Y2919900D01*
X1642800Y2933900D01*
X1633470Y2943900D01*
X1624130Y2947900D01*
X1612130D01*
G01X1624130D02*
X1632130Y2953900D01*
X1638800Y2963900D01*
X1641470Y2975900D01*
X1638800Y2987900D01*
X1632130Y2997900D01*
X1620130Y3003900D01*
X1608130Y3001900D01*
X1596130Y2993900D01*
G01X1661770Y3003900D02*
X1695100Y2883900D01*
X1728430Y3003900D01*
G01X1493900Y3327000D02*
Y3073000D01*
G01D02*
X2001900D01*
G01X1493900D02*
X2001900D01*
G01X1493900Y3327000D02*
Y3073000D01*
G01X1501830Y3380100D02*
X1508500Y3368100D01*
X1516500Y3360100D01*
X1525830Y3356100D01*
X1536500Y3360100D01*
X1544500Y3368100D01*
X1552500Y3380100D01*
X1555170Y3396100D01*
Y3476100D01*
G01X1603170Y3406100D02*
X1612500Y3420100D01*
X1620500Y3428100D01*
X1631170Y3432100D01*
X1640500Y3428100D01*
X1647170Y3420100D01*
X1652500Y3408100D01*
X1653830Y3394100D01*
X1652500Y3382100D01*
X1647170Y3370100D01*
X1639170Y3360100D01*
X1629830Y3356100D01*
X1619170Y3360100D01*
X1609830Y3372100D01*
X1604500Y3390100D01*
X1603170Y3410100D01*
X1605830Y3436100D01*
X1609830Y3450100D01*
X1616500Y3464100D01*
X1625830Y3474100D01*
X1635170Y3476100D01*
X1644500Y3472100D01*
X1651170Y3462100D01*
G01X2001900Y3327000D02*
X1493900D01*
G01X2001900D02*
X1493900D01*
G01X1547930Y3606500D02*
Y3726500D01*
X1579930D01*
X1590600Y3720500D01*
X1598600Y3706500D01*
X1601270Y3690500D01*
X1598600Y3674500D01*
X1591930Y3662500D01*
X1579930Y3656500D01*
X1547930D01*
G01X1654900Y3606500D02*
X1644230Y3608500D01*
X1634900Y3616500D01*
X1626900Y3628500D01*
X1621570Y3642500D01*
X1618900Y3658500D01*
Y3674500D01*
X1621570Y3690500D01*
X1626900Y3704500D01*
X1634900Y3716500D01*
X1644230Y3724500D01*
X1654900Y3726500D01*
X1665570Y3724500D01*
X1674900Y3716500D01*
X1682900Y3704500D01*
X1688230Y3690500D01*
X1690900Y3674500D01*
Y3658500D01*
X1688230Y3642500D01*
X1682900Y3628500D01*
X1674900Y3616500D01*
X1665570Y3608500D01*
X1654900Y3606500D01*
G01X1695200Y3726500D02*
X1713870Y3606500D01*
X1735200Y3726500D01*
X1756530Y3606500D01*
X1775200Y3726500D01*
G01X1842170Y3606500D02*
X1788830D01*
Y3726500D01*
X1842170D01*
G01X1820830Y3668500D02*
X1788830D01*
G01X1869130Y3606500D02*
Y3726500D01*
X1902470D01*
X1913130Y3720500D01*
X1919800Y3712500D01*
X1922470Y3696500D01*
X1919800Y3680500D01*
X1911800Y3670500D01*
X1902470Y3664500D01*
X1869130D01*
G01X1902470D02*
X1922470Y3606500D01*
G01X1453400Y7282000D02*
X1464070Y7272000D01*
X1476070Y7266000D01*
X1486730D01*
X1497400Y7272000D01*
X1505400Y7282000D01*
X1509400Y7296000D01*
X1506730Y7310000D01*
X1500070Y7322000D01*
X1488070Y7330000D01*
X1472070Y7334000D01*
X1462730Y7342000D01*
X1458730Y7356000D01*
X1461400Y7370000D01*
X1468070Y7380000D01*
X1477400Y7386000D01*
X1486730D01*
X1496070Y7382000D01*
X1504070Y7372000D01*
G01X1565400Y7386000D02*
X1597400D01*
G01X1581400D02*
Y7266000D01*
G01X1565400D02*
X1597400D01*
G01X1689400Y7326000D02*
X1716070D01*
Y7290000D01*
X1708070Y7278000D01*
X1698730Y7270000D01*
X1685400Y7266000D01*
X1672070Y7270000D01*
X1662730Y7278000D01*
X1654730Y7290000D01*
X1649400Y7304000D01*
X1646730Y7320000D01*
Y7334000D01*
X1649400Y7346000D01*
X1654730Y7360000D01*
X1662730Y7372000D01*
X1670730Y7380000D01*
X1681400Y7386000D01*
X1690730D01*
X1701400Y7382000D01*
X1709400Y7374000D01*
G01X1756070Y7266000D02*
Y7386000D01*
X1806730D01*
G01X1788070Y7328000D02*
X1756070D01*
G01X1881400Y7266000D02*
X1870730Y7268000D01*
X1861400Y7276000D01*
X1853400Y7288000D01*
X1848070Y7302000D01*
X1845400Y7318000D01*
Y7334000D01*
X1848070Y7350000D01*
X1853400Y7364000D01*
X1861400Y7376000D01*
X1870730Y7384000D01*
X1881400Y7386000D01*
X1892070Y7384000D01*
X1901400Y7376000D01*
X1909400Y7364000D01*
X1914730Y7350000D01*
X1917400Y7334000D01*
Y7318000D01*
X1914730Y7302000D01*
X1909400Y7288000D01*
X1901400Y7276000D01*
X1892070Y7268000D01*
X1881400Y7266000D01*
G01X1953400D02*
X2009400Y7386000D01*
G01X1953400D02*
X2009400Y7266000D01*
G01X1858750Y2936800D02*
X1885420D01*
Y2900800D01*
X1877420Y2888800D01*
X1868080Y2880800D01*
X1854750Y2876800D01*
X1841420Y2880800D01*
X1832080Y2888800D01*
X1824080Y2900800D01*
X1818750Y2914800D01*
X1816080Y2930800D01*
Y2944800D01*
X1818750Y2956800D01*
X1824080Y2970800D01*
X1832080Y2982800D01*
X1840080Y2990800D01*
X1850750Y2996800D01*
X1860080D01*
X1870750Y2992800D01*
X1878750Y2984800D01*
G01X1900380Y2876800D02*
Y2996800D01*
X1961720Y2876800D01*
Y2996800D01*
G01X1982020Y2876800D02*
Y2996800D01*
X2008680D01*
X2019350Y2990800D01*
X2027350Y2982800D01*
X2034020Y2970800D01*
X2039350Y2956800D01*
X2040680Y2936800D01*
X2039350Y2916800D01*
X2034020Y2902800D01*
X2027350Y2890800D01*
X2019350Y2882800D01*
X2008680Y2876800D01*
X1982020D01*
G01X1895470Y7127000D02*
X1900800Y7133000D01*
X1904800Y7143000D01*
X1907470Y7157000D01*
X1904800Y7169000D01*
X1899470Y7177000D01*
X1890130Y7183000D01*
X1854130D01*
Y7063000D01*
X1898130D01*
X1907470Y7071000D01*
X1912800Y7083000D01*
X1915470Y7097000D01*
X1912800Y7111000D01*
X1904800Y7123000D01*
X1895470Y7127000D01*
X1854130D01*
G01X1984800Y7063000D02*
X1974130Y7065000D01*
X1964800Y7073000D01*
X1956800Y7085000D01*
X1951470Y7099000D01*
X1948800Y7115000D01*
Y7131000D01*
X1951470Y7147000D01*
X1956800Y7161000D01*
X1964800Y7173000D01*
X1974130Y7181000D01*
X1984800Y7183000D01*
X1995470Y7181000D01*
X2004800Y7173000D01*
X2012800Y7161000D01*
X2018130Y7147000D01*
X2020800Y7131000D01*
Y7115000D01*
X2018130Y7099000D01*
X2012800Y7085000D01*
X2004800Y7073000D01*
X1995470Y7065000D01*
X1984800Y7063000D01*
G01X2051470D02*
X2084800Y7183000D01*
X2118130Y7063000D01*
G01X2106130Y7105000D02*
X2063470D01*
G01X2158130Y7063000D02*
Y7183000D01*
X2191470D01*
X2202130Y7177000D01*
X2208800Y7169000D01*
X2211470Y7153000D01*
X2208800Y7137000D01*
X2200800Y7127000D01*
X2191470Y7121000D01*
X2158130D01*
G01X2191470D02*
X2211470Y7063000D01*
G01X2255470D02*
Y7183000D01*
X2282130D01*
X2292800Y7177000D01*
X2300800Y7169000D01*
X2307470Y7157000D01*
X2312800Y7143000D01*
X2314130Y7123000D01*
X2312800Y7103000D01*
X2307470Y7089000D01*
X2300800Y7077000D01*
X2292800Y7069000D01*
X2282130Y7063000D01*
X2255470D01*
G01X2459470Y7163000D02*
X2467470Y7175000D01*
X2476800Y7181000D01*
X2487470Y7183000D01*
X2500800Y7179000D01*
X2510130Y7169000D01*
X2512800Y7157000D01*
X2511470Y7145000D01*
X2506130Y7135000D01*
X2479470Y7115000D01*
X2467470Y7101000D01*
X2459470Y7081000D01*
X2456800Y7063000D01*
X2512800D01*
G01X2560800Y7143000D02*
X2584800Y7063000D01*
X2608800Y7143000D01*
G01X2659470Y7163000D02*
X2667470Y7175000D01*
X2676800Y7181000D01*
X2687470Y7183000D01*
X2700800Y7179000D01*
X2710130Y7169000D01*
X2712800Y7157000D01*
X2711470Y7145000D01*
X2706130Y7135000D01*
X2679470Y7115000D01*
X2667470Y7101000D01*
X2659470Y7081000D01*
X2656800Y7063000D01*
X2712800D01*
G01X2001900Y3073000D02*
Y3327000D01*
G01Y3073000D02*
Y3327000D01*
G01X2272380Y2876300D02*
Y2996300D01*
X2305720D01*
X2316380Y2990300D01*
X2323050Y2982300D01*
X2325720Y2966300D01*
X2323050Y2950300D01*
X2315050Y2940300D01*
X2305720Y2934300D01*
X2272380D01*
G01X2305720D02*
X2325720Y2876300D01*
G01X2351350D02*
X2407350Y2996300D01*
G01X2351350D02*
X2407350Y2876300D01*
G01X2246000Y3327000D02*
Y3073000D01*
G01D02*
X2754000D01*
G01X2246000D02*
X2754000D01*
G01X2246000Y3327000D02*
Y3073000D01*
G01X2225630Y3385300D02*
X2232300Y3373300D01*
X2240300Y3365300D01*
X2249630Y3361300D01*
X2260300Y3365300D01*
X2268300Y3373300D01*
X2276300Y3385300D01*
X2278970Y3401300D01*
Y3481300D01*
G01X2352300Y3361300D02*
X2361630Y3363300D01*
X2372300Y3369300D01*
X2378970Y3379300D01*
X2381630Y3393300D01*
X2378970Y3407300D01*
X2370970Y3419300D01*
X2358970Y3425300D01*
X2345630D01*
X2337630Y3429300D01*
X2330970Y3439300D01*
X2328300Y3453300D01*
X2332300Y3467300D01*
X2341630Y3477300D01*
X2352300Y3481300D01*
X2362970Y3477300D01*
X2372300Y3467300D01*
X2376300Y3453300D01*
X2373630Y3439300D01*
X2366970Y3429300D01*
X2358970Y3425300D01*
X2345630D01*
X2333630Y3419300D01*
X2325630Y3407300D01*
X2322970Y3393300D01*
X2325630Y3379300D01*
X2332300Y3369300D01*
X2342970Y3363300D01*
X2352300Y3361300D01*
G01X2754000Y3327000D02*
X2246000D01*
G01X2754000D02*
X2246000D01*
G01X2302920Y3720100D02*
Y3634100D01*
X2308250Y3616100D01*
X2318920Y3604100D01*
X2332250Y3600100D01*
X2345580Y3604100D01*
X2356250Y3616100D01*
X2361580Y3634100D01*
Y3720100D01*
G01X2384550Y3616100D02*
X2395220Y3606100D01*
X2407220Y3600100D01*
X2417880D01*
X2428550Y3606100D01*
X2436550Y3616100D01*
X2440550Y3630100D01*
X2437880Y3644100D01*
X2431220Y3656100D01*
X2419220Y3664100D01*
X2403220Y3668100D01*
X2393880Y3676100D01*
X2389880Y3690100D01*
X2392550Y3704100D01*
X2399220Y3714100D01*
X2408550Y3720100D01*
X2417880D01*
X2427220Y3716100D01*
X2435220Y3706100D01*
G01X2459520Y3600100D02*
X2492850Y3720100D01*
X2526180Y3600100D01*
G01X2514180Y3642100D02*
X2471520D01*
G01X2546480Y3600100D02*
Y3720100D01*
X2579820D01*
X2590480Y3714100D01*
X2597150Y3706100D01*
X2599820Y3690100D01*
X2597150Y3674100D01*
X2589150Y3664100D01*
X2579820Y3658100D01*
X2546480D01*
G01X2579820D02*
X2599820Y3600100D01*
G01X2653450Y3720100D02*
Y3600100D01*
G01X2622780Y3720100D02*
X2684120D01*
G01X2708420Y3700100D02*
X2716420Y3712100D01*
X2725750Y3718100D01*
X2736420Y3720100D01*
X2749750Y3716100D01*
X2759080Y3706100D01*
X2761750Y3694100D01*
X2760420Y3682100D01*
X2755080Y3672100D01*
X2728420Y3652100D01*
X2716420Y3638100D01*
X2708420Y3618100D01*
X2705750Y3600100D01*
X2761750D01*
G01X2184230Y7371600D02*
X2176230Y7377600D01*
X2166900Y7381600D01*
X2156230D01*
X2144230Y7375600D01*
X2134900Y7365600D01*
X2128230Y7353600D01*
X2122900Y7333600D01*
X2121570Y7315600D01*
X2124230Y7297600D01*
X2128230Y7285600D01*
X2136230Y7273600D01*
X2145570Y7265600D01*
X2154900Y7261600D01*
X2164230D01*
X2173570Y7265600D01*
X2181570Y7271600D01*
X2188230Y7279600D01*
G01X2281570Y7261600D02*
X2228230D01*
Y7381600D01*
X2281570D01*
G01X2260230Y7323600D02*
X2228230D01*
G01X2328230Y7261600D02*
Y7381600D01*
X2361570D01*
X2372230Y7375600D01*
X2378900Y7367600D01*
X2381570Y7351600D01*
X2378900Y7335600D01*
X2370900Y7325600D01*
X2361570Y7319600D01*
X2328230D01*
G01X2361570D02*
X2381570Y7261600D01*
G01X2454900Y7381600D02*
Y7261600D01*
G01X2424230Y7381600D02*
X2485570D01*
G01X2538900D02*
X2570900D01*
G01X2554900D02*
Y7261600D01*
G01X2538900D02*
X2570900D01*
G01X2629570D02*
Y7381600D01*
X2680230D01*
G01X2661570Y7323600D02*
X2629570D01*
G01X2738900Y7381600D02*
X2770900D01*
G01X2754900D02*
Y7261600D01*
G01X2738900D02*
X2770900D01*
G01X2884230Y7371600D02*
X2876230Y7377600D01*
X2866900Y7381600D01*
X2856230D01*
X2844230Y7375600D01*
X2834900Y7365600D01*
X2828230Y7353600D01*
X2822900Y7333600D01*
X2821570Y7315600D01*
X2824230Y7297600D01*
X2828230Y7285600D01*
X2836230Y7273600D01*
X2845570Y7265600D01*
X2854900Y7261600D01*
X2864230D01*
X2873570Y7265600D01*
X2881570Y7271600D01*
X2888230Y7279600D01*
G01X2921570Y7261600D02*
X2954900Y7381600D01*
X2988230Y7261600D01*
G01X2976230Y7303600D02*
X2933570D01*
G01X3054900Y7381600D02*
Y7261600D01*
G01X3024230Y7381600D02*
X3085570D01*
G01X3138900D02*
X3170900D01*
G01X3154900D02*
Y7261600D01*
G01X3138900D02*
X3170900D01*
G01X3254900D02*
X3244230Y7263600D01*
X3234900Y7271600D01*
X3226900Y7283600D01*
X3221570Y7297600D01*
X3218900Y7313600D01*
Y7329600D01*
X3221570Y7345600D01*
X3226900Y7359600D01*
X3234900Y7371600D01*
X3244230Y7379600D01*
X3254900Y7381600D01*
X3265570Y7379600D01*
X3274900Y7371600D01*
X3282900Y7359600D01*
X3288230Y7345600D01*
X3290900Y7329600D01*
Y7313600D01*
X3288230Y7297600D01*
X3282900Y7283600D01*
X3274900Y7271600D01*
X3265570Y7263600D01*
X3254900Y7261600D01*
G01X3324230D02*
Y7381600D01*
X3385570Y7261600D01*
Y7381600D01*
G01X2582550Y2999700D02*
Y2879700D01*
G01X2551880Y2999700D02*
X2613220D01*
G01X2634850Y2879700D02*
X2690850Y2999700D01*
G01X2634850D02*
X2690850Y2879700D01*
G01X2754000Y3073000D02*
Y3327000D01*
G01Y3073000D02*
Y3327000D01*
G01X3111000Y4378900D02*
Y4568900D01*
G01X3209000D02*
Y4378900D01*
G01Y4473900D02*
X3111000D01*
G01X3350000Y4568900D02*
Y4378900D01*
G01X3296330Y4568900D02*
X3403670D01*
G01X3488670Y4416900D02*
X3502660Y4394730D01*
X3521330Y4382070D01*
X3542330Y4378900D01*
X3561000Y4382070D01*
X3579670Y4397900D01*
X3591330Y4416900D01*
X3593670Y4435900D01*
X3589000Y4458060D01*
X3572670Y4473900D01*
X3556330Y4480230D01*
X3535330D01*
G01X3556330D02*
X3570330Y4489730D01*
X3582000Y4505560D01*
X3586670Y4524560D01*
X3582000Y4543570D01*
X3570330Y4559400D01*
X3549330Y4568900D01*
X3528330Y4565730D01*
X3507330Y4553060D01*
G01X3685670Y4537230D02*
X3699670Y4556230D01*
X3716000Y4565730D01*
X3734670Y4568900D01*
X3758000Y4562570D01*
X3774330Y4546730D01*
X3779000Y4527740D01*
X3776670Y4508730D01*
X3767330Y4492900D01*
X3720670Y4461230D01*
X3699670Y4439070D01*
X3685670Y4407390D01*
X3681000Y4378900D01*
X3779000D01*
G01X3871000Y4404230D02*
X3889670Y4388400D01*
X3910670Y4378900D01*
X3929330D01*
X3948000Y4388400D01*
X3962000Y4404230D01*
X3969000Y4426400D01*
X3964330Y4448560D01*
X3952670Y4467570D01*
X3931670Y4480230D01*
X3903670Y4486570D01*
X3887330Y4499230D01*
X3880330Y4521400D01*
X3885000Y4543570D01*
X3896670Y4559400D01*
X3913000Y4568900D01*
X3929330D01*
X3945670Y4562570D01*
X3959670Y4546730D01*
G01X4061000Y4378900D02*
X4159000Y4568900D01*
G01X4061000D02*
X4159000Y4378900D01*
G01X2950000Y6050000D02*
Y4750000D01*
X4250000D01*
Y6050000D01*
X2950000D01*
G01D02*
Y4750000D01*
X4250000D01*
Y6050000D01*
X2950000D01*
G01X2989870Y6251400D02*
Y6160380D01*
X2996300Y6141330D01*
X3009170Y6128630D01*
X3025260Y6124400D01*
X3041350Y6128630D01*
X3054220Y6141330D01*
X3060650Y6160380D01*
Y6251400D01*
G01X3154800Y6124400D02*
Y6251400D01*
X3135500Y6226000D01*
G01Y6124400D02*
X3174100D01*
G01X3291150Y2992700D02*
Y2872700D01*
G01X3260480Y2992700D02*
X3321820D01*
G01X3343450Y2872700D02*
X3399450Y2992700D01*
G01X3343450D02*
X3399450Y2872700D01*
G01X3246000Y3327000D02*
Y3073000D01*
G01D02*
X3754000D01*
G01X3246000D02*
X3754000D01*
G01X3246000Y3327000D02*
Y3073000D01*
G01X3238980Y3381300D02*
X3247030Y3368600D01*
X3256670Y3360130D01*
X3267930Y3355900D01*
X3280800Y3360130D01*
X3290450Y3368600D01*
X3300100Y3381300D01*
X3303320Y3398230D01*
Y3482900D01*
G01X3397430Y3355900D02*
X3400650Y3383410D01*
X3405480Y3406700D01*
X3411910Y3427870D01*
X3419950Y3451150D01*
X3432820Y3482900D01*
X3368480D01*
G01X3754000Y3327000D02*
X3246000D01*
G01X3754000D02*
X3246000D01*
G01X3271270Y3705500D02*
Y3619500D01*
X3276600Y3601500D01*
X3287270Y3589500D01*
X3300600Y3585500D01*
X3313930Y3589500D01*
X3324600Y3601500D01*
X3329930Y3619500D01*
Y3705500D01*
G01X3352900Y3601500D02*
X3363570Y3591500D01*
X3375570Y3585500D01*
X3386230D01*
X3396900Y3591500D01*
X3404900Y3601500D01*
X3408900Y3615500D01*
X3406230Y3629500D01*
X3399570Y3641500D01*
X3387570Y3649500D01*
X3371570Y3653500D01*
X3362230Y3661500D01*
X3358230Y3675500D01*
X3360900Y3689500D01*
X3367570Y3699500D01*
X3376900Y3705500D01*
X3386230D01*
X3395570Y3701500D01*
X3403570Y3691500D01*
G01X3427870Y3585500D02*
X3461200Y3705500D01*
X3494530Y3585500D01*
G01X3482530Y3627500D02*
X3439870D01*
G01X3514830Y3585500D02*
Y3705500D01*
X3548170D01*
X3558830Y3699500D01*
X3565500Y3691500D01*
X3568170Y3675500D01*
X3565500Y3659500D01*
X3557500Y3649500D01*
X3548170Y3643500D01*
X3514830D01*
G01X3548170D02*
X3568170Y3585500D01*
G01X3621800Y3705500D02*
Y3585500D01*
G01X3591130Y3705500D02*
X3652470D01*
G01X3702100Y3585500D02*
Y3705500D01*
X3686100Y3681500D01*
G01Y3585500D02*
X3718100D01*
G01X3590380Y2872800D02*
Y2992800D01*
X3623720D01*
X3634380Y2986800D01*
X3641050Y2978800D01*
X3643720Y2962800D01*
X3641050Y2946800D01*
X3633050Y2936800D01*
X3623720Y2930800D01*
X3590380D01*
G01X3623720D02*
X3643720Y2872800D01*
G01X3669350D02*
X3725350Y2992800D01*
G01X3669350D02*
X3725350Y2872800D01*
G01X3581280Y7732740D02*
X3589320Y7720040D01*
X3598970Y7711570D01*
X3610230Y7707340D01*
X3623100Y7711570D01*
X3632750Y7720040D01*
X3642410Y7732740D01*
X3645620Y7749670D01*
Y7834340D01*
G01X3742990Y7707340D02*
Y7834340D01*
X3723690Y7808940D01*
G01Y7707340D02*
X3762290D01*
G01X3754000Y3073000D02*
Y3327000D01*
G01Y3073000D02*
Y3327000D01*
G01X3794430Y6542500D02*
Y6422500D01*
X3847770D01*
G01X3921100D02*
Y6542500D01*
X3905100Y6518500D01*
G01Y6422500D02*
X3937100D01*
G01X3855530Y6730900D02*
X3847530Y6736900D01*
X3838200Y6740900D01*
X3827530D01*
X3815530Y6734900D01*
X3806200Y6724900D01*
X3799530Y6712900D01*
X3794200Y6692900D01*
X3792870Y6674900D01*
X3795530Y6656900D01*
X3799530Y6644900D01*
X3807530Y6632900D01*
X3816870Y6624900D01*
X3826200Y6620900D01*
X3835530D01*
X3844870Y6624900D01*
X3852870Y6630900D01*
X3859530Y6638900D01*
G01X3926200Y6620900D02*
Y6740900D01*
X3910200Y6716900D01*
G01Y6620900D02*
X3942200D01*
G01X3677500Y6995000D02*
X4327500D01*
Y7645000D01*
X3677500D01*
Y6995000D01*
G01D02*
X4327500D01*
Y7645000D01*
X3677500D01*
Y6995000D01*
G01X3864070Y7711700D02*
X3897400Y7831700D01*
X3930730Y7711700D01*
G01X3918730Y7753700D02*
X3876070D01*
G01X3947030Y7711700D02*
Y7831700D01*
X4008370Y7711700D01*
Y7831700D01*
G01X4058000D02*
Y7711700D01*
G01X4027330Y7831700D02*
X4088670D01*
G01X4164970Y7711700D02*
X4111630D01*
Y7831700D01*
X4164970D01*
G01X4143630Y7773700D02*
X4111630D01*
G01X4187930Y7711700D02*
Y7831700D01*
X4249270Y7711700D01*
Y7831700D01*
G01X4268230Y7711700D02*
Y7831700D01*
X4329570Y7711700D01*
Y7831700D01*
G01X4345870Y7711700D02*
X4379200Y7831700D01*
X4412530Y7711700D01*
G01X4400530Y7753700D02*
X4357870D01*
G01X4245150Y2825330D02*
X4125150D01*
Y2858670D01*
X4131150Y2869330D01*
X4139150Y2876000D01*
X4155150Y2878670D01*
X4171150Y2876000D01*
X4181150Y2868000D01*
X4187150Y2858670D01*
Y2825330D01*
G01Y2858670D02*
X4245150Y2878670D01*
G01X4229150Y2904300D02*
X4239150Y2914970D01*
X4245150Y2926970D01*
Y2937630D01*
X4239150Y2948300D01*
X4229150Y2956300D01*
X4215150Y2960300D01*
X4201150Y2957630D01*
X4189150Y2950970D01*
X4181150Y2938970D01*
X4177150Y2922970D01*
X4169150Y2913630D01*
X4155150Y2909630D01*
X4141150Y2912300D01*
X4131150Y2918970D01*
X4125150Y2928300D01*
Y2937630D01*
X4129150Y2946970D01*
X4139150Y2954970D01*
G01X4125150Y3012600D02*
X4245150D01*
G01X4125150Y2981930D02*
Y3043270D01*
G01X4075800Y2811700D02*
Y2891700D01*
G01Y2892000D02*
Y2972000D01*
G01Y2972300D02*
Y3052300D01*
G01X4052300Y3327000D02*
Y3073000D01*
X5068300D01*
Y3327000D01*
X4052300D01*
G01D02*
Y3073000D01*
X5068300D01*
Y3327000D01*
X4052300D01*
G01X4036580Y3383200D02*
X4044630Y3370500D01*
X4054270Y3362030D01*
X4065530Y3357800D01*
X4078400Y3362030D01*
X4088050Y3370500D01*
X4097700Y3383200D01*
X4100920Y3400130D01*
Y3484800D01*
G01X4170910Y3372610D02*
X4182170Y3362030D01*
X4195030Y3357800D01*
X4207900Y3362030D01*
X4219160Y3374730D01*
X4227200Y3393780D01*
X4230420Y3412830D01*
Y3436120D01*
X4227200Y3455170D01*
X4219160Y3472100D01*
X4209510Y3480570D01*
X4198250Y3484800D01*
X4185380Y3480570D01*
X4175730Y3472100D01*
X4169300Y3459400D01*
X4166080Y3442460D01*
X4169300Y3427650D01*
X4177340Y3412830D01*
X4186990Y3404360D01*
X4198250Y3402250D01*
X4211120Y3406480D01*
X4220770Y3417070D01*
X4230420Y3436120D01*
G01X4027200Y6420000D02*
Y6520000D01*
X3977200D01*
Y6420000D01*
X4027200D01*
G01D02*
Y6520000D01*
X3977200D01*
Y6420000D01*
X4027200D01*
G01X4102500Y6695000D02*
X4002500D01*
Y6645000D01*
X4102500D01*
Y6695000D01*
G01D02*
X4002500D01*
Y6645000D01*
X4102500D01*
Y6695000D01*
G01X4372350Y2909200D02*
Y2941200D01*
G01Y2925200D02*
X4492350D01*
G01Y2909200D02*
Y2941200D01*
G01Y3005500D02*
X4490350Y2994830D01*
X4482350Y2985500D01*
X4470350Y2977500D01*
X4456350Y2972170D01*
X4440350Y2969500D01*
X4424350D01*
X4408350Y2972170D01*
X4394350Y2977500D01*
X4382350Y2985500D01*
X4374350Y2994830D01*
X4372350Y3005500D01*
X4374350Y3016170D01*
X4382350Y3025500D01*
X4394350Y3033500D01*
X4408350Y3038830D01*
X4424350Y3041500D01*
X4440350D01*
X4456350Y3038830D01*
X4470350Y3033500D01*
X4482350Y3025500D01*
X4490350Y3016170D01*
X4492350Y3005500D01*
G01X4184220Y3577400D02*
Y3697400D01*
X4234880D01*
G01X4216220Y3639400D02*
X4184220D01*
G01X4249850Y3697400D02*
X4268520Y3577400D01*
X4289850Y3697400D01*
X4311180Y3577400D01*
X4329850Y3697400D01*
G01X4421120D02*
Y3611400D01*
X4426450Y3593400D01*
X4437120Y3581400D01*
X4450450Y3577400D01*
X4463780Y3581400D01*
X4474450Y3593400D01*
X4479780Y3611400D01*
Y3697400D01*
G01X4504080Y3577400D02*
Y3697400D01*
X4536080D01*
X4546750Y3691400D01*
X4554750Y3677400D01*
X4557420Y3661400D01*
X4554750Y3645400D01*
X4548080Y3633400D01*
X4536080Y3627400D01*
X4504080D01*
G01X4584380Y3697400D02*
Y3577400D01*
X4637720D01*
G01X4691350D02*
X4680680Y3579400D01*
X4671350Y3587400D01*
X4663350Y3599400D01*
X4658020Y3613400D01*
X4655350Y3629400D01*
Y3645400D01*
X4658020Y3661400D01*
X4663350Y3675400D01*
X4671350Y3687400D01*
X4680680Y3695400D01*
X4691350Y3697400D01*
X4702020Y3695400D01*
X4711350Y3687400D01*
X4719350Y3675400D01*
X4724680Y3661400D01*
X4727350Y3645400D01*
Y3629400D01*
X4724680Y3613400D01*
X4719350Y3599400D01*
X4711350Y3587400D01*
X4702020Y3579400D01*
X4691350Y3577400D01*
G01X4738320D02*
X4771650Y3697400D01*
X4804980Y3577400D01*
G01X4792980Y3619400D02*
X4750320D01*
G01X4822620Y3577400D02*
Y3697400D01*
X4849280D01*
X4859950Y3691400D01*
X4867950Y3683400D01*
X4874620Y3671400D01*
X4879950Y3657400D01*
X4881280Y3637400D01*
X4879950Y3617400D01*
X4874620Y3603400D01*
X4867950Y3591400D01*
X4859950Y3583400D01*
X4849280Y3577400D01*
X4822620D01*
G01X4958920D02*
X4905580D01*
Y3697400D01*
X4958920D01*
G01X4937580Y3639400D02*
X4905580D01*
G01X4985880Y3577400D02*
Y3697400D01*
X5019220D01*
X5029880Y3691400D01*
X5036550Y3683400D01*
X5039220Y3667400D01*
X5036550Y3651400D01*
X5028550Y3641400D01*
X5019220Y3635400D01*
X4985880D01*
G01X5019220D02*
X5039220Y3577400D01*
G01X4693850Y2864900D02*
Y2891570D01*
X4729850D01*
X4741850Y2883570D01*
X4749850Y2874230D01*
X4753850Y2860900D01*
X4749850Y2847570D01*
X4741850Y2838230D01*
X4729850Y2830230D01*
X4715850Y2824900D01*
X4699850Y2822230D01*
X4685850D01*
X4673850Y2824900D01*
X4659850Y2830230D01*
X4647850Y2838230D01*
X4639850Y2846230D01*
X4633850Y2856900D01*
Y2866230D01*
X4637850Y2876900D01*
X4645850Y2884900D01*
G01X4753850Y2906530D02*
X4633850D01*
X4753850Y2967870D01*
X4633850D01*
G01X4753850Y2988170D02*
X4633850D01*
Y3014830D01*
X4639850Y3025500D01*
X4647850Y3033500D01*
X4659850Y3040170D01*
X4673850Y3045500D01*
X4693850Y3046830D01*
X4713850Y3045500D01*
X4727850Y3040170D01*
X4739850Y3033500D01*
X4747850Y3025500D01*
X4753850Y3014830D01*
Y2988170D01*
G01X4703230Y5535500D02*
X4695230Y5541500D01*
X4685900Y5545500D01*
X4675230D01*
X4663230Y5539500D01*
X4653900Y5529500D01*
X4647230Y5517500D01*
X4641900Y5497500D01*
X4640570Y5479500D01*
X4643230Y5461500D01*
X4647230Y5449500D01*
X4655230Y5437500D01*
X4664570Y5429500D01*
X4673900Y5425500D01*
X4683230D01*
X4692570Y5429500D01*
X4700570Y5435500D01*
X4707230Y5443500D01*
G01X4744570Y5449500D02*
X4752570Y5435500D01*
X4763230Y5427500D01*
X4775230Y5425500D01*
X4785900Y5427500D01*
X4796570Y5437500D01*
X4803230Y5449500D01*
X4804570Y5461500D01*
X4801900Y5475500D01*
X4792570Y5485500D01*
X4783230Y5489500D01*
X4771230D01*
G01X4783230D02*
X4791230Y5495500D01*
X4797900Y5505500D01*
X4800570Y5517500D01*
X4797900Y5529500D01*
X4791230Y5539500D01*
X4779230Y5545500D01*
X4767230Y5543500D01*
X4755230Y5535500D01*
G01X4895650Y2884830D02*
X4889650Y2876830D01*
X4885650Y2867500D01*
Y2856830D01*
X4891650Y2844830D01*
X4901650Y2835500D01*
X4913650Y2828830D01*
X4933650Y2823500D01*
X4951650Y2822170D01*
X4969650Y2824830D01*
X4981650Y2828830D01*
X4993650Y2836830D01*
X5001650Y2846170D01*
X5005650Y2855500D01*
Y2864830D01*
X5001650Y2874170D01*
X4995650Y2882170D01*
X4987650Y2888830D01*
G01X4885650Y2909130D02*
X5005650D01*
Y2962470D01*
G01Y2986770D02*
X4885650D01*
G01Y3037430D02*
X4959650Y2986770D01*
G01X5005650Y3045430D02*
X4925650Y3009430D01*
G01X4722430Y4691700D02*
X4714430Y4697700D01*
X4705100Y4701700D01*
X4694430D01*
X4682430Y4695700D01*
X4673100Y4685700D01*
X4666430Y4673700D01*
X4661100Y4653700D01*
X4659770Y4635700D01*
X4662430Y4617700D01*
X4666430Y4605700D01*
X4674430Y4593700D01*
X4683770Y4585700D01*
X4693100Y4581700D01*
X4702430D01*
X4711770Y4585700D01*
X4719770Y4591700D01*
X4726430Y4599700D01*
G01X4767770Y4681700D02*
X4775770Y4693700D01*
X4785100Y4699700D01*
X4795770Y4701700D01*
X4809100Y4697700D01*
X4818430Y4687700D01*
X4821100Y4675700D01*
X4819770Y4663700D01*
X4814430Y4653700D01*
X4787770Y4633700D01*
X4775770Y4619700D01*
X4767770Y4599700D01*
X4765100Y4581700D01*
X4821100D01*
G01X4875100Y4680000D02*
Y4580000D01*
X4925100D01*
Y4680000D01*
X4875100D01*
G01D02*
Y4580000D01*
X4925100D01*
Y4680000D01*
X4875100D01*
G01X4922600Y5430000D02*
Y5530000D01*
X4872600D01*
Y5430000D01*
X4922600D01*
G01D02*
Y5530000D01*
X4872600D01*
Y5430000D01*
X4922600D01*
G01X5107400Y5625000D02*
Y4485000D01*
X5597400D01*
Y5625000D01*
X5107400D01*
G01D02*
Y4485000D01*
X5597400D01*
Y5625000D01*
X5107400D01*
G01X4969970Y5697400D02*
X5037530Y5824400D01*
G01X4969970D02*
X5037530Y5697400D01*
G01X5133250D02*
Y5824400D01*
X5113950Y5799000D01*
G01Y5697400D02*
X5152550D01*
G01X5056430Y6055800D02*
Y6175800D01*
X5088430D01*
X5099100Y6169800D01*
X5107100Y6155800D01*
X5109770Y6139800D01*
X5107100Y6123800D01*
X5100430Y6111800D01*
X5088430Y6105800D01*
X5056430D01*
G01X5174070Y6119800D02*
X5179400Y6125800D01*
X5183400Y6135800D01*
X5186070Y6149800D01*
X5183400Y6161800D01*
X5178070Y6169800D01*
X5168730Y6175800D01*
X5132730D01*
Y6055800D01*
X5176730D01*
X5186070Y6063800D01*
X5191400Y6075800D01*
X5194070Y6089800D01*
X5191400Y6103800D01*
X5183400Y6115800D01*
X5174070Y6119800D01*
X5132730D01*
G01X5243700Y6055800D02*
Y6175800D01*
X5227700Y6151800D01*
G01Y6055800D02*
X5259700D01*
G01X5045430Y6304200D02*
Y6424200D01*
X5077430D01*
X5088100Y6418200D01*
X5096100Y6404200D01*
X5098770Y6388200D01*
X5096100Y6372200D01*
X5089430Y6360200D01*
X5077430Y6354200D01*
X5045430D01*
G01X5163070Y6368200D02*
X5168400Y6374200D01*
X5172400Y6384200D01*
X5175070Y6398200D01*
X5172400Y6410200D01*
X5167070Y6418200D01*
X5157730Y6424200D01*
X5121730D01*
Y6304200D01*
X5165730D01*
X5175070Y6312200D01*
X5180400Y6324200D01*
X5183070Y6338200D01*
X5180400Y6352200D01*
X5172400Y6364200D01*
X5163070Y6368200D01*
X5121730D01*
G01X5230030Y6304200D02*
X5232700Y6330200D01*
X5236700Y6352200D01*
X5242030Y6372200D01*
X5248700Y6394200D01*
X5259370Y6424200D01*
X5206030D01*
G01X5045530Y6560700D02*
Y6680700D01*
X5077530D01*
X5088200Y6674700D01*
X5096200Y6660700D01*
X5098870Y6644700D01*
X5096200Y6628700D01*
X5089530Y6616700D01*
X5077530Y6610700D01*
X5045530D01*
G01X5163170Y6624700D02*
X5168500Y6630700D01*
X5172500Y6640700D01*
X5175170Y6654700D01*
X5172500Y6666700D01*
X5167170Y6674700D01*
X5157830Y6680700D01*
X5121830D01*
Y6560700D01*
X5165830D01*
X5175170Y6568700D01*
X5180500Y6580700D01*
X5183170Y6594700D01*
X5180500Y6608700D01*
X5172500Y6620700D01*
X5163170Y6624700D01*
X5121830D01*
G01X5207470Y6610700D02*
X5216800Y6624700D01*
X5224800Y6632700D01*
X5235470Y6636700D01*
X5244800Y6632700D01*
X5251470Y6624700D01*
X5256800Y6612700D01*
X5258130Y6598700D01*
X5256800Y6586700D01*
X5251470Y6574700D01*
X5243470Y6564700D01*
X5234130Y6560700D01*
X5223470Y6564700D01*
X5214130Y6576700D01*
X5208800Y6594700D01*
X5207470Y6614700D01*
X5210130Y6640700D01*
X5214130Y6654700D01*
X5220800Y6668700D01*
X5230130Y6678700D01*
X5239470Y6680700D01*
X5248800Y6676700D01*
X5255470Y6666700D01*
G01X4970230Y6796100D02*
Y6916100D01*
X5002230D01*
X5012900Y6910100D01*
X5020900Y6896100D01*
X5023570Y6880100D01*
X5020900Y6864100D01*
X5014230Y6852100D01*
X5002230Y6846100D01*
X4970230D01*
G01X5043870Y6796100D02*
X5077200Y6916100D01*
X5110530Y6796100D01*
G01X5098530Y6838100D02*
X5055870D01*
G01X5157500Y6796100D02*
Y6916100D01*
X5141500Y6892100D01*
G01Y6796100D02*
X5173500D01*
G01X5212470Y6896100D02*
X5220470Y6908100D01*
X5229800Y6914100D01*
X5240470Y6916100D01*
X5253800Y6912100D01*
X5263130Y6902100D01*
X5265800Y6890100D01*
X5264470Y6878100D01*
X5259130Y6868100D01*
X5232470Y6848100D01*
X5220470Y6834100D01*
X5212470Y6814100D01*
X5209800Y6796100D01*
X5265800D01*
G01X5362200Y5980300D02*
X5616200D01*
Y6996300D01*
X5362200D01*
Y5980300D01*
G01D02*
X5616200D01*
Y6996300D01*
X5362200D01*
Y5980300D01*
G01X5367370Y7063600D02*
X5370700Y7057600D01*
X5374700Y7053600D01*
X5379370Y7051600D01*
X5384700Y7053600D01*
X5388700Y7057600D01*
X5392700Y7063600D01*
X5394030Y7071600D01*
Y7111600D01*
G01X5430700Y7051600D02*
Y7111600D01*
X5422700Y7099600D01*
G01Y7051600D02*
X5438700D01*
G01X5468030Y7101600D02*
X5472030Y7107600D01*
X5476700Y7110600D01*
X5482030Y7111600D01*
X5488700Y7109600D01*
X5493370Y7104600D01*
X5494700Y7098600D01*
X5494030Y7092600D01*
X5491370Y7087600D01*
X5478030Y7077600D01*
X5472030Y7070600D01*
X5468030Y7060600D01*
X5466700Y7051600D01*
X5494700D01*
G01X5656200Y5872500D02*
X5682870D01*
Y5836500D01*
X5674870Y5824500D01*
X5665530Y5816500D01*
X5652200Y5812500D01*
X5638870Y5816500D01*
X5629530Y5824500D01*
X5621530Y5836500D01*
X5616200Y5850500D01*
X5613530Y5866500D01*
Y5880500D01*
X5616200Y5892500D01*
X5621530Y5906500D01*
X5629530Y5918500D01*
X5637530Y5926500D01*
X5648200Y5932500D01*
X5657530D01*
X5668200Y5928500D01*
X5676200Y5920500D01*
G01X5697830Y5812500D02*
Y5932500D01*
X5759170Y5812500D01*
Y5932500D01*
G01X5779470Y5812500D02*
Y5932500D01*
X5806130D01*
X5816800Y5926500D01*
X5824800Y5918500D01*
X5831470Y5906500D01*
X5836800Y5892500D01*
X5838130Y5872500D01*
X5836800Y5852500D01*
X5831470Y5838500D01*
X5824800Y5826500D01*
X5816800Y5818500D01*
X5806130Y5812500D01*
X5779470D01*
G01X5616200Y5980300D02*
X5870200D01*
Y6996300D01*
X5616200D01*
Y5980300D01*
G01D02*
X5870200D01*
Y6996300D01*
X5616200D01*
Y5980300D01*
G01X5648070Y7070600D02*
X5651400Y7064600D01*
X5655400Y7060600D01*
X5660070Y7058600D01*
X5665400Y7060600D01*
X5669400Y7064600D01*
X5673400Y7070600D01*
X5674730Y7078600D01*
Y7118600D01*
G01X5711400Y7058600D02*
Y7118600D01*
X5703400Y7106600D01*
G01Y7058600D02*
X5719400D01*
G01X5746730Y7070600D02*
X5750730Y7063600D01*
X5756070Y7059600D01*
X5762070Y7058600D01*
X5767400Y7059600D01*
X5772730Y7064600D01*
X5776070Y7070600D01*
X5776730Y7076600D01*
X5775400Y7083600D01*
X5770730Y7088600D01*
X5766070Y7090600D01*
X5760070D01*
G01X5766070D02*
X5770070Y7093600D01*
X5773400Y7098600D01*
X5774730Y7104600D01*
X5773400Y7110600D01*
X5770070Y7115600D01*
X5764070Y7118600D01*
X5758070Y7117600D01*
X5752070Y7113600D01*
G01X5960800Y3095330D02*
X5840800D01*
Y3128670D01*
X5846800Y3139330D01*
X5854800Y3146000D01*
X5870800Y3148670D01*
X5886800Y3146000D01*
X5896800Y3138000D01*
X5902800Y3128670D01*
Y3095330D01*
G01Y3128670D02*
X5960800Y3148670D01*
G01X6000800Y3262000D02*
X5880800Y3195330D01*
X5860800D01*
X5840800Y3208670D01*
Y3222000D01*
X5860800Y3235330D01*
X5880800D01*
X5900800Y3222000D01*
X5920800Y3195330D01*
X5940800Y3182000D01*
X5980800D01*
X6000800Y3195330D01*
Y3235330D01*
X5960800Y3262000D01*
G01Y3292670D02*
X5840800D01*
Y3319330D01*
X5846800Y3330000D01*
X5854800Y3338000D01*
X5866800Y3344670D01*
X5880800Y3350000D01*
X5900800Y3351330D01*
X5920800Y3350000D01*
X5934800Y3344670D01*
X5946800Y3338000D01*
X5954800Y3330000D01*
X5960800Y3319330D01*
Y3292670D01*
G01Y3492670D02*
X5840800D01*
Y3519330D01*
X5846800Y3530000D01*
X5854800Y3538000D01*
X5866800Y3544670D01*
X5880800Y3550000D01*
X5900800Y3551330D01*
X5920800Y3550000D01*
X5934800Y3544670D01*
X5946800Y3538000D01*
X5954800Y3530000D01*
X5960800Y3519330D01*
Y3492670D01*
G01Y3648670D02*
Y3595330D01*
X5840800D01*
Y3648670D01*
G01X5898800Y3627330D02*
Y3595330D01*
G01X5960800Y3695330D02*
X5840800D01*
Y3727330D01*
X5846800Y3738000D01*
X5860800Y3746000D01*
X5876800Y3748670D01*
X5892800Y3746000D01*
X5904800Y3739330D01*
X5910800Y3727330D01*
Y3695330D01*
G01X5960800Y3788670D02*
X5840800Y3822000D01*
X5960800Y3855330D01*
G01X5918800Y3843330D02*
Y3800670D01*
G01X5960800Y3895330D02*
X5840800D01*
Y3928670D01*
X5846800Y3939330D01*
X5854800Y3946000D01*
X5870800Y3948670D01*
X5886800Y3946000D01*
X5896800Y3938000D01*
X5902800Y3928670D01*
Y3895330D01*
G01Y3928670D02*
X5960800Y3948670D01*
G01X5840800Y4022000D02*
X5960800D01*
G01X5840800Y3991330D02*
Y4052670D01*
G01X5960800Y4087330D02*
X5840800D01*
X5940800Y4122000D01*
X5840800Y4156670D01*
X5960800D01*
G01Y4248670D02*
Y4195330D01*
X5840800D01*
Y4248670D01*
G01X5898800Y4227330D02*
Y4195330D01*
G01X5960800Y4291330D02*
X5840800D01*
X5960800Y4352670D01*
X5840800D01*
G01Y4422000D02*
X5960800D01*
G01X5840800Y4391330D02*
Y4452670D01*
G01X5920800Y4604670D02*
Y4639330D01*
G01X5860800Y4796670D02*
X5848800Y4804670D01*
X5842800Y4814000D01*
X5840800Y4824670D01*
X5844800Y4838000D01*
X5854800Y4847330D01*
X5866800Y4850000D01*
X5878800Y4848670D01*
X5888800Y4843330D01*
X5908800Y4816670D01*
X5922800Y4804670D01*
X5942800Y4796670D01*
X5960800Y4794000D01*
Y4850000D01*
G01X5840800Y4922000D02*
X5844800Y4911330D01*
X5854800Y4903330D01*
X5866800Y4898000D01*
X5882800Y4894000D01*
X5900800Y4892670D01*
X5918800Y4894000D01*
X5934800Y4898000D01*
X5946800Y4903330D01*
X5956800Y4911330D01*
X5960800Y4922000D01*
X5956800Y4932670D01*
X5946800Y4940670D01*
X5934800Y4946000D01*
X5918800Y4950000D01*
X5900800Y4951330D01*
X5882800Y4950000D01*
X5866800Y4946000D01*
X5854800Y4940670D01*
X5844800Y4932670D01*
X5840800Y4922000D01*
G01X5860800Y4996670D02*
X5848800Y5004670D01*
X5842800Y5014000D01*
X5840800Y5024670D01*
X5844800Y5038000D01*
X5854800Y5047330D01*
X5866800Y5050000D01*
X5878800Y5048670D01*
X5888800Y5043330D01*
X5908800Y5016670D01*
X5922800Y5004670D01*
X5942800Y4996670D01*
X5960800Y4994000D01*
Y5050000D01*
G01X5840800Y5122000D02*
X5844800Y5111330D01*
X5854800Y5103330D01*
X5866800Y5098000D01*
X5882800Y5094000D01*
X5900800Y5092670D01*
X5918800Y5094000D01*
X5934800Y5098000D01*
X5946800Y5103330D01*
X5956800Y5111330D01*
X5960800Y5122000D01*
X5956800Y5132670D01*
X5946800Y5140670D01*
X5934800Y5146000D01*
X5918800Y5150000D01*
X5900800Y5151330D01*
X5882800Y5150000D01*
X5866800Y5146000D01*
X5854800Y5140670D01*
X5844800Y5132670D01*
X5840800Y5122000D01*
G01X5936800Y5295330D02*
X5948800Y5302000D01*
X5956800Y5310000D01*
X5960800Y5319330D01*
X5956800Y5330000D01*
X5948800Y5338000D01*
X5936800Y5346000D01*
X5920800Y5348670D01*
X5840800D01*
G01Y5392670D02*
X5926800D01*
X5944800Y5398000D01*
X5956800Y5408670D01*
X5960800Y5422000D01*
X5956800Y5435330D01*
X5944800Y5446000D01*
X5926800Y5451330D01*
X5840800D01*
G01Y5495330D02*
X5960800D01*
Y5548670D01*
M02*
