G04 ================== begin FILE IDENTIFICATION RECORD ==================*
G04 Layout Name:  certification_board.mcm*
G04 Film Name:    sr_botton*
G04 File Format:  Gerber RS274X*
G04 File Origin:  Cadence Allegro 17.2-S049*
G04 Origin Date:  Fri Jun 26 15:48:09 2020*
G04 *
G04 Layer:  VIA CLASS/SOLDERMASK_BOTTOM*
G04 Layer:  PIN/SOLDERMASK_BOTTOM*
G04 Layer:  DRC ERROR CLASS/SOLDERMASK_BOTTOM*
G04 Layer:  DRAWING FORMAT/OUTLINE*
G04 *
G04 Offset:    (0.0000 0.0000)*
G04 Mirror:    No*
G04 Mode:      Positive*
G04 Rotation:  0*
G04 FullContactRelief:  No*
G04 UndefLineWidth:     0.1000*
G04 ================== end FILE IDENTIFICATION RECORD ====================*
%FSLAX25Y25*MOMM*%
%IR0*IPPOS*OFA0.00000B0.00000*MIA0B0*SFA1.00000B1.00000*%
%ADD12C,2.1*%
%ADD10C,5.*%
%ADD13C,2.4*%
%ADD11C,1.6*%
%ADD14C,.1*%
G75*
%LPD*%
G75*
G54D10*
X1055000Y3250000D03*
X1050000Y7500000D03*
X5500000Y3250000D03*
Y7500000D03*
G54D11*
X848300Y3983400D03*
Y4237400D03*
Y4491400D03*
Y4745400D03*
X848200Y4999400D03*
Y5253400D03*
Y5507400D03*
Y5761400D03*
Y6015400D03*
Y6269400D03*
Y6523400D03*
Y6777400D03*
X1102300Y3983400D03*
Y4237400D03*
Y4491400D03*
Y4745400D03*
Y4999400D03*
Y5253400D03*
Y5507400D03*
Y5761400D03*
Y6015400D03*
Y6269400D03*
Y6523400D03*
Y6777400D03*
X1620900Y3200000D03*
X1874900D03*
X2373000D03*
X2627000D03*
X3373000D03*
X3627000D03*
X4179300D03*
X4433300D03*
X4687300D03*
X4941300D03*
X5489200Y6107300D03*
Y6361300D03*
Y6615300D03*
Y6869300D03*
X5743200Y6107300D03*
Y6361300D03*
Y6615300D03*
Y6869300D03*
G54D12*
X3748500Y7066000D03*
Y7574000D03*
X4256500Y7066000D03*
Y7574000D03*
G54D13*
X4002500Y7320000D03*
G54D14*
G01X6050000Y2750000D02*
Y8000000D01*
X550000D01*
Y2750000D01*
X6050000D01*
M02*
