G04 ================== begin FILE IDENTIFICATION RECORD ==================*
G04 Layout Name:  certification_board.mcm*
G04 Film Name:    sr_top*
G04 File Format:  Gerber RS274X*
G04 File Origin:  Cadence Allegro 17.2-S049*
G04 Origin Date:  Fri Jun 26 15:48:09 2020*
G04 *
G04 Layer:  VIA CLASS/SOLDERMASK_TOP*
G04 Layer:  PIN/SOLDERMASK_TOP*
G04 Layer:  DRC ERROR CLASS/SOLDERMASK_TOP*
G04 Layer:  DRAWING FORMAT/OUTLINE*
G04 *
G04 Offset:    (0.0000 0.0000)*
G04 Mirror:    No*
G04 Mode:      Positive*
G04 Rotation:  0*
G04 FullContactRelief:  No*
G04 UndefLineWidth:     0.1000*
G04 ================== end FILE IDENTIFICATION RECORD ====================*
%FSLAX25Y25*MOMM*%
%IR0*IPPOS*OFA0.00000B0.00000*MIA0B0*SFA1.00000B1.00000*%
%AMMACRO14*
4,1,40,1.3,-1.25,
1.3,1.25,
1.29924,1.258682,
1.296985,1.267101,
1.293301,1.275,
1.288302,1.282139,
1.282139,1.288302,
1.275,1.293301,
1.267101,1.296985,
1.258682,1.29924,
1.25,1.3,
-1.25,1.3,
-1.258682,1.29924,
-1.267101,1.296985,
-1.275,1.293301,
-1.282139,1.288302,
-1.288302,1.282139,
-1.293301,1.275,
-1.296985,1.267101,
-1.29924,1.258682,
-1.3,1.25,
-1.3,-1.25,
-1.29924,-1.258682,
-1.296985,-1.267101,
-1.293301,-1.275,
-1.288302,-1.282139,
-1.282139,-1.288302,
-1.275,-1.293301,
-1.267101,-1.296985,
-1.258682,-1.29924,
-1.25,-1.3,
1.25,-1.3,
1.258682,-1.29924,
1.267101,-1.296985,
1.275,-1.293301,
1.282139,-1.288302,
1.288302,-1.282139,
1.293301,-1.275,
1.296985,-1.267101,
1.29924,-1.258682,
1.3,-1.25,
0.0*
%
%ADD14MACRO14*%
%AMMACRO20*
4,1,40,.35,-.25,
.35,.25,
.34924,.258682,
.346985,.267101,
.343301,.275,
.338302,.282139,
.332139,.288302,
.325,.293301,
.317101,.296985,
.308682,.29924,
.3,.3,
-.3,.3,
-.308682,.29924,
-.317101,.296985,
-.325,.293301,
-.332139,.288302,
-.338302,.282139,
-.343301,.275,
-.346985,.267101,
-.34924,.258682,
-.35,.25,
-.35,-.25,
-.34924,-.258682,
-.346985,-.267101,
-.343301,-.275,
-.338302,-.282139,
-.332139,-.288302,
-.325,-.293301,
-.317101,-.296985,
-.308682,-.29924,
-.3,-.3,
.3,-.3,
.308682,-.29924,
.317101,-.296985,
.325,-.293301,
.332139,-.288302,
.338302,-.282139,
.343301,-.275,
.346985,-.267101,
.34924,-.258682,
.35,-.25,
0.0*
%
%ADD20MACRO20*%
%AMMACRO19*
4,1,40,-.25,-.35,
.25,-.35,
.258682,-.34924,
.267101,-.346985,
.275,-.343301,
.282139,-.338302,
.288302,-.332139,
.293301,-.325,
.296985,-.317101,
.29924,-.308682,
.3,-.3,
.3,.3,
.29924,.308682,
.296985,.317101,
.293301,.325,
.288302,.332139,
.282139,.338302,
.275,.343301,
.267101,.346985,
.258682,.34924,
.25,.35,
-.25,.35,
-.258682,.34924,
-.267101,.346985,
-.275,.343301,
-.282139,.338302,
-.288302,.332139,
-.293301,.325,
-.296985,.317101,
-.29924,.308682,
-.3,.3,
-.3,-.3,
-.29924,-.308682,
-.296985,-.317101,
-.293301,-.325,
-.288302,-.332139,
-.282139,-.338302,
-.275,-.343301,
-.267101,-.346985,
-.258682,-.34924,
-.25,-.35,
0.0*
%
%ADD19MACRO19*%
%AMMACRO15*
4,1,5,-1.3,1.3,
.65,1.3,
1.3,.65,
1.3,-1.3,
-1.3,-1.3,
-1.3,1.3,
0.0*
%
%ADD15MACRO15*%
%AMMACRO12*
4,1,40,1.15,.375,
-1.15,.375,
-1.158682,.37424,
-1.167101,.371985,
-1.175,.368301,
-1.182139,.363302,
-1.188302,.357139,
-1.193301,.35,
-1.196985,.342101,
-1.19924,.333682,
-1.2,.325,
-1.2,-.325,
-1.19924,-.333682,
-1.196985,-.342101,
-1.193301,-.35,
-1.188302,-.357139,
-1.182139,-.363302,
-1.175,-.368301,
-1.167101,-.371985,
-1.158682,-.37424,
-1.15,-.375,
1.15,-.375,
1.158682,-.37424,
1.167101,-.371985,
1.175,-.368301,
1.182139,-.363302,
1.188302,-.357139,
1.193301,-.35,
1.196985,-.342101,
1.19924,-.333682,
1.2,-.325,
1.2,.325,
1.19924,.333682,
1.196985,.342101,
1.193301,.35,
1.188302,.357139,
1.182139,.363302,
1.175,.368301,
1.167101,.371985,
1.158682,.37424,
1.15,.375,
0.0*
%
%ADD12MACRO12*%
%AMMACRO18*
4,1,40,-.35,.25,
-.35,-.25,
-.34924,-.258682,
-.346985,-.267101,
-.343301,-.275,
-.338302,-.282139,
-.332139,-.288302,
-.325,-.293301,
-.317101,-.296985,
-.308682,-.29924,
-.3,-.3,
.3,-.3,
.308682,-.29924,
.317101,-.296985,
.325,-.293301,
.332139,-.288302,
.338302,-.282139,
.343301,-.275,
.346985,-.267101,
.34924,-.258682,
.35,-.25,
.35,.25,
.34924,.258682,
.346985,.267101,
.343301,.275,
.338302,.282139,
.332139,.288302,
.325,.293301,
.317101,.296985,
.308682,.29924,
.3,.3,
-.3,.3,
-.308682,.29924,
-.317101,.296985,
-.325,.293301,
-.332139,.288302,
-.338302,.282139,
-.343301,.275,
-.346985,.267101,
-.34924,.258682,
-.35,.25,
0.0*
%
%ADD18MACRO18*%
%AMMACRO13*
4,1,40,.375,-1.15,
.375,1.15,
.37424,1.158682,
.371985,1.167101,
.368301,1.175,
.363302,1.182139,
.357139,1.188302,
.35,1.193301,
.342101,1.196985,
.333682,1.19924,
.325,1.2,
-.325,1.2,
-.333682,1.19924,
-.342101,1.196985,
-.35,1.193301,
-.357139,1.188302,
-.363302,1.182139,
-.368301,1.175,
-.371985,1.167101,
-.37424,1.158682,
-.375,1.15,
-.375,-1.15,
-.37424,-1.158682,
-.371985,-1.167101,
-.368301,-1.175,
-.363302,-1.182139,
-.357139,-1.188302,
-.35,-1.193301,
-.342101,-1.196985,
-.333682,-1.19924,
-.325,-1.2,
.325,-1.2,
.333682,-1.19924,
.342101,-1.196985,
.35,-1.193301,
.357139,-1.188302,
.363302,-1.182139,
.368301,-1.175,
.371985,-1.167101,
.37424,-1.158682,
.375,-1.15,
0.0*
%
%ADD13MACRO13*%
%ADD21R,2.2X5.7*%
%ADD16C,2.1*%
%ADD10C,5.*%
%ADD17C,2.4*%
%ADD11C,1.6*%
%ADD22C,.1*%
G75*
%LPD*%
G75*
G54D10*
X1055000Y3250000D03*
X1050000Y7500000D03*
X5500000Y3250000D03*
Y7500000D03*
G54D11*
X848300Y3983400D03*
Y4237400D03*
Y4491400D03*
Y4745400D03*
X848200Y4999400D03*
Y5253400D03*
Y5507400D03*
Y5761400D03*
Y6015400D03*
Y6269400D03*
Y6523400D03*
Y6777400D03*
X1102300Y3983400D03*
Y4237400D03*
Y4491400D03*
Y4745400D03*
Y4999400D03*
Y5253400D03*
Y5507400D03*
Y5761400D03*
Y6015400D03*
Y6269400D03*
Y6523400D03*
Y6777400D03*
X1620900Y3200000D03*
X1874900D03*
X2373000D03*
X2627000D03*
X3373000D03*
X3627000D03*
X4179300D03*
X4433300D03*
X4687300D03*
X4941300D03*
X5489200Y6107300D03*
Y6361300D03*
Y6615300D03*
Y6869300D03*
X5743200Y6107300D03*
Y6361300D03*
Y6615300D03*
Y6869300D03*
G54D20*
X4900100Y4580000D03*
Y4680000D03*
G54D21*
X5352400Y4580000D03*
Y5530000D03*
G54D12*
X2980000Y4997500D03*
Y5112500D03*
Y5227500D03*
Y5342500D03*
Y5457500D03*
Y5572500D03*
Y5687500D03*
Y5802500D03*
X4220000Y5112500D03*
Y4997500D03*
Y5342500D03*
Y5227500D03*
Y5687500D03*
Y5572500D03*
Y5457500D03*
Y5802500D03*
G54D22*
G01X6050000Y2750000D02*
Y8000000D01*
X550000D01*
Y2750000D01*
X6050000D01*
G54D13*
X3312500Y4780000D03*
X3197500D03*
Y6020000D03*
X3312500D03*
X3657500Y4780000D03*
X3542500D03*
X3427500D03*
Y6020000D03*
X3542500D03*
X3657500D03*
X3887500Y4780000D03*
X3772500D03*
Y6020000D03*
X3887500D03*
X4002500Y4780000D03*
Y6020000D03*
G54D14*
X3395000Y5165000D03*
Y5635000D03*
X3805000Y5164000D03*
G54D15*
Y5635000D03*
G54D16*
X3748500Y7066000D03*
Y7574000D03*
X4256500Y7066000D03*
Y7574000D03*
G54D17*
X4002500Y7320000D03*
G54D18*
X4002200Y6420000D03*
Y6520000D03*
X4897600Y5430000D03*
Y5530000D03*
G54D19*
X4002500Y6670000D03*
X4102500D03*
M02*
