G04 ================== begin FILE IDENTIFICATION RECORD ==================*
G04 Layout Name:  C:/Projects/HT_EVAL_BOARD/HT_EVAL_BOARD_V2-16.brd*
G04 Film Name:    BOTL*
G04 File Format:  Gerber RS274X*
G04 File Origin:  Cadence Allegro 17.2-S047*
G04 Origin Date:  Tue Oct 29 19:01:22 2019*
G04 *
G04 Layer:  EMBEDDED GEOMETRY/ASSEMBLY*
G04 Layer:  EMBEDDED GEOMETRY/PLACE_BOUND*
G04 Layer:  EMBEDDED GEOMETRY/DISPLAY*
G04 Layer:  EMBEDDED GEOMETRY/PASTEMASK*
G04 Layer:  EMBEDDED GEOMETRY/CAVITY_OUTLINE*
G04 Layer:  EMBEDDED GEOMETRY/SOLDERMASK*
G04 Layer:  VIA CLASS/BOTTOM*
G04 Layer:  USER PART NUMBER/DISPLAY_EMBEDDED*
G04 Layer:  USER PART NUMBER/ASSEMBLY_EMBEDDED*
G04 Layer:  TOLERANCE/DISPLAY_EMBEDDED*
G04 Layer:  TOLERANCE/ASSEMBLY_EMBEDDED*
G04 Layer:  REF DES/DISPLAY_EMBEDDED*
G04 Layer:  REF DES/ASSEMBLY_EMBEDDED*
G04 Layer:  PIN/BOTTOM*
G04 Layer:  ETCH/BOTTOM*
G04 Layer:  DEVICE TYPE/DISPLAY_EMBEDDED*
G04 Layer:  DEVICE TYPE/ASSEMBLY_EMBEDDED*
G04 Layer:  COMPONENT VALUE/DISPLAY_EMBEDDED*
G04 Layer:  COMPONENT VALUE/ASSEMBLY_EMBEDDED*
G04 Layer:  BOARD GEOMETRY/DESIGN_OUTLINE*
G04 *
G04 Offset:    (0.0000 0.0000)*
G04 Mirror:    No*
G04 Mode:      Positive*
G04 Rotation:  0*
G04 FullContactRelief:  No*
G04 UndefLineWidth:     0.1000*
G04 ================== end FILE IDENTIFICATION RECORD ====================*
%FSLAX25Y25*MOMM*%
%IR0*IPPOS*OFA0.00000B0.00000*MIA0B0*SFA1.00000B1.00000*%
%ADD11C,.3*%
%ADD16C,.51*%
%ADD15C,1.*%
%ADD12C,1.4*%
%ADD14C,1.5*%
%ADD10C,3.4*%
%ADD13R,1.4X1.4*%
%ADD17C,.4*%
%ADD18C,.5*%
%ADD19C,.1*%
%ADD20C,2.0004*%
%ADD23C,2.1004*%
%ADD21C,4.0004*%
%ADD24C,1.6004*%
%ADD22C,2.0544*%
G75*
%LPD*%
G75*
G36*
G01X6980000Y20000D02*
X20000D01*
Y8230000D01*
X6980000D01*
Y20000D01*
G37*
%LPC*%
G75*
G36*
G01X354980Y6408650D02*
X540850Y6594520D01*
X2532370D01*
G02X2564000Y6604520I31630J-45023D01*
G02Y6494480I0J-55020D01*
G02X2532370Y6504480I0J55023D01*
G01X578150D01*
X445020Y6371350D01*
Y1239650D01*
X827650Y857020D01*
X964940D01*
X1035500Y897740D01*
X1035540Y897760D01*
G02X1087000Y912020I51470J-85757D01*
G02Y711980I0J-100020D01*
G02X1035540Y726240I10J100017D01*
G01X1035500Y726260D01*
X964940Y766980D01*
X790350D01*
X354980Y1202350D01*
Y6408650D01*
G37*
G36*
G01X719980Y5532650D02*
X859350Y5672020D01*
X3410870D01*
G02X3442500Y5682020I31630J-45023D01*
G02Y5571980I0J-55020D01*
G02X3410870Y5581980I0J55023D01*
G01X896650D01*
X810020Y5495350D01*
Y3521650D01*
X934650Y3397020D01*
X963940D01*
X1034500Y3437740D01*
X1034540Y3437760D01*
G02X1086000Y3452020I51470J-85757D01*
G02Y3251980I0J-100020D01*
G02X1034540Y3266240I10J100017D01*
G01X1034500Y3266260D01*
X963940Y3306980D01*
X897350D01*
X719980Y3484350D01*
Y5532650D01*
G37*
G36*
G01X2160980Y4951000D02*
G02X2371020I105020J0D01*
G02X2356170Y4897160I-105020J-2D01*
G01X2356070Y4897000D01*
X2356050Y4896960D01*
X2321020Y4836260D01*
Y4693210D01*
X2177790Y4549980D01*
X1017790D01*
X951020Y4483210D01*
Y3678790D01*
X968790Y3661020D01*
X981260D01*
X1034500Y3691740D01*
X1034540Y3691770D01*
G02X1085990Y3706020I51454J-85772D01*
G01X1086010D01*
G02X1137460Y3691770I-4J-100022D01*
G01X1137500Y3691740D01*
X1190740Y3661020D01*
X1272790D01*
X1356020Y3577790D01*
Y3313290D01*
X1387290Y3282020D01*
X1457000D01*
G02Y3171980I0J-55020D01*
G01X1387290D01*
X1356020Y3140710D01*
Y3125210D01*
X1273790Y3042980D01*
X1190740D01*
X1137500Y3012260D01*
X1137460Y3012230D01*
G02X1086010Y2997980I-51454J85772D01*
G01X1086000D01*
G02Y3198020I0J100020D01*
G01X1086010D01*
G02X1137460Y3183770I-4J-100022D01*
G01X1137500Y3183740D01*
X1190740Y3153020D01*
X1228210D01*
X1245980Y3170790D01*
Y3532210D01*
X1227210Y3550980D01*
X1190740D01*
X1137500Y3520260D01*
X1137460Y3520230D01*
G02X1086010Y3505980I-51454J85772D01*
G01X1085990D01*
G02X1034540Y3520230I4J100022D01*
G01X1034500Y3520260D01*
X981260Y3550980D01*
X923210D01*
X840980Y3633210D01*
Y4528790D01*
X972210Y4660020D01*
X2132210D01*
X2210980Y4738790D01*
Y4836260D01*
X2175950Y4896960D01*
X2175930Y4897000D01*
X2175830Y4897160D01*
G02X2160980Y4951000I90170J53838D01*
G37*
G36*
G01X4343720Y6156810D02*
G02X4372000Y6259020I28280J47193D01*
G02X4403630Y6249020I0J-55023D01*
G01X4517650D01*
X4592020Y6174650D01*
Y5880350D01*
X4136030Y5424360D01*
G03X4143220Y5407020I7186J-7181D01*
G01X5208370D01*
G02X5240000Y5417020I31630J-45023D01*
G02X5295020Y5362000I0J-55020D01*
G02X5273370Y5318260I-55009J0D01*
G03X5279540Y5300020I6163J-8079D01*
G01X5345370D01*
G02X5377000Y5310020I31630J-45023D01*
G02Y5199980I0J-55020D01*
G02X5345370Y5209980I0J55023D01*
G01X4998580D01*
G03X4988510Y5198450I-2J-10161D01*
G02X4989020Y5191000I-54508J-7474D01*
G02X4944940Y5137080I-55018J0D01*
G01X4943440Y5136770D01*
X4930030Y5123360D01*
G03X4937220Y5106020I7186J-7181D01*
G01X5247370D01*
G02X5279000Y5116020I31630J-45023D01*
G02Y5005980I0J-55020D01*
G02X5247370Y5015980I0J55023D01*
G01X3014630D01*
G02X2983000Y5005980I-31630J45023D01*
G02Y5116020I0J55020D01*
G02X3014630Y5106020I0J-55023D01*
G01X4067010D01*
G03X4074800Y5122700I-3J10161D01*
G02Y5193300I42189J35300D01*
G03X4067010Y5209980I-7793J6519D01*
G01X2647630D01*
G02X2616000Y5199980I-31630J45023D01*
G02X2560980Y5255000I0J55020D01*
G02X2582630Y5298740I55009J0D01*
G03X2576460Y5316980I-6163J8079D01*
G01X2479630D01*
G02X2448000Y5306980I-31630J45023D01*
G02X2392980Y5362000I0J55020D01*
G02X2404440Y5395610I55016J0D01*
G03X2396400Y5411980I-8041J6210D01*
G01X919630D01*
G02X888000Y5401980I-31630J45023D01*
G02Y5512020I0J55020D01*
G02X919630Y5502020I0J-55023D01*
G01X4086350D01*
X4501980Y5917650D01*
Y5924680D01*
G03X4484440Y5931660I-10160J-3D01*
G02X4455440Y5915580I-39940J37841D01*
G01X4453940Y5915270D01*
X4169450Y5630780D01*
X3886110D01*
G02X3855500Y5621480I-30610J45725D01*
G02Y5731520I0J55020D01*
G02X3888100Y5720820I0J-55012D01*
G01X4132150D01*
X4390270Y5978940D01*
X4390580Y5980440D01*
G02X4444500Y6024520I53920J-10938D01*
G02X4484440Y6007340I0J-55016D01*
G03X4501980Y6014320I7380J6983D01*
G01Y6137350D01*
X4480350Y6158980D01*
X4403630D01*
G02X4395220Y6154120I-31627J45022D01*
G03X4394280Y6136190I4284J-9214D01*
G02X4421020Y6089000I-28270J-47190D01*
G02X4310980I-55020J0D01*
G02X4342780Y6138880I55020J0D01*
G03X4343720Y6156810I-4284J9214D01*
G37*
G36*
G01X127980Y6947650D02*
X337350Y7157020D01*
X2689370D01*
G02X2721000Y7167020I31630J-45023D01*
G02Y7056980I0J-55020D01*
G02X2689370Y7066980I0J55023D01*
G01X374650D01*
X218020Y6910350D01*
Y854650D01*
X723650Y349020D01*
X964940D01*
X1035500Y389740D01*
X1035540Y389760D01*
G02X1087000Y404020I51470J-85757D01*
G02Y203980I0J-100020D01*
G02X1035540Y218240I10J100017D01*
G01X1035500Y218260D01*
X964940Y258980D01*
X686350D01*
X127980Y817350D01*
Y6947650D01*
G37*
G36*
G01X3501400Y2230920D02*
G03X3509780Y2215020I8383J-5740D01*
G01X3563790D01*
G03X3570970Y2232360I-6J10159D01*
G01X3522980Y2280350D01*
Y2435370D01*
G02X3512980Y2467000I45023J31630D01*
G02X3623020I55020J0D01*
G02X3613020Y2435370I-55023J0D01*
G01Y2317650D01*
X3620450Y2310220D01*
X3966450D01*
X3987440Y2289230D01*
X3988940Y2288920D01*
G02X4033020Y2235000I-10938J-53920D01*
G02X4032390Y2226710I-55019J12D01*
G03X4042430Y2215020I10044J-1530D01*
G01X4052810D01*
X4056440Y2218650D01*
X4055360Y2222260D01*
X4054960Y2222880D01*
G02X4045980Y2253000I46039J30125D01*
G02X4055980Y2284630I55023J0D01*
G01Y2516350D01*
X4027350Y2544980D01*
X3886350D01*
X3813980Y2617350D01*
Y2747370D01*
G02X3803980Y2779000I45023J31630D01*
G02X3914020I55020J0D01*
G02X3904020Y2747370I-55023J0D01*
G01Y2654650D01*
X3923650Y2635020D01*
X4064650D01*
X4146020Y2553650D01*
Y2284630D01*
G02X4156020Y2253000I-45023J-31630D01*
G01Y2252990D01*
G02X4150760Y2229520I-55021J7D01*
G03X4159940Y2215020I9185J-4341D01*
G01X4361010D01*
X4363030Y2215440D01*
G02X4364850Y2216190I21868J-50484D01*
G01X4365840Y2216580D01*
X4511280Y2362020D01*
X4845370D01*
X4878750Y2395400D01*
G03X4877100Y2411100I-7186J7181D01*
G01X4874200Y2412980D01*
X4640630D01*
G02X4609000Y2402980I-31630J45023D01*
G02Y2513020I0J55020D01*
G02X4640630Y2503020I0J-55023D01*
G01X4874200D01*
X4900980Y2520410D01*
Y2911070D01*
X4900560Y2912040D01*
G02X4895980Y2934000I50437J21977D01*
G02X5006020I55020J0D01*
G02X5001440Y2912040I-55017J17D01*
G01X5001020Y2911070D01*
Y2376190D01*
X4886810Y2261980D01*
X4552720D01*
X4436580Y2145840D01*
X4436200Y2144860D01*
G02X4385000Y2109980I-51200J20138D01*
G02X4363040Y2114560I17J55017D01*
G01X4362070Y2114980D01*
X3394930D01*
X3393960Y2114560D01*
G02X3372000Y2109980I-21977J50437D01*
G02X3350040Y2114560I17J55017D01*
G01X3349070Y2114980D01*
X3313340D01*
G03X3306280Y2097520I6J-10160D01*
G02X3323020Y2058000I-38280J-39520D01*
G02X3313020Y2026370I-55023J0D01*
G01Y1899650D01*
X3422020Y1790650D01*
Y1474630D01*
G02X3432020Y1443000I-45023J-31630D01*
G02X3321980I-55020J0D01*
G02X3331980Y1474630I55023J0D01*
G01Y1753350D01*
X3222980Y1862350D01*
Y2026370D01*
G02X3212980Y2058000I45023J31630D01*
G02X3240260Y2105510I55011J0D01*
G01X3242780Y2106980D01*
Y2114980D01*
X3222210D01*
X3193020Y2085790D01*
Y1244210D01*
X3110790Y1161980D01*
X2787000D01*
G02Y1272020I0J55020D01*
G01X3065210D01*
X3082980Y1289790D01*
Y2085790D01*
X3053790Y2114980D01*
X3036280D01*
X2778980Y2372280D01*
Y3244720D01*
X3074280Y3540020D01*
X3207070D01*
X3208040Y3540440D01*
G02X3230000Y3545020I21977J-50437D01*
G02Y3434980I0J-55020D01*
G02X3208040Y3439560I17J55017D01*
G01X3207070Y3439980D01*
X3115720D01*
X2879020Y3203280D01*
Y3088110D01*
G03X2896870Y3081470I10161J2D01*
G02X2938500Y3100520I41630J-35962D01*
G02X2993520Y3045500I0J-55020D01*
G02X2983520Y3013870I-55023J0D01*
G01Y2896940D01*
X2987200Y2895880D01*
G02X3027020Y2843000I-15202J-52880D01*
G02X2972000Y2787980I-55020J0D01*
G02X2918080Y2832050I0J55021D01*
G01Y2832060D01*
X2917770Y2833560D01*
X2893480Y2857850D01*
Y3013870D01*
G02X2890410Y3018760I45001J31661D01*
G01X2888570Y3022080D01*
X2879020Y3019950D01*
Y2483530D01*
G03X2897260Y2477370I10161J3D01*
G02X2930060Y2497920I43744J-33369D01*
G01X2931560Y2498230D01*
X3251640Y2818310D01*
G03X3248050Y2826980I-3594J3590D01*
G01X3248000D01*
G02X3216370Y2836980I0J55023D01*
G01X3167350D01*
X3021190Y2983140D01*
Y3161370D01*
G02X3011190Y3193000I45023J31630D01*
G02X3121230I55020J0D01*
G02X3111230Y3161370I-55023J0D01*
G01Y3020440D01*
X3204650Y2927020D01*
X3216330D01*
X3217610Y2927870D01*
G02X3247990Y2937020I30384J-45872D01*
G01X3248010D01*
G02X3288370Y2919390I-4J-55022D01*
G03X3305980Y2926290I7452J6903D01*
G01Y3022370D01*
G02Y3085630I45023J31630D01*
G01Y3550650D01*
X3489350Y3734020D01*
X4334370D01*
G02X4366000Y3744020I31630J-45023D01*
G02Y3633980I0J-55020D01*
G02X4334370Y3643980I0J55023D01*
G01X3526650D01*
X3396020Y3513350D01*
Y3085630D01*
G02Y3022370I-45023J-31630D01*
G01Y2835350D01*
X2995230Y2434560D01*
X2994920Y2433060D01*
Y2433050D01*
G02X2941000Y2388980I-53920J10951D01*
G02X2888910Y2426290I0J55017D01*
G01X2887740Y2429730D01*
X2879020D01*
Y2413720D01*
X3077720Y2215020D01*
X3115070D01*
X3116040Y2215440D01*
G02X3138000Y2220020I21977J-50437D01*
G02X3159960Y2215440I-17J-55017D01*
G01X3160930Y2215020D01*
X3349070D01*
X3350040Y2215440D01*
G02X3372000Y2220020I21977J-50437D01*
G02X3393960Y2215440I-17J-55017D01*
G01X3394930Y2215020D01*
X3402220D01*
G03X3410600Y2230920I-3J10160D01*
G02X3400980Y2262000I45396J31080D01*
G02X3410980Y2293630I55023J0D01*
G01Y2505370D01*
G02X3400980Y2537000I45023J31630D01*
G02X3511020I55020J0D01*
G02X3501020Y2505370I-55023J0D01*
G01Y2293630D01*
G02X3511020Y2262000I-45023J-31630D01*
G02X3501400Y2230920I-55016J0D01*
G37*
G36*
G01X1904980Y910650D02*
Y1293650D01*
X2804770Y2193440D01*
X2805080Y2194940D01*
G02X2859000Y2239020I53920J-10938D01*
G02X2914020Y2184000I0J-55020D01*
G02X2869940Y2130080I-55018J0D01*
G01X2868440Y2129770D01*
X1995020Y1256350D01*
Y873350D01*
X1842020Y720350D01*
Y717630D01*
G02X1852020Y686000I-45023J-31630D01*
G02X1741980I-55020J0D01*
G02X1751980Y717630I55023J0D01*
G01Y757650D01*
X1904980Y910650D01*
G37*
G36*
G01X2255980Y2908650D02*
X3181350Y3834020D01*
X3421370D01*
G02X3453000Y3844020I31630J-45023D01*
G02Y3733980I0J-55020D01*
G02X3421370Y3743980I0J55023D01*
G01X3218650D01*
X2346020Y2871350D01*
Y1952350D01*
X1774020Y1380350D01*
Y1121350D01*
X1692650Y1039980D01*
X1667060D01*
X1596500Y999260D01*
X1596460Y999240D01*
G02X1545000Y984980I-51470J85757D01*
G02Y1185020I0J100020D01*
G02X1596460Y1170760I-10J-100017D01*
G01X1596500Y1170740D01*
X1659640Y1134300D01*
X1683980Y1158650D01*
Y1417650D01*
X2255980Y1989650D01*
Y2908650D01*
G37*
G36*
G01X1935980Y489650D02*
X2593350Y1147020D01*
X3759370D01*
G02X3791000Y1157020I31630J-45023D01*
G02Y1046980I0J-55020D01*
G02X3759370Y1056980I0J55023D01*
G01X2630650D01*
X2026020Y452350D01*
Y316630D01*
G02X2036020Y285000I-45023J-31630D01*
G02X1925980I-55020J0D01*
G02X1935980Y316630I55023J0D01*
G01Y489650D01*
G37*
G36*
G01X6480980Y6690480D02*
X6477500Y6691640D01*
G02X6439830Y6743850I17346J52210D01*
G02X6494850Y6798870I55020J0D01*
G02X6548770Y6754800I0J-55021D01*
G01Y6754790D01*
X6549080Y6753290D01*
X6571020Y6731350D01*
Y6370700D01*
G03X6583330Y6360770I10159J-1D01*
G02X6594980Y6362020I11661J-53771D01*
G01X6595000D01*
G02X6650020Y6307000I0J-55020D01*
G02X6640020Y6275370I-55023J0D01*
G01Y5237940D01*
G03X6654520Y5228760I10159J5D01*
G02X6678000Y5234020I23477J-49761D01*
G01X6678020D01*
G02X6692200Y5232160I-5J-55022D01*
G03X6704980Y5241970I2622J9814D01*
G01Y6037390D01*
X6698080Y6044290D01*
X6696580Y6044600D01*
G02X6652500Y6098520I10938J53920D01*
G02X6707520Y6153540I55020J0D01*
G02X6761440Y6109470I0J-55021D01*
G01Y6109460D01*
X6761750Y6107960D01*
X6795020Y6074690D01*
Y5976410D01*
G03X6809360Y5967150I10159J-2D01*
G02X6831980Y5972020I22632J-50152D01*
G01X6832000D01*
G02X6887020Y5917000I0J-55020D01*
G02X6877020Y5885370I-55023J0D01*
G01Y5328360D01*
G03X6890810Y5318880I10158J7D01*
G02X6910480Y5322520I19680J-51382D01*
G01X6910500D01*
G02X6965520Y5267500I0J-55020D01*
G02X6955520Y5235870I-55023J0D01*
G01Y863850D01*
X6350650Y258980D01*
X6060030D01*
X6002190Y210910D01*
G02X5983010Y203980I-19185J23092D01*
G01X5843000D01*
G02X5812980Y234000I0J30020D01*
G01Y374000D01*
G02X5843000Y404020I30020J0D01*
G01X5983010D01*
G02X6002190Y397090I-5J-30022D01*
G01X6060030Y349020D01*
X6313350D01*
X6865480Y901150D01*
Y966290D01*
G03X6848140Y973470I-10159J-6D01*
G01X6641650Y766980D01*
X6035060D01*
X5964500Y726260D01*
X5964460Y726240D01*
G02X5913000Y711980I-51470J85757D01*
G02Y912020I0J100020D01*
G02X5964460Y897760I-10J-100017D01*
G01X5964500Y897740D01*
X6035060Y857020D01*
X6604350D01*
X6786980Y1039650D01*
Y1135790D01*
G03X6769640Y1142970I-10159J-6D01*
G01X6647650Y1020980D01*
X6035060D01*
X5964500Y980260D01*
X5964460Y980240D01*
G02X5913000Y965980I-51470J85757D01*
G02Y1166020I0J100020D01*
G02X5964460Y1151760I-10J-100017D01*
G01X5964500Y1151740D01*
X6035060Y1111020D01*
X6610350D01*
X6704980Y1205650D01*
Y1393790D01*
G03X6687640Y1400970I-10159J-6D01*
G01X6561650Y1274980D01*
X6035060D01*
X5964500Y1234260D01*
X5964460Y1234240D01*
G02X5913000Y1219980I-51470J85757D01*
G02Y1420020I0J100020D01*
G02X5964460Y1405760I-10J-100017D01*
G01X5964500Y1405740D01*
X6035060Y1365020D01*
X6524350D01*
X6632980Y1473650D01*
Y1626790D01*
G03X6615640Y1633970I-10159J-6D01*
G01X6510650Y1528980D01*
X6035060D01*
X5964500Y1488260D01*
X5964460Y1488240D01*
G02X5913000Y1473980I-51470J85757D01*
G02Y1674020I0J100020D01*
G02X5964460Y1659760I-10J-100017D01*
G01X5964500Y1659740D01*
X6035060Y1619020D01*
X6473350D01*
X6549980Y1695650D01*
Y1930790D01*
G03X6532640Y1937970I-10159J-6D01*
G01X6377650Y1782980D01*
X6035060D01*
X5964500Y1742260D01*
X5964460Y1742240D01*
G02X5913000Y1727980I-51470J85757D01*
G02Y1928020I0J100020D01*
G02X5964460Y1913760I-10J-100017D01*
G01X5964500Y1913740D01*
X6035060Y1873020D01*
X6340350D01*
X6480980Y2013650D01*
Y2125790D01*
G03X6463640Y2132970I-10159J-6D01*
G01X6367650Y2036980D01*
X6035060D01*
X5964500Y1996260D01*
X5964460Y1996240D01*
G02X5913000Y1981980I-51470J85757D01*
G02Y2182020I0J100020D01*
G02X5964460Y2167760I-10J-100017D01*
G01X5964500Y2167740D01*
X6035060Y2127020D01*
X6330350D01*
X6409680Y2206350D01*
Y6568650D01*
X6409530Y6568800D01*
G02X6398890Y6571790I9489J54195D01*
G03X6385020Y6562330I-3709J-9459D01*
G01Y3302350D01*
X6287650Y3204980D01*
X6035060D01*
X5964500Y3164260D01*
X5964460Y3164240D01*
G02X5913000Y3149980I-51470J85757D01*
G02Y3350020I0J100020D01*
G02X5964460Y3335760I-10J-100017D01*
G01X5964500Y3335740D01*
X6035060Y3295020D01*
X6250350D01*
X6294980Y3339650D01*
Y3585790D01*
G03X6277640Y3592970I-10159J-6D01*
G01X6143650Y3458980D01*
X6035060D01*
X5964500Y3418260D01*
X5964460Y3418240D01*
G02X5913000Y3403980I-51470J85757D01*
G02Y3604020I0J100020D01*
G02X5964460Y3589760I-10J-100017D01*
G01X5964500Y3589740D01*
X6035060Y3549020D01*
X6106350D01*
X6206980Y3649650D01*
Y3780790D01*
G03X6189640Y3787970I-10159J-6D01*
G01X6114650Y3712980D01*
X6035060D01*
X5964500Y3672260D01*
X5964460Y3672240D01*
G02X5913000Y3657980I-51470J85757D01*
G02Y3858020I0J100020D01*
G02X5964460Y3843760I-10J-100017D01*
G01X5964500Y3843740D01*
X6035060Y3803020D01*
X6077350D01*
X6118980Y3844650D01*
Y6892350D01*
X5950350Y7060980D01*
X4658350D01*
X4468350Y7250980D01*
X3358630D01*
G02X3327000Y7240980I-31630J45023D01*
G02X3273080Y7285050I0J55021D01*
G01Y7285060D01*
X3272770Y7286560D01*
X3084350Y7474980D01*
X2374650D01*
X2204230Y7304560D01*
X2203920Y7303060D01*
Y7303050D01*
G02X2150000Y7258980I-53920J10951D01*
G02X2094980Y7314000I0J55020D01*
G02X2139060Y7367920I55018J0D01*
G01X2140560Y7368230D01*
X2337350Y7565020D01*
X3121650D01*
X3336440Y7350230D01*
X3337940Y7349920D01*
G02X3358630Y7341020I-10936J-53922D01*
G01X3582790D01*
G03X3591940Y7355590I1J10158D01*
G02X3586480Y7379470I49563J23896D01*
G01Y7379500D01*
G02X3630560Y7433420I55018J0D01*
G01X3632060Y7433730D01*
X3659350Y7461020D01*
X4603650D01*
X4726650Y7338020D01*
X5982650D01*
X6268030Y7052630D01*
G03X6285310Y7060940I7182J7186D01*
G02X6284980Y7066960I54692J6017D01*
G01Y7067000D01*
G02X6395020I55020J0D01*
G02X6385020Y7035370I-55023J0D01*
G01Y6683670D01*
G03X6398890Y6674210I10161J-1D01*
G02X6419000Y6678020I20118J-51209D01*
G02X6462740Y6656370I0J-55009D01*
G03X6480980Y6662530I8079J6163D01*
G01Y6690480D01*
G37*
G36*
G01X1927480Y6935490D02*
Y6960830D01*
X1926630Y6962110D01*
G02X1917480Y6992500I45872J30384D01*
G02X2027520I55020J0D01*
G02X2017520Y6960870I-55023J0D01*
G01Y6898190D01*
X2017020Y6897690D01*
Y6746630D01*
G02X2027020Y6715000I-45023J-31630D01*
G02X1916980I-55020J0D01*
G02X1926980Y6746630I55023J0D01*
G01Y6934990D01*
X1927480Y6935490D01*
G37*
G36*
G01X4932980Y5980630D02*
Y6883370D01*
G02X4922980Y6915000I45023J31630D01*
G02X5033020I55020J0D01*
G02X5023020Y6883370I-55023J0D01*
G01Y5980630D01*
G02X5033020Y5949000I-45023J-31630D01*
G02X5029850Y5930580I-55022J-14D01*
G03X5039420Y5917020I9572J-3402D01*
G01X5519650D01*
X5666640Y5770030D01*
G03X5683980Y5777220I7181J7186D01*
G01Y6266350D01*
X5560850Y6389480D01*
X5179630D01*
G02X5148000Y6379480I-31630J45023D01*
G02Y6489520I0J55020D01*
G02X5179630Y6479520I0J-55023D01*
G01X5598150D01*
X5774020Y6303650D01*
Y3099950D01*
X5820310Y3053660D01*
X5855090Y3077550D01*
X5855120Y3077570D01*
G02X5913000Y3096020I57880J-81563D01*
G02Y2895980I0J-100020D01*
G02X5855120Y2914430I0J100013D01*
G01X5855090Y2914450D01*
X5801920Y2950980D01*
X5796650D01*
X5787650Y2959980D01*
X5786650D01*
X5705690Y3040940D01*
G03X5697020Y3037350I-3591J-3593D01*
G01Y3028650D01*
X5760020Y2965650D01*
Y2544650D01*
X5769070Y2535600D01*
X5823810Y2581090D01*
G02X5843000Y2588020I19185J-23092D01*
G01X5983000D01*
G02X6013020Y2558000I0J-30020D01*
G01Y2418000D01*
G02X5983000Y2387980I-30020J0D01*
G01X5843000D01*
G02X5823810Y2394910I-5J30022D01*
G01X5765970Y2442980D01*
X5734350D01*
X5669980Y2507350D01*
Y2774540D01*
G03X5655330Y2783650I-10159J-3D01*
G02X5631000Y2777980I-24327J49351D01*
G02X5608360Y2782850I-8J55022D01*
G03X5594020Y2773590I-4181J-9258D01*
G01Y2030720D01*
X5615120Y2000020D01*
X5650650D01*
X5749020Y1901650D01*
Y615650D01*
X5761650Y603020D01*
X5790940D01*
X5861500Y643740D01*
X5861540Y643760D01*
G02X5913000Y658020I51470J-85757D01*
G02Y457980I0J-100020D01*
G02X5861540Y472240I10J100017D01*
G01X5861500Y472260D01*
X5790940Y512980D01*
X5724350D01*
X5658980Y578350D01*
Y1864350D01*
X5613350Y1909980D01*
X5483060D01*
X5412500Y1869260D01*
X5412460Y1869240D01*
G02X5361000Y1854980I-51470J85757D01*
G02Y2055020I0J100020D01*
G02X5412460Y2040760I-10J-100017D01*
G01X5412500Y2040740D01*
X5482930Y2000090D01*
X5503980Y2030720D01*
Y2857350D01*
X5458980Y2902350D01*
Y5348350D01*
X5326350Y5480980D01*
X4369630D01*
G02X4338000Y5470980I-31630J45023D01*
G02Y5581020I0J55020D01*
G02X4369630Y5571020I0J-55023D01*
G01X4456910D01*
G03X4466590Y5584270I0J10161D01*
G02X4463980Y5601000I52408J16745D01*
G02X4519000Y5656020I55020J0D01*
G02X4550630Y5646020I0J-55023D01*
G01X5401650D01*
X5589640Y5458030D01*
G03X5606980Y5465220I7181J7186D01*
G01Y5702350D01*
X5482350Y5826980D01*
X4917630D01*
G02X4886000Y5816980I-31630J45023D01*
G02Y5927020I0J55020D01*
G02X4916390Y5917870I6J-55022D01*
G01X4917670Y5917020D01*
X4924260D01*
G03X4928800Y5924370I-4J5080D01*
G02X4922980Y5949000I49207J24630D01*
G02X4932980Y5980630I55023J0D01*
G37*
G36*
G01X2256560Y6722230D02*
X2358850Y6824520D01*
X2584870D01*
G02X2616500Y6834520I31630J-45023D01*
G02Y6724480I0J-55020D01*
G02X2584870Y6734480I0J55023D01*
G01X2396150D01*
X2320230Y6658560D01*
X2319920Y6657060D01*
G02X2266000Y6612980I-53920J10938D01*
G02X2210980Y6668000I0J55020D01*
G02X2255060Y6721920I55018J0D01*
G01X2256560Y6722230D01*
G37*
G36*
G01X2107210Y5261020D02*
X2150120D01*
X2213220Y5295790D01*
X2213270Y5295820D01*
G02X2266000Y5310020I52734J-90819D01*
G02Y5099980I0J-105020D01*
G02X2211990Y5114930I-4J105021D01*
G01X2211960Y5114950D01*
X2151600Y5149790D01*
X2126020Y5124210D01*
Y5048210D01*
X2033790Y4955980D01*
X1630000D01*
G02Y5066020I0J55020D01*
G01X1988210D01*
X2015980Y5093790D01*
Y5169790D01*
X2107210Y5261020D01*
G37*
G36*
G01X5109370Y4903980D02*
X2870410D01*
G02X2839500Y4894480I-30906J45521D01*
G02Y5004520I0J55020D01*
G02X2871130Y4994520I0J-55023D01*
G01X2900850D01*
X2901350Y4994020D01*
X5109370D01*
G02X5141000Y5004020I31630J-45023D01*
G02Y4893980I0J-55020D01*
G02X5109370Y4903980I0J55023D01*
G37*
G36*
G01X4654980Y4347940D02*
X4609950Y4425960D01*
X4609930Y4425990D01*
G02X4594980Y4480000I90071J54006D01*
G02X4805020I105020J0D01*
G02X4790070Y4425990I-105021J-4D01*
G01X4790050Y4425960D01*
X4745020Y4347940D01*
Y4266650D01*
X4790020Y4221650D01*
Y3257630D01*
G02X4800020Y3226000I-45023J-31630D01*
G02X4689980I-55020J0D01*
G02X4699980Y3257630I55023J0D01*
G01Y4184350D01*
X4654980Y4229350D01*
Y4347940D01*
G37*
G36*
G01X4352980D02*
X4307950Y4425960D01*
X4307930Y4425990D01*
G02X4292980Y4480000I90071J54006D01*
G02X4503020I105020J0D01*
G02X4488070Y4425990I-105021J-4D01*
G01X4488050Y4425960D01*
X4443020Y4347940D01*
Y4298650D01*
X4557020Y4184650D01*
Y3503630D01*
G02X4567020Y3472000I-45023J-31630D01*
G02X4456980I-55020J0D01*
G02X4466980Y3503630I55023J0D01*
G01Y4147350D01*
X4352980Y4261350D01*
Y4347940D01*
G37*
G36*
G01X1713350Y4219980D02*
X1626560Y4306770D01*
X1625060Y4307080D01*
G02X1580980Y4361000I10938J53920D01*
G02X1636000Y4416020I55020J0D01*
G02X1689920Y4371940I0J-55018D01*
G01X1690230Y4370440D01*
X1750650Y4310020D01*
X4207650D01*
X4208650Y4311020D01*
X4238370D01*
G02X4270000Y4321020I31630J-45023D01*
G02Y4210980I0J-55020D01*
G02X4239840Y4219980I-4J55021D01*
G01X1713350D01*
G37*
G36*
G01X2618980Y3736650D02*
X2843350Y3961020D01*
X4263370D01*
G02X4295000Y3971020I31630J-45023D01*
G02Y3860980I0J-55020D01*
G02X4263370Y3870980I0J55023D01*
G01X2880650D01*
X2709020Y3699350D01*
Y3411350D01*
X2581230Y3283560D01*
X2580920Y3282060D01*
G02X2527000Y3237980I-53920J10938D01*
G02X2471980Y3293000I0J55020D01*
G02X2516060Y3346920I55018J0D01*
G01X2517560Y3347230D01*
X2618980Y3448650D01*
Y3736650D01*
G37*
G36*
G01X5067350Y3643980D02*
X4887630D01*
G02X4856000Y3633980I-31630J45023D01*
G02Y3744020I0J55020D01*
G02X4887630Y3734020I0J-55023D01*
G01X5104650D01*
X5237020Y3601650D01*
Y2270510D01*
G03X5252260Y2261710I10159J-3D01*
G01X5309500Y2294740D01*
X5309540Y2294760D01*
G02X5361000Y2309020I51470J-85757D01*
G02Y2108980I0J-100020D01*
G02X5309540Y2123240I10J100017D01*
G01X5309500Y2123260D01*
X5238940Y2163980D01*
X5203350D01*
X5146980Y2220350D01*
Y2720770D01*
G03X5134350Y2730630I-10162J3D01*
G02X5121000Y2728980I-13373J53367D01*
G02X5065980Y2784000I0J55020D01*
G02X5075980Y2815630I55023J0D01*
G01Y3497350D01*
X5047350Y3525980D01*
X4951630D01*
G02X4920000Y3515980I-31630J45023D01*
G02Y3626020I0J55020D01*
G02X4951630Y3616020I0J-55023D01*
G01X5070780D01*
G03X5077970Y3633360I4J10159D01*
G01X5067350Y3643980D01*
G37*
G36*
G01X3971980Y1846350D02*
Y1893370D01*
G02X3961980Y1925000I45023J31630D01*
G02X4072020I55020J0D01*
G02X4062870Y1894610I-55022J-6D01*
G01X4062020Y1893330D01*
Y1883650D01*
X4087650Y1858020D01*
X4290940D01*
X4361500Y1898740D01*
X4361540Y1898760D01*
G02X4413000Y1913020I51470J-85757D01*
G02Y1712980I0J-100020D01*
G02X4361540Y1727240I10J100017D01*
G01X4361500Y1727260D01*
X4290940Y1767980D01*
X4050350D01*
X3971980Y1846350D01*
G37*
G36*
G01X3839980Y1349650D02*
Y1766370D01*
G02X3829980Y1798000I45023J31630D01*
G02X3940020I55020J0D01*
G02X3930020Y1766370I-55023J0D01*
G01Y1312350D01*
X3848450Y1230780D01*
X3293550D01*
X3272560Y1251770D01*
X3271060Y1252080D01*
G02X3226980Y1306000I10938J53920D01*
G02X3282000Y1361020I55020J0D01*
G02X3333920Y1324220I0J-55026D01*
G01X3335110Y1320820D01*
X3811150D01*
X3839980Y1349650D01*
G37*
G36*
G01X4145350Y1627980D02*
X4039630D01*
G02X4008000Y1617980I-31630J45023D01*
G02Y1728020I0J55020D01*
G02X4039630Y1718020I0J-55023D01*
G01X4182650D01*
X4243020Y1657650D01*
Y1400650D01*
X4292660Y1351010D01*
X4361500Y1390740D01*
X4361540Y1390760D01*
G02X4413000Y1405020I51470J-85757D01*
G02Y1204980I0J-100020D01*
G02X4361540Y1219240I10J100017D01*
G01X4361500Y1219260D01*
X4290940Y1259980D01*
X4256350D01*
X4152980Y1363350D01*
Y1620350D01*
X4145350Y1627980D01*
G37*
G36*
G01X985980Y3790000D02*
Y3930000D01*
G02X1016000Y3960020I30020J0D01*
G01X1156000D01*
G02X1186020Y3930000I0J-30020D01*
G01Y3790000D01*
G02X1156000Y3759980I-30020J0D01*
G01X1016000D01*
G02X985980Y3790000I0J30020D01*
G37*
G36*
G01X1444980Y253000D02*
Y393000D01*
G02X1475000Y423020I30020J0D01*
G01X1615000D01*
G02X1645020Y393000I0J-30020D01*
G01Y253000D01*
G02X1615000Y222980I-30020J0D01*
G01X1475000D01*
G02X1444980Y253000I0J30020D01*
G37*
G36*
G01X1445980Y2520000D02*
Y2660000D01*
G02X1476000Y2690020I30020J0D01*
G01X1616000D01*
G02X1646020Y2660000I0J-30020D01*
G01Y2520000D01*
G02X1616000Y2489980I-30020J0D01*
G01X1476000D01*
G02X1445980Y2520000I0J30020D01*
G37*
G36*
G01X5260980Y1631000D02*
Y1771000D01*
G02X5291000Y1801020I30020J0D01*
G01X5431000D01*
G02X5461020Y1771000I0J-30020D01*
G01Y1631000D01*
G02X5431000Y1600980I-30020J0D01*
G01X5291000D01*
G02X5260980Y1631000I0J30020D01*
G37*
G36*
G01X4665980Y5755630D02*
Y6897370D01*
G02X4655980Y6929000I45023J31630D01*
G02X4766020I55020J0D01*
G02X4756020Y6897370I-55023J0D01*
G01Y5755630D01*
G02X4766020Y5724000I-45023J-31630D01*
G02X4655980I-55020J0D01*
G02X4665980Y5755630I55023J0D01*
G37*
G36*
G01X2082980Y2000650D02*
Y3032650D01*
X2157770Y3107440D01*
X2158080Y3108940D01*
G02X2212000Y3153020I53920J-10938D01*
G02X2267020Y3098000I0J-55020D01*
G02X2222940Y3044080I-55018J0D01*
G01X2221440Y3043770D01*
X2173020Y2995350D01*
Y1963350D01*
X2061730Y1852060D01*
X2061420Y1850560D01*
G02X2007500Y1806480I-53920J10938D01*
G02X1952480Y1861500I0J55020D01*
G02X1996560Y1915420I55018J0D01*
G01X1998060Y1915730D01*
X2082980Y2000650D01*
G37*
G36*
G01X1412130Y1569520D02*
X1633850D01*
X1687770Y1623440D01*
X1688080Y1624940D01*
G02X1742000Y1669020I53920J-10938D01*
G02X1797020Y1614000I0J-55020D01*
G02X1752940Y1560080I-55018J0D01*
G01X1751440Y1559770D01*
X1671150Y1479480D01*
X1412130D01*
G02X1380500Y1469480I-31630J45023D01*
G02Y1579520I0J55020D01*
G02X1412130Y1569520I0J-55023D01*
G37*
G36*
G01X1809210Y2899020D02*
X1943980Y3033790D01*
Y3310000D01*
G02X2054020I55020J0D01*
G01Y2988210D01*
X1854790Y2788980D01*
X1393290D01*
X1362020Y2757710D01*
Y2429790D01*
X1400790Y2391020D01*
X1441260D01*
X1494500Y2421740D01*
X1494540Y2421770D01*
G02X1546000Y2436020I51454J-85772D01*
G02Y2235980I0J-100020D01*
G02X1494540Y2250230I-6J100022D01*
G01X1494500Y2250260D01*
X1441260Y2280980D01*
X1355210D01*
X1251980Y2384210D01*
Y2757710D01*
X1220710Y2788980D01*
X1190740D01*
X1137500Y2758260D01*
X1137460Y2758230D01*
G02X1086000Y2743980I-51454J85772D01*
G02Y2944020I0J100020D01*
G02X1137460Y2929770I6J-100022D01*
G01X1137500Y2929740D01*
X1190740Y2899020D01*
X1809210D01*
G37*
G36*
G01X4312980Y981000D02*
Y1121000D01*
G02X4343000Y1151020I30020J0D01*
G01X4483000D01*
G02X4513020Y1121000I0J-30020D01*
G01Y981000D01*
G02X4508030Y964420I-30022J-5D01*
G01X4468020Y904030D01*
Y816210D01*
X4045790Y393980D01*
X2871510D01*
X2772980Y492510D01*
Y568000D01*
G02X2883020I55020J0D01*
G01Y538090D01*
X2917090Y504020D01*
X4000210D01*
X4357980Y861790D01*
Y904030D01*
X4317970Y964420D01*
G02X4312980Y981000I25032J16575D01*
G37*
G36*
G01X3505980Y3533650D02*
X3587350Y3615020D01*
X4183370D01*
G02X4215000Y3625020I31630J-45023D01*
G02Y3514980I0J-55020D01*
G02X4183370Y3524980I0J55023D01*
G01X3624650D01*
X3596020Y3496350D01*
Y3141630D01*
G02Y3078370I-45023J-31630D01*
G01Y2857350D01*
X3172230Y2433560D01*
X3171920Y2432060D01*
G02X3118000Y2387980I-53920J10938D01*
G02X3062980Y2443000I0J55020D01*
G02X3107060Y2496920I55018J0D01*
G01X3108560Y2497230D01*
X3505980Y2894650D01*
Y3078370D01*
G02Y3141630I45023J31630D01*
G01Y3533650D01*
G37*
G36*
G01X1794980Y1347950D02*
X2629120Y2182090D01*
X2629430Y2183590D01*
Y2183600D01*
G02X2683350Y2227670I53920J-10951D01*
G02X2738370Y2172650I0J-55020D01*
G02X2694290Y2118730I-55018J0D01*
G01X2692790Y2118420D01*
X1885020Y1310650D01*
Y923350D01*
X1747650Y785980D01*
X1667060D01*
X1596500Y745260D01*
X1596460Y745240D01*
G02X1545000Y730980I-51470J85757D01*
G02Y931020I0J100020D01*
G02X1596460Y916760I-10J-100017D01*
G01X1596500Y916740D01*
X1667060Y876020D01*
X1710350D01*
X1794980Y960650D01*
Y1347950D01*
G37*
G36*
G01X1546000Y1981980D02*
X1545990D01*
G02X1494540Y1996230I4J100022D01*
G01X1494500Y1996260D01*
X1441260Y2026980D01*
X1190740D01*
X1137500Y1996260D01*
X1137460Y1996230D01*
G02X1086010Y1981980I-51454J85772D01*
G01X1086000D01*
G02Y2182020I0J100020D01*
G01X1086010D01*
G02X1137460Y2167770I-4J-100022D01*
G01X1137500Y2167740D01*
X1190740Y2137020D01*
X1441260D01*
X1494500Y2167740D01*
X1494540Y2167770D01*
G02X1545990Y2182020I51454J-85772D01*
G01X1546000D01*
G02Y1981980I0J-100020D01*
G37*
G36*
G01X479580Y1356750D02*
Y6208370D01*
G02X469580Y6240000I45023J31630D01*
G02X579620I55020J0D01*
G02X569620Y6208370I-55023J0D01*
G01Y1394050D01*
X852650Y1111020D01*
X964940D01*
X1035500Y1151740D01*
X1035540Y1151760D01*
G02X1087000Y1166020I51470J-85757D01*
G02Y965980I0J-100020D01*
G02X1035540Y980240I10J100017D01*
G01X1035500Y980260D01*
X964940Y1020980D01*
X815350D01*
X479580Y1356750D01*
G37*
G36*
G01X607980Y6269650D02*
X817850Y6479520D01*
X2607370D01*
G02X2639000Y6489520I31630J-45023D01*
G02Y6379480I0J-55020D01*
G02X2607370Y6389480I0J55023D01*
G01X1040020D01*
X1018920Y6358780D01*
Y6245450D01*
X1019020Y6245350D01*
Y6240710D01*
X1058240Y6186720D01*
X1058250Y6186690D01*
G02X1079020Y6124000I-84247J-62698D01*
G02X868980I-105020J0D01*
G02X889750Y6186690I105017J-8D01*
G01X889760Y6186720D01*
X928880Y6240580D01*
Y6358780D01*
X907780Y6389480D01*
X855150D01*
X698020Y6232350D01*
Y1694650D01*
X773650Y1619020D01*
X939970D01*
X997810Y1667090D01*
G02X1017000Y1674020I19185J-23092D01*
G01X1157000D01*
G02X1187020Y1644000I0J-30020D01*
G01Y1504000D01*
G02X1157000Y1473980I-30020J0D01*
G01X1017000D01*
G02X997810Y1480910I-5J30022D01*
G01X939970Y1528980D01*
X736350D01*
X607980Y1657350D01*
Y6269650D01*
G37*
G36*
G01X240980Y961350D02*
Y5198370D01*
G02X230980Y5230000I45023J31630D01*
G02X341020I55020J0D01*
G02X331020Y5198370I-55023J0D01*
G01Y998650D01*
X726650Y603020D01*
X964940D01*
X1035500Y643740D01*
X1035540Y643760D01*
G02X1087000Y658020I51470J-85757D01*
G02Y457980I0J-100020D01*
G02X1035540Y472240I10J100017D01*
G01X1035500Y472260D01*
X964940Y512980D01*
X689350D01*
X240980Y961350D01*
G37*
G54D20*
X1545000Y1339000D03*
X5913000Y4520000D03*
Y4774000D03*
Y4266000D03*
Y2742000D03*
X5361000Y2463000D03*
X1087000Y1320000D03*
G54D23*
X4700000Y4734000D03*
X4398000D03*
X2324000Y4097000D03*
Y3843000D03*
X974000Y5870000D03*
G54D21*
X6750000Y8000000D03*
Y250000D03*
X250000Y8000000D03*
Y250000D03*
G54D24*
X3400000Y4554000D03*
X2912000D03*
G54D22*
X5913000Y4012000D03*
X4413000Y1559000D03*
X1545000Y577000D03*
X1086000Y2590000D03*
Y2336000D03*
%LPD*%
G75*
G36*
G01X969500Y291010D02*
X1052010Y243390D01*
X1090750Y304000D01*
X1052010Y364610D01*
X969500Y316990D01*
G03Y291010I7500J-12990D01*
G37*
G36*
G01Y799010D02*
X1052010Y751390D01*
X1090750Y812000D01*
X1052010Y872610D01*
X969500Y824990D01*
G03Y799010I7500J-12990D01*
G37*
G36*
G01Y545010D02*
X1052010Y497390D01*
X1090750Y558000D01*
X1052010Y618610D01*
X969500Y570990D01*
G03Y545010I7500J-12990D01*
G37*
G36*
G01Y1053010D02*
X1052010Y1005390D01*
X1090750Y1066000D01*
X1052010Y1126610D01*
X969500Y1078990D01*
G03Y1053010I7500J-12990D01*
G37*
G36*
G01X944630Y1564140D02*
X1017000Y1504000D01*
X1090750Y1574000D01*
X1017000Y1644000D01*
X944630Y1583860D01*
G03Y1564140I11300J-9860D01*
G37*
G36*
G01X1188500Y2103650D02*
X1120990Y2142610D01*
X1079750Y2082000D01*
X1120990Y2021390D01*
X1188500Y2060350D01*
G03Y2103650I-12500J21650D01*
G37*
G36*
G01Y2865650D02*
X1120990Y2904610D01*
X1079750Y2844000D01*
X1120990Y2783390D01*
X1188500Y2822350D01*
G03Y2865650I-12500J21650D01*
G37*
G36*
G01X1324680Y2762820D02*
X1388180Y2826320D01*
X1332000Y2850250D01*
X1282000D01*
X1225820Y2826320D01*
X1289320Y2762820D01*
G03X1324680I17680J17680D01*
G37*
G36*
G01X1188500Y3119650D02*
X1120990Y3158610D01*
X1079750Y3098000D01*
X1120990Y3037390D01*
X1188500Y3076350D01*
G03Y3119650I-12500J21650D01*
G37*
G36*
G01X968500Y3339010D02*
X1051010Y3291390D01*
X1089750Y3352000D01*
X1051010Y3412610D01*
X968500Y3364990D01*
G03Y3339010I7500J-12990D01*
G37*
G36*
G01X1188500Y3627650D02*
X1120990Y3666610D01*
X1079750Y3606000D01*
X1120990Y3545390D01*
X1188500Y3584350D01*
G03Y3627650I-12500J21650D01*
G37*
G36*
G01X983500Y3584350D02*
X1051010Y3545390D01*
X1092250Y3606000D01*
X1051010Y3666610D01*
X983500Y3627650D01*
G03Y3584350I12500J-21650D01*
G37*
G36*
G01X961860Y6234900D02*
X913330Y6168080D01*
X974000Y6120250D01*
X1034670Y6168080D01*
X986140Y6234900D01*
G03X961860I-12140J-8820D01*
G37*
G36*
G01X986260Y6364260D02*
X1028690Y6426000D01*
X988900Y6438250D01*
X958900D01*
X919110Y6426000D01*
X961540Y6364260D01*
G03X986260I12360J8500D01*
G37*
G36*
G01X1662500Y843990D02*
X1579990Y891610D01*
X1541250Y831000D01*
X1579990Y770390D01*
X1662500Y818010D01*
G03Y843990I-7500J12990D01*
G37*
G36*
G01Y1097990D02*
X1579990Y1145610D01*
X1541250Y1085000D01*
X1579990Y1024390D01*
X1662500Y1072010D01*
G03Y1097990I-7500J12990D01*
G37*
G36*
G01X1443500Y2060350D02*
X1511010Y2021390D01*
X1552250Y2082000D01*
X1511010Y2142610D01*
X1443500Y2103650D01*
G03Y2060350I12500J-21650D01*
G37*
G36*
G01Y2314350D02*
X1511010Y2275390D01*
X1552250Y2336000D01*
X1511010Y2396610D01*
X1443500Y2357650D01*
G03Y2314350I12500J-21650D01*
G37*
G36*
G01X1382180Y3244680D02*
X1318680Y3308180D01*
X1294750Y3252000D01*
Y3202000D01*
X1318680Y3145820D01*
X1382180Y3209320D01*
G03Y3244680I-17680J17680D01*
G37*
G36*
G01X2151770Y5184350D02*
X2228510Y5140060D01*
X2272250Y5204940D01*
X2228940Y5270180D01*
X2152200Y5227890D01*
G03X2151770Y5184350I12071J-21891D01*
G37*
G36*
G01X2287650Y4838500D02*
X2330940Y4913510D01*
X2266000Y4957250D01*
X2201060Y4913510D01*
X2244350Y4838500D01*
G03X2287650I21650J12500D01*
G37*
G36*
G01X3152140Y2087360D02*
X3215640Y2150860D01*
X3158000Y2170000D01*
X3118000D01*
X3060360Y2150860D01*
X3123860Y2087360D01*
G03X3152140I14140J14140D01*
G37*
G36*
G01X4429570Y900350D02*
X4483000Y981000D01*
X4413000Y1057250D01*
X4343000Y981000D01*
X4396430Y900350D01*
G03X4429570I16570J18720D01*
G37*
G36*
G01X4295500Y1292010D02*
X4378010Y1244390D01*
X4416750Y1305000D01*
X4378010Y1365610D01*
X4295500Y1317990D01*
G03Y1292010I7500J-12990D01*
G37*
G36*
G01Y1800010D02*
X4378010Y1752390D01*
X4416750Y1813000D01*
X4378010Y1873610D01*
X4295500Y1825990D01*
G03Y1800010I7500J-12990D01*
G37*
G36*
G01X4410990Y4352500D02*
X4462940Y4442510D01*
X4398000Y4483750D01*
X4333060Y4442510D01*
X4385010Y4352500D01*
G03X4410990I12990J7500D01*
G37*
G36*
G01X4712990D02*
X4764940Y4442510D01*
X4700000Y4483750D01*
X4635060Y4442510D01*
X4687010Y4352500D01*
G03X4712990I12990J7500D01*
G37*
G36*
G01X5243500Y2196010D02*
X5326010Y2148390D01*
X5364750Y2209000D01*
X5326010Y2269610D01*
X5243500Y2221990D01*
G03Y2196010I7500J-12990D01*
G37*
G36*
G01X4879370Y2445420D02*
X4942830Y2404210D01*
X4954750Y2443000D01*
Y2473000D01*
X4942830Y2511790D01*
X4879370Y2470580D01*
G03Y2445420I8170J-12580D01*
G37*
G36*
G01X5536640Y2025240D02*
X5494210Y1963500D01*
X5534000Y1951250D01*
X5564000D01*
X5603790Y1963500D01*
X5561360Y2025240D01*
G03X5536640I-12360J-8500D01*
G37*
G36*
G01X5478500Y1967990D02*
X5395990Y2015610D01*
X5357250Y1955000D01*
X5395990Y1894390D01*
X5478500Y1942010D01*
G03Y1967990I-7500J12990D01*
G37*
G36*
G01X6055370Y313860D02*
X5983000Y374000D01*
X5909250Y304000D01*
X5983000Y234000D01*
X6055370Y294140D01*
G03Y313860I-11300J9860D01*
G37*
G36*
G01X5795500Y545010D02*
X5878010Y497390D01*
X5916750Y558000D01*
X5878010Y618610D01*
X5795500Y570990D01*
G03Y545010I7500J-12990D01*
G37*
G36*
G01X6030500Y824990D02*
X5947990Y872610D01*
X5909250Y812000D01*
X5947990Y751390D01*
X6030500Y799010D01*
G03Y824990I-7500J12990D01*
G37*
G36*
G01Y1078990D02*
X5947990Y1126610D01*
X5909250Y1066000D01*
X5947990Y1005390D01*
X6030500Y1053010D01*
G03Y1078990I-7500J12990D01*
G37*
G36*
G01Y1332990D02*
X5947990Y1380610D01*
X5909250Y1320000D01*
X5947990Y1259390D01*
X6030500Y1307010D01*
G03Y1332990I-7500J12990D01*
G37*
G36*
G01Y1586990D02*
X5947990Y1634610D01*
X5909250Y1574000D01*
X5947990Y1513390D01*
X6030500Y1561010D01*
G03Y1586990I-7500J12990D01*
G37*
G36*
G01Y2094990D02*
X5947990Y2142610D01*
X5909250Y2082000D01*
X5947990Y2021390D01*
X6030500Y2069010D01*
G03Y2094990I-7500J12990D01*
G37*
G36*
G01Y1840990D02*
X5947990Y1888610D01*
X5909250Y1828000D01*
X5947990Y1767390D01*
X6030500Y1815010D01*
G03Y1840990I-7500J12990D01*
G37*
G36*
G01X5770630Y2478140D02*
X5843000Y2418000D01*
X5916750Y2488000D01*
X5843000Y2558000D01*
X5770630Y2497860D01*
G03Y2478140I11300J-9860D01*
G37*
G36*
G01X5807400Y2983640D02*
X5873360Y2938320D01*
X5916750Y2996000D01*
X5873360Y3053680D01*
X5807400Y3008360D01*
G03Y2983640I8500J-12360D01*
G37*
G36*
G01X6030500Y3262990D02*
X5947990Y3310610D01*
X5909250Y3250000D01*
X5947990Y3189390D01*
X6030500Y3237010D01*
G03Y3262990I-7500J12990D01*
G37*
G36*
G01Y3516990D02*
X5947990Y3564610D01*
X5909250Y3504000D01*
X5947990Y3443390D01*
X6030500Y3491010D01*
G03Y3516990I-7500J12990D01*
G37*
G36*
G01Y3770990D02*
X5947990Y3818610D01*
X5909250Y3758000D01*
X5947990Y3697390D01*
X6030500Y3745010D01*
G03Y3770990I-7500J12990D01*
G37*
G54D10*
X250000Y250000D03*
Y8000000D03*
X6750000Y250000D03*
Y8000000D03*
G54D11*
G01X2721000Y7112000D02*
X356000D01*
X173000Y6929000D01*
Y836000D01*
X705000Y304000D01*
X1087000D01*
G01X286000Y5230000D02*
Y980000D01*
X708000Y558000D01*
X1087000D01*
G01X2564000Y6549500D02*
X559500D01*
X400000Y6390000D01*
Y1221000D01*
X809000Y812000D01*
X1087000D01*
G01X524600Y6240000D02*
Y1375400D01*
X834000Y1066000D01*
X1087000D01*
G01Y1574000D02*
X755000D01*
X653000Y1676000D01*
Y6251000D01*
X836500Y6434500D01*
X973900D01*
G01X1086000Y3352000D02*
X916000D01*
X765000Y3503000D01*
Y5514000D01*
X878000Y5627000D01*
X3442500D01*
G01X4372000Y6204000D02*
X4499000D01*
X4547000Y6156000D01*
Y5899000D01*
X4105000Y5457000D01*
X888000D01*
G01X973900Y6434500D02*
Y6226800D01*
X974000Y6226700D01*
Y6124000D01*
G01X2639000Y6434500D02*
X973900D01*
G01X2683350Y2172650D02*
X1840000Y1329300D01*
Y942000D01*
X1729000Y831000D01*
X1545000D01*
G01X3453000Y3789000D02*
X3200000D01*
X2301000Y2890000D01*
Y1971000D01*
X1729000Y1399000D01*
Y1140000D01*
X1674000Y1085000D01*
X1545000D01*
G01X1380500Y1524500D02*
X1652500D01*
X1742000Y1614000D01*
G01X1636000Y4361000D02*
X1732000Y4265000D01*
X4226300D01*
X4227300Y4266000D01*
X4270000D01*
G01X1981000Y285000D02*
Y471000D01*
X2612000Y1102000D01*
X3791000D01*
G01X2859000Y2184000D02*
X1950000Y1275000D01*
Y892000D01*
X1797000Y739000D01*
Y686000D01*
G01X2007500Y1861500D02*
X2128000Y1982000D01*
Y3014000D01*
X2212000Y3098000D01*
G01X1972500Y6992500D02*
Y6916840D01*
X1972000Y6916340D01*
Y6715000D01*
G01X2150000Y7314000D02*
X2356000Y7520000D01*
X3103000D01*
X3327000Y7296000D01*
G01X4295000Y3916000D02*
X2862000D01*
X2664000Y3718000D01*
Y3430000D01*
X2527000Y3293000D01*
G01X2616000Y5255000D02*
X5377000D01*
G01X5240000Y5362000D02*
X2448000D01*
G01X2616500Y6779500D02*
X2377500D01*
X2266000Y6668000D01*
G01X2941000Y2444000D02*
X3351000Y2854000D01*
Y3054000D01*
G01X3066210Y3193000D02*
Y3001790D01*
X3186000Y2882000D01*
X3248000D01*
G01X2972000Y2843000D02*
X2938500Y2876500D01*
Y3045500D01*
G01X5141000Y4949000D02*
X2882700D01*
X2882200Y4949500D01*
X2839500D01*
G01X2983000Y5061000D02*
X5279000D01*
G01X3885000Y1798000D02*
Y1331000D01*
X3829800Y1275800D01*
X3312200D01*
X3282000Y1306000D01*
G01X3268000Y2058000D02*
Y1881000D01*
X3377000Y1772000D01*
Y1443000D01*
G01X3118000Y2443000D02*
X3551000Y2876000D01*
Y3110000D01*
G01X3456000Y2262000D02*
Y2537000D01*
G01X4366000Y3689000D02*
X3508000D01*
X3351000Y3532000D01*
Y3054000D01*
G01X3327000Y7296000D02*
X4487000D01*
X4677000Y7106000D01*
X5969000D01*
X6164000Y6911000D01*
Y3826000D01*
X6096000Y3758000D01*
X5913000D01*
G01X3568000Y2467000D02*
Y2299000D01*
X3601800Y2265200D01*
X3947800D01*
X3978000Y2235000D01*
G01X3859000Y2779000D02*
Y2636000D01*
X3905000Y2590000D01*
X4046000D01*
X4101000Y2535000D01*
Y2253000D01*
G01X4215000Y3570000D02*
X3606000D01*
X3551000Y3515000D01*
Y3110000D01*
G01X3855500Y5676500D02*
X3856200Y5675800D01*
X4150800D01*
X4444500Y5969500D01*
G01X3765000Y7354000D02*
X4545000D01*
X4706000Y7193000D01*
X5863000D01*
G01X3641500Y7379500D02*
X3678000Y7416000D01*
X4585000D01*
X4708000Y7293000D01*
X5964000D01*
X6252000Y7005000D01*
Y3631000D01*
X6125000Y3504000D01*
X5913000D01*
G01X4413000Y1305000D02*
X4275000D01*
X4198000Y1382000D01*
Y1639000D01*
X4164000Y1673000D01*
X4008000D01*
G01X4017000Y1925000D02*
Y1865000D01*
X4069000Y1813000D01*
X4413000D01*
G01X4398000Y4480000D02*
Y4280000D01*
X4512000Y4166000D01*
Y3472000D01*
G01X4117000Y5158000D02*
X4901000D01*
X4934000Y5191000D01*
G01X4338000Y5526000D02*
X5345000D01*
X5504000Y5367000D01*
Y2921000D01*
X5549000Y2876000D01*
Y1955000D01*
G01X4951000Y2458000D02*
X4609000D01*
G01X4700000Y4480000D02*
Y4248000D01*
X4745000Y4203000D01*
Y3226000D01*
G01X4856000Y3689000D02*
X5086000D01*
X5192000Y3583000D01*
Y2239000D01*
X5222000Y2209000D01*
X5361000D01*
G01X4711000Y5724000D02*
Y6929000D01*
G01X4519000Y5601000D02*
X5383000D01*
X5576000Y5408000D01*
Y2960000D01*
X5631000Y2905000D01*
Y2833000D01*
G01X4920000Y3571000D02*
X5066000D01*
X5121000Y3516000D01*
Y2784000D01*
G01X4978000Y5949000D02*
Y6915000D01*
G01X4886000Y5872000D02*
X5501000D01*
X5652000Y5721000D01*
Y3010000D01*
X5715000Y2947000D01*
Y2526000D01*
X5753000Y2488000D01*
X5913000D01*
G01X5148000Y6434500D02*
X5579500D01*
X5729000Y6285000D01*
Y3081300D01*
X5805300Y3005000D01*
X5806300D01*
X5815300Y2996000D01*
X5913000D01*
G01X5549000Y1955000D02*
X5632000D01*
X5704000Y1883000D01*
Y597000D01*
X5743000Y558000D01*
X5913000D01*
G01X5361000Y1955000D02*
X5549000D01*
G01X6910500Y5267500D02*
Y882500D01*
X6332000Y304000D01*
X5913000D01*
G01X6832000Y5917000D02*
Y1021000D01*
X6623000Y812000D01*
X5913000D01*
G01X6707520Y6098520D02*
X6750000Y6056040D01*
Y1187000D01*
X6629000Y1066000D01*
X5913000D01*
G01X6595000Y6307000D02*
Y1677000D01*
X6492000Y1574000D01*
X5913000D01*
G01X6678000Y5179000D02*
Y1455000D01*
X6543000Y1320000D01*
X5913000D01*
G01X6419000Y6623000D02*
X6454700Y6587300D01*
Y2187700D01*
X6349000Y2082000D01*
X5913000D01*
G01X6494850Y6743850D02*
X6526000Y6712700D01*
Y1995000D01*
X6359000Y1828000D01*
X5913000D01*
G01X6340000Y7067000D02*
Y3321000D01*
X6269000Y3250000D01*
X5913000D01*
X98000Y570000D03*
X280000Y503000D03*
X98000Y1229000D03*
Y899000D03*
Y1558000D03*
Y1888000D03*
Y2547000D03*
Y2217000D03*
Y2876000D03*
Y3535000D03*
Y3205000D03*
Y3864000D03*
Y4194000D03*
Y4852000D03*
Y4523000D03*
X286000Y5230000D03*
X98000Y5182000D03*
X286000Y5510000D03*
X98000Y5511000D03*
X284000Y5846000D03*
X98000Y6170000D03*
Y5841000D03*
Y6499000D03*
Y6829000D03*
Y7488000D03*
Y7158000D03*
X273000Y7566000D03*
X98000Y7817000D03*
X758000Y222000D03*
X504000Y297000D03*
X515000Y94000D03*
X753000Y711000D03*
X754000Y441000D03*
X746000Y1029000D03*
X805000Y1691000D03*
X765000Y1381000D03*
X756000Y1888000D03*
Y2547000D03*
Y2217000D03*
Y2876000D03*
Y3205000D03*
X764000Y5710000D03*
X524600Y6240000D03*
X756000Y6170000D03*
X688000Y6446000D03*
X426000Y6829000D03*
Y7488000D03*
Y7817000D03*
Y8146000D03*
X756000D03*
X854000Y94000D03*
X1195000D03*
X1081000Y1747000D03*
X950000Y2219000D03*
X909000Y3494000D03*
X1002000Y4200000D03*
X990000Y4837000D03*
X988000Y4470000D03*
X1098000Y5238000D03*
X888000Y5457000D03*
X1086000Y6807000D03*
X1085000Y7488000D03*
Y7817000D03*
Y8146000D03*
X1537000Y94000D03*
X1718000Y613000D03*
X1323000Y438000D03*
X1326000Y664000D03*
X1321000Y959000D03*
X1326000Y1233000D03*
X1467000Y1719000D03*
X1325000Y1419000D03*
X1380500Y1524500D03*
X1318000Y1970000D03*
X1674000Y1879000D03*
X1312000Y2219000D03*
X1398000Y2526000D03*
X1417000Y2969000D03*
X1457000Y3227000D03*
X1410000Y3386000D03*
X1413000Y3862000D03*
X1410000Y3627000D03*
X1413000Y4192000D03*
X1636000Y4361000D03*
X1413000Y4520000D03*
X1630000Y5011000D03*
X1413000Y6168000D03*
Y5839000D03*
X1410000Y6811000D03*
X1415000Y7488000D03*
Y7817000D03*
Y8146000D03*
X1981000Y285000D03*
X1744000Y241000D03*
X1874000Y94000D03*
X1930000Y638000D03*
X1797000Y686000D03*
X1729000Y1004000D03*
X1894000Y1694000D03*
X1742000Y1614000D03*
X2007500Y1861500D03*
X1989000Y2002000D03*
X1744000Y2217000D03*
X1743000Y2420000D03*
X1821000Y2965000D03*
X2014000Y2862000D03*
X1999000Y3310000D03*
X1856000Y3325000D03*
X1858000Y3581000D03*
X1744000Y4194000D03*
X2073000Y4852000D03*
X1863000Y5342000D03*
X1744000Y5841000D03*
Y6170000D03*
X2073000D03*
Y5841000D03*
X1972500Y6992500D03*
X1972000Y6715000D03*
X2073000Y6816000D03*
X1744000Y6813000D03*
X2150000Y7314000D03*
X2073000Y7817000D03*
X1744000Y8146000D03*
X2073000D03*
X2557000Y94000D03*
X2207000Y1205000D03*
X2509000Y1550000D03*
X2248000Y1365000D03*
X2597000Y2488000D03*
X2571000Y2205000D03*
X2218000Y2433000D03*
X2240000Y2867000D03*
X2514000Y2891000D03*
X2527000Y3293000D03*
X2212000Y3098000D03*
X2173000Y3358000D03*
X2175000Y3677000D03*
X2463000Y3681000D03*
X2411000Y4205000D03*
X2403000Y4852000D03*
X2616000Y5255000D03*
X2403000Y5182000D03*
X2448000Y5362000D03*
X2564000Y6549500D03*
X2266000Y6668000D03*
X2605000Y6959000D03*
X2616500Y6779500D03*
X2368000Y7422000D03*
X2403000Y7817000D03*
Y8146000D03*
X2899000Y94000D03*
X2846000Y355000D03*
X2986000Y652000D03*
X2828000Y568000D03*
X2734000Y1019000D03*
X2787000Y1217000D03*
X2804000Y1316000D03*
X2715000Y1534000D03*
X2940000Y2030000D03*
X2683350Y2172650D03*
X2859000Y2184000D03*
X3058000Y1888000D03*
X2941000Y2444000D03*
X2938500Y3045500D03*
X2972000Y2843000D03*
X2946000Y2705000D03*
X3066210Y3193000D03*
X2732000Y3205000D03*
X2964000Y3207000D03*
X2976000Y3681000D03*
X2732000Y4194000D03*
X3058000D03*
X2732000Y4852000D03*
X2839500Y4949500D03*
X2983000Y5061000D03*
X3005000Y5173000D03*
X2831000Y5082000D03*
X2976000Y5726000D03*
X2634000Y5845000D03*
X2639000Y6434500D03*
X2721000Y7112000D03*
X2732000Y7225000D03*
Y7817000D03*
X3058000D03*
X2732000Y8146000D03*
X3058000D03*
X3506000Y93000D03*
X3240000Y94000D03*
X3503000Y263000D03*
X3487000Y652000D03*
X3282000Y1306000D03*
X3377000Y1443000D03*
X3268000Y2058000D03*
X3372000Y2165000D03*
X3118000Y2443000D03*
X3456000Y2262000D03*
Y2537000D03*
X3146000Y2324000D03*
X3366000Y2463000D03*
X3248000Y2882000D03*
X3351000Y3054000D03*
X3085000Y2884000D03*
X3460000Y3238000D03*
X3230000Y3490000D03*
X3453000Y3789000D03*
X3398000Y3987000D03*
X3506000Y3577000D03*
X3244000Y3678000D03*
X3388000Y4852000D03*
Y5182000D03*
X3442500Y5627000D03*
X3521000Y5539000D03*
X3318000Y5540000D03*
X3500000Y6492000D03*
X3265000D03*
X3500000Y6697000D03*
Y6287000D03*
X3265000Y6697000D03*
Y6287000D03*
X3327000Y7296000D03*
X3337000Y7516000D03*
X3344000Y7805000D03*
X3345000Y8145000D03*
X3776000Y95000D03*
X3791000Y1102000D03*
X3586000Y1195000D03*
X3729000Y1678000D03*
X3885000Y1798000D03*
X3815000Y2003000D03*
X3568000Y2467000D03*
X3672000Y2330000D03*
X3810000Y2537000D03*
X3859000Y2779000D03*
X3551000Y3110000D03*
X3736000Y3368000D03*
X3760000Y3237000D03*
X3816000Y4145000D03*
X3717000Y4852000D03*
X3855500Y5676500D03*
X3735000Y6492000D03*
Y6697000D03*
Y6287000D03*
X3765000Y7354000D03*
X3641500Y7379500D03*
X3679000Y7523000D03*
X3687000Y7803000D03*
Y8145000D03*
X4096000Y90000D03*
X4266000Y53000D03*
X4095000Y670000D03*
X4007000Y1153000D03*
X4189000Y976000D03*
X4008000Y1673000D03*
X4006000Y1482000D03*
X4017000Y1925000D03*
X3987000Y1774000D03*
X4385000Y2165000D03*
X3978000Y2235000D03*
X4101000Y2253000D03*
X4043000Y3467000D03*
X4208000Y3462000D03*
X4392000Y3457000D03*
X4295000Y3916000D03*
X4215000Y3570000D03*
X4366000Y3689000D03*
X4049000Y3987000D03*
X4384000Y3980000D03*
X4270000Y4266000D03*
X4046000Y4852000D03*
X4117000Y5158000D03*
X4338000Y5526000D03*
X4050000Y5779000D03*
X4366000Y6089000D03*
X4372000Y6204000D03*
X4299000Y5976000D03*
X4257000Y7073000D03*
X4052000Y7213000D03*
X4129000Y7529000D03*
X4128000Y7803000D03*
Y8144000D03*
X4716000Y680000D03*
X4705000Y1229000D03*
Y1558000D03*
X4492000Y2407000D03*
X4766000Y2228000D03*
X4765000Y2553000D03*
X4609000Y2458000D03*
X4639000Y3460000D03*
X4638000Y3210000D03*
X4745000Y3226000D03*
X4512000Y3472000D03*
X4856000Y3689000D03*
X4674000Y3981000D03*
X4711000Y5724000D03*
X4519000Y5601000D03*
X4549000Y5730000D03*
X4444500Y5969500D03*
X4445000Y6331000D03*
X4791000D03*
X4711000Y6929000D03*
X4489000Y6964000D03*
X4847000D03*
X4851000Y7525000D03*
X4478000Y7527000D03*
X4485000Y7814000D03*
X4470000Y8144000D03*
X4705000Y8146000D03*
X4893000Y347000D03*
X4907000Y49000D03*
X5217000Y666000D03*
X5121000Y2784000D03*
X4951000Y2934000D03*
X4996000Y3147000D03*
X4920000Y3571000D03*
X5035000Y3864000D03*
Y4852000D03*
X4934000Y5191000D03*
X5141000Y4949000D03*
X5279000Y5061000D03*
X5035000Y5182000D03*
X5240000Y5362000D03*
X4898000Y5740000D03*
X4978000Y5949000D03*
X4886000Y5872000D03*
X5148000Y6434500D03*
X5063000Y6327000D03*
X4978000Y6915000D03*
X5065000Y7816000D03*
X5035000Y8146000D03*
X5707000Y237000D03*
X5364000Y1229000D03*
X5558000Y918000D03*
X5694000Y2217000D03*
X5631000Y2833000D03*
X5364000Y3864000D03*
Y4852000D03*
Y4523000D03*
X5377000Y5255000D03*
X5397000Y5140000D03*
X5357000Y5735000D03*
X5474000Y6322000D03*
X5674000Y6962000D03*
X5694000Y7486000D03*
X5364000Y7484000D03*
X5694000Y7815000D03*
X5364000Y7814000D03*
Y8146000D03*
X5694000D03*
X5972000Y94000D03*
X6195000Y3422000D03*
X6181000Y3705000D03*
X6098000Y4209000D03*
X6023000Y5182000D03*
Y5511000D03*
Y6196000D03*
Y5841000D03*
X6021000Y6483000D03*
X5863000Y7193000D03*
X6023000Y7814000D03*
Y8146000D03*
X6399000Y238000D03*
X6540000Y381000D03*
X6313000Y94000D03*
X6354000Y586000D03*
X6352000Y899000D03*
Y1229000D03*
X6350000Y1697000D03*
Y1461000D03*
X6347000Y1955000D03*
X6352000Y2547000D03*
Y2876000D03*
Y3205000D03*
X6595000Y6307000D03*
X6419000Y6623000D03*
X6494850Y6743850D03*
X6340000Y7067000D03*
X6352000Y7488000D03*
X6463000Y7936000D03*
X6352000Y8146000D03*
X6746000Y515000D03*
X6942000Y568000D03*
X6682000Y1229000D03*
X6910500Y5267500D03*
X6678000Y5179000D03*
X6682000Y5511000D03*
X6707520Y6098520D03*
X6683000Y6194000D03*
X6682000Y5841000D03*
X6832000Y5917000D03*
X6682000Y6499000D03*
Y6829000D03*
Y7488000D03*
Y7158000D03*
X6675000Y7755000D03*
G54D12*
X1087000Y304000D03*
Y558000D03*
Y812000D03*
Y1066000D03*
Y1320000D03*
X1086000Y2082000D03*
Y2336000D03*
Y2590000D03*
Y2844000D03*
Y3098000D03*
Y3352000D03*
Y3606000D03*
X1545000Y831000D03*
Y577000D03*
Y1339000D03*
Y1085000D03*
X1546000Y2082000D03*
Y2336000D03*
X4413000Y1305000D03*
Y1559000D03*
Y1813000D03*
X5361000Y2209000D03*
Y1955000D03*
Y2463000D03*
X5913000Y812000D03*
Y558000D03*
Y1320000D03*
Y1066000D03*
Y1574000D03*
Y2082000D03*
Y1828000D03*
Y2996000D03*
Y2742000D03*
Y3504000D03*
Y3250000D03*
Y4012000D03*
Y3758000D03*
Y4266000D03*
Y4774000D03*
Y4520000D03*
G54D13*
X1087000Y1574000D03*
X1086000Y3860000D03*
X1545000Y323000D03*
X1546000Y2590000D03*
X4413000Y1051000D03*
X5361000Y1701000D03*
X5913000Y304000D03*
Y2488000D03*
G54D14*
X974000Y5870000D03*
Y6124000D03*
X2324000Y3843000D03*
Y4097000D03*
X2266000Y4951000D03*
Y5205000D03*
X4398000Y4480000D03*
Y4734000D03*
X4700000Y4480000D03*
Y4734000D03*
G54D15*
X2912000Y4554000D03*
X3400000D03*
G54D16*
X3805000Y7500000D03*
Y7585000D03*
Y7670000D03*
Y7755000D03*
Y7840000D03*
Y7925000D03*
Y8011000D03*
Y8096000D03*
Y8182000D03*
X4000000Y7500000D03*
Y7585000D03*
Y7670000D03*
Y7755000D03*
Y7840000D03*
Y7926000D03*
Y8011000D03*
Y8097000D03*
Y8182000D03*
G54D17*
G01X3138000Y2165000D02*
X3057000D01*
X2829000Y2393000D01*
Y3224000D01*
X3095000Y3490000D01*
X3230000D01*
G01X3138000Y2165000D02*
X3372000D01*
G01D02*
X4385000D01*
G01X4951000Y2458000D02*
Y2396910D01*
X4866090Y2312000D01*
X4532000D01*
X4385000Y2165000D01*
G01X4951000Y2934000D02*
Y2458000D01*
G54D18*
G01X1086000Y2082000D02*
X1546000D01*
G01X1086000Y2482200D02*
Y2590000D01*
G01D02*
Y2697800D01*
G01X978200Y2590000D02*
X1086000D01*
G01D02*
X1193800D01*
G01X1086000Y2228200D02*
Y2336000D01*
G01D02*
Y2443800D01*
G01X978200Y2336000D02*
X1086000D01*
G01D02*
X1193800D01*
G01X1301000Y3227000D02*
Y3148000D01*
X1251000Y3098000D01*
X1086000D01*
G01Y2844000D02*
X1307000D01*
G01X1086000Y3606000D02*
X946000D01*
X896000Y3656000D01*
Y4506000D01*
X995000Y4605000D01*
X2155000D01*
X2266000Y4716000D01*
Y4951000D01*
G01X1301000Y3227000D02*
Y3555000D01*
X1250000Y3606000D01*
X1086000D01*
G01X1545000Y469200D02*
Y577000D01*
G01D02*
Y684800D01*
G01X1437200Y577000D02*
X1545000D01*
G01D02*
X1652800D01*
G01X1307000Y2844000D02*
Y2407000D01*
X1378000Y2336000D01*
X1546000D01*
G01X1307000Y2844000D02*
X1832000D01*
X1999000Y3011000D01*
Y3310000D01*
G01X1457000Y3227000D02*
X1301000D01*
G01X1630000Y5011000D02*
X2011000D01*
X2071000Y5071000D01*
Y5147000D01*
X2130000Y5206000D01*
X2265000D01*
X2266000Y5205000D01*
G01X2828000Y568000D02*
Y515300D01*
X2894300Y449000D01*
X4023000D01*
X4413000Y839000D01*
Y1051000D01*
G01X2787000Y1217000D02*
X3088000D01*
X3138000Y1267000D01*
Y2165000D01*
G01X4413000Y1451200D02*
Y1559000D01*
G01D02*
Y1666800D01*
G01X4305200Y1559000D02*
X4413000D01*
G01D02*
X4520800D01*
G01X5913000Y3904200D02*
Y4012000D01*
G01D02*
Y4119800D01*
G01X5805200Y4012000D02*
X5913000D01*
G01D02*
X6020800D01*
G54D19*
G01X0Y8250000D02*
Y0D01*
X7000000D01*
Y8250000D01*
X0D01*
M02*
